G04 #@! TF.FileFunction,Legend,Top*
%FSLAX46Y46*%
G04 Gerber Fmt 4.6, Leading zero omitted, Abs format (unit mm)*
G04 Created by KiCad (PCBNEW 4.0.6) date 04/11/17 13:58:44*
%MOMM*%
%LPD*%
G01*
G04 APERTURE LIST*
%ADD10C,0.100000*%
%ADD11C,0.250000*%
%ADD12C,0.200000*%
%ADD13C,0.300000*%
%ADD14C,0.120000*%
%ADD15C,0.150000*%
G04 APERTURE END LIST*
D10*
D11*
X135890000Y-52705000D02*
X137160000Y-52070000D01*
X137160000Y-53340000D02*
X135890000Y-52705000D01*
X144780000Y-52705000D02*
X143510000Y-53340000D01*
X143510000Y-52070000D02*
X144780000Y-52705000D01*
X137160000Y-52070000D02*
X137160000Y-53340000D01*
X143510000Y-52070000D02*
X143510000Y-53340000D01*
D12*
X137294762Y-50547619D02*
X137104286Y-50547619D01*
X137009047Y-50595238D01*
X136961428Y-50642857D01*
X136866190Y-50785714D01*
X136818571Y-50976190D01*
X136818571Y-51357143D01*
X136866190Y-51452381D01*
X136913809Y-51500000D01*
X137009047Y-51547619D01*
X137199524Y-51547619D01*
X137294762Y-51500000D01*
X137342381Y-51452381D01*
X137390000Y-51357143D01*
X137390000Y-51119048D01*
X137342381Y-51023810D01*
X137294762Y-50976190D01*
X137199524Y-50928571D01*
X137009047Y-50928571D01*
X136913809Y-50976190D01*
X136866190Y-51023810D01*
X136818571Y-51119048D01*
X136390000Y-50642857D02*
X136342381Y-50595238D01*
X136390000Y-50547619D01*
X136437619Y-50595238D01*
X136390000Y-50642857D01*
X136390000Y-50547619D01*
X135485238Y-51547619D02*
X135675715Y-51547619D01*
X135770953Y-51500000D01*
X135818572Y-51452381D01*
X135913810Y-51309524D01*
X135961429Y-51119048D01*
X135961429Y-50738095D01*
X135913810Y-50642857D01*
X135866191Y-50595238D01*
X135770953Y-50547619D01*
X135580476Y-50547619D01*
X135485238Y-50595238D01*
X135437619Y-50642857D01*
X135390000Y-50738095D01*
X135390000Y-50976190D01*
X135437619Y-51071429D01*
X135485238Y-51119048D01*
X135580476Y-51166667D01*
X135770953Y-51166667D01*
X135866191Y-51119048D01*
X135913810Y-51071429D01*
X135961429Y-50976190D01*
X134961429Y-50547619D02*
X134961429Y-51547619D01*
X134390000Y-50547619D02*
X134818572Y-51119048D01*
X134390000Y-51547619D02*
X134961429Y-50976190D01*
X145708571Y-50547619D02*
X146280000Y-50547619D01*
X145994286Y-50547619D02*
X145994286Y-51547619D01*
X146089524Y-51404762D01*
X146184762Y-51309524D01*
X146280000Y-51261905D01*
X145280000Y-50642857D02*
X145232381Y-50595238D01*
X145280000Y-50547619D01*
X145327619Y-50595238D01*
X145280000Y-50642857D01*
X145280000Y-50547619D01*
X144851429Y-51452381D02*
X144803810Y-51500000D01*
X144708572Y-51547619D01*
X144470476Y-51547619D01*
X144375238Y-51500000D01*
X144327619Y-51452381D01*
X144280000Y-51357143D01*
X144280000Y-51261905D01*
X144327619Y-51119048D01*
X144899048Y-50547619D01*
X144280000Y-50547619D01*
X143851429Y-50547619D02*
X143851429Y-51547619D01*
X143280000Y-50547619D02*
X143708572Y-51119048D01*
X143280000Y-51547619D02*
X143851429Y-50976190D01*
D11*
X135820476Y-63519285D02*
X135820476Y-64233571D01*
X135820476Y-63876428D02*
X134570476Y-63876428D01*
X134749048Y-63995476D01*
X134868095Y-64114523D01*
X134927619Y-64233571D01*
X134689524Y-63043095D02*
X134630000Y-62983571D01*
X134570476Y-62864523D01*
X134570476Y-62566904D01*
X134630000Y-62447857D01*
X134689524Y-62388333D01*
X134808571Y-62328809D01*
X134927619Y-62328809D01*
X135106190Y-62388333D01*
X135820476Y-63102619D01*
X135820476Y-62328809D01*
X134570476Y-61555000D02*
X134570476Y-61435952D01*
X134630000Y-61316904D01*
X134689524Y-61257381D01*
X134808571Y-61197857D01*
X135046667Y-61138333D01*
X135344286Y-61138333D01*
X135582381Y-61197857D01*
X135701429Y-61257381D01*
X135760952Y-61316904D01*
X135820476Y-61435952D01*
X135820476Y-61555000D01*
X135760952Y-61674047D01*
X135701429Y-61733571D01*
X135582381Y-61793095D01*
X135344286Y-61852619D01*
X135046667Y-61852619D01*
X134808571Y-61793095D01*
X134689524Y-61733571D01*
X134630000Y-61674047D01*
X134570476Y-61555000D01*
X134570476Y-60364524D02*
X134570476Y-60245476D01*
X134630000Y-60126428D01*
X134689524Y-60066905D01*
X134808571Y-60007381D01*
X135046667Y-59947857D01*
X135344286Y-59947857D01*
X135582381Y-60007381D01*
X135701429Y-60066905D01*
X135760952Y-60126428D01*
X135820476Y-60245476D01*
X135820476Y-60364524D01*
X135760952Y-60483571D01*
X135701429Y-60543095D01*
X135582381Y-60602619D01*
X135344286Y-60662143D01*
X135046667Y-60662143D01*
X134808571Y-60602619D01*
X134689524Y-60543095D01*
X134630000Y-60483571D01*
X134570476Y-60364524D01*
X134510952Y-58519286D02*
X136118095Y-59590714D01*
X135820476Y-58043095D02*
X135820476Y-57805000D01*
X135760952Y-57685952D01*
X135701429Y-57626428D01*
X135522857Y-57507381D01*
X135284762Y-57447857D01*
X134808571Y-57447857D01*
X134689524Y-57507381D01*
X134630000Y-57566905D01*
X134570476Y-57685952D01*
X134570476Y-57924048D01*
X134630000Y-58043095D01*
X134689524Y-58102619D01*
X134808571Y-58162143D01*
X135106190Y-58162143D01*
X135225238Y-58102619D01*
X135284762Y-58043095D01*
X135344286Y-57924048D01*
X135344286Y-57685952D01*
X135284762Y-57566905D01*
X135225238Y-57507381D01*
X135106190Y-57447857D01*
X134570476Y-56376429D02*
X134570476Y-56614524D01*
X134630000Y-56733572D01*
X134689524Y-56793095D01*
X134868095Y-56912143D01*
X135106190Y-56971667D01*
X135582381Y-56971667D01*
X135701429Y-56912143D01*
X135760952Y-56852619D01*
X135820476Y-56733572D01*
X135820476Y-56495476D01*
X135760952Y-56376429D01*
X135701429Y-56316905D01*
X135582381Y-56257381D01*
X135284762Y-56257381D01*
X135165714Y-56316905D01*
X135106190Y-56376429D01*
X135046667Y-56495476D01*
X135046667Y-56733572D01*
X135106190Y-56852619D01*
X135165714Y-56912143D01*
X135284762Y-56971667D01*
X134570476Y-55483572D02*
X134570476Y-55364524D01*
X134630000Y-55245476D01*
X134689524Y-55185953D01*
X134808571Y-55126429D01*
X135046667Y-55066905D01*
X135344286Y-55066905D01*
X135582381Y-55126429D01*
X135701429Y-55185953D01*
X135760952Y-55245476D01*
X135820476Y-55364524D01*
X135820476Y-55483572D01*
X135760952Y-55602619D01*
X135701429Y-55662143D01*
X135582381Y-55721667D01*
X135344286Y-55781191D01*
X135046667Y-55781191D01*
X134808571Y-55721667D01*
X134689524Y-55662143D01*
X134630000Y-55602619D01*
X134570476Y-55483572D01*
X134570476Y-54293096D02*
X134570476Y-54174048D01*
X134630000Y-54055000D01*
X134689524Y-53995477D01*
X134808571Y-53935953D01*
X135046667Y-53876429D01*
X135344286Y-53876429D01*
X135582381Y-53935953D01*
X135701429Y-53995477D01*
X135760952Y-54055000D01*
X135820476Y-54174048D01*
X135820476Y-54293096D01*
X135760952Y-54412143D01*
X135701429Y-54471667D01*
X135582381Y-54531191D01*
X135344286Y-54590715D01*
X135046667Y-54590715D01*
X134808571Y-54531191D01*
X134689524Y-54471667D01*
X134630000Y-54412143D01*
X134570476Y-54293096D01*
X123140476Y-61028810D02*
X123140476Y-60314525D01*
X124390476Y-60671668D02*
X123140476Y-60671668D01*
X124390476Y-59897858D02*
X123557143Y-59897858D01*
X123795238Y-59897858D02*
X123676190Y-59838334D01*
X123616667Y-59778810D01*
X123557143Y-59659763D01*
X123557143Y-59540715D01*
X124390476Y-58588334D02*
X123735714Y-58588334D01*
X123616667Y-58647857D01*
X123557143Y-58766905D01*
X123557143Y-59005000D01*
X123616667Y-59124048D01*
X124330952Y-58588334D02*
X124390476Y-58707381D01*
X124390476Y-59005000D01*
X124330952Y-59124048D01*
X124211905Y-59183572D01*
X124092857Y-59183572D01*
X123973810Y-59124048D01*
X123914286Y-59005000D01*
X123914286Y-58707381D01*
X123854762Y-58588334D01*
X123557143Y-57993096D02*
X124390476Y-57993096D01*
X123676190Y-57993096D02*
X123616667Y-57933572D01*
X123557143Y-57814525D01*
X123557143Y-57635953D01*
X123616667Y-57516905D01*
X123735714Y-57457382D01*
X124390476Y-57457382D01*
X124330952Y-56921668D02*
X124390476Y-56802620D01*
X124390476Y-56564525D01*
X124330952Y-56445477D01*
X124211905Y-56385953D01*
X124152381Y-56385953D01*
X124033333Y-56445477D01*
X123973810Y-56564525D01*
X123973810Y-56743096D01*
X123914286Y-56862144D01*
X123795238Y-56921668D01*
X123735714Y-56921668D01*
X123616667Y-56862144D01*
X123557143Y-56743096D01*
X123557143Y-56564525D01*
X123616667Y-56445477D01*
X124330952Y-55314525D02*
X124390476Y-55433572D01*
X124390476Y-55671668D01*
X124330952Y-55790715D01*
X124271429Y-55850239D01*
X124152381Y-55909763D01*
X123795238Y-55909763D01*
X123676190Y-55850239D01*
X123616667Y-55790715D01*
X123557143Y-55671668D01*
X123557143Y-55433572D01*
X123616667Y-55314525D01*
X124330952Y-54302619D02*
X124390476Y-54421667D01*
X124390476Y-54659762D01*
X124330952Y-54778810D01*
X124211905Y-54838334D01*
X123735714Y-54838334D01*
X123616667Y-54778810D01*
X123557143Y-54659762D01*
X123557143Y-54421667D01*
X123616667Y-54302619D01*
X123735714Y-54243096D01*
X123854762Y-54243096D01*
X123973810Y-54838334D01*
X124390476Y-53707381D02*
X123557143Y-53707381D01*
X123140476Y-53707381D02*
X123200000Y-53766905D01*
X123259524Y-53707381D01*
X123200000Y-53647857D01*
X123140476Y-53707381D01*
X123259524Y-53707381D01*
X123557143Y-53231191D02*
X124390476Y-52933572D01*
X123557143Y-52635952D01*
X124330952Y-51683571D02*
X124390476Y-51802619D01*
X124390476Y-52040714D01*
X124330952Y-52159762D01*
X124211905Y-52219286D01*
X123735714Y-52219286D01*
X123616667Y-52159762D01*
X123557143Y-52040714D01*
X123557143Y-51802619D01*
X123616667Y-51683571D01*
X123735714Y-51624048D01*
X123854762Y-51624048D01*
X123973810Y-52219286D01*
X124390476Y-51088333D02*
X123557143Y-51088333D01*
X123795238Y-51088333D02*
X123676190Y-51028809D01*
X123616667Y-50969285D01*
X123557143Y-50850238D01*
X123557143Y-50731190D01*
X103709476Y-63314810D02*
X103709476Y-62600525D01*
X104959476Y-62957668D02*
X103709476Y-62957668D01*
X104959476Y-62183858D02*
X104126143Y-62183858D01*
X104364238Y-62183858D02*
X104245190Y-62124334D01*
X104185667Y-62064810D01*
X104126143Y-61945763D01*
X104126143Y-61826715D01*
X104959476Y-60874334D02*
X104304714Y-60874334D01*
X104185667Y-60933857D01*
X104126143Y-61052905D01*
X104126143Y-61291000D01*
X104185667Y-61410048D01*
X104899952Y-60874334D02*
X104959476Y-60993381D01*
X104959476Y-61291000D01*
X104899952Y-61410048D01*
X104780905Y-61469572D01*
X104661857Y-61469572D01*
X104542810Y-61410048D01*
X104483286Y-61291000D01*
X104483286Y-60993381D01*
X104423762Y-60874334D01*
X104126143Y-60279096D02*
X104959476Y-60279096D01*
X104245190Y-60279096D02*
X104185667Y-60219572D01*
X104126143Y-60100525D01*
X104126143Y-59921953D01*
X104185667Y-59802905D01*
X104304714Y-59743382D01*
X104959476Y-59743382D01*
X104899952Y-59207668D02*
X104959476Y-59088620D01*
X104959476Y-58850525D01*
X104899952Y-58731477D01*
X104780905Y-58671953D01*
X104721381Y-58671953D01*
X104602333Y-58731477D01*
X104542810Y-58850525D01*
X104542810Y-59029096D01*
X104483286Y-59148144D01*
X104364238Y-59207668D01*
X104304714Y-59207668D01*
X104185667Y-59148144D01*
X104126143Y-59029096D01*
X104126143Y-58850525D01*
X104185667Y-58731477D01*
X104899952Y-57600525D02*
X104959476Y-57719572D01*
X104959476Y-57957668D01*
X104899952Y-58076715D01*
X104840429Y-58136239D01*
X104721381Y-58195763D01*
X104364238Y-58195763D01*
X104245190Y-58136239D01*
X104185667Y-58076715D01*
X104126143Y-57957668D01*
X104126143Y-57719572D01*
X104185667Y-57600525D01*
X104899952Y-56588619D02*
X104959476Y-56707667D01*
X104959476Y-56945762D01*
X104899952Y-57064810D01*
X104780905Y-57124334D01*
X104304714Y-57124334D01*
X104185667Y-57064810D01*
X104126143Y-56945762D01*
X104126143Y-56707667D01*
X104185667Y-56588619D01*
X104304714Y-56529096D01*
X104423762Y-56529096D01*
X104542810Y-57124334D01*
X104959476Y-55993381D02*
X104126143Y-55993381D01*
X103709476Y-55993381D02*
X103769000Y-56052905D01*
X103828524Y-55993381D01*
X103769000Y-55933857D01*
X103709476Y-55993381D01*
X103828524Y-55993381D01*
X104126143Y-55517191D02*
X104959476Y-55219572D01*
X104126143Y-54921952D01*
X104899952Y-53969571D02*
X104959476Y-54088619D01*
X104959476Y-54326714D01*
X104899952Y-54445762D01*
X104780905Y-54505286D01*
X104304714Y-54505286D01*
X104185667Y-54445762D01*
X104126143Y-54326714D01*
X104126143Y-54088619D01*
X104185667Y-53969571D01*
X104304714Y-53910048D01*
X104423762Y-53910048D01*
X104542810Y-54505286D01*
X104959476Y-53374333D02*
X104126143Y-53374333D01*
X104364238Y-53374333D02*
X104245190Y-53314809D01*
X104185667Y-53255285D01*
X104126143Y-53136238D01*
X104126143Y-53017190D01*
D12*
X114352381Y-99047619D02*
X113352381Y-99047619D01*
X113352381Y-98666666D01*
X113400000Y-98571428D01*
X113447619Y-98523809D01*
X113542857Y-98476190D01*
X113685714Y-98476190D01*
X113780952Y-98523809D01*
X113828571Y-98571428D01*
X113876190Y-98666666D01*
X113876190Y-99047619D01*
X114352381Y-98047619D02*
X113352381Y-98047619D01*
X114352381Y-97619047D02*
X113828571Y-97619047D01*
X113733333Y-97666666D01*
X113685714Y-97761904D01*
X113685714Y-97904762D01*
X113733333Y-98000000D01*
X113780952Y-98047619D01*
X114352381Y-97000000D02*
X114304762Y-97095238D01*
X114257143Y-97142857D01*
X114161905Y-97190476D01*
X113876190Y-97190476D01*
X113780952Y-97142857D01*
X113733333Y-97095238D01*
X113685714Y-97000000D01*
X113685714Y-96857142D01*
X113733333Y-96761904D01*
X113780952Y-96714285D01*
X113876190Y-96666666D01*
X114161905Y-96666666D01*
X114257143Y-96714285D01*
X114304762Y-96761904D01*
X114352381Y-96857142D01*
X114352381Y-97000000D01*
X113685714Y-96238095D02*
X114352381Y-96238095D01*
X113780952Y-96238095D02*
X113733333Y-96190476D01*
X113685714Y-96095238D01*
X113685714Y-95952380D01*
X113733333Y-95857142D01*
X113828571Y-95809523D01*
X114352381Y-95809523D01*
X114304762Y-94952380D02*
X114352381Y-95047618D01*
X114352381Y-95238095D01*
X114304762Y-95333333D01*
X114209524Y-95380952D01*
X113828571Y-95380952D01*
X113733333Y-95333333D01*
X113685714Y-95238095D01*
X113685714Y-95047618D01*
X113733333Y-94952380D01*
X113828571Y-94904761D01*
X113923810Y-94904761D01*
X114019048Y-95380952D01*
D13*
X116678572Y-71153571D02*
X116678572Y-69653571D01*
X117250000Y-69653571D01*
X117392858Y-69725000D01*
X117464286Y-69796429D01*
X117535715Y-69939286D01*
X117535715Y-70153571D01*
X117464286Y-70296429D01*
X117392858Y-70367857D01*
X117250000Y-70439286D01*
X116678572Y-70439286D01*
X118178572Y-71153571D02*
X118178572Y-69653571D01*
X118821429Y-71153571D02*
X118821429Y-70367857D01*
X118750000Y-70225000D01*
X118607143Y-70153571D01*
X118392858Y-70153571D01*
X118250000Y-70225000D01*
X118178572Y-70296429D01*
X119750001Y-71153571D02*
X119607143Y-71082143D01*
X119535715Y-71010714D01*
X119464286Y-70867857D01*
X119464286Y-70439286D01*
X119535715Y-70296429D01*
X119607143Y-70225000D01*
X119750001Y-70153571D01*
X119964286Y-70153571D01*
X120107143Y-70225000D01*
X120178572Y-70296429D01*
X120250001Y-70439286D01*
X120250001Y-70867857D01*
X120178572Y-71010714D01*
X120107143Y-71082143D01*
X119964286Y-71153571D01*
X119750001Y-71153571D01*
X120892858Y-70153571D02*
X120892858Y-71153571D01*
X120892858Y-70296429D02*
X120964286Y-70225000D01*
X121107144Y-70153571D01*
X121321429Y-70153571D01*
X121464286Y-70225000D01*
X121535715Y-70367857D01*
X121535715Y-71153571D01*
X122821429Y-71082143D02*
X122678572Y-71153571D01*
X122392858Y-71153571D01*
X122250001Y-71082143D01*
X122178572Y-70939286D01*
X122178572Y-70367857D01*
X122250001Y-70225000D01*
X122392858Y-70153571D01*
X122678572Y-70153571D01*
X122821429Y-70225000D01*
X122892858Y-70367857D01*
X122892858Y-70510714D01*
X122178572Y-70653571D01*
X123535715Y-70582143D02*
X124678572Y-70582143D01*
X125178572Y-69653571D02*
X126035715Y-69653571D01*
X125607144Y-71153571D02*
X125607144Y-69653571D01*
X126535715Y-71153571D02*
X126535715Y-70153571D01*
X126535715Y-70439286D02*
X126607143Y-70296429D01*
X126678572Y-70225000D01*
X126821429Y-70153571D01*
X126964286Y-70153571D01*
X128107143Y-71153571D02*
X128107143Y-70367857D01*
X128035714Y-70225000D01*
X127892857Y-70153571D01*
X127607143Y-70153571D01*
X127464286Y-70225000D01*
X128107143Y-71082143D02*
X127964286Y-71153571D01*
X127607143Y-71153571D01*
X127464286Y-71082143D01*
X127392857Y-70939286D01*
X127392857Y-70796429D01*
X127464286Y-70653571D01*
X127607143Y-70582143D01*
X127964286Y-70582143D01*
X128107143Y-70510714D01*
X128821429Y-70153571D02*
X128821429Y-71153571D01*
X128821429Y-70296429D02*
X128892857Y-70225000D01*
X129035715Y-70153571D01*
X129250000Y-70153571D01*
X129392857Y-70225000D01*
X129464286Y-70367857D01*
X129464286Y-71153571D01*
X130107143Y-71082143D02*
X130250000Y-71153571D01*
X130535715Y-71153571D01*
X130678572Y-71082143D01*
X130750000Y-70939286D01*
X130750000Y-70867857D01*
X130678572Y-70725000D01*
X130535715Y-70653571D01*
X130321429Y-70653571D01*
X130178572Y-70582143D01*
X130107143Y-70439286D01*
X130107143Y-70367857D01*
X130178572Y-70225000D01*
X130321429Y-70153571D01*
X130535715Y-70153571D01*
X130678572Y-70225000D01*
X132035715Y-71082143D02*
X131892858Y-71153571D01*
X131607144Y-71153571D01*
X131464286Y-71082143D01*
X131392858Y-71010714D01*
X131321429Y-70867857D01*
X131321429Y-70439286D01*
X131392858Y-70296429D01*
X131464286Y-70225000D01*
X131607144Y-70153571D01*
X131892858Y-70153571D01*
X132035715Y-70225000D01*
X133250000Y-71082143D02*
X133107143Y-71153571D01*
X132821429Y-71153571D01*
X132678572Y-71082143D01*
X132607143Y-70939286D01*
X132607143Y-70367857D01*
X132678572Y-70225000D01*
X132821429Y-70153571D01*
X133107143Y-70153571D01*
X133250000Y-70225000D01*
X133321429Y-70367857D01*
X133321429Y-70510714D01*
X132607143Y-70653571D01*
X133964286Y-71153571D02*
X133964286Y-70153571D01*
X133964286Y-69653571D02*
X133892857Y-69725000D01*
X133964286Y-69796429D01*
X134035714Y-69725000D01*
X133964286Y-69653571D01*
X133964286Y-69796429D01*
X134535715Y-70153571D02*
X134892858Y-71153571D01*
X135250000Y-70153571D01*
X136392857Y-71082143D02*
X136250000Y-71153571D01*
X135964286Y-71153571D01*
X135821429Y-71082143D01*
X135750000Y-70939286D01*
X135750000Y-70367857D01*
X135821429Y-70225000D01*
X135964286Y-70153571D01*
X136250000Y-70153571D01*
X136392857Y-70225000D01*
X136464286Y-70367857D01*
X136464286Y-70510714D01*
X135750000Y-70653571D01*
X137107143Y-71153571D02*
X137107143Y-70153571D01*
X137107143Y-70439286D02*
X137178571Y-70296429D01*
X137250000Y-70225000D01*
X137392857Y-70153571D01*
X137535714Y-70153571D01*
X119000001Y-73275000D02*
X119714287Y-73275000D01*
X118857144Y-73703571D02*
X119357144Y-72203571D01*
X119857144Y-73703571D01*
X120857144Y-72917857D02*
X120357144Y-72917857D01*
X120357144Y-73703571D02*
X120357144Y-72203571D01*
X121071430Y-72203571D01*
X121571429Y-73632143D02*
X121785715Y-73703571D01*
X122142858Y-73703571D01*
X122285715Y-73632143D01*
X122357144Y-73560714D01*
X122428572Y-73417857D01*
X122428572Y-73275000D01*
X122357144Y-73132143D01*
X122285715Y-73060714D01*
X122142858Y-72989286D01*
X121857144Y-72917857D01*
X121714286Y-72846429D01*
X121642858Y-72775000D01*
X121571429Y-72632143D01*
X121571429Y-72489286D01*
X121642858Y-72346429D01*
X121714286Y-72275000D01*
X121857144Y-72203571D01*
X122214286Y-72203571D01*
X122428572Y-72275000D01*
X123071429Y-73703571D02*
X123071429Y-72203571D01*
X123928572Y-73703571D02*
X123285715Y-72846429D01*
X123928572Y-72203571D02*
X123071429Y-73060714D01*
X125714286Y-73703571D02*
X125714286Y-72203571D01*
X126428572Y-72703571D02*
X126428572Y-73703571D01*
X126428572Y-72846429D02*
X126500000Y-72775000D01*
X126642858Y-72703571D01*
X126857143Y-72703571D01*
X127000000Y-72775000D01*
X127071429Y-72917857D01*
X127071429Y-73703571D01*
X127571429Y-72703571D02*
X128142858Y-72703571D01*
X127785715Y-72203571D02*
X127785715Y-73489286D01*
X127857143Y-73632143D01*
X128000001Y-73703571D01*
X128142858Y-73703571D01*
X129214286Y-73632143D02*
X129071429Y-73703571D01*
X128785715Y-73703571D01*
X128642858Y-73632143D01*
X128571429Y-73489286D01*
X128571429Y-72917857D01*
X128642858Y-72775000D01*
X128785715Y-72703571D01*
X129071429Y-72703571D01*
X129214286Y-72775000D01*
X129285715Y-72917857D01*
X129285715Y-73060714D01*
X128571429Y-73203571D01*
X129928572Y-73703571D02*
X129928572Y-72703571D01*
X129928572Y-72989286D02*
X130000000Y-72846429D01*
X130071429Y-72775000D01*
X130214286Y-72703571D01*
X130357143Y-72703571D01*
X130642857Y-72703571D02*
X131214286Y-72703571D01*
X130857143Y-73703571D02*
X130857143Y-72417857D01*
X130928571Y-72275000D01*
X131071429Y-72203571D01*
X131214286Y-72203571D01*
X132357143Y-73703571D02*
X132357143Y-72917857D01*
X132285714Y-72775000D01*
X132142857Y-72703571D01*
X131857143Y-72703571D01*
X131714286Y-72775000D01*
X132357143Y-73632143D02*
X132214286Y-73703571D01*
X131857143Y-73703571D01*
X131714286Y-73632143D01*
X131642857Y-73489286D01*
X131642857Y-73346429D01*
X131714286Y-73203571D01*
X131857143Y-73132143D01*
X132214286Y-73132143D01*
X132357143Y-73060714D01*
X133714286Y-73632143D02*
X133571429Y-73703571D01*
X133285715Y-73703571D01*
X133142857Y-73632143D01*
X133071429Y-73560714D01*
X133000000Y-73417857D01*
X133000000Y-72989286D01*
X133071429Y-72846429D01*
X133142857Y-72775000D01*
X133285715Y-72703571D01*
X133571429Y-72703571D01*
X133714286Y-72775000D01*
X134928571Y-73632143D02*
X134785714Y-73703571D01*
X134500000Y-73703571D01*
X134357143Y-73632143D01*
X134285714Y-73489286D01*
X134285714Y-72917857D01*
X134357143Y-72775000D01*
X134500000Y-72703571D01*
X134785714Y-72703571D01*
X134928571Y-72775000D01*
X135000000Y-72917857D01*
X135000000Y-73060714D01*
X134285714Y-73203571D01*
X124607143Y-75467857D02*
X124821429Y-75539286D01*
X124892857Y-75610714D01*
X124964286Y-75753571D01*
X124964286Y-75967857D01*
X124892857Y-76110714D01*
X124821429Y-76182143D01*
X124678571Y-76253571D01*
X124107143Y-76253571D01*
X124107143Y-74753571D01*
X124607143Y-74753571D01*
X124750000Y-74825000D01*
X124821429Y-74896429D01*
X124892857Y-75039286D01*
X124892857Y-75182143D01*
X124821429Y-75325000D01*
X124750000Y-75396429D01*
X124607143Y-75467857D01*
X124107143Y-75467857D01*
X125821429Y-76253571D02*
X125678571Y-76182143D01*
X125607143Y-76110714D01*
X125535714Y-75967857D01*
X125535714Y-75539286D01*
X125607143Y-75396429D01*
X125678571Y-75325000D01*
X125821429Y-75253571D01*
X126035714Y-75253571D01*
X126178571Y-75325000D01*
X126250000Y-75396429D01*
X126321429Y-75539286D01*
X126321429Y-75967857D01*
X126250000Y-76110714D01*
X126178571Y-76182143D01*
X126035714Y-76253571D01*
X125821429Y-76253571D01*
X127607143Y-76253571D02*
X127607143Y-75467857D01*
X127535714Y-75325000D01*
X127392857Y-75253571D01*
X127107143Y-75253571D01*
X126964286Y-75325000D01*
X127607143Y-76182143D02*
X127464286Y-76253571D01*
X127107143Y-76253571D01*
X126964286Y-76182143D01*
X126892857Y-76039286D01*
X126892857Y-75896429D01*
X126964286Y-75753571D01*
X127107143Y-75682143D01*
X127464286Y-75682143D01*
X127607143Y-75610714D01*
X128321429Y-76253571D02*
X128321429Y-75253571D01*
X128321429Y-75539286D02*
X128392857Y-75396429D01*
X128464286Y-75325000D01*
X128607143Y-75253571D01*
X128750000Y-75253571D01*
X129892857Y-76253571D02*
X129892857Y-74753571D01*
X129892857Y-76182143D02*
X129750000Y-76253571D01*
X129464286Y-76253571D01*
X129321428Y-76182143D01*
X129250000Y-76110714D01*
X129178571Y-75967857D01*
X129178571Y-75539286D01*
X129250000Y-75396429D01*
X129321428Y-75325000D01*
X129464286Y-75253571D01*
X129750000Y-75253571D01*
X129892857Y-75325000D01*
D12*
X128611381Y-98797714D02*
X128611381Y-98226285D01*
X129611381Y-98512000D02*
X128611381Y-98512000D01*
X128611381Y-97988190D02*
X129611381Y-97321523D01*
X128611381Y-97321523D02*
X129611381Y-97988190D01*
X128659000Y-95654856D02*
X128611381Y-95750094D01*
X128611381Y-95892951D01*
X128659000Y-96035809D01*
X128754238Y-96131047D01*
X128849476Y-96178666D01*
X129039952Y-96226285D01*
X129182810Y-96226285D01*
X129373286Y-96178666D01*
X129468524Y-96131047D01*
X129563762Y-96035809D01*
X129611381Y-95892951D01*
X129611381Y-95797713D01*
X129563762Y-95654856D01*
X129516143Y-95607237D01*
X129182810Y-95607237D01*
X129182810Y-95797713D01*
X129611381Y-94750094D02*
X129087571Y-94750094D01*
X128992333Y-94797713D01*
X128944714Y-94892951D01*
X128944714Y-95083428D01*
X128992333Y-95178666D01*
X129563762Y-94750094D02*
X129611381Y-94845332D01*
X129611381Y-95083428D01*
X129563762Y-95178666D01*
X129468524Y-95226285D01*
X129373286Y-95226285D01*
X129278048Y-95178666D01*
X129230429Y-95083428D01*
X129230429Y-94845332D01*
X129182810Y-94750094D01*
X129611381Y-94273904D02*
X128944714Y-94273904D01*
X128611381Y-94273904D02*
X128659000Y-94321523D01*
X128706619Y-94273904D01*
X128659000Y-94226285D01*
X128611381Y-94273904D01*
X128706619Y-94273904D01*
X128944714Y-93797714D02*
X129611381Y-93797714D01*
X129039952Y-93797714D02*
X128992333Y-93750095D01*
X128944714Y-93654857D01*
X128944714Y-93511999D01*
X128992333Y-93416761D01*
X129087571Y-93369142D01*
X129611381Y-93369142D01*
X145740381Y-98202476D02*
X145264190Y-98535810D01*
X145740381Y-98773905D02*
X144740381Y-98773905D01*
X144740381Y-98392952D01*
X144788000Y-98297714D01*
X144835619Y-98250095D01*
X144930857Y-98202476D01*
X145073714Y-98202476D01*
X145168952Y-98250095D01*
X145216571Y-98297714D01*
X145264190Y-98392952D01*
X145264190Y-98773905D01*
X144740381Y-97869143D02*
X145740381Y-97202476D01*
X144740381Y-97202476D02*
X145740381Y-97869143D01*
X144788000Y-95535809D02*
X144740381Y-95631047D01*
X144740381Y-95773904D01*
X144788000Y-95916762D01*
X144883238Y-96012000D01*
X144978476Y-96059619D01*
X145168952Y-96107238D01*
X145311810Y-96107238D01*
X145502286Y-96059619D01*
X145597524Y-96012000D01*
X145692762Y-95916762D01*
X145740381Y-95773904D01*
X145740381Y-95678666D01*
X145692762Y-95535809D01*
X145645143Y-95488190D01*
X145311810Y-95488190D01*
X145311810Y-95678666D01*
X145740381Y-94631047D02*
X145216571Y-94631047D01*
X145121333Y-94678666D01*
X145073714Y-94773904D01*
X145073714Y-94964381D01*
X145121333Y-95059619D01*
X145692762Y-94631047D02*
X145740381Y-94726285D01*
X145740381Y-94964381D01*
X145692762Y-95059619D01*
X145597524Y-95107238D01*
X145502286Y-95107238D01*
X145407048Y-95059619D01*
X145359429Y-94964381D01*
X145359429Y-94726285D01*
X145311810Y-94631047D01*
X145740381Y-94154857D02*
X145073714Y-94154857D01*
X144740381Y-94154857D02*
X144788000Y-94202476D01*
X144835619Y-94154857D01*
X144788000Y-94107238D01*
X144740381Y-94154857D01*
X144835619Y-94154857D01*
X145073714Y-93678667D02*
X145740381Y-93678667D01*
X145168952Y-93678667D02*
X145121333Y-93631048D01*
X145073714Y-93535810D01*
X145073714Y-93392952D01*
X145121333Y-93297714D01*
X145216571Y-93250095D01*
X145740381Y-93250095D01*
D14*
X146090000Y-74260000D02*
X143470000Y-74260000D01*
X143470000Y-74260000D02*
X143470000Y-80680000D01*
X143470000Y-80680000D02*
X146090000Y-80680000D01*
X146090000Y-80680000D02*
X146090000Y-74260000D01*
X144780000Y-73370000D02*
X144780000Y-74260000D01*
X144780000Y-81570000D02*
X144780000Y-80680000D01*
X137120000Y-80680000D02*
X139740000Y-80680000D01*
X139740000Y-80680000D02*
X139740000Y-74260000D01*
X139740000Y-74260000D02*
X137120000Y-74260000D01*
X137120000Y-74260000D02*
X137120000Y-80680000D01*
X138430000Y-81570000D02*
X138430000Y-80680000D01*
X138430000Y-73370000D02*
X138430000Y-74260000D01*
X104428600Y-75093137D02*
G75*
G03X104430000Y-79887436I981400J-2396863D01*
G01*
X106391400Y-75093137D02*
G75*
G02X106390000Y-79887436I-981400J-2396863D01*
G01*
X106391400Y-75093137D02*
G75*
G03X104430000Y-75092564I-981400J-2396863D01*
G01*
X102860000Y-77490000D02*
X107960000Y-77490000D01*
X102860000Y-77450000D02*
X107960000Y-77450000D01*
X102861000Y-77410000D02*
X107959000Y-77410000D01*
X102862000Y-77370000D02*
X107958000Y-77370000D01*
X102864000Y-77330000D02*
X107956000Y-77330000D01*
X102867000Y-77290000D02*
X107953000Y-77290000D01*
X102871000Y-77250000D02*
X107949000Y-77250000D01*
X102875000Y-77210000D02*
X104430000Y-77210000D01*
X106390000Y-77210000D02*
X107945000Y-77210000D01*
X102879000Y-77170000D02*
X104430000Y-77170000D01*
X106390000Y-77170000D02*
X107941000Y-77170000D01*
X102885000Y-77130000D02*
X104430000Y-77130000D01*
X106390000Y-77130000D02*
X107935000Y-77130000D01*
X102891000Y-77090000D02*
X104430000Y-77090000D01*
X106390000Y-77090000D02*
X107929000Y-77090000D01*
X102897000Y-77050000D02*
X104430000Y-77050000D01*
X106390000Y-77050000D02*
X107923000Y-77050000D01*
X102904000Y-77010000D02*
X104430000Y-77010000D01*
X106390000Y-77010000D02*
X107916000Y-77010000D01*
X102912000Y-76970000D02*
X104430000Y-76970000D01*
X106390000Y-76970000D02*
X107908000Y-76970000D01*
X102921000Y-76930000D02*
X104430000Y-76930000D01*
X106390000Y-76930000D02*
X107899000Y-76930000D01*
X102930000Y-76890000D02*
X104430000Y-76890000D01*
X106390000Y-76890000D02*
X107890000Y-76890000D01*
X102940000Y-76850000D02*
X104430000Y-76850000D01*
X106390000Y-76850000D02*
X107880000Y-76850000D01*
X102950000Y-76810000D02*
X104430000Y-76810000D01*
X106390000Y-76810000D02*
X107870000Y-76810000D01*
X102962000Y-76769000D02*
X104430000Y-76769000D01*
X106390000Y-76769000D02*
X107858000Y-76769000D01*
X102974000Y-76729000D02*
X104430000Y-76729000D01*
X106390000Y-76729000D02*
X107846000Y-76729000D01*
X102986000Y-76689000D02*
X104430000Y-76689000D01*
X106390000Y-76689000D02*
X107834000Y-76689000D01*
X103000000Y-76649000D02*
X104430000Y-76649000D01*
X106390000Y-76649000D02*
X107820000Y-76649000D01*
X103014000Y-76609000D02*
X104430000Y-76609000D01*
X106390000Y-76609000D02*
X107806000Y-76609000D01*
X103028000Y-76569000D02*
X104430000Y-76569000D01*
X106390000Y-76569000D02*
X107792000Y-76569000D01*
X103044000Y-76529000D02*
X104430000Y-76529000D01*
X106390000Y-76529000D02*
X107776000Y-76529000D01*
X103060000Y-76489000D02*
X104430000Y-76489000D01*
X106390000Y-76489000D02*
X107760000Y-76489000D01*
X103077000Y-76449000D02*
X104430000Y-76449000D01*
X106390000Y-76449000D02*
X107743000Y-76449000D01*
X103095000Y-76409000D02*
X104430000Y-76409000D01*
X106390000Y-76409000D02*
X107725000Y-76409000D01*
X103114000Y-76369000D02*
X104430000Y-76369000D01*
X106390000Y-76369000D02*
X107706000Y-76369000D01*
X103134000Y-76329000D02*
X104430000Y-76329000D01*
X106390000Y-76329000D02*
X107686000Y-76329000D01*
X103154000Y-76289000D02*
X104430000Y-76289000D01*
X106390000Y-76289000D02*
X107666000Y-76289000D01*
X103176000Y-76249000D02*
X104430000Y-76249000D01*
X106390000Y-76249000D02*
X107644000Y-76249000D01*
X103198000Y-76209000D02*
X104430000Y-76209000D01*
X106390000Y-76209000D02*
X107622000Y-76209000D01*
X103221000Y-76169000D02*
X104430000Y-76169000D01*
X106390000Y-76169000D02*
X107599000Y-76169000D01*
X103245000Y-76129000D02*
X104430000Y-76129000D01*
X106390000Y-76129000D02*
X107575000Y-76129000D01*
X103270000Y-76089000D02*
X104430000Y-76089000D01*
X106390000Y-76089000D02*
X107550000Y-76089000D01*
X103297000Y-76049000D02*
X104430000Y-76049000D01*
X106390000Y-76049000D02*
X107523000Y-76049000D01*
X103324000Y-76009000D02*
X104430000Y-76009000D01*
X106390000Y-76009000D02*
X107496000Y-76009000D01*
X103352000Y-75969000D02*
X104430000Y-75969000D01*
X106390000Y-75969000D02*
X107468000Y-75969000D01*
X103382000Y-75929000D02*
X104430000Y-75929000D01*
X106390000Y-75929000D02*
X107438000Y-75929000D01*
X103413000Y-75889000D02*
X104430000Y-75889000D01*
X106390000Y-75889000D02*
X107407000Y-75889000D01*
X103445000Y-75849000D02*
X104430000Y-75849000D01*
X106390000Y-75849000D02*
X107375000Y-75849000D01*
X103478000Y-75809000D02*
X104430000Y-75809000D01*
X106390000Y-75809000D02*
X107342000Y-75809000D01*
X103513000Y-75769000D02*
X104430000Y-75769000D01*
X106390000Y-75769000D02*
X107307000Y-75769000D01*
X103549000Y-75729000D02*
X104430000Y-75729000D01*
X106390000Y-75729000D02*
X107271000Y-75729000D01*
X103587000Y-75689000D02*
X104430000Y-75689000D01*
X106390000Y-75689000D02*
X107233000Y-75689000D01*
X103627000Y-75649000D02*
X104430000Y-75649000D01*
X106390000Y-75649000D02*
X107193000Y-75649000D01*
X103668000Y-75609000D02*
X104430000Y-75609000D01*
X106390000Y-75609000D02*
X107152000Y-75609000D01*
X103711000Y-75569000D02*
X104430000Y-75569000D01*
X106390000Y-75569000D02*
X107109000Y-75569000D01*
X103756000Y-75529000D02*
X104430000Y-75529000D01*
X106390000Y-75529000D02*
X107064000Y-75529000D01*
X103804000Y-75489000D02*
X104430000Y-75489000D01*
X106390000Y-75489000D02*
X107016000Y-75489000D01*
X103854000Y-75449000D02*
X104430000Y-75449000D01*
X106390000Y-75449000D02*
X106966000Y-75449000D01*
X103906000Y-75409000D02*
X104430000Y-75409000D01*
X106390000Y-75409000D02*
X106914000Y-75409000D01*
X103962000Y-75369000D02*
X104430000Y-75369000D01*
X106390000Y-75369000D02*
X106858000Y-75369000D01*
X104020000Y-75329000D02*
X104430000Y-75329000D01*
X106390000Y-75329000D02*
X106800000Y-75329000D01*
X104083000Y-75289000D02*
X104430000Y-75289000D01*
X106390000Y-75289000D02*
X106737000Y-75289000D01*
X104149000Y-75249000D02*
X106671000Y-75249000D01*
X104221000Y-75209000D02*
X106599000Y-75209000D01*
X104298000Y-75169000D02*
X106522000Y-75169000D01*
X104382000Y-75129000D02*
X106438000Y-75129000D01*
X104476000Y-75089000D02*
X106344000Y-75089000D01*
X104581000Y-75049000D02*
X106239000Y-75049000D01*
X104703000Y-75009000D02*
X106117000Y-75009000D01*
X104851000Y-74969000D02*
X105969000Y-74969000D01*
X105056000Y-74929000D02*
X105764000Y-74929000D01*
X105410000Y-80940000D02*
X105410000Y-79740000D01*
X104760000Y-80340000D02*
X106060000Y-80340000D01*
X128106863Y-95538600D02*
G75*
G03X123312564Y-95540000I-2396863J-981400D01*
G01*
X128106863Y-97501400D02*
G75*
G02X123312564Y-97500000I-2396863J981400D01*
G01*
X128106863Y-97501400D02*
G75*
G03X128107436Y-95540000I-2396863J981400D01*
G01*
X125710000Y-93970000D02*
X125710000Y-99070000D01*
X125750000Y-93970000D02*
X125750000Y-99070000D01*
X125790000Y-93971000D02*
X125790000Y-99069000D01*
X125830000Y-93972000D02*
X125830000Y-99068000D01*
X125870000Y-93974000D02*
X125870000Y-99066000D01*
X125910000Y-93977000D02*
X125910000Y-99063000D01*
X125950000Y-93981000D02*
X125950000Y-99059000D01*
X125990000Y-93985000D02*
X125990000Y-95540000D01*
X125990000Y-97500000D02*
X125990000Y-99055000D01*
X126030000Y-93989000D02*
X126030000Y-95540000D01*
X126030000Y-97500000D02*
X126030000Y-99051000D01*
X126070000Y-93995000D02*
X126070000Y-95540000D01*
X126070000Y-97500000D02*
X126070000Y-99045000D01*
X126110000Y-94001000D02*
X126110000Y-95540000D01*
X126110000Y-97500000D02*
X126110000Y-99039000D01*
X126150000Y-94007000D02*
X126150000Y-95540000D01*
X126150000Y-97500000D02*
X126150000Y-99033000D01*
X126190000Y-94014000D02*
X126190000Y-95540000D01*
X126190000Y-97500000D02*
X126190000Y-99026000D01*
X126230000Y-94022000D02*
X126230000Y-95540000D01*
X126230000Y-97500000D02*
X126230000Y-99018000D01*
X126270000Y-94031000D02*
X126270000Y-95540000D01*
X126270000Y-97500000D02*
X126270000Y-99009000D01*
X126310000Y-94040000D02*
X126310000Y-95540000D01*
X126310000Y-97500000D02*
X126310000Y-99000000D01*
X126350000Y-94050000D02*
X126350000Y-95540000D01*
X126350000Y-97500000D02*
X126350000Y-98990000D01*
X126390000Y-94060000D02*
X126390000Y-95540000D01*
X126390000Y-97500000D02*
X126390000Y-98980000D01*
X126431000Y-94072000D02*
X126431000Y-95540000D01*
X126431000Y-97500000D02*
X126431000Y-98968000D01*
X126471000Y-94084000D02*
X126471000Y-95540000D01*
X126471000Y-97500000D02*
X126471000Y-98956000D01*
X126511000Y-94096000D02*
X126511000Y-95540000D01*
X126511000Y-97500000D02*
X126511000Y-98944000D01*
X126551000Y-94110000D02*
X126551000Y-95540000D01*
X126551000Y-97500000D02*
X126551000Y-98930000D01*
X126591000Y-94124000D02*
X126591000Y-95540000D01*
X126591000Y-97500000D02*
X126591000Y-98916000D01*
X126631000Y-94138000D02*
X126631000Y-95540000D01*
X126631000Y-97500000D02*
X126631000Y-98902000D01*
X126671000Y-94154000D02*
X126671000Y-95540000D01*
X126671000Y-97500000D02*
X126671000Y-98886000D01*
X126711000Y-94170000D02*
X126711000Y-95540000D01*
X126711000Y-97500000D02*
X126711000Y-98870000D01*
X126751000Y-94187000D02*
X126751000Y-95540000D01*
X126751000Y-97500000D02*
X126751000Y-98853000D01*
X126791000Y-94205000D02*
X126791000Y-95540000D01*
X126791000Y-97500000D02*
X126791000Y-98835000D01*
X126831000Y-94224000D02*
X126831000Y-95540000D01*
X126831000Y-97500000D02*
X126831000Y-98816000D01*
X126871000Y-94244000D02*
X126871000Y-95540000D01*
X126871000Y-97500000D02*
X126871000Y-98796000D01*
X126911000Y-94264000D02*
X126911000Y-95540000D01*
X126911000Y-97500000D02*
X126911000Y-98776000D01*
X126951000Y-94286000D02*
X126951000Y-95540000D01*
X126951000Y-97500000D02*
X126951000Y-98754000D01*
X126991000Y-94308000D02*
X126991000Y-95540000D01*
X126991000Y-97500000D02*
X126991000Y-98732000D01*
X127031000Y-94331000D02*
X127031000Y-95540000D01*
X127031000Y-97500000D02*
X127031000Y-98709000D01*
X127071000Y-94355000D02*
X127071000Y-95540000D01*
X127071000Y-97500000D02*
X127071000Y-98685000D01*
X127111000Y-94380000D02*
X127111000Y-95540000D01*
X127111000Y-97500000D02*
X127111000Y-98660000D01*
X127151000Y-94407000D02*
X127151000Y-95540000D01*
X127151000Y-97500000D02*
X127151000Y-98633000D01*
X127191000Y-94434000D02*
X127191000Y-95540000D01*
X127191000Y-97500000D02*
X127191000Y-98606000D01*
X127231000Y-94462000D02*
X127231000Y-95540000D01*
X127231000Y-97500000D02*
X127231000Y-98578000D01*
X127271000Y-94492000D02*
X127271000Y-95540000D01*
X127271000Y-97500000D02*
X127271000Y-98548000D01*
X127311000Y-94523000D02*
X127311000Y-95540000D01*
X127311000Y-97500000D02*
X127311000Y-98517000D01*
X127351000Y-94555000D02*
X127351000Y-95540000D01*
X127351000Y-97500000D02*
X127351000Y-98485000D01*
X127391000Y-94588000D02*
X127391000Y-95540000D01*
X127391000Y-97500000D02*
X127391000Y-98452000D01*
X127431000Y-94623000D02*
X127431000Y-95540000D01*
X127431000Y-97500000D02*
X127431000Y-98417000D01*
X127471000Y-94659000D02*
X127471000Y-95540000D01*
X127471000Y-97500000D02*
X127471000Y-98381000D01*
X127511000Y-94697000D02*
X127511000Y-95540000D01*
X127511000Y-97500000D02*
X127511000Y-98343000D01*
X127551000Y-94737000D02*
X127551000Y-95540000D01*
X127551000Y-97500000D02*
X127551000Y-98303000D01*
X127591000Y-94778000D02*
X127591000Y-95540000D01*
X127591000Y-97500000D02*
X127591000Y-98262000D01*
X127631000Y-94821000D02*
X127631000Y-95540000D01*
X127631000Y-97500000D02*
X127631000Y-98219000D01*
X127671000Y-94866000D02*
X127671000Y-95540000D01*
X127671000Y-97500000D02*
X127671000Y-98174000D01*
X127711000Y-94914000D02*
X127711000Y-95540000D01*
X127711000Y-97500000D02*
X127711000Y-98126000D01*
X127751000Y-94964000D02*
X127751000Y-95540000D01*
X127751000Y-97500000D02*
X127751000Y-98076000D01*
X127791000Y-95016000D02*
X127791000Y-95540000D01*
X127791000Y-97500000D02*
X127791000Y-98024000D01*
X127831000Y-95072000D02*
X127831000Y-95540000D01*
X127831000Y-97500000D02*
X127831000Y-97968000D01*
X127871000Y-95130000D02*
X127871000Y-95540000D01*
X127871000Y-97500000D02*
X127871000Y-97910000D01*
X127911000Y-95193000D02*
X127911000Y-95540000D01*
X127911000Y-97500000D02*
X127911000Y-97847000D01*
X127951000Y-95259000D02*
X127951000Y-97781000D01*
X127991000Y-95331000D02*
X127991000Y-97709000D01*
X128031000Y-95408000D02*
X128031000Y-97632000D01*
X128071000Y-95492000D02*
X128071000Y-97548000D01*
X128111000Y-95586000D02*
X128111000Y-97454000D01*
X128151000Y-95691000D02*
X128151000Y-97349000D01*
X128191000Y-95813000D02*
X128191000Y-97227000D01*
X128231000Y-95961000D02*
X128231000Y-97079000D01*
X128271000Y-96166000D02*
X128271000Y-96874000D01*
X122260000Y-96520000D02*
X123460000Y-96520000D01*
X122860000Y-95870000D02*
X122860000Y-97170000D01*
X112990000Y-72180000D02*
X112990000Y-65060000D01*
X115610000Y-72180000D02*
X115610000Y-65060000D01*
X112990000Y-72180000D02*
X115610000Y-72180000D01*
X112990000Y-65060000D02*
X115610000Y-65060000D01*
X144570000Y-67350000D02*
X137450000Y-67350000D01*
X144570000Y-64730000D02*
X137450000Y-64730000D01*
X144570000Y-67350000D02*
X144570000Y-64730000D01*
X137450000Y-67350000D02*
X137450000Y-64730000D01*
X135680000Y-67350000D02*
X128560000Y-67350000D01*
X135680000Y-64730000D02*
X128560000Y-64730000D01*
X135680000Y-67350000D02*
X135680000Y-64730000D01*
X128560000Y-67350000D02*
X128560000Y-64730000D01*
D15*
X112395000Y-75438000D02*
X112395000Y-76962000D01*
X112522000Y-75438000D02*
X112522000Y-76962000D01*
X113665000Y-75565000D02*
X113665000Y-76835000D01*
X113665000Y-76200000D02*
X114935000Y-75565000D01*
X114935000Y-75565000D02*
X114935000Y-76835000D01*
X114935000Y-76835000D02*
X113665000Y-76200000D01*
X116586520Y-76197460D02*
X118110000Y-76197460D01*
X112014520Y-76197460D02*
X110490000Y-76197460D01*
X112649520Y-75435460D02*
X112649520Y-76959460D01*
X112014520Y-76197460D02*
X112014520Y-76959460D01*
X112014520Y-76959460D02*
X116586520Y-76959460D01*
X116586520Y-76959460D02*
X116586520Y-75435460D01*
X116586520Y-75435460D02*
X112014520Y-75435460D01*
X112014520Y-75435460D02*
X112014520Y-76197460D01*
X112395000Y-74422000D02*
X112395000Y-72898000D01*
X112268000Y-74422000D02*
X112268000Y-72898000D01*
X111125000Y-74295000D02*
X111125000Y-73025000D01*
X111125000Y-73660000D02*
X109855000Y-74295000D01*
X109855000Y-74295000D02*
X109855000Y-73025000D01*
X109855000Y-73025000D02*
X111125000Y-73660000D01*
X108203480Y-73662540D02*
X106680000Y-73662540D01*
X112775480Y-73662540D02*
X114300000Y-73662540D01*
X112140480Y-74424540D02*
X112140480Y-72900540D01*
X112775480Y-73662540D02*
X112775480Y-72900540D01*
X112775480Y-72900540D02*
X108203480Y-72900540D01*
X108203480Y-72900540D02*
X108203480Y-74424540D01*
X108203480Y-74424540D02*
X112775480Y-74424540D01*
X112775480Y-74424540D02*
X112775480Y-73662540D01*
D14*
X121600000Y-99700000D02*
X121600000Y-99200000D01*
X115800000Y-99200000D02*
X115800000Y-99700000D01*
X121600000Y-99700000D02*
X115800000Y-99700000D01*
X121900000Y-99200000D02*
X121900000Y-87800000D01*
X121900000Y-87800000D02*
X117300000Y-87800000D01*
X114600000Y-87800000D02*
X115700000Y-87800000D01*
X115800000Y-99200000D02*
X114600000Y-99200000D01*
X121900000Y-99200000D02*
X121600000Y-99200000D01*
X114600000Y-99200000D02*
X114600000Y-87800000D01*
X125400000Y-50300000D02*
X125400000Y-50800000D01*
X131200000Y-50800000D02*
X131200000Y-50300000D01*
X125400000Y-50300000D02*
X131200000Y-50300000D01*
X125100000Y-50800000D02*
X125100000Y-62200000D01*
X125100000Y-62200000D02*
X129700000Y-62200000D01*
X132400000Y-62200000D02*
X131300000Y-62200000D01*
X131200000Y-50800000D02*
X132400000Y-50800000D01*
X125100000Y-50800000D02*
X125400000Y-50800000D01*
X132400000Y-50800000D02*
X132400000Y-62200000D01*
X122590000Y-86070000D02*
X122590000Y-86400000D01*
X122590000Y-86400000D02*
X116170000Y-86400000D01*
X116170000Y-86400000D02*
X116170000Y-86070000D01*
X122590000Y-84110000D02*
X122590000Y-83780000D01*
X122590000Y-83780000D02*
X116170000Y-83780000D01*
X116170000Y-83780000D02*
X116170000Y-84110000D01*
X112740000Y-90770000D02*
X113070000Y-90770000D01*
X113070000Y-90770000D02*
X113070000Y-97190000D01*
X113070000Y-97190000D02*
X112740000Y-97190000D01*
X110780000Y-90770000D02*
X110450000Y-90770000D01*
X110450000Y-90770000D02*
X110450000Y-97190000D01*
X110450000Y-97190000D02*
X110780000Y-97190000D01*
X110780000Y-87030000D02*
X110450000Y-87030000D01*
X110450000Y-87030000D02*
X110450000Y-80610000D01*
X110450000Y-80610000D02*
X110780000Y-80610000D01*
X112740000Y-87030000D02*
X113070000Y-87030000D01*
X113070000Y-87030000D02*
X113070000Y-80610000D01*
X113070000Y-80610000D02*
X112740000Y-80610000D01*
X122590000Y-80990000D02*
X122590000Y-81320000D01*
X122590000Y-81320000D02*
X116170000Y-81320000D01*
X116170000Y-81320000D02*
X116170000Y-80990000D01*
X122590000Y-79030000D02*
X122590000Y-78700000D01*
X122590000Y-78700000D02*
X116170000Y-78700000D01*
X116170000Y-78700000D02*
X116170000Y-79030000D01*
D15*
X137500000Y-57200000D02*
X137500000Y-54200000D01*
X143500000Y-57200000D02*
X143500000Y-54200000D01*
X143500000Y-59700000D02*
X143500000Y-59200000D01*
X137500000Y-59700000D02*
X137500000Y-59200000D01*
X137500000Y-59700000D02*
X143500000Y-59700000D01*
X138000000Y-54200000D02*
X138000000Y-50600000D01*
X143000000Y-50600000D02*
X143000000Y-54200000D01*
X138000000Y-50600000D02*
X143000000Y-50600000D01*
X138300000Y-50300000D02*
X138000000Y-50600000D01*
X142700000Y-50300000D02*
X143000000Y-50600000D01*
X138300000Y-50300000D02*
X142700000Y-50300000D01*
X142800000Y-61200000D02*
X142800000Y-62000000D01*
X142800000Y-62000000D02*
X143200000Y-62000000D01*
X143200000Y-62000000D02*
X143200000Y-61200000D01*
X140300000Y-61200000D02*
X140300000Y-62000000D01*
X140300000Y-62000000D02*
X140700000Y-62000000D01*
X140700000Y-62000000D02*
X140700000Y-61200000D01*
X137800000Y-61200000D02*
X137800000Y-62000000D01*
X137800000Y-62000000D02*
X138200000Y-62000000D01*
X138200000Y-62000000D02*
X138200000Y-61200000D01*
X136400000Y-54200000D02*
X144600000Y-54200000D01*
X144600000Y-61200000D02*
X144600000Y-54200000D01*
X136400000Y-61200000D02*
X136400000Y-54200000D01*
X136400000Y-61200000D02*
X144600000Y-61200000D01*
D14*
X104919089Y-94379361D02*
G75*
G03X104920000Y-90501005I-779089J1939361D01*
G01*
X103360911Y-94379361D02*
G75*
G02X103360000Y-90501005I779089J1939361D01*
G01*
X103360911Y-94379361D02*
G75*
G03X104920000Y-94378995I779089J1939361D01*
G01*
X106190000Y-92440000D02*
X102090000Y-92440000D01*
X106190000Y-92480000D02*
X102090000Y-92480000D01*
X106189000Y-92520000D02*
X102091000Y-92520000D01*
X106187000Y-92560000D02*
X102093000Y-92560000D01*
X106184000Y-92600000D02*
X102096000Y-92600000D01*
X106181000Y-92640000D02*
X102099000Y-92640000D01*
X106177000Y-92680000D02*
X104920000Y-92680000D01*
X103360000Y-92680000D02*
X102103000Y-92680000D01*
X106172000Y-92720000D02*
X104920000Y-92720000D01*
X103360000Y-92720000D02*
X102108000Y-92720000D01*
X106166000Y-92760000D02*
X104920000Y-92760000D01*
X103360000Y-92760000D02*
X102114000Y-92760000D01*
X106159000Y-92800000D02*
X104920000Y-92800000D01*
X103360000Y-92800000D02*
X102121000Y-92800000D01*
X106152000Y-92840000D02*
X104920000Y-92840000D01*
X103360000Y-92840000D02*
X102128000Y-92840000D01*
X106144000Y-92880000D02*
X104920000Y-92880000D01*
X103360000Y-92880000D02*
X102136000Y-92880000D01*
X106135000Y-92920000D02*
X104920000Y-92920000D01*
X103360000Y-92920000D02*
X102145000Y-92920000D01*
X106125000Y-92960000D02*
X104920000Y-92960000D01*
X103360000Y-92960000D02*
X102155000Y-92960000D01*
X106114000Y-93000000D02*
X104920000Y-93000000D01*
X103360000Y-93000000D02*
X102166000Y-93000000D01*
X106103000Y-93040000D02*
X104920000Y-93040000D01*
X103360000Y-93040000D02*
X102177000Y-93040000D01*
X106090000Y-93080000D02*
X104920000Y-93080000D01*
X103360000Y-93080000D02*
X102190000Y-93080000D01*
X106077000Y-93120000D02*
X104920000Y-93120000D01*
X103360000Y-93120000D02*
X102203000Y-93120000D01*
X106063000Y-93161000D02*
X104920000Y-93161000D01*
X103360000Y-93161000D02*
X102217000Y-93161000D01*
X106047000Y-93201000D02*
X104920000Y-93201000D01*
X103360000Y-93201000D02*
X102233000Y-93201000D01*
X106031000Y-93241000D02*
X104920000Y-93241000D01*
X103360000Y-93241000D02*
X102249000Y-93241000D01*
X106014000Y-93281000D02*
X104920000Y-93281000D01*
X103360000Y-93281000D02*
X102266000Y-93281000D01*
X105996000Y-93321000D02*
X104920000Y-93321000D01*
X103360000Y-93321000D02*
X102284000Y-93321000D01*
X105977000Y-93361000D02*
X104920000Y-93361000D01*
X103360000Y-93361000D02*
X102303000Y-93361000D01*
X105957000Y-93401000D02*
X104920000Y-93401000D01*
X103360000Y-93401000D02*
X102323000Y-93401000D01*
X105936000Y-93441000D02*
X104920000Y-93441000D01*
X103360000Y-93441000D02*
X102344000Y-93441000D01*
X105913000Y-93481000D02*
X104920000Y-93481000D01*
X103360000Y-93481000D02*
X102367000Y-93481000D01*
X105890000Y-93521000D02*
X104920000Y-93521000D01*
X103360000Y-93521000D02*
X102390000Y-93521000D01*
X105865000Y-93561000D02*
X104920000Y-93561000D01*
X103360000Y-93561000D02*
X102415000Y-93561000D01*
X105839000Y-93601000D02*
X104920000Y-93601000D01*
X103360000Y-93601000D02*
X102441000Y-93601000D01*
X105812000Y-93641000D02*
X104920000Y-93641000D01*
X103360000Y-93641000D02*
X102468000Y-93641000D01*
X105783000Y-93681000D02*
X104920000Y-93681000D01*
X103360000Y-93681000D02*
X102497000Y-93681000D01*
X105753000Y-93721000D02*
X104920000Y-93721000D01*
X103360000Y-93721000D02*
X102527000Y-93721000D01*
X105721000Y-93761000D02*
X104920000Y-93761000D01*
X103360000Y-93761000D02*
X102559000Y-93761000D01*
X105687000Y-93801000D02*
X104920000Y-93801000D01*
X103360000Y-93801000D02*
X102593000Y-93801000D01*
X105652000Y-93841000D02*
X104920000Y-93841000D01*
X103360000Y-93841000D02*
X102628000Y-93841000D01*
X105615000Y-93881000D02*
X104920000Y-93881000D01*
X103360000Y-93881000D02*
X102665000Y-93881000D01*
X105576000Y-93921000D02*
X104920000Y-93921000D01*
X103360000Y-93921000D02*
X102704000Y-93921000D01*
X105535000Y-93961000D02*
X104920000Y-93961000D01*
X103360000Y-93961000D02*
X102745000Y-93961000D01*
X105491000Y-94001000D02*
X104920000Y-94001000D01*
X103360000Y-94001000D02*
X102789000Y-94001000D01*
X105445000Y-94041000D02*
X104920000Y-94041000D01*
X103360000Y-94041000D02*
X102835000Y-94041000D01*
X105396000Y-94081000D02*
X104920000Y-94081000D01*
X103360000Y-94081000D02*
X102884000Y-94081000D01*
X105344000Y-94121000D02*
X104920000Y-94121000D01*
X103360000Y-94121000D02*
X102936000Y-94121000D01*
X105288000Y-94161000D02*
X104920000Y-94161000D01*
X103360000Y-94161000D02*
X102992000Y-94161000D01*
X105228000Y-94201000D02*
X104920000Y-94201000D01*
X103360000Y-94201000D02*
X103052000Y-94201000D01*
X105163000Y-94241000D02*
X103117000Y-94241000D01*
X105092000Y-94281000D02*
X103188000Y-94281000D01*
X105014000Y-94321000D02*
X103266000Y-94321000D01*
X104926000Y-94361000D02*
X103354000Y-94361000D01*
X104826000Y-94401000D02*
X103454000Y-94401000D01*
X104707000Y-94441000D02*
X103573000Y-94441000D01*
X104555000Y-94481000D02*
X103725000Y-94481000D01*
X104305000Y-94521000D02*
X103975000Y-94521000D01*
X104140000Y-89740000D02*
X104140000Y-90640000D01*
X104590000Y-90190000D02*
X103690000Y-90190000D01*
X106970000Y-97190000D02*
X106640000Y-97190000D01*
X106640000Y-97190000D02*
X106640000Y-90770000D01*
X106640000Y-90770000D02*
X106970000Y-90770000D01*
X108930000Y-97190000D02*
X109260000Y-97190000D01*
X109260000Y-97190000D02*
X109260000Y-90770000D01*
X109260000Y-90770000D02*
X108930000Y-90770000D01*
X129376863Y-81568600D02*
G75*
G03X124582564Y-81570000I-2396863J-981400D01*
G01*
X129376863Y-83531400D02*
G75*
G02X124582564Y-83530000I-2396863J981400D01*
G01*
X129376863Y-83531400D02*
G75*
G03X129377436Y-81570000I-2396863J981400D01*
G01*
X126980000Y-80000000D02*
X126980000Y-85100000D01*
X127020000Y-80000000D02*
X127020000Y-85100000D01*
X127060000Y-80001000D02*
X127060000Y-85099000D01*
X127100000Y-80002000D02*
X127100000Y-85098000D01*
X127140000Y-80004000D02*
X127140000Y-85096000D01*
X127180000Y-80007000D02*
X127180000Y-85093000D01*
X127220000Y-80011000D02*
X127220000Y-85089000D01*
X127260000Y-80015000D02*
X127260000Y-81570000D01*
X127260000Y-83530000D02*
X127260000Y-85085000D01*
X127300000Y-80019000D02*
X127300000Y-81570000D01*
X127300000Y-83530000D02*
X127300000Y-85081000D01*
X127340000Y-80025000D02*
X127340000Y-81570000D01*
X127340000Y-83530000D02*
X127340000Y-85075000D01*
X127380000Y-80031000D02*
X127380000Y-81570000D01*
X127380000Y-83530000D02*
X127380000Y-85069000D01*
X127420000Y-80037000D02*
X127420000Y-81570000D01*
X127420000Y-83530000D02*
X127420000Y-85063000D01*
X127460000Y-80044000D02*
X127460000Y-81570000D01*
X127460000Y-83530000D02*
X127460000Y-85056000D01*
X127500000Y-80052000D02*
X127500000Y-81570000D01*
X127500000Y-83530000D02*
X127500000Y-85048000D01*
X127540000Y-80061000D02*
X127540000Y-81570000D01*
X127540000Y-83530000D02*
X127540000Y-85039000D01*
X127580000Y-80070000D02*
X127580000Y-81570000D01*
X127580000Y-83530000D02*
X127580000Y-85030000D01*
X127620000Y-80080000D02*
X127620000Y-81570000D01*
X127620000Y-83530000D02*
X127620000Y-85020000D01*
X127660000Y-80090000D02*
X127660000Y-81570000D01*
X127660000Y-83530000D02*
X127660000Y-85010000D01*
X127701000Y-80102000D02*
X127701000Y-81570000D01*
X127701000Y-83530000D02*
X127701000Y-84998000D01*
X127741000Y-80114000D02*
X127741000Y-81570000D01*
X127741000Y-83530000D02*
X127741000Y-84986000D01*
X127781000Y-80126000D02*
X127781000Y-81570000D01*
X127781000Y-83530000D02*
X127781000Y-84974000D01*
X127821000Y-80140000D02*
X127821000Y-81570000D01*
X127821000Y-83530000D02*
X127821000Y-84960000D01*
X127861000Y-80154000D02*
X127861000Y-81570000D01*
X127861000Y-83530000D02*
X127861000Y-84946000D01*
X127901000Y-80168000D02*
X127901000Y-81570000D01*
X127901000Y-83530000D02*
X127901000Y-84932000D01*
X127941000Y-80184000D02*
X127941000Y-81570000D01*
X127941000Y-83530000D02*
X127941000Y-84916000D01*
X127981000Y-80200000D02*
X127981000Y-81570000D01*
X127981000Y-83530000D02*
X127981000Y-84900000D01*
X128021000Y-80217000D02*
X128021000Y-81570000D01*
X128021000Y-83530000D02*
X128021000Y-84883000D01*
X128061000Y-80235000D02*
X128061000Y-81570000D01*
X128061000Y-83530000D02*
X128061000Y-84865000D01*
X128101000Y-80254000D02*
X128101000Y-81570000D01*
X128101000Y-83530000D02*
X128101000Y-84846000D01*
X128141000Y-80274000D02*
X128141000Y-81570000D01*
X128141000Y-83530000D02*
X128141000Y-84826000D01*
X128181000Y-80294000D02*
X128181000Y-81570000D01*
X128181000Y-83530000D02*
X128181000Y-84806000D01*
X128221000Y-80316000D02*
X128221000Y-81570000D01*
X128221000Y-83530000D02*
X128221000Y-84784000D01*
X128261000Y-80338000D02*
X128261000Y-81570000D01*
X128261000Y-83530000D02*
X128261000Y-84762000D01*
X128301000Y-80361000D02*
X128301000Y-81570000D01*
X128301000Y-83530000D02*
X128301000Y-84739000D01*
X128341000Y-80385000D02*
X128341000Y-81570000D01*
X128341000Y-83530000D02*
X128341000Y-84715000D01*
X128381000Y-80410000D02*
X128381000Y-81570000D01*
X128381000Y-83530000D02*
X128381000Y-84690000D01*
X128421000Y-80437000D02*
X128421000Y-81570000D01*
X128421000Y-83530000D02*
X128421000Y-84663000D01*
X128461000Y-80464000D02*
X128461000Y-81570000D01*
X128461000Y-83530000D02*
X128461000Y-84636000D01*
X128501000Y-80492000D02*
X128501000Y-81570000D01*
X128501000Y-83530000D02*
X128501000Y-84608000D01*
X128541000Y-80522000D02*
X128541000Y-81570000D01*
X128541000Y-83530000D02*
X128541000Y-84578000D01*
X128581000Y-80553000D02*
X128581000Y-81570000D01*
X128581000Y-83530000D02*
X128581000Y-84547000D01*
X128621000Y-80585000D02*
X128621000Y-81570000D01*
X128621000Y-83530000D02*
X128621000Y-84515000D01*
X128661000Y-80618000D02*
X128661000Y-81570000D01*
X128661000Y-83530000D02*
X128661000Y-84482000D01*
X128701000Y-80653000D02*
X128701000Y-81570000D01*
X128701000Y-83530000D02*
X128701000Y-84447000D01*
X128741000Y-80689000D02*
X128741000Y-81570000D01*
X128741000Y-83530000D02*
X128741000Y-84411000D01*
X128781000Y-80727000D02*
X128781000Y-81570000D01*
X128781000Y-83530000D02*
X128781000Y-84373000D01*
X128821000Y-80767000D02*
X128821000Y-81570000D01*
X128821000Y-83530000D02*
X128821000Y-84333000D01*
X128861000Y-80808000D02*
X128861000Y-81570000D01*
X128861000Y-83530000D02*
X128861000Y-84292000D01*
X128901000Y-80851000D02*
X128901000Y-81570000D01*
X128901000Y-83530000D02*
X128901000Y-84249000D01*
X128941000Y-80896000D02*
X128941000Y-81570000D01*
X128941000Y-83530000D02*
X128941000Y-84204000D01*
X128981000Y-80944000D02*
X128981000Y-81570000D01*
X128981000Y-83530000D02*
X128981000Y-84156000D01*
X129021000Y-80994000D02*
X129021000Y-81570000D01*
X129021000Y-83530000D02*
X129021000Y-84106000D01*
X129061000Y-81046000D02*
X129061000Y-81570000D01*
X129061000Y-83530000D02*
X129061000Y-84054000D01*
X129101000Y-81102000D02*
X129101000Y-81570000D01*
X129101000Y-83530000D02*
X129101000Y-83998000D01*
X129141000Y-81160000D02*
X129141000Y-81570000D01*
X129141000Y-83530000D02*
X129141000Y-83940000D01*
X129181000Y-81223000D02*
X129181000Y-81570000D01*
X129181000Y-83530000D02*
X129181000Y-83877000D01*
X129221000Y-81289000D02*
X129221000Y-83811000D01*
X129261000Y-81361000D02*
X129261000Y-83739000D01*
X129301000Y-81438000D02*
X129301000Y-83662000D01*
X129341000Y-81522000D02*
X129341000Y-83578000D01*
X129381000Y-81616000D02*
X129381000Y-83484000D01*
X129421000Y-81721000D02*
X129421000Y-83379000D01*
X129461000Y-81843000D02*
X129461000Y-83257000D01*
X129501000Y-81991000D02*
X129501000Y-83109000D01*
X129541000Y-82196000D02*
X129541000Y-82904000D01*
X123530000Y-82550000D02*
X124730000Y-82550000D01*
X124130000Y-81900000D02*
X124130000Y-83200000D01*
X133061400Y-84926863D02*
G75*
G03X133060000Y-80132564I-981400J2396863D01*
G01*
X131098600Y-84926863D02*
G75*
G02X131100000Y-80132564I981400J2396863D01*
G01*
X131098600Y-84926863D02*
G75*
G03X133060000Y-84927436I981400J2396863D01*
G01*
X134630000Y-82530000D02*
X129530000Y-82530000D01*
X134630000Y-82570000D02*
X129530000Y-82570000D01*
X134629000Y-82610000D02*
X129531000Y-82610000D01*
X134628000Y-82650000D02*
X129532000Y-82650000D01*
X134626000Y-82690000D02*
X129534000Y-82690000D01*
X134623000Y-82730000D02*
X129537000Y-82730000D01*
X134619000Y-82770000D02*
X129541000Y-82770000D01*
X134615000Y-82810000D02*
X133060000Y-82810000D01*
X131100000Y-82810000D02*
X129545000Y-82810000D01*
X134611000Y-82850000D02*
X133060000Y-82850000D01*
X131100000Y-82850000D02*
X129549000Y-82850000D01*
X134605000Y-82890000D02*
X133060000Y-82890000D01*
X131100000Y-82890000D02*
X129555000Y-82890000D01*
X134599000Y-82930000D02*
X133060000Y-82930000D01*
X131100000Y-82930000D02*
X129561000Y-82930000D01*
X134593000Y-82970000D02*
X133060000Y-82970000D01*
X131100000Y-82970000D02*
X129567000Y-82970000D01*
X134586000Y-83010000D02*
X133060000Y-83010000D01*
X131100000Y-83010000D02*
X129574000Y-83010000D01*
X134578000Y-83050000D02*
X133060000Y-83050000D01*
X131100000Y-83050000D02*
X129582000Y-83050000D01*
X134569000Y-83090000D02*
X133060000Y-83090000D01*
X131100000Y-83090000D02*
X129591000Y-83090000D01*
X134560000Y-83130000D02*
X133060000Y-83130000D01*
X131100000Y-83130000D02*
X129600000Y-83130000D01*
X134550000Y-83170000D02*
X133060000Y-83170000D01*
X131100000Y-83170000D02*
X129610000Y-83170000D01*
X134540000Y-83210000D02*
X133060000Y-83210000D01*
X131100000Y-83210000D02*
X129620000Y-83210000D01*
X134528000Y-83251000D02*
X133060000Y-83251000D01*
X131100000Y-83251000D02*
X129632000Y-83251000D01*
X134516000Y-83291000D02*
X133060000Y-83291000D01*
X131100000Y-83291000D02*
X129644000Y-83291000D01*
X134504000Y-83331000D02*
X133060000Y-83331000D01*
X131100000Y-83331000D02*
X129656000Y-83331000D01*
X134490000Y-83371000D02*
X133060000Y-83371000D01*
X131100000Y-83371000D02*
X129670000Y-83371000D01*
X134476000Y-83411000D02*
X133060000Y-83411000D01*
X131100000Y-83411000D02*
X129684000Y-83411000D01*
X134462000Y-83451000D02*
X133060000Y-83451000D01*
X131100000Y-83451000D02*
X129698000Y-83451000D01*
X134446000Y-83491000D02*
X133060000Y-83491000D01*
X131100000Y-83491000D02*
X129714000Y-83491000D01*
X134430000Y-83531000D02*
X133060000Y-83531000D01*
X131100000Y-83531000D02*
X129730000Y-83531000D01*
X134413000Y-83571000D02*
X133060000Y-83571000D01*
X131100000Y-83571000D02*
X129747000Y-83571000D01*
X134395000Y-83611000D02*
X133060000Y-83611000D01*
X131100000Y-83611000D02*
X129765000Y-83611000D01*
X134376000Y-83651000D02*
X133060000Y-83651000D01*
X131100000Y-83651000D02*
X129784000Y-83651000D01*
X134356000Y-83691000D02*
X133060000Y-83691000D01*
X131100000Y-83691000D02*
X129804000Y-83691000D01*
X134336000Y-83731000D02*
X133060000Y-83731000D01*
X131100000Y-83731000D02*
X129824000Y-83731000D01*
X134314000Y-83771000D02*
X133060000Y-83771000D01*
X131100000Y-83771000D02*
X129846000Y-83771000D01*
X134292000Y-83811000D02*
X133060000Y-83811000D01*
X131100000Y-83811000D02*
X129868000Y-83811000D01*
X134269000Y-83851000D02*
X133060000Y-83851000D01*
X131100000Y-83851000D02*
X129891000Y-83851000D01*
X134245000Y-83891000D02*
X133060000Y-83891000D01*
X131100000Y-83891000D02*
X129915000Y-83891000D01*
X134220000Y-83931000D02*
X133060000Y-83931000D01*
X131100000Y-83931000D02*
X129940000Y-83931000D01*
X134193000Y-83971000D02*
X133060000Y-83971000D01*
X131100000Y-83971000D02*
X129967000Y-83971000D01*
X134166000Y-84011000D02*
X133060000Y-84011000D01*
X131100000Y-84011000D02*
X129994000Y-84011000D01*
X134138000Y-84051000D02*
X133060000Y-84051000D01*
X131100000Y-84051000D02*
X130022000Y-84051000D01*
X134108000Y-84091000D02*
X133060000Y-84091000D01*
X131100000Y-84091000D02*
X130052000Y-84091000D01*
X134077000Y-84131000D02*
X133060000Y-84131000D01*
X131100000Y-84131000D02*
X130083000Y-84131000D01*
X134045000Y-84171000D02*
X133060000Y-84171000D01*
X131100000Y-84171000D02*
X130115000Y-84171000D01*
X134012000Y-84211000D02*
X133060000Y-84211000D01*
X131100000Y-84211000D02*
X130148000Y-84211000D01*
X133977000Y-84251000D02*
X133060000Y-84251000D01*
X131100000Y-84251000D02*
X130183000Y-84251000D01*
X133941000Y-84291000D02*
X133060000Y-84291000D01*
X131100000Y-84291000D02*
X130219000Y-84291000D01*
X133903000Y-84331000D02*
X133060000Y-84331000D01*
X131100000Y-84331000D02*
X130257000Y-84331000D01*
X133863000Y-84371000D02*
X133060000Y-84371000D01*
X131100000Y-84371000D02*
X130297000Y-84371000D01*
X133822000Y-84411000D02*
X133060000Y-84411000D01*
X131100000Y-84411000D02*
X130338000Y-84411000D01*
X133779000Y-84451000D02*
X133060000Y-84451000D01*
X131100000Y-84451000D02*
X130381000Y-84451000D01*
X133734000Y-84491000D02*
X133060000Y-84491000D01*
X131100000Y-84491000D02*
X130426000Y-84491000D01*
X133686000Y-84531000D02*
X133060000Y-84531000D01*
X131100000Y-84531000D02*
X130474000Y-84531000D01*
X133636000Y-84571000D02*
X133060000Y-84571000D01*
X131100000Y-84571000D02*
X130524000Y-84571000D01*
X133584000Y-84611000D02*
X133060000Y-84611000D01*
X131100000Y-84611000D02*
X130576000Y-84611000D01*
X133528000Y-84651000D02*
X133060000Y-84651000D01*
X131100000Y-84651000D02*
X130632000Y-84651000D01*
X133470000Y-84691000D02*
X133060000Y-84691000D01*
X131100000Y-84691000D02*
X130690000Y-84691000D01*
X133407000Y-84731000D02*
X133060000Y-84731000D01*
X131100000Y-84731000D02*
X130753000Y-84731000D01*
X133341000Y-84771000D02*
X130819000Y-84771000D01*
X133269000Y-84811000D02*
X130891000Y-84811000D01*
X133192000Y-84851000D02*
X130968000Y-84851000D01*
X133108000Y-84891000D02*
X131052000Y-84891000D01*
X133014000Y-84931000D02*
X131146000Y-84931000D01*
X132909000Y-84971000D02*
X131251000Y-84971000D01*
X132787000Y-85011000D02*
X131373000Y-85011000D01*
X132639000Y-85051000D02*
X131521000Y-85051000D01*
X132434000Y-85091000D02*
X131726000Y-85091000D01*
X132080000Y-79080000D02*
X132080000Y-80280000D01*
X132730000Y-79680000D02*
X131430000Y-79680000D01*
X125770000Y-91440000D02*
G75*
G03X125770000Y-91440000I-1310000J0D01*
G01*
X125770000Y-91440000D02*
X125900000Y-91440000D01*
X125770000Y-88900000D02*
G75*
G03X125770000Y-88900000I-1310000J0D01*
G01*
X125770000Y-88900000D02*
X125900000Y-88900000D01*
X140370000Y-88940000D02*
X140370000Y-86320000D01*
X140370000Y-86320000D02*
X133950000Y-86320000D01*
X133950000Y-86320000D02*
X133950000Y-88940000D01*
X133950000Y-88940000D02*
X140370000Y-88940000D01*
X141260000Y-87630000D02*
X140370000Y-87630000D01*
X133060000Y-87630000D02*
X133950000Y-87630000D01*
X139100000Y-92750000D02*
X139100000Y-90130000D01*
X139100000Y-90130000D02*
X132680000Y-90130000D01*
X132680000Y-90130000D02*
X132680000Y-92750000D01*
X132680000Y-92750000D02*
X139100000Y-92750000D01*
X139990000Y-91440000D02*
X139100000Y-91440000D01*
X131790000Y-91440000D02*
X132680000Y-91440000D01*
X104740000Y-70140000D02*
X104740000Y-69810000D01*
X104740000Y-69810000D02*
X111160000Y-69810000D01*
X111160000Y-69810000D02*
X111160000Y-70140000D01*
X104740000Y-72100000D02*
X104740000Y-72430000D01*
X104740000Y-72430000D02*
X111160000Y-72430000D01*
X111160000Y-72430000D02*
X111160000Y-72100000D01*
X108530000Y-86890000D02*
X108530000Y-83290000D01*
X107802795Y-87414184D02*
G75*
G03X108530000Y-86890000I-1122795J2324184D01*
G01*
X105581193Y-87446400D02*
G75*
G02X104080000Y-85090000I1098807J2356400D01*
G01*
X105581193Y-82733600D02*
G75*
G03X104080000Y-85090000I1098807J-2356400D01*
G01*
X107802795Y-82765816D02*
G75*
G02X108530000Y-83290000I-1122795J-2324184D01*
G01*
X109750000Y-64190000D02*
X106150000Y-64190000D01*
X110274184Y-64917205D02*
G75*
G03X109750000Y-64190000I-2324184J-1122795D01*
G01*
X110306400Y-67138807D02*
G75*
G02X107950000Y-68640000I-2356400J1098807D01*
G01*
X105593600Y-67138807D02*
G75*
G03X107950000Y-68640000I2356400J1098807D01*
G01*
X105625816Y-64917205D02*
G75*
G02X106150000Y-64190000I2324184J-1122795D01*
G01*
X105400000Y-63200000D02*
X105400000Y-50200000D01*
X121600000Y-63200000D02*
X121600000Y-50200000D01*
X121600000Y-63200000D02*
X105400000Y-63200000D01*
X121600000Y-50200000D02*
X105400000Y-50200000D01*
D15*
X143510000Y-96250000D02*
X143510000Y-96750000D01*
X138510000Y-96250000D02*
X138510000Y-96750000D01*
X141010000Y-96250000D02*
X141010000Y-96750000D01*
X140010000Y-99150000D02*
X140010000Y-98750000D01*
X142010000Y-99150000D02*
X142010000Y-98750000D01*
X144510000Y-98750000D02*
X137510000Y-98750000D01*
X142010000Y-99150000D02*
X140010000Y-99150000D01*
X144510000Y-94250000D02*
X137510000Y-94250000D01*
X137510000Y-94250000D02*
X137510000Y-98750000D01*
X144510000Y-98750000D02*
X144510000Y-94250000D01*
X135890000Y-96250000D02*
X135890000Y-96750000D01*
X130890000Y-96250000D02*
X130890000Y-96750000D01*
X133390000Y-96250000D02*
X133390000Y-96750000D01*
X132390000Y-99150000D02*
X132390000Y-98750000D01*
X134390000Y-99150000D02*
X134390000Y-98750000D01*
X136890000Y-98750000D02*
X129890000Y-98750000D01*
X134390000Y-99150000D02*
X132390000Y-99150000D01*
X136890000Y-94250000D02*
X129890000Y-94250000D01*
X129890000Y-94250000D02*
X129890000Y-98750000D01*
X136890000Y-98750000D02*
X136890000Y-94250000D01*
X142692381Y-78112857D02*
X142216190Y-78446191D01*
X142692381Y-78684286D02*
X141692381Y-78684286D01*
X141692381Y-78303333D01*
X141740000Y-78208095D01*
X141787619Y-78160476D01*
X141882857Y-78112857D01*
X142025714Y-78112857D01*
X142120952Y-78160476D01*
X142168571Y-78208095D01*
X142216190Y-78303333D01*
X142216190Y-78684286D01*
X142692381Y-77160476D02*
X142692381Y-77731905D01*
X142692381Y-77446191D02*
X141692381Y-77446191D01*
X141835238Y-77541429D01*
X141930476Y-77636667D01*
X141978095Y-77731905D01*
X141692381Y-76827143D02*
X141692381Y-76208095D01*
X142073333Y-76541429D01*
X142073333Y-76398571D01*
X142120952Y-76303333D01*
X142168571Y-76255714D01*
X142263810Y-76208095D01*
X142501905Y-76208095D01*
X142597143Y-76255714D01*
X142644762Y-76303333D01*
X142692381Y-76398571D01*
X142692381Y-76684286D01*
X142644762Y-76779524D01*
X142597143Y-76827143D01*
X136572381Y-78112857D02*
X136096190Y-78446191D01*
X136572381Y-78684286D02*
X135572381Y-78684286D01*
X135572381Y-78303333D01*
X135620000Y-78208095D01*
X135667619Y-78160476D01*
X135762857Y-78112857D01*
X135905714Y-78112857D01*
X136000952Y-78160476D01*
X136048571Y-78208095D01*
X136096190Y-78303333D01*
X136096190Y-78684286D01*
X136572381Y-77160476D02*
X136572381Y-77731905D01*
X136572381Y-77446191D02*
X135572381Y-77446191D01*
X135715238Y-77541429D01*
X135810476Y-77636667D01*
X135858095Y-77731905D01*
X135905714Y-76303333D02*
X136572381Y-76303333D01*
X135524762Y-76541429D02*
X136239048Y-76779524D01*
X136239048Y-76160476D01*
X109323143Y-78652666D02*
X109370762Y-78700285D01*
X109418381Y-78843142D01*
X109418381Y-78938380D01*
X109370762Y-79081238D01*
X109275524Y-79176476D01*
X109180286Y-79224095D01*
X108989810Y-79271714D01*
X108846952Y-79271714D01*
X108656476Y-79224095D01*
X108561238Y-79176476D01*
X108466000Y-79081238D01*
X108418381Y-78938380D01*
X108418381Y-78843142D01*
X108466000Y-78700285D01*
X108513619Y-78652666D01*
X108751714Y-77795523D02*
X109418381Y-77795523D01*
X108370762Y-78033619D02*
X109085048Y-78271714D01*
X109085048Y-77652666D01*
X126071334Y-93575143D02*
X126023715Y-93622762D01*
X125880858Y-93670381D01*
X125785620Y-93670381D01*
X125642762Y-93622762D01*
X125547524Y-93527524D01*
X125499905Y-93432286D01*
X125452286Y-93241810D01*
X125452286Y-93098952D01*
X125499905Y-92908476D01*
X125547524Y-92813238D01*
X125642762Y-92718000D01*
X125785620Y-92670381D01*
X125880858Y-92670381D01*
X126023715Y-92718000D01*
X126071334Y-92765619D01*
X126976096Y-92670381D02*
X126499905Y-92670381D01*
X126452286Y-93146571D01*
X126499905Y-93098952D01*
X126595143Y-93051333D01*
X126833239Y-93051333D01*
X126928477Y-93098952D01*
X126976096Y-93146571D01*
X127023715Y-93241810D01*
X127023715Y-93479905D01*
X126976096Y-93575143D01*
X126928477Y-93622762D01*
X126833239Y-93670381D01*
X126595143Y-93670381D01*
X126499905Y-93622762D01*
X126452286Y-93575143D01*
X114133334Y-64492143D02*
X114085715Y-64539762D01*
X113942858Y-64587381D01*
X113847620Y-64587381D01*
X113704762Y-64539762D01*
X113609524Y-64444524D01*
X113561905Y-64349286D01*
X113514286Y-64158810D01*
X113514286Y-64015952D01*
X113561905Y-63825476D01*
X113609524Y-63730238D01*
X113704762Y-63635000D01*
X113847620Y-63587381D01*
X113942858Y-63587381D01*
X114085715Y-63635000D01*
X114133334Y-63682619D01*
X114990477Y-63587381D02*
X114800000Y-63587381D01*
X114704762Y-63635000D01*
X114657143Y-63682619D01*
X114561905Y-63825476D01*
X114514286Y-64015952D01*
X114514286Y-64396905D01*
X114561905Y-64492143D01*
X114609524Y-64539762D01*
X114704762Y-64587381D01*
X114895239Y-64587381D01*
X114990477Y-64539762D01*
X115038096Y-64492143D01*
X115085715Y-64396905D01*
X115085715Y-64158810D01*
X115038096Y-64063571D01*
X114990477Y-64015952D01*
X114895239Y-63968333D01*
X114704762Y-63968333D01*
X114609524Y-64015952D01*
X114561905Y-64063571D01*
X114514286Y-64158810D01*
X140843334Y-68707143D02*
X140795715Y-68754762D01*
X140652858Y-68802381D01*
X140557620Y-68802381D01*
X140414762Y-68754762D01*
X140319524Y-68659524D01*
X140271905Y-68564286D01*
X140224286Y-68373810D01*
X140224286Y-68230952D01*
X140271905Y-68040476D01*
X140319524Y-67945238D01*
X140414762Y-67850000D01*
X140557620Y-67802381D01*
X140652858Y-67802381D01*
X140795715Y-67850000D01*
X140843334Y-67897619D01*
X141176667Y-67802381D02*
X141843334Y-67802381D01*
X141414762Y-68802381D01*
X131953334Y-68707143D02*
X131905715Y-68754762D01*
X131762858Y-68802381D01*
X131667620Y-68802381D01*
X131524762Y-68754762D01*
X131429524Y-68659524D01*
X131381905Y-68564286D01*
X131334286Y-68373810D01*
X131334286Y-68230952D01*
X131381905Y-68040476D01*
X131429524Y-67945238D01*
X131524762Y-67850000D01*
X131667620Y-67802381D01*
X131762858Y-67802381D01*
X131905715Y-67850000D01*
X131953334Y-67897619D01*
X132524762Y-68230952D02*
X132429524Y-68183333D01*
X132381905Y-68135714D01*
X132334286Y-68040476D01*
X132334286Y-67992857D01*
X132381905Y-67897619D01*
X132429524Y-67850000D01*
X132524762Y-67802381D01*
X132715239Y-67802381D01*
X132810477Y-67850000D01*
X132858096Y-67897619D01*
X132905715Y-67992857D01*
X132905715Y-68040476D01*
X132858096Y-68135714D01*
X132810477Y-68183333D01*
X132715239Y-68230952D01*
X132524762Y-68230952D01*
X132429524Y-68278571D01*
X132381905Y-68326190D01*
X132334286Y-68421429D01*
X132334286Y-68611905D01*
X132381905Y-68707143D01*
X132429524Y-68754762D01*
X132524762Y-68802381D01*
X132715239Y-68802381D01*
X132810477Y-68754762D01*
X132858096Y-68707143D01*
X132905715Y-68611905D01*
X132905715Y-68421429D01*
X132858096Y-68326190D01*
X132810477Y-68278571D01*
X132715239Y-68230952D01*
X113561905Y-78430381D02*
X113561905Y-77430381D01*
X113800000Y-77430381D01*
X113942858Y-77478000D01*
X114038096Y-77573238D01*
X114085715Y-77668476D01*
X114133334Y-77858952D01*
X114133334Y-78001810D01*
X114085715Y-78192286D01*
X114038096Y-78287524D01*
X113942858Y-78382762D01*
X113800000Y-78430381D01*
X113561905Y-78430381D01*
X115085715Y-78430381D02*
X114514286Y-78430381D01*
X114800000Y-78430381D02*
X114800000Y-77430381D01*
X114704762Y-77573238D01*
X114609524Y-77668476D01*
X114514286Y-77716095D01*
X103957381Y-74398095D02*
X102957381Y-74398095D01*
X102957381Y-74160000D01*
X103005000Y-74017142D01*
X103100238Y-73921904D01*
X103195476Y-73874285D01*
X103385952Y-73826666D01*
X103528810Y-73826666D01*
X103719286Y-73874285D01*
X103814524Y-73921904D01*
X103909762Y-74017142D01*
X103957381Y-74160000D01*
X103957381Y-74398095D01*
X103052619Y-73445714D02*
X103005000Y-73398095D01*
X102957381Y-73302857D01*
X102957381Y-73064761D01*
X103005000Y-72969523D01*
X103052619Y-72921904D01*
X103147857Y-72874285D01*
X103243095Y-72874285D01*
X103385952Y-72921904D01*
X103957381Y-73493333D01*
X103957381Y-72874285D01*
X114728667Y-86320381D02*
X114728667Y-87034667D01*
X114681047Y-87177524D01*
X114585809Y-87272762D01*
X114442952Y-87320381D01*
X114347714Y-87320381D01*
X115728667Y-87320381D02*
X115157238Y-87320381D01*
X115442952Y-87320381D02*
X115442952Y-86320381D01*
X115347714Y-86463238D01*
X115252476Y-86558476D01*
X115157238Y-86606095D01*
X127301667Y-62952381D02*
X127301667Y-63666667D01*
X127254047Y-63809524D01*
X127158809Y-63904762D01*
X127015952Y-63952381D01*
X126920714Y-63952381D01*
X127730238Y-63047619D02*
X127777857Y-63000000D01*
X127873095Y-62952381D01*
X128111191Y-62952381D01*
X128206429Y-63000000D01*
X128254048Y-63047619D01*
X128301667Y-63142857D01*
X128301667Y-63238095D01*
X128254048Y-63380952D01*
X127682619Y-63952381D01*
X128301667Y-63952381D01*
X118578334Y-83002381D02*
X118245000Y-82526190D01*
X118006905Y-83002381D02*
X118006905Y-82002381D01*
X118387858Y-82002381D01*
X118483096Y-82050000D01*
X118530715Y-82097619D01*
X118578334Y-82192857D01*
X118578334Y-82335714D01*
X118530715Y-82430952D01*
X118483096Y-82478571D01*
X118387858Y-82526190D01*
X118006905Y-82526190D01*
X118911667Y-82002381D02*
X119530715Y-82002381D01*
X119197381Y-82383333D01*
X119340239Y-82383333D01*
X119435477Y-82430952D01*
X119483096Y-82478571D01*
X119530715Y-82573810D01*
X119530715Y-82811905D01*
X119483096Y-82907143D01*
X119435477Y-82954762D01*
X119340239Y-83002381D01*
X119054524Y-83002381D01*
X118959286Y-82954762D01*
X118911667Y-82907143D01*
X110434381Y-98718666D02*
X109958190Y-99052000D01*
X110434381Y-99290095D02*
X109434381Y-99290095D01*
X109434381Y-98909142D01*
X109482000Y-98813904D01*
X109529619Y-98766285D01*
X109624857Y-98718666D01*
X109767714Y-98718666D01*
X109862952Y-98766285D01*
X109910571Y-98813904D01*
X109958190Y-98909142D01*
X109958190Y-99290095D01*
X109767714Y-97861523D02*
X110434381Y-97861523D01*
X109386762Y-98099619D02*
X110101048Y-98337714D01*
X110101048Y-97718666D01*
X109926381Y-83732666D02*
X109450190Y-84066000D01*
X109926381Y-84304095D02*
X108926381Y-84304095D01*
X108926381Y-83923142D01*
X108974000Y-83827904D01*
X109021619Y-83780285D01*
X109116857Y-83732666D01*
X109259714Y-83732666D01*
X109354952Y-83780285D01*
X109402571Y-83827904D01*
X109450190Y-83923142D01*
X109450190Y-84304095D01*
X108926381Y-82827904D02*
X108926381Y-83304095D01*
X109402571Y-83351714D01*
X109354952Y-83304095D01*
X109307333Y-83208857D01*
X109307333Y-82970761D01*
X109354952Y-82875523D01*
X109402571Y-82827904D01*
X109497810Y-82780285D01*
X109735905Y-82780285D01*
X109831143Y-82827904D01*
X109878762Y-82875523D01*
X109926381Y-82970761D01*
X109926381Y-83208857D01*
X109878762Y-83304095D01*
X109831143Y-83351714D01*
X118578334Y-78557381D02*
X118245000Y-78081190D01*
X118006905Y-78557381D02*
X118006905Y-77557381D01*
X118387858Y-77557381D01*
X118483096Y-77605000D01*
X118530715Y-77652619D01*
X118578334Y-77747857D01*
X118578334Y-77890714D01*
X118530715Y-77985952D01*
X118483096Y-78033571D01*
X118387858Y-78081190D01*
X118006905Y-78081190D01*
X119435477Y-77557381D02*
X119245000Y-77557381D01*
X119149762Y-77605000D01*
X119102143Y-77652619D01*
X119006905Y-77795476D01*
X118959286Y-77985952D01*
X118959286Y-78366905D01*
X119006905Y-78462143D01*
X119054524Y-78509762D01*
X119149762Y-78557381D01*
X119340239Y-78557381D01*
X119435477Y-78509762D01*
X119483096Y-78462143D01*
X119530715Y-78366905D01*
X119530715Y-78128810D01*
X119483096Y-78033571D01*
X119435477Y-77985952D01*
X119340239Y-77938333D01*
X119149762Y-77938333D01*
X119054524Y-77985952D01*
X119006905Y-78033571D01*
X118959286Y-78128810D01*
X146200762Y-57975333D02*
X146248381Y-57832476D01*
X146248381Y-57594380D01*
X146200762Y-57499142D01*
X146153143Y-57451523D01*
X146057905Y-57403904D01*
X145962667Y-57403904D01*
X145867429Y-57451523D01*
X145819810Y-57499142D01*
X145772190Y-57594380D01*
X145724571Y-57784857D01*
X145676952Y-57880095D01*
X145629333Y-57927714D01*
X145534095Y-57975333D01*
X145438857Y-57975333D01*
X145343619Y-57927714D01*
X145296000Y-57880095D01*
X145248381Y-57784857D01*
X145248381Y-57546761D01*
X145296000Y-57403904D01*
X145248381Y-57070571D02*
X146248381Y-56832476D01*
X145534095Y-56641999D01*
X146248381Y-56451523D01*
X145248381Y-56213428D01*
X146248381Y-55308666D02*
X146248381Y-55880095D01*
X146248381Y-55594381D02*
X145248381Y-55594381D01*
X145391238Y-55689619D01*
X145486476Y-55784857D01*
X145534095Y-55880095D01*
X103973334Y-89257143D02*
X103925715Y-89304762D01*
X103782858Y-89352381D01*
X103687620Y-89352381D01*
X103544762Y-89304762D01*
X103449524Y-89209524D01*
X103401905Y-89114286D01*
X103354286Y-88923810D01*
X103354286Y-88780952D01*
X103401905Y-88590476D01*
X103449524Y-88495238D01*
X103544762Y-88400000D01*
X103687620Y-88352381D01*
X103782858Y-88352381D01*
X103925715Y-88400000D01*
X103973334Y-88447619D01*
X104306667Y-88352381D02*
X104925715Y-88352381D01*
X104592381Y-88733333D01*
X104735239Y-88733333D01*
X104830477Y-88780952D01*
X104878096Y-88828571D01*
X104925715Y-88923810D01*
X104925715Y-89161905D01*
X104878096Y-89257143D01*
X104830477Y-89304762D01*
X104735239Y-89352381D01*
X104449524Y-89352381D01*
X104354286Y-89304762D01*
X104306667Y-89257143D01*
X106370381Y-96178666D02*
X105894190Y-96512000D01*
X106370381Y-96750095D02*
X105370381Y-96750095D01*
X105370381Y-96369142D01*
X105418000Y-96273904D01*
X105465619Y-96226285D01*
X105560857Y-96178666D01*
X105703714Y-96178666D01*
X105798952Y-96226285D01*
X105846571Y-96273904D01*
X105894190Y-96369142D01*
X105894190Y-96750095D01*
X105370381Y-95845333D02*
X105370381Y-95178666D01*
X106370381Y-95607238D01*
X126813334Y-79347143D02*
X126765715Y-79394762D01*
X126622858Y-79442381D01*
X126527620Y-79442381D01*
X126384762Y-79394762D01*
X126289524Y-79299524D01*
X126241905Y-79204286D01*
X126194286Y-79013810D01*
X126194286Y-78870952D01*
X126241905Y-78680476D01*
X126289524Y-78585238D01*
X126384762Y-78490000D01*
X126527620Y-78442381D01*
X126622858Y-78442381D01*
X126765715Y-78490000D01*
X126813334Y-78537619D01*
X127765715Y-79442381D02*
X127194286Y-79442381D01*
X127480000Y-79442381D02*
X127480000Y-78442381D01*
X127384762Y-78585238D01*
X127289524Y-78680476D01*
X127194286Y-78728095D01*
X131913334Y-79097143D02*
X131865715Y-79144762D01*
X131722858Y-79192381D01*
X131627620Y-79192381D01*
X131484762Y-79144762D01*
X131389524Y-79049524D01*
X131341905Y-78954286D01*
X131294286Y-78763810D01*
X131294286Y-78620952D01*
X131341905Y-78430476D01*
X131389524Y-78335238D01*
X131484762Y-78240000D01*
X131627620Y-78192381D01*
X131722858Y-78192381D01*
X131865715Y-78240000D01*
X131913334Y-78287619D01*
X132294286Y-78287619D02*
X132341905Y-78240000D01*
X132437143Y-78192381D01*
X132675239Y-78192381D01*
X132770477Y-78240000D01*
X132818096Y-78287619D01*
X132865715Y-78382857D01*
X132865715Y-78478095D01*
X132818096Y-78620952D01*
X132246667Y-79192381D01*
X132865715Y-79192381D01*
X129357381Y-91606666D02*
X128881190Y-91940000D01*
X129357381Y-92178095D02*
X128357381Y-92178095D01*
X128357381Y-91797142D01*
X128405000Y-91701904D01*
X128452619Y-91654285D01*
X128547857Y-91606666D01*
X128690714Y-91606666D01*
X128785952Y-91654285D01*
X128833571Y-91701904D01*
X128881190Y-91797142D01*
X128881190Y-92178095D01*
X129357381Y-90654285D02*
X129357381Y-91225714D01*
X129357381Y-90940000D02*
X128357381Y-90940000D01*
X128500238Y-91035238D01*
X128595476Y-91130476D01*
X128643095Y-91225714D01*
X129357381Y-89066666D02*
X128881190Y-89400000D01*
X129357381Y-89638095D02*
X128357381Y-89638095D01*
X128357381Y-89257142D01*
X128405000Y-89161904D01*
X128452619Y-89114285D01*
X128547857Y-89066666D01*
X128690714Y-89066666D01*
X128785952Y-89114285D01*
X128833571Y-89161904D01*
X128881190Y-89257142D01*
X128881190Y-89638095D01*
X128452619Y-88685714D02*
X128405000Y-88638095D01*
X128357381Y-88542857D01*
X128357381Y-88304761D01*
X128405000Y-88209523D01*
X128452619Y-88161904D01*
X128547857Y-88114285D01*
X128643095Y-88114285D01*
X128785952Y-88161904D01*
X129357381Y-88733333D01*
X129357381Y-88114285D01*
X144597381Y-87796666D02*
X144121190Y-88130000D01*
X144597381Y-88368095D02*
X143597381Y-88368095D01*
X143597381Y-87987142D01*
X143645000Y-87891904D01*
X143692619Y-87844285D01*
X143787857Y-87796666D01*
X143930714Y-87796666D01*
X144025952Y-87844285D01*
X144073571Y-87891904D01*
X144121190Y-87987142D01*
X144121190Y-88368095D01*
X144025952Y-87225238D02*
X143978333Y-87320476D01*
X143930714Y-87368095D01*
X143835476Y-87415714D01*
X143787857Y-87415714D01*
X143692619Y-87368095D01*
X143645000Y-87320476D01*
X143597381Y-87225238D01*
X143597381Y-87034761D01*
X143645000Y-86939523D01*
X143692619Y-86891904D01*
X143787857Y-86844285D01*
X143835476Y-86844285D01*
X143930714Y-86891904D01*
X143978333Y-86939523D01*
X144025952Y-87034761D01*
X144025952Y-87225238D01*
X144073571Y-87320476D01*
X144121190Y-87368095D01*
X144216429Y-87415714D01*
X144406905Y-87415714D01*
X144502143Y-87368095D01*
X144549762Y-87320476D01*
X144597381Y-87225238D01*
X144597381Y-87034761D01*
X144549762Y-86939523D01*
X144502143Y-86891904D01*
X144406905Y-86844285D01*
X144216429Y-86844285D01*
X144121190Y-86891904D01*
X144073571Y-86939523D01*
X144025952Y-87034761D01*
X143327381Y-91606666D02*
X142851190Y-91940000D01*
X143327381Y-92178095D02*
X142327381Y-92178095D01*
X142327381Y-91797142D01*
X142375000Y-91701904D01*
X142422619Y-91654285D01*
X142517857Y-91606666D01*
X142660714Y-91606666D01*
X142755952Y-91654285D01*
X142803571Y-91701904D01*
X142851190Y-91797142D01*
X142851190Y-92178095D01*
X143327381Y-91130476D02*
X143327381Y-90940000D01*
X143279762Y-90844761D01*
X143232143Y-90797142D01*
X143089286Y-90701904D01*
X142898810Y-90654285D01*
X142517857Y-90654285D01*
X142422619Y-90701904D01*
X142375000Y-90749523D01*
X142327381Y-90844761D01*
X142327381Y-91035238D01*
X142375000Y-91130476D01*
X142422619Y-91178095D01*
X142517857Y-91225714D01*
X142755952Y-91225714D01*
X142851190Y-91178095D01*
X142898810Y-91130476D01*
X142946429Y-91035238D01*
X142946429Y-90844761D01*
X142898810Y-90749523D01*
X142851190Y-90701904D01*
X142755952Y-90654285D01*
X110355143Y-69540381D02*
X110021809Y-69064190D01*
X109783714Y-69540381D02*
X109783714Y-68540381D01*
X110164667Y-68540381D01*
X110259905Y-68588000D01*
X110307524Y-68635619D01*
X110355143Y-68730857D01*
X110355143Y-68873714D01*
X110307524Y-68968952D01*
X110259905Y-69016571D01*
X110164667Y-69064190D01*
X109783714Y-69064190D01*
X111307524Y-69540381D02*
X110736095Y-69540381D01*
X111021809Y-69540381D02*
X111021809Y-68540381D01*
X110926571Y-68683238D01*
X110831333Y-68778476D01*
X110736095Y-68826095D01*
X111688476Y-68635619D02*
X111736095Y-68588000D01*
X111831333Y-68540381D01*
X112069429Y-68540381D01*
X112164667Y-68588000D01*
X112212286Y-68635619D01*
X112259905Y-68730857D01*
X112259905Y-68826095D01*
X112212286Y-68968952D01*
X111640857Y-69540381D01*
X112259905Y-69540381D01*
X104433619Y-82645238D02*
X104386000Y-82740476D01*
X104290762Y-82835714D01*
X104147905Y-82978571D01*
X104100286Y-83073810D01*
X104100286Y-83169048D01*
X104338381Y-83121429D02*
X104290762Y-83216667D01*
X104195524Y-83311905D01*
X104005048Y-83359524D01*
X103671714Y-83359524D01*
X103481238Y-83311905D01*
X103386000Y-83216667D01*
X103338381Y-83121429D01*
X103338381Y-82930952D01*
X103386000Y-82835714D01*
X103481238Y-82740476D01*
X103671714Y-82692857D01*
X104005048Y-82692857D01*
X104195524Y-82740476D01*
X104290762Y-82835714D01*
X104338381Y-82930952D01*
X104338381Y-83121429D01*
X104338381Y-81740476D02*
X104338381Y-82311905D01*
X104338381Y-82026191D02*
X103338381Y-82026191D01*
X103481238Y-82121429D01*
X103576476Y-82216667D01*
X103624095Y-82311905D01*
X104052619Y-66135238D02*
X104005000Y-66230476D01*
X103909762Y-66325714D01*
X103766905Y-66468571D01*
X103719286Y-66563810D01*
X103719286Y-66659048D01*
X103957381Y-66611429D02*
X103909762Y-66706667D01*
X103814524Y-66801905D01*
X103624048Y-66849524D01*
X103290714Y-66849524D01*
X103100238Y-66801905D01*
X103005000Y-66706667D01*
X102957381Y-66611429D01*
X102957381Y-66420952D01*
X103005000Y-66325714D01*
X103100238Y-66230476D01*
X103290714Y-66182857D01*
X103624048Y-66182857D01*
X103814524Y-66230476D01*
X103909762Y-66325714D01*
X103957381Y-66420952D01*
X103957381Y-66611429D01*
X103052619Y-65801905D02*
X103005000Y-65754286D01*
X102957381Y-65659048D01*
X102957381Y-65420952D01*
X103005000Y-65325714D01*
X103052619Y-65278095D01*
X103147857Y-65230476D01*
X103243095Y-65230476D01*
X103385952Y-65278095D01*
X103957381Y-65849524D01*
X103957381Y-65230476D01*
X116736905Y-64587381D02*
X116736905Y-63587381D01*
X117117858Y-63587381D01*
X117213096Y-63635000D01*
X117260715Y-63682619D01*
X117308334Y-63777857D01*
X117308334Y-63920714D01*
X117260715Y-64015952D01*
X117213096Y-64063571D01*
X117117858Y-64111190D01*
X116736905Y-64111190D01*
X118260715Y-64587381D02*
X117689286Y-64587381D01*
X117975000Y-64587381D02*
X117975000Y-63587381D01*
X117879762Y-63730238D01*
X117784524Y-63825476D01*
X117689286Y-63873095D01*
X140327143Y-93924381D02*
X139993809Y-93448190D01*
X139755714Y-93924381D02*
X139755714Y-92924381D01*
X140136667Y-92924381D01*
X140231905Y-92972000D01*
X140279524Y-93019619D01*
X140327143Y-93114857D01*
X140327143Y-93257714D01*
X140279524Y-93352952D01*
X140231905Y-93400571D01*
X140136667Y-93448190D01*
X139755714Y-93448190D01*
X141279524Y-93924381D02*
X140708095Y-93924381D01*
X140993809Y-93924381D02*
X140993809Y-92924381D01*
X140898571Y-93067238D01*
X140803333Y-93162476D01*
X140708095Y-93210095D01*
X141898571Y-92924381D02*
X141993810Y-92924381D01*
X142089048Y-92972000D01*
X142136667Y-93019619D01*
X142184286Y-93114857D01*
X142231905Y-93305333D01*
X142231905Y-93543429D01*
X142184286Y-93733905D01*
X142136667Y-93829143D01*
X142089048Y-93876762D01*
X141993810Y-93924381D01*
X141898571Y-93924381D01*
X141803333Y-93876762D01*
X141755714Y-93829143D01*
X141708095Y-93733905D01*
X141660476Y-93543429D01*
X141660476Y-93305333D01*
X141708095Y-93114857D01*
X141755714Y-93019619D01*
X141803333Y-92972000D01*
X141898571Y-92924381D01*
X132707143Y-94051381D02*
X132373809Y-93575190D01*
X132135714Y-94051381D02*
X132135714Y-93051381D01*
X132516667Y-93051381D01*
X132611905Y-93099000D01*
X132659524Y-93146619D01*
X132707143Y-93241857D01*
X132707143Y-93384714D01*
X132659524Y-93479952D01*
X132611905Y-93527571D01*
X132516667Y-93575190D01*
X132135714Y-93575190D01*
X133659524Y-94051381D02*
X133088095Y-94051381D01*
X133373809Y-94051381D02*
X133373809Y-93051381D01*
X133278571Y-93194238D01*
X133183333Y-93289476D01*
X133088095Y-93337095D01*
X134611905Y-94051381D02*
X134040476Y-94051381D01*
X134326190Y-94051381D02*
X134326190Y-93051381D01*
X134230952Y-93194238D01*
X134135714Y-93289476D01*
X134040476Y-93337095D01*
M02*
