M48
;DRILL file {KiCad 4.0.6} date 04/11/17 13:59:30
;FORMAT={-:-/ absolute / inch / decimal}
FMAT,2
INCH,TZ
T1C0.024
T2C0.028
T3C0.031
T4C0.035
T5C0.039
T6C0.031
T7C0.047
T8C0.106
%
G90
G05
M72
T1
X4.1Y-3.6
X4.1Y-3.6787
T2
X4.15Y-2.9001
X4.3Y-2.9999
X4.55Y-2.9001
X4.7Y-2.9999
T3
X4.1Y-2.8
X4.1Y-3.35
X4.15Y-2.6
X4.15Y-3.0016
X4.15Y-3.1
X4.2Y-3.25
X4.2Y-3.45
X4.25Y-2.7
X4.25Y-3.55
X4.25Y-3.85
X4.3346Y-2.315
X4.3346Y-2.4252
X4.35Y-2.6
X4.4Y-2.8
X4.4Y-3.15
X4.4Y-3.45
X4.4Y-3.55
X4.4Y-3.85
X4.4173Y-2.315
X4.5Y-2.6031
X4.5Y-2.8
X4.5197Y-2.315
X4.55Y-3.15
X4.55Y-3.35
X4.6024Y-2.315
X4.85Y-3.15
X4.85Y-3.35
X4.9Y-3.5
X4.9Y-3.6
X4.9Y-3.8
X4.95Y-3.25
X4.9984Y-3.8
X5.Y-3.5
X5.Y-3.6
X5.0484Y-3.25
X5.1031Y-2.6
X5.15Y-3.6
X5.2Y-3.2
X5.2Y-3.2984
X5.2Y-3.45
X5.3Y-2.6
X5.45Y-2.85
X5.45Y-3.25
X5.4531Y-2.6
X5.55Y-3.6
X5.6Y-3.45
X5.65Y-2.6
X5.7Y-2.85
X5.7Y-3.25
T4
X5.1531Y-3.75
X5.1531Y-3.8484
X5.2516Y-3.75
X5.2516Y-3.8484
X5.35Y-3.75
X5.35Y-3.8484
X5.4531Y-3.75
X5.4531Y-3.8484
X5.5516Y-3.75
X5.5516Y-3.8484
X5.65Y-3.75
X5.65Y-3.8484
T5
X5.4331Y-2.2913
X5.4331Y-2.4882
X5.5315Y-2.4882
X5.6299Y-2.2913
X5.6299Y-2.4882
T6
X4.6024Y-2.4252
T7
X4.6732Y-3.4882
X4.6732Y-3.7638
X5.0512Y-2.1417
X5.0512Y-2.4173
T8
X4.0354Y-2.0669
X4.0354Y-3.8386
X5.8071Y-2.0669
X5.8071Y-3.8386
T1
X4.5472Y-3.8268G85X4.5472Y-3.8031
G05
X4.5866Y-3.4921G85X4.5866Y-3.4685
G05
X4.7638Y-3.5512G85X4.7638Y-3.5276
G05
X4.7638Y-3.7087G85X4.7638Y-3.685
G05
X4.7638Y-3.8268G85X4.7638Y-3.8031
G05
X4.9606Y-2.0787G85X4.9606Y-2.1024
G05
X4.9606Y-2.1969G85X4.9606Y-2.2205
G05
X4.9606Y-2.3543G85X4.9606Y-2.378
G05
X5.1378Y-2.4134G85X5.1378Y-2.437
G05
X5.1772Y-2.0787G85X5.1772Y-2.1024
G05
T5
X4.1988Y-2.2323G85X4.1988Y-2.1732
G05
X4.5079Y-2.1713G85X4.4291Y-2.1713
G05
X4.7382Y-2.2323G85X4.7382Y-2.1732
G05
T0
M30
