G04 #@! TF.FileFunction,Legend,Bot*
%FSLAX46Y46*%
G04 Gerber Fmt 4.6, Leading zero omitted, Abs format (unit mm)*
G04 Created by KiCad (PCBNEW 4.0.6) date 04/11/17 13:58:44*
%MOMM*%
%LPD*%
G01*
G04 APERTURE LIST*
%ADD10C,0.100000*%
%ADD11C,0.200000*%
%ADD12C,0.010000*%
G04 APERTURE END LIST*
D10*
D11*
X120161523Y-99371476D02*
X120161523Y-98121476D01*
X119685332Y-98121476D01*
X119566285Y-98181000D01*
X119506761Y-98240524D01*
X119447237Y-98359571D01*
X119447237Y-98538143D01*
X119506761Y-98657190D01*
X119566285Y-98716714D01*
X119685332Y-98776238D01*
X120161523Y-98776238D01*
X118911523Y-99371476D02*
X118911523Y-98121476D01*
X118375809Y-99371476D02*
X118375809Y-98716714D01*
X118435332Y-98597667D01*
X118554380Y-98538143D01*
X118732952Y-98538143D01*
X118851999Y-98597667D01*
X118911523Y-98657190D01*
X117602000Y-99371476D02*
X117721047Y-99311952D01*
X117780571Y-99252429D01*
X117840095Y-99133381D01*
X117840095Y-98776238D01*
X117780571Y-98657190D01*
X117721047Y-98597667D01*
X117602000Y-98538143D01*
X117423428Y-98538143D01*
X117304380Y-98597667D01*
X117244857Y-98657190D01*
X117185333Y-98776238D01*
X117185333Y-99133381D01*
X117244857Y-99252429D01*
X117304380Y-99311952D01*
X117423428Y-99371476D01*
X117602000Y-99371476D01*
X116649619Y-98538143D02*
X116649619Y-99371476D01*
X116649619Y-98657190D02*
X116590095Y-98597667D01*
X116471048Y-98538143D01*
X116292476Y-98538143D01*
X116173428Y-98597667D01*
X116113905Y-98716714D01*
X116113905Y-99371476D01*
X115042476Y-99311952D02*
X115161524Y-99371476D01*
X115399619Y-99371476D01*
X115518667Y-99311952D01*
X115578191Y-99192905D01*
X115578191Y-98716714D01*
X115518667Y-98597667D01*
X115399619Y-98538143D01*
X115161524Y-98538143D01*
X115042476Y-98597667D01*
X114982953Y-98716714D01*
X114982953Y-98835762D01*
X115578191Y-98954810D01*
X134302380Y-90352976D02*
X133588095Y-90352976D01*
X133945238Y-91602976D02*
X133945238Y-90352976D01*
X133290476Y-90352976D02*
X132457142Y-91602976D01*
X132457142Y-90352976D02*
X133290476Y-91602976D01*
X134451190Y-92487500D02*
X134570238Y-92427976D01*
X134748809Y-92427976D01*
X134927381Y-92487500D01*
X135046428Y-92606548D01*
X135105952Y-92725595D01*
X135165476Y-92963690D01*
X135165476Y-93142262D01*
X135105952Y-93380357D01*
X135046428Y-93499405D01*
X134927381Y-93618452D01*
X134748809Y-93677976D01*
X134629761Y-93677976D01*
X134451190Y-93618452D01*
X134391666Y-93558929D01*
X134391666Y-93142262D01*
X134629761Y-93142262D01*
X133320238Y-93677976D02*
X133320238Y-93023214D01*
X133379761Y-92904167D01*
X133498809Y-92844643D01*
X133736904Y-92844643D01*
X133855952Y-92904167D01*
X133320238Y-93618452D02*
X133439285Y-93677976D01*
X133736904Y-93677976D01*
X133855952Y-93618452D01*
X133915476Y-93499405D01*
X133915476Y-93380357D01*
X133855952Y-93261310D01*
X133736904Y-93201786D01*
X133439285Y-93201786D01*
X133320238Y-93142262D01*
X132725000Y-93677976D02*
X132725000Y-92844643D01*
X132725000Y-92427976D02*
X132784524Y-92487500D01*
X132725000Y-92547024D01*
X132665476Y-92487500D01*
X132725000Y-92427976D01*
X132725000Y-92547024D01*
X132129762Y-92844643D02*
X132129762Y-93677976D01*
X132129762Y-92963690D02*
X132070238Y-92904167D01*
X131951191Y-92844643D01*
X131772619Y-92844643D01*
X131653571Y-92904167D01*
X131594048Y-93023214D01*
X131594048Y-93677976D01*
X146893333Y-93507976D02*
X147310000Y-92912738D01*
X147607619Y-93507976D02*
X147607619Y-92257976D01*
X147131428Y-92257976D01*
X147012381Y-92317500D01*
X146952857Y-92377024D01*
X146893333Y-92496071D01*
X146893333Y-92674643D01*
X146952857Y-92793690D01*
X147012381Y-92853214D01*
X147131428Y-92912738D01*
X147607619Y-92912738D01*
X146476667Y-92257976D02*
X145643333Y-93507976D01*
X145643333Y-92257976D02*
X146476667Y-93507976D01*
X147786190Y-94392500D02*
X147905238Y-94332976D01*
X148083809Y-94332976D01*
X148262381Y-94392500D01*
X148381428Y-94511548D01*
X148440952Y-94630595D01*
X148500476Y-94868690D01*
X148500476Y-95047262D01*
X148440952Y-95285357D01*
X148381428Y-95404405D01*
X148262381Y-95523452D01*
X148083809Y-95582976D01*
X147964761Y-95582976D01*
X147786190Y-95523452D01*
X147726666Y-95463929D01*
X147726666Y-95047262D01*
X147964761Y-95047262D01*
X146655238Y-95582976D02*
X146655238Y-94928214D01*
X146714761Y-94809167D01*
X146833809Y-94749643D01*
X147071904Y-94749643D01*
X147190952Y-94809167D01*
X146655238Y-95523452D02*
X146774285Y-95582976D01*
X147071904Y-95582976D01*
X147190952Y-95523452D01*
X147250476Y-95404405D01*
X147250476Y-95285357D01*
X147190952Y-95166310D01*
X147071904Y-95106786D01*
X146774285Y-95106786D01*
X146655238Y-95047262D01*
X146060000Y-95582976D02*
X146060000Y-94749643D01*
X146060000Y-94332976D02*
X146119524Y-94392500D01*
X146060000Y-94452024D01*
X146000476Y-94392500D01*
X146060000Y-94332976D01*
X146060000Y-94452024D01*
X145464762Y-94749643D02*
X145464762Y-95582976D01*
X145464762Y-94868690D02*
X145405238Y-94809167D01*
X145286191Y-94749643D01*
X145107619Y-94749643D01*
X144988571Y-94809167D01*
X144929048Y-94928214D01*
X144929048Y-95582976D01*
D12*
G36*
X128041371Y-70214066D02*
X128001889Y-70214467D01*
X127886200Y-70217259D01*
X127789311Y-70225550D01*
X127707919Y-70240232D01*
X127638723Y-70262193D01*
X127578420Y-70292322D01*
X127523708Y-70331510D01*
X127504167Y-70348532D01*
X127471750Y-70388363D01*
X127442520Y-70442413D01*
X127419991Y-70502323D01*
X127407679Y-70559739D01*
X127406400Y-70580956D01*
X127414417Y-70639769D01*
X127435899Y-70704013D01*
X127466999Y-70764821D01*
X127503866Y-70813330D01*
X127509854Y-70819182D01*
X127560579Y-70860321D01*
X127616125Y-70892435D01*
X127679696Y-70916365D01*
X127754494Y-70932953D01*
X127843722Y-70943041D01*
X127950582Y-70947469D01*
X127999528Y-70947845D01*
X128061762Y-70947545D01*
X128105528Y-70946292D01*
X128134931Y-70943554D01*
X128154079Y-70938801D01*
X128167077Y-70931501D01*
X128174045Y-70925267D01*
X128180626Y-70917694D01*
X128185788Y-70907924D01*
X128189703Y-70893340D01*
X128192543Y-70871326D01*
X128194480Y-70839264D01*
X128195684Y-70794536D01*
X128196328Y-70734526D01*
X128196583Y-70656617D01*
X128196622Y-70580956D01*
X128196870Y-70480041D01*
X128196817Y-70399427D01*
X128195857Y-70360822D01*
X128049867Y-70360822D01*
X128049867Y-70801089D01*
X127956734Y-70801004D01*
X127900693Y-70799396D01*
X127841999Y-70795256D01*
X127793028Y-70789464D01*
X127791538Y-70789226D01*
X127712392Y-70770090D01*
X127651002Y-70740287D01*
X127604305Y-70697878D01*
X127574635Y-70651961D01*
X127556353Y-70601026D01*
X127557771Y-70553200D01*
X127578988Y-70501933D01*
X127620489Y-70448899D01*
X127677998Y-70409600D01*
X127752750Y-70383331D01*
X127802708Y-70374035D01*
X127859416Y-70367507D01*
X127919519Y-70362782D01*
X127970639Y-70360817D01*
X127973667Y-70360808D01*
X128049867Y-70360822D01*
X128195857Y-70360822D01*
X128195260Y-70336851D01*
X128190998Y-70290055D01*
X128182830Y-70256778D01*
X128169556Y-70234759D01*
X128149974Y-70221739D01*
X128122883Y-70215457D01*
X128087082Y-70213653D01*
X128041371Y-70214066D01*
X128041371Y-70214066D01*
G37*
X128041371Y-70214066D02*
X128001889Y-70214467D01*
X127886200Y-70217259D01*
X127789311Y-70225550D01*
X127707919Y-70240232D01*
X127638723Y-70262193D01*
X127578420Y-70292322D01*
X127523708Y-70331510D01*
X127504167Y-70348532D01*
X127471750Y-70388363D01*
X127442520Y-70442413D01*
X127419991Y-70502323D01*
X127407679Y-70559739D01*
X127406400Y-70580956D01*
X127414417Y-70639769D01*
X127435899Y-70704013D01*
X127466999Y-70764821D01*
X127503866Y-70813330D01*
X127509854Y-70819182D01*
X127560579Y-70860321D01*
X127616125Y-70892435D01*
X127679696Y-70916365D01*
X127754494Y-70932953D01*
X127843722Y-70943041D01*
X127950582Y-70947469D01*
X127999528Y-70947845D01*
X128061762Y-70947545D01*
X128105528Y-70946292D01*
X128134931Y-70943554D01*
X128154079Y-70938801D01*
X128167077Y-70931501D01*
X128174045Y-70925267D01*
X128180626Y-70917694D01*
X128185788Y-70907924D01*
X128189703Y-70893340D01*
X128192543Y-70871326D01*
X128194480Y-70839264D01*
X128195684Y-70794536D01*
X128196328Y-70734526D01*
X128196583Y-70656617D01*
X128196622Y-70580956D01*
X128196870Y-70480041D01*
X128196817Y-70399427D01*
X128195857Y-70360822D01*
X128049867Y-70360822D01*
X128049867Y-70801089D01*
X127956734Y-70801004D01*
X127900693Y-70799396D01*
X127841999Y-70795256D01*
X127793028Y-70789464D01*
X127791538Y-70789226D01*
X127712392Y-70770090D01*
X127651002Y-70740287D01*
X127604305Y-70697878D01*
X127574635Y-70651961D01*
X127556353Y-70601026D01*
X127557771Y-70553200D01*
X127578988Y-70501933D01*
X127620489Y-70448899D01*
X127677998Y-70409600D01*
X127752750Y-70383331D01*
X127802708Y-70374035D01*
X127859416Y-70367507D01*
X127919519Y-70362782D01*
X127970639Y-70360817D01*
X127973667Y-70360808D01*
X128049867Y-70360822D01*
X128195857Y-70360822D01*
X128195260Y-70336851D01*
X128190998Y-70290055D01*
X128182830Y-70256778D01*
X128169556Y-70234759D01*
X128149974Y-70221739D01*
X128122883Y-70215457D01*
X128087082Y-70213653D01*
X128041371Y-70214066D01*
G36*
X126632794Y-70214146D02*
X126563386Y-70214518D01*
X126510997Y-70215385D01*
X126472847Y-70216946D01*
X126446159Y-70219403D01*
X126428153Y-70222957D01*
X126416049Y-70227810D01*
X126407069Y-70234161D01*
X126403818Y-70237084D01*
X126384043Y-70268142D01*
X126380482Y-70303828D01*
X126393491Y-70335510D01*
X126399506Y-70341913D01*
X126409235Y-70348121D01*
X126424901Y-70352910D01*
X126449408Y-70356514D01*
X126485661Y-70359164D01*
X126536565Y-70361095D01*
X126605026Y-70362539D01*
X126667617Y-70363418D01*
X126915334Y-70366467D01*
X126918719Y-70431378D01*
X126922105Y-70496289D01*
X126753958Y-70496289D01*
X126680959Y-70496919D01*
X126627517Y-70499553D01*
X126590628Y-70505309D01*
X126567288Y-70515304D01*
X126554494Y-70530656D01*
X126549242Y-70552482D01*
X126548445Y-70572738D01*
X126550923Y-70597592D01*
X126560277Y-70615906D01*
X126579383Y-70628637D01*
X126611118Y-70636741D01*
X126658359Y-70641176D01*
X126723983Y-70642899D01*
X126759801Y-70643045D01*
X126920978Y-70643045D01*
X126920978Y-70801089D01*
X126672622Y-70801089D01*
X126591213Y-70801202D01*
X126529342Y-70801712D01*
X126483968Y-70802870D01*
X126452054Y-70804930D01*
X126430559Y-70808146D01*
X126416443Y-70812772D01*
X126406668Y-70819059D01*
X126401689Y-70823667D01*
X126384610Y-70850560D01*
X126379111Y-70874467D01*
X126386963Y-70903667D01*
X126401689Y-70925267D01*
X126409546Y-70932066D01*
X126419688Y-70937346D01*
X126434844Y-70941298D01*
X126457741Y-70944113D01*
X126491109Y-70945982D01*
X126537675Y-70947098D01*
X126600167Y-70947651D01*
X126681314Y-70947833D01*
X126723422Y-70947845D01*
X126813598Y-70947765D01*
X126883924Y-70947398D01*
X126937129Y-70946552D01*
X126975940Y-70945036D01*
X127003087Y-70942659D01*
X127021298Y-70939229D01*
X127033300Y-70934554D01*
X127041822Y-70928444D01*
X127045156Y-70925267D01*
X127051755Y-70917670D01*
X127056927Y-70907870D01*
X127060846Y-70893239D01*
X127063684Y-70871152D01*
X127065615Y-70838982D01*
X127066812Y-70794103D01*
X127067448Y-70733889D01*
X127067697Y-70655713D01*
X127067734Y-70582923D01*
X127067700Y-70489707D01*
X127067465Y-70416431D01*
X127066830Y-70360458D01*
X127065594Y-70319151D01*
X127063556Y-70289872D01*
X127060517Y-70269984D01*
X127056277Y-70256850D01*
X127050635Y-70247832D01*
X127043391Y-70240293D01*
X127041606Y-70238612D01*
X127032945Y-70231172D01*
X127022882Y-70225409D01*
X127008625Y-70221112D01*
X126987383Y-70218064D01*
X126956364Y-70216051D01*
X126912777Y-70214860D01*
X126853831Y-70214275D01*
X126776734Y-70214083D01*
X126722001Y-70214067D01*
X126632794Y-70214146D01*
X126632794Y-70214146D01*
G37*
X126632794Y-70214146D02*
X126563386Y-70214518D01*
X126510997Y-70215385D01*
X126472847Y-70216946D01*
X126446159Y-70219403D01*
X126428153Y-70222957D01*
X126416049Y-70227810D01*
X126407069Y-70234161D01*
X126403818Y-70237084D01*
X126384043Y-70268142D01*
X126380482Y-70303828D01*
X126393491Y-70335510D01*
X126399506Y-70341913D01*
X126409235Y-70348121D01*
X126424901Y-70352910D01*
X126449408Y-70356514D01*
X126485661Y-70359164D01*
X126536565Y-70361095D01*
X126605026Y-70362539D01*
X126667617Y-70363418D01*
X126915334Y-70366467D01*
X126918719Y-70431378D01*
X126922105Y-70496289D01*
X126753958Y-70496289D01*
X126680959Y-70496919D01*
X126627517Y-70499553D01*
X126590628Y-70505309D01*
X126567288Y-70515304D01*
X126554494Y-70530656D01*
X126549242Y-70552482D01*
X126548445Y-70572738D01*
X126550923Y-70597592D01*
X126560277Y-70615906D01*
X126579383Y-70628637D01*
X126611118Y-70636741D01*
X126658359Y-70641176D01*
X126723983Y-70642899D01*
X126759801Y-70643045D01*
X126920978Y-70643045D01*
X126920978Y-70801089D01*
X126672622Y-70801089D01*
X126591213Y-70801202D01*
X126529342Y-70801712D01*
X126483968Y-70802870D01*
X126452054Y-70804930D01*
X126430559Y-70808146D01*
X126416443Y-70812772D01*
X126406668Y-70819059D01*
X126401689Y-70823667D01*
X126384610Y-70850560D01*
X126379111Y-70874467D01*
X126386963Y-70903667D01*
X126401689Y-70925267D01*
X126409546Y-70932066D01*
X126419688Y-70937346D01*
X126434844Y-70941298D01*
X126457741Y-70944113D01*
X126491109Y-70945982D01*
X126537675Y-70947098D01*
X126600167Y-70947651D01*
X126681314Y-70947833D01*
X126723422Y-70947845D01*
X126813598Y-70947765D01*
X126883924Y-70947398D01*
X126937129Y-70946552D01*
X126975940Y-70945036D01*
X127003087Y-70942659D01*
X127021298Y-70939229D01*
X127033300Y-70934554D01*
X127041822Y-70928444D01*
X127045156Y-70925267D01*
X127051755Y-70917670D01*
X127056927Y-70907870D01*
X127060846Y-70893239D01*
X127063684Y-70871152D01*
X127065615Y-70838982D01*
X127066812Y-70794103D01*
X127067448Y-70733889D01*
X127067697Y-70655713D01*
X127067734Y-70582923D01*
X127067700Y-70489707D01*
X127067465Y-70416431D01*
X127066830Y-70360458D01*
X127065594Y-70319151D01*
X127063556Y-70289872D01*
X127060517Y-70269984D01*
X127056277Y-70256850D01*
X127050635Y-70247832D01*
X127043391Y-70240293D01*
X127041606Y-70238612D01*
X127032945Y-70231172D01*
X127022882Y-70225409D01*
X127008625Y-70221112D01*
X126987383Y-70218064D01*
X126956364Y-70216051D01*
X126912777Y-70214860D01*
X126853831Y-70214275D01*
X126776734Y-70214083D01*
X126722001Y-70214067D01*
X126632794Y-70214146D01*
G36*
X125611703Y-70215351D02*
X125536888Y-70220581D01*
X125467306Y-70228750D01*
X125407002Y-70239550D01*
X125360020Y-70252673D01*
X125330406Y-70267813D01*
X125325860Y-70272269D01*
X125310054Y-70306850D01*
X125314847Y-70342351D01*
X125339364Y-70372725D01*
X125340534Y-70373596D01*
X125354954Y-70382954D01*
X125370008Y-70387876D01*
X125391005Y-70388473D01*
X125423257Y-70384861D01*
X125472073Y-70377154D01*
X125476000Y-70376505D01*
X125548739Y-70367569D01*
X125627217Y-70363161D01*
X125705927Y-70363119D01*
X125779361Y-70367279D01*
X125842011Y-70375479D01*
X125888370Y-70387557D01*
X125891416Y-70388771D01*
X125925048Y-70407615D01*
X125936864Y-70426685D01*
X125927614Y-70445439D01*
X125898047Y-70463337D01*
X125848911Y-70479837D01*
X125780957Y-70494396D01*
X125735645Y-70501406D01*
X125641456Y-70514889D01*
X125566544Y-70527214D01*
X125507717Y-70539449D01*
X125461785Y-70552661D01*
X125425555Y-70567917D01*
X125395838Y-70586285D01*
X125369442Y-70608831D01*
X125348230Y-70630971D01*
X125323065Y-70661819D01*
X125310681Y-70688345D01*
X125306808Y-70721026D01*
X125306667Y-70732995D01*
X125309576Y-70772712D01*
X125321202Y-70802259D01*
X125341323Y-70828486D01*
X125382216Y-70868576D01*
X125427817Y-70899149D01*
X125481513Y-70921203D01*
X125546692Y-70935735D01*
X125626744Y-70943741D01*
X125725057Y-70946218D01*
X125741289Y-70946177D01*
X125806849Y-70944818D01*
X125871866Y-70941730D01*
X125929252Y-70937356D01*
X125971922Y-70932140D01*
X125975372Y-70931541D01*
X126017796Y-70921491D01*
X126053780Y-70908796D01*
X126074150Y-70897190D01*
X126093107Y-70866572D01*
X126094427Y-70830918D01*
X126078085Y-70799144D01*
X126074429Y-70795551D01*
X126059315Y-70784876D01*
X126040415Y-70780276D01*
X126011162Y-70781059D01*
X125975651Y-70785127D01*
X125935970Y-70788762D01*
X125880345Y-70791828D01*
X125815406Y-70794053D01*
X125747785Y-70795164D01*
X125730000Y-70795237D01*
X125662128Y-70794964D01*
X125612454Y-70793646D01*
X125576610Y-70790827D01*
X125550224Y-70786050D01*
X125528926Y-70778857D01*
X125516126Y-70772867D01*
X125488000Y-70756233D01*
X125470068Y-70741168D01*
X125467447Y-70736897D01*
X125472976Y-70719263D01*
X125499260Y-70702192D01*
X125544478Y-70686458D01*
X125606808Y-70672838D01*
X125625171Y-70669804D01*
X125721090Y-70654738D01*
X125797641Y-70642146D01*
X125857780Y-70631111D01*
X125904460Y-70620720D01*
X125940637Y-70610056D01*
X125969265Y-70598205D01*
X125993298Y-70584251D01*
X126015692Y-70567281D01*
X126039402Y-70546378D01*
X126047380Y-70539049D01*
X126075353Y-70511699D01*
X126090160Y-70490029D01*
X126095952Y-70465232D01*
X126096889Y-70433983D01*
X126086575Y-70372705D01*
X126055752Y-70320640D01*
X126004595Y-70277958D01*
X125933283Y-70244825D01*
X125882400Y-70229964D01*
X125827100Y-70220366D01*
X125760853Y-70214936D01*
X125687706Y-70213367D01*
X125611703Y-70215351D01*
X125611703Y-70215351D01*
G37*
X125611703Y-70215351D02*
X125536888Y-70220581D01*
X125467306Y-70228750D01*
X125407002Y-70239550D01*
X125360020Y-70252673D01*
X125330406Y-70267813D01*
X125325860Y-70272269D01*
X125310054Y-70306850D01*
X125314847Y-70342351D01*
X125339364Y-70372725D01*
X125340534Y-70373596D01*
X125354954Y-70382954D01*
X125370008Y-70387876D01*
X125391005Y-70388473D01*
X125423257Y-70384861D01*
X125472073Y-70377154D01*
X125476000Y-70376505D01*
X125548739Y-70367569D01*
X125627217Y-70363161D01*
X125705927Y-70363119D01*
X125779361Y-70367279D01*
X125842011Y-70375479D01*
X125888370Y-70387557D01*
X125891416Y-70388771D01*
X125925048Y-70407615D01*
X125936864Y-70426685D01*
X125927614Y-70445439D01*
X125898047Y-70463337D01*
X125848911Y-70479837D01*
X125780957Y-70494396D01*
X125735645Y-70501406D01*
X125641456Y-70514889D01*
X125566544Y-70527214D01*
X125507717Y-70539449D01*
X125461785Y-70552661D01*
X125425555Y-70567917D01*
X125395838Y-70586285D01*
X125369442Y-70608831D01*
X125348230Y-70630971D01*
X125323065Y-70661819D01*
X125310681Y-70688345D01*
X125306808Y-70721026D01*
X125306667Y-70732995D01*
X125309576Y-70772712D01*
X125321202Y-70802259D01*
X125341323Y-70828486D01*
X125382216Y-70868576D01*
X125427817Y-70899149D01*
X125481513Y-70921203D01*
X125546692Y-70935735D01*
X125626744Y-70943741D01*
X125725057Y-70946218D01*
X125741289Y-70946177D01*
X125806849Y-70944818D01*
X125871866Y-70941730D01*
X125929252Y-70937356D01*
X125971922Y-70932140D01*
X125975372Y-70931541D01*
X126017796Y-70921491D01*
X126053780Y-70908796D01*
X126074150Y-70897190D01*
X126093107Y-70866572D01*
X126094427Y-70830918D01*
X126078085Y-70799144D01*
X126074429Y-70795551D01*
X126059315Y-70784876D01*
X126040415Y-70780276D01*
X126011162Y-70781059D01*
X125975651Y-70785127D01*
X125935970Y-70788762D01*
X125880345Y-70791828D01*
X125815406Y-70794053D01*
X125747785Y-70795164D01*
X125730000Y-70795237D01*
X125662128Y-70794964D01*
X125612454Y-70793646D01*
X125576610Y-70790827D01*
X125550224Y-70786050D01*
X125528926Y-70778857D01*
X125516126Y-70772867D01*
X125488000Y-70756233D01*
X125470068Y-70741168D01*
X125467447Y-70736897D01*
X125472976Y-70719263D01*
X125499260Y-70702192D01*
X125544478Y-70686458D01*
X125606808Y-70672838D01*
X125625171Y-70669804D01*
X125721090Y-70654738D01*
X125797641Y-70642146D01*
X125857780Y-70631111D01*
X125904460Y-70620720D01*
X125940637Y-70610056D01*
X125969265Y-70598205D01*
X125993298Y-70584251D01*
X126015692Y-70567281D01*
X126039402Y-70546378D01*
X126047380Y-70539049D01*
X126075353Y-70511699D01*
X126090160Y-70490029D01*
X126095952Y-70465232D01*
X126096889Y-70433983D01*
X126086575Y-70372705D01*
X126055752Y-70320640D01*
X126004595Y-70277958D01*
X125933283Y-70244825D01*
X125882400Y-70229964D01*
X125827100Y-70220366D01*
X125760853Y-70214936D01*
X125687706Y-70213367D01*
X125611703Y-70215351D01*
G36*
X124843822Y-70236645D02*
X124837242Y-70244218D01*
X124832079Y-70253987D01*
X124828164Y-70268571D01*
X124825324Y-70290585D01*
X124823387Y-70322648D01*
X124822183Y-70367375D01*
X124821539Y-70427385D01*
X124821284Y-70505294D01*
X124821245Y-70580956D01*
X124821314Y-70674802D01*
X124821638Y-70748689D01*
X124822386Y-70805232D01*
X124823732Y-70847049D01*
X124825846Y-70876757D01*
X124828900Y-70896973D01*
X124833066Y-70910314D01*
X124838516Y-70919398D01*
X124843822Y-70925267D01*
X124876826Y-70944947D01*
X124911991Y-70943181D01*
X124943455Y-70921717D01*
X124950684Y-70913337D01*
X124956334Y-70903614D01*
X124960599Y-70889861D01*
X124963673Y-70869389D01*
X124965752Y-70839512D01*
X124967030Y-70797541D01*
X124967701Y-70740789D01*
X124967959Y-70666567D01*
X124968000Y-70582537D01*
X124968000Y-70269485D01*
X124940291Y-70241776D01*
X124906137Y-70218463D01*
X124873006Y-70217623D01*
X124843822Y-70236645D01*
X124843822Y-70236645D01*
G37*
X124843822Y-70236645D02*
X124837242Y-70244218D01*
X124832079Y-70253987D01*
X124828164Y-70268571D01*
X124825324Y-70290585D01*
X124823387Y-70322648D01*
X124822183Y-70367375D01*
X124821539Y-70427385D01*
X124821284Y-70505294D01*
X124821245Y-70580956D01*
X124821314Y-70674802D01*
X124821638Y-70748689D01*
X124822386Y-70805232D01*
X124823732Y-70847049D01*
X124825846Y-70876757D01*
X124828900Y-70896973D01*
X124833066Y-70910314D01*
X124838516Y-70919398D01*
X124843822Y-70925267D01*
X124876826Y-70944947D01*
X124911991Y-70943181D01*
X124943455Y-70921717D01*
X124950684Y-70913337D01*
X124956334Y-70903614D01*
X124960599Y-70889861D01*
X124963673Y-70869389D01*
X124965752Y-70839512D01*
X124967030Y-70797541D01*
X124967701Y-70740789D01*
X124967959Y-70666567D01*
X124968000Y-70582537D01*
X124968000Y-70269485D01*
X124940291Y-70241776D01*
X124906137Y-70218463D01*
X124873006Y-70217623D01*
X124843822Y-70236645D01*
G36*
X123870081Y-70219599D02*
X123801565Y-70231095D01*
X123748943Y-70248967D01*
X123714708Y-70272499D01*
X123705379Y-70285924D01*
X123695893Y-70317148D01*
X123702277Y-70345395D01*
X123722430Y-70372182D01*
X123753745Y-70384713D01*
X123799183Y-70383696D01*
X123834326Y-70376906D01*
X123912419Y-70363971D01*
X123992226Y-70362742D01*
X124081555Y-70373241D01*
X124106229Y-70377690D01*
X124189291Y-70401108D01*
X124254273Y-70435945D01*
X124300461Y-70481604D01*
X124327145Y-70537494D01*
X124332663Y-70566388D01*
X124329051Y-70625012D01*
X124305729Y-70676879D01*
X124264824Y-70720978D01*
X124208459Y-70756299D01*
X124138760Y-70781829D01*
X124057852Y-70796559D01*
X123967860Y-70799478D01*
X123870910Y-70789575D01*
X123865436Y-70788641D01*
X123826875Y-70781459D01*
X123805494Y-70774521D01*
X123796227Y-70764227D01*
X123794006Y-70746976D01*
X123793956Y-70737841D01*
X123793956Y-70699489D01*
X123862431Y-70699489D01*
X123922900Y-70695347D01*
X123964165Y-70682147D01*
X123988175Y-70658730D01*
X123996877Y-70623936D01*
X123996983Y-70619394D01*
X123991892Y-70589654D01*
X123974433Y-70568419D01*
X123941939Y-70554366D01*
X123891743Y-70546173D01*
X123843123Y-70543161D01*
X123772456Y-70541433D01*
X123721198Y-70544070D01*
X123686239Y-70553800D01*
X123664470Y-70573353D01*
X123652780Y-70605456D01*
X123648060Y-70652838D01*
X123647200Y-70715071D01*
X123648609Y-70784535D01*
X123652848Y-70831786D01*
X123659936Y-70857012D01*
X123661311Y-70858988D01*
X123700228Y-70890508D01*
X123757286Y-70915470D01*
X123828869Y-70933340D01*
X123911358Y-70943586D01*
X124001139Y-70945673D01*
X124094592Y-70939068D01*
X124149556Y-70930956D01*
X124235766Y-70906554D01*
X124315892Y-70866662D01*
X124382977Y-70814887D01*
X124393173Y-70804539D01*
X124426302Y-70761035D01*
X124456194Y-70707118D01*
X124479357Y-70650592D01*
X124492298Y-70599259D01*
X124493858Y-70579544D01*
X124487218Y-70538419D01*
X124469568Y-70487252D01*
X124444297Y-70433394D01*
X124414789Y-70384195D01*
X124388719Y-70351334D01*
X124327765Y-70302452D01*
X124248969Y-70263545D01*
X124155157Y-70235494D01*
X124049150Y-70219179D01*
X123952000Y-70215192D01*
X123870081Y-70219599D01*
X123870081Y-70219599D01*
G37*
X123870081Y-70219599D02*
X123801565Y-70231095D01*
X123748943Y-70248967D01*
X123714708Y-70272499D01*
X123705379Y-70285924D01*
X123695893Y-70317148D01*
X123702277Y-70345395D01*
X123722430Y-70372182D01*
X123753745Y-70384713D01*
X123799183Y-70383696D01*
X123834326Y-70376906D01*
X123912419Y-70363971D01*
X123992226Y-70362742D01*
X124081555Y-70373241D01*
X124106229Y-70377690D01*
X124189291Y-70401108D01*
X124254273Y-70435945D01*
X124300461Y-70481604D01*
X124327145Y-70537494D01*
X124332663Y-70566388D01*
X124329051Y-70625012D01*
X124305729Y-70676879D01*
X124264824Y-70720978D01*
X124208459Y-70756299D01*
X124138760Y-70781829D01*
X124057852Y-70796559D01*
X123967860Y-70799478D01*
X123870910Y-70789575D01*
X123865436Y-70788641D01*
X123826875Y-70781459D01*
X123805494Y-70774521D01*
X123796227Y-70764227D01*
X123794006Y-70746976D01*
X123793956Y-70737841D01*
X123793956Y-70699489D01*
X123862431Y-70699489D01*
X123922900Y-70695347D01*
X123964165Y-70682147D01*
X123988175Y-70658730D01*
X123996877Y-70623936D01*
X123996983Y-70619394D01*
X123991892Y-70589654D01*
X123974433Y-70568419D01*
X123941939Y-70554366D01*
X123891743Y-70546173D01*
X123843123Y-70543161D01*
X123772456Y-70541433D01*
X123721198Y-70544070D01*
X123686239Y-70553800D01*
X123664470Y-70573353D01*
X123652780Y-70605456D01*
X123648060Y-70652838D01*
X123647200Y-70715071D01*
X123648609Y-70784535D01*
X123652848Y-70831786D01*
X123659936Y-70857012D01*
X123661311Y-70858988D01*
X123700228Y-70890508D01*
X123757286Y-70915470D01*
X123828869Y-70933340D01*
X123911358Y-70943586D01*
X124001139Y-70945673D01*
X124094592Y-70939068D01*
X124149556Y-70930956D01*
X124235766Y-70906554D01*
X124315892Y-70866662D01*
X124382977Y-70814887D01*
X124393173Y-70804539D01*
X124426302Y-70761035D01*
X124456194Y-70707118D01*
X124479357Y-70650592D01*
X124492298Y-70599259D01*
X124493858Y-70579544D01*
X124487218Y-70538419D01*
X124469568Y-70487252D01*
X124444297Y-70433394D01*
X124414789Y-70384195D01*
X124388719Y-70351334D01*
X124327765Y-70302452D01*
X124248969Y-70263545D01*
X124155157Y-70235494D01*
X124049150Y-70219179D01*
X123952000Y-70215192D01*
X123870081Y-70219599D01*
G36*
X123220114Y-70218448D02*
X123196548Y-70232273D01*
X123165735Y-70254881D01*
X123126078Y-70287338D01*
X123075980Y-70330708D01*
X123013843Y-70386058D01*
X122938072Y-70454451D01*
X122851334Y-70533084D01*
X122670711Y-70696878D01*
X122665067Y-70477029D01*
X122663029Y-70401351D01*
X122661063Y-70344994D01*
X122658734Y-70304706D01*
X122655606Y-70277235D01*
X122651245Y-70259329D01*
X122645216Y-70247737D01*
X122637084Y-70239208D01*
X122632772Y-70235623D01*
X122598241Y-70216670D01*
X122565383Y-70219441D01*
X122539318Y-70235633D01*
X122512667Y-70257199D01*
X122509352Y-70572151D01*
X122508435Y-70664779D01*
X122507968Y-70737544D01*
X122508113Y-70793161D01*
X122509032Y-70834342D01*
X122510887Y-70863803D01*
X122513839Y-70884255D01*
X122518050Y-70898413D01*
X122523682Y-70908991D01*
X122529927Y-70917474D01*
X122543439Y-70933207D01*
X122556883Y-70943636D01*
X122572124Y-70947639D01*
X122591026Y-70944094D01*
X122615455Y-70931879D01*
X122647273Y-70909871D01*
X122688348Y-70876949D01*
X122740542Y-70831991D01*
X122805722Y-70773875D01*
X122879556Y-70707099D01*
X123144845Y-70466458D01*
X123150489Y-70685589D01*
X123152531Y-70761128D01*
X123154502Y-70817354D01*
X123156839Y-70857524D01*
X123159981Y-70884896D01*
X123164364Y-70902728D01*
X123170424Y-70914279D01*
X123178600Y-70922807D01*
X123182784Y-70926282D01*
X123219765Y-70945372D01*
X123254708Y-70942493D01*
X123285136Y-70918100D01*
X123292097Y-70908286D01*
X123297523Y-70896826D01*
X123301603Y-70880968D01*
X123304529Y-70857963D01*
X123306492Y-70825062D01*
X123307683Y-70779516D01*
X123308292Y-70718573D01*
X123308511Y-70639486D01*
X123308534Y-70580956D01*
X123308460Y-70489407D01*
X123308113Y-70417687D01*
X123307301Y-70363045D01*
X123305833Y-70322732D01*
X123303519Y-70293998D01*
X123300167Y-70274093D01*
X123295588Y-70260268D01*
X123289589Y-70249772D01*
X123285136Y-70243811D01*
X123273850Y-70229691D01*
X123263301Y-70219029D01*
X123251893Y-70212892D01*
X123238030Y-70212343D01*
X123220114Y-70218448D01*
X123220114Y-70218448D01*
G37*
X123220114Y-70218448D02*
X123196548Y-70232273D01*
X123165735Y-70254881D01*
X123126078Y-70287338D01*
X123075980Y-70330708D01*
X123013843Y-70386058D01*
X122938072Y-70454451D01*
X122851334Y-70533084D01*
X122670711Y-70696878D01*
X122665067Y-70477029D01*
X122663029Y-70401351D01*
X122661063Y-70344994D01*
X122658734Y-70304706D01*
X122655606Y-70277235D01*
X122651245Y-70259329D01*
X122645216Y-70247737D01*
X122637084Y-70239208D01*
X122632772Y-70235623D01*
X122598241Y-70216670D01*
X122565383Y-70219441D01*
X122539318Y-70235633D01*
X122512667Y-70257199D01*
X122509352Y-70572151D01*
X122508435Y-70664779D01*
X122507968Y-70737544D01*
X122508113Y-70793161D01*
X122509032Y-70834342D01*
X122510887Y-70863803D01*
X122513839Y-70884255D01*
X122518050Y-70898413D01*
X122523682Y-70908991D01*
X122529927Y-70917474D01*
X122543439Y-70933207D01*
X122556883Y-70943636D01*
X122572124Y-70947639D01*
X122591026Y-70944094D01*
X122615455Y-70931879D01*
X122647273Y-70909871D01*
X122688348Y-70876949D01*
X122740542Y-70831991D01*
X122805722Y-70773875D01*
X122879556Y-70707099D01*
X123144845Y-70466458D01*
X123150489Y-70685589D01*
X123152531Y-70761128D01*
X123154502Y-70817354D01*
X123156839Y-70857524D01*
X123159981Y-70884896D01*
X123164364Y-70902728D01*
X123170424Y-70914279D01*
X123178600Y-70922807D01*
X123182784Y-70926282D01*
X123219765Y-70945372D01*
X123254708Y-70942493D01*
X123285136Y-70918100D01*
X123292097Y-70908286D01*
X123297523Y-70896826D01*
X123301603Y-70880968D01*
X123304529Y-70857963D01*
X123306492Y-70825062D01*
X123307683Y-70779516D01*
X123308292Y-70718573D01*
X123308511Y-70639486D01*
X123308534Y-70580956D01*
X123308460Y-70489407D01*
X123308113Y-70417687D01*
X123307301Y-70363045D01*
X123305833Y-70322732D01*
X123303519Y-70293998D01*
X123300167Y-70274093D01*
X123295588Y-70260268D01*
X123289589Y-70249772D01*
X123285136Y-70243811D01*
X123273850Y-70229691D01*
X123263301Y-70219029D01*
X123251893Y-70212892D01*
X123238030Y-70212343D01*
X123220114Y-70218448D01*
G36*
X121689657Y-70214260D02*
X121613299Y-70215174D01*
X121554783Y-70217311D01*
X121511745Y-70221175D01*
X121481817Y-70227267D01*
X121462632Y-70236090D01*
X121451824Y-70248146D01*
X121447027Y-70263939D01*
X121445873Y-70283970D01*
X121445867Y-70286335D01*
X121446869Y-70308992D01*
X121451604Y-70326503D01*
X121462667Y-70339574D01*
X121482652Y-70348913D01*
X121514154Y-70355227D01*
X121559768Y-70359222D01*
X121622087Y-70361606D01*
X121703707Y-70363086D01*
X121728723Y-70363414D01*
X121970800Y-70366467D01*
X121974186Y-70431378D01*
X121977571Y-70496289D01*
X121809424Y-70496289D01*
X121743734Y-70496531D01*
X121696828Y-70497556D01*
X121664917Y-70499811D01*
X121644209Y-70503742D01*
X121630916Y-70509798D01*
X121621245Y-70518424D01*
X121621183Y-70518493D01*
X121603644Y-70552112D01*
X121604278Y-70588448D01*
X121622686Y-70619423D01*
X121626329Y-70622607D01*
X121639259Y-70630812D01*
X121656976Y-70636521D01*
X121683430Y-70640162D01*
X121722568Y-70642167D01*
X121778338Y-70642964D01*
X121814006Y-70643045D01*
X121976445Y-70643045D01*
X121976445Y-70801089D01*
X121729839Y-70801089D01*
X121648420Y-70801231D01*
X121586590Y-70801814D01*
X121541363Y-70803068D01*
X121509752Y-70805227D01*
X121488769Y-70808523D01*
X121475427Y-70813189D01*
X121466739Y-70819457D01*
X121464550Y-70821733D01*
X121448386Y-70853280D01*
X121447203Y-70889168D01*
X121460464Y-70920285D01*
X121470957Y-70930271D01*
X121481871Y-70935769D01*
X121498783Y-70940022D01*
X121524367Y-70943180D01*
X121561299Y-70945392D01*
X121612254Y-70946806D01*
X121679906Y-70947572D01*
X121766931Y-70947838D01*
X121786606Y-70947845D01*
X121875089Y-70947787D01*
X121943773Y-70947467D01*
X121995436Y-70946667D01*
X122032855Y-70945167D01*
X122058810Y-70942749D01*
X122076078Y-70939194D01*
X122087438Y-70934282D01*
X122095668Y-70927795D01*
X122100183Y-70923138D01*
X122106979Y-70914889D01*
X122112288Y-70904669D01*
X122116294Y-70889800D01*
X122119179Y-70867602D01*
X122121126Y-70835393D01*
X122122319Y-70790496D01*
X122122939Y-70730228D01*
X122123171Y-70651911D01*
X122123200Y-70585994D01*
X122123129Y-70493628D01*
X122122792Y-70421117D01*
X122122002Y-70365737D01*
X122120574Y-70324765D01*
X122118321Y-70295478D01*
X122115057Y-70275153D01*
X122110596Y-70261066D01*
X122104752Y-70250495D01*
X122099803Y-70243811D01*
X122076406Y-70214067D01*
X121786226Y-70214067D01*
X121689657Y-70214260D01*
X121689657Y-70214260D01*
G37*
X121689657Y-70214260D02*
X121613299Y-70215174D01*
X121554783Y-70217311D01*
X121511745Y-70221175D01*
X121481817Y-70227267D01*
X121462632Y-70236090D01*
X121451824Y-70248146D01*
X121447027Y-70263939D01*
X121445873Y-70283970D01*
X121445867Y-70286335D01*
X121446869Y-70308992D01*
X121451604Y-70326503D01*
X121462667Y-70339574D01*
X121482652Y-70348913D01*
X121514154Y-70355227D01*
X121559768Y-70359222D01*
X121622087Y-70361606D01*
X121703707Y-70363086D01*
X121728723Y-70363414D01*
X121970800Y-70366467D01*
X121974186Y-70431378D01*
X121977571Y-70496289D01*
X121809424Y-70496289D01*
X121743734Y-70496531D01*
X121696828Y-70497556D01*
X121664917Y-70499811D01*
X121644209Y-70503742D01*
X121630916Y-70509798D01*
X121621245Y-70518424D01*
X121621183Y-70518493D01*
X121603644Y-70552112D01*
X121604278Y-70588448D01*
X121622686Y-70619423D01*
X121626329Y-70622607D01*
X121639259Y-70630812D01*
X121656976Y-70636521D01*
X121683430Y-70640162D01*
X121722568Y-70642167D01*
X121778338Y-70642964D01*
X121814006Y-70643045D01*
X121976445Y-70643045D01*
X121976445Y-70801089D01*
X121729839Y-70801089D01*
X121648420Y-70801231D01*
X121586590Y-70801814D01*
X121541363Y-70803068D01*
X121509752Y-70805227D01*
X121488769Y-70808523D01*
X121475427Y-70813189D01*
X121466739Y-70819457D01*
X121464550Y-70821733D01*
X121448386Y-70853280D01*
X121447203Y-70889168D01*
X121460464Y-70920285D01*
X121470957Y-70930271D01*
X121481871Y-70935769D01*
X121498783Y-70940022D01*
X121524367Y-70943180D01*
X121561299Y-70945392D01*
X121612254Y-70946806D01*
X121679906Y-70947572D01*
X121766931Y-70947838D01*
X121786606Y-70947845D01*
X121875089Y-70947787D01*
X121943773Y-70947467D01*
X121995436Y-70946667D01*
X122032855Y-70945167D01*
X122058810Y-70942749D01*
X122076078Y-70939194D01*
X122087438Y-70934282D01*
X122095668Y-70927795D01*
X122100183Y-70923138D01*
X122106979Y-70914889D01*
X122112288Y-70904669D01*
X122116294Y-70889800D01*
X122119179Y-70867602D01*
X122121126Y-70835393D01*
X122122319Y-70790496D01*
X122122939Y-70730228D01*
X122123171Y-70651911D01*
X122123200Y-70585994D01*
X122123129Y-70493628D01*
X122122792Y-70421117D01*
X122122002Y-70365737D01*
X122120574Y-70324765D01*
X122118321Y-70295478D01*
X122115057Y-70275153D01*
X122110596Y-70261066D01*
X122104752Y-70250495D01*
X122099803Y-70243811D01*
X122076406Y-70214067D01*
X121786226Y-70214067D01*
X121689657Y-70214260D01*
G36*
X120901691Y-70214275D02*
X120772712Y-70218636D01*
X120663009Y-70231861D01*
X120570774Y-70254741D01*
X120494198Y-70288070D01*
X120431473Y-70332638D01*
X120380788Y-70389236D01*
X120340337Y-70458658D01*
X120339541Y-70460351D01*
X120315399Y-70522483D01*
X120306797Y-70577509D01*
X120313769Y-70632887D01*
X120336346Y-70696073D01*
X120340628Y-70705689D01*
X120369828Y-70761966D01*
X120402644Y-70805451D01*
X120444998Y-70842417D01*
X120502810Y-70879135D01*
X120506169Y-70881052D01*
X120556496Y-70905227D01*
X120613379Y-70923282D01*
X120680473Y-70935839D01*
X120761435Y-70943522D01*
X120859918Y-70946953D01*
X120894714Y-70947251D01*
X121060406Y-70947845D01*
X121083803Y-70918100D01*
X121090743Y-70908319D01*
X121096158Y-70896897D01*
X121100235Y-70881095D01*
X121103163Y-70858175D01*
X121105133Y-70825396D01*
X121105775Y-70801089D01*
X120949156Y-70801089D01*
X120855274Y-70801089D01*
X120800336Y-70799483D01*
X120743940Y-70795255D01*
X120697655Y-70789292D01*
X120694861Y-70788790D01*
X120612652Y-70766736D01*
X120548886Y-70733600D01*
X120501548Y-70687847D01*
X120468618Y-70627939D01*
X120462892Y-70612061D01*
X120457279Y-70587333D01*
X120459709Y-70562902D01*
X120471533Y-70530400D01*
X120478660Y-70514434D01*
X120502000Y-70472006D01*
X120530120Y-70442240D01*
X120561060Y-70421511D01*
X120623034Y-70394537D01*
X120702349Y-70374998D01*
X120794747Y-70363746D01*
X120861667Y-70361270D01*
X120949156Y-70360822D01*
X120949156Y-70801089D01*
X121105775Y-70801089D01*
X121106332Y-70780021D01*
X121106950Y-70719311D01*
X121107175Y-70640526D01*
X121107200Y-70578920D01*
X121107200Y-70269485D01*
X121079491Y-70241776D01*
X121067194Y-70230544D01*
X121053897Y-70222853D01*
X121035328Y-70218040D01*
X121007214Y-70215446D01*
X120965283Y-70214410D01*
X120905263Y-70214270D01*
X120901691Y-70214275D01*
X120901691Y-70214275D01*
G37*
X120901691Y-70214275D02*
X120772712Y-70218636D01*
X120663009Y-70231861D01*
X120570774Y-70254741D01*
X120494198Y-70288070D01*
X120431473Y-70332638D01*
X120380788Y-70389236D01*
X120340337Y-70458658D01*
X120339541Y-70460351D01*
X120315399Y-70522483D01*
X120306797Y-70577509D01*
X120313769Y-70632887D01*
X120336346Y-70696073D01*
X120340628Y-70705689D01*
X120369828Y-70761966D01*
X120402644Y-70805451D01*
X120444998Y-70842417D01*
X120502810Y-70879135D01*
X120506169Y-70881052D01*
X120556496Y-70905227D01*
X120613379Y-70923282D01*
X120680473Y-70935839D01*
X120761435Y-70943522D01*
X120859918Y-70946953D01*
X120894714Y-70947251D01*
X121060406Y-70947845D01*
X121083803Y-70918100D01*
X121090743Y-70908319D01*
X121096158Y-70896897D01*
X121100235Y-70881095D01*
X121103163Y-70858175D01*
X121105133Y-70825396D01*
X121105775Y-70801089D01*
X120949156Y-70801089D01*
X120855274Y-70801089D01*
X120800336Y-70799483D01*
X120743940Y-70795255D01*
X120697655Y-70789292D01*
X120694861Y-70788790D01*
X120612652Y-70766736D01*
X120548886Y-70733600D01*
X120501548Y-70687847D01*
X120468618Y-70627939D01*
X120462892Y-70612061D01*
X120457279Y-70587333D01*
X120459709Y-70562902D01*
X120471533Y-70530400D01*
X120478660Y-70514434D01*
X120502000Y-70472006D01*
X120530120Y-70442240D01*
X120561060Y-70421511D01*
X120623034Y-70394537D01*
X120702349Y-70374998D01*
X120794747Y-70363746D01*
X120861667Y-70361270D01*
X120949156Y-70360822D01*
X120949156Y-70801089D01*
X121105775Y-70801089D01*
X121106332Y-70780021D01*
X121106950Y-70719311D01*
X121107175Y-70640526D01*
X121107200Y-70578920D01*
X121107200Y-70269485D01*
X121079491Y-70241776D01*
X121067194Y-70230544D01*
X121053897Y-70222853D01*
X121035328Y-70218040D01*
X121007214Y-70215446D01*
X120965283Y-70214410D01*
X120905263Y-70214270D01*
X120901691Y-70214275D01*
G36*
X118175335Y-70216034D02*
X118155745Y-70223035D01*
X118154990Y-70223377D01*
X118128387Y-70243678D01*
X118113730Y-70264561D01*
X118110862Y-70274352D01*
X118111004Y-70287361D01*
X118115039Y-70305895D01*
X118123854Y-70332257D01*
X118138331Y-70368752D01*
X118159355Y-70417687D01*
X118187812Y-70481365D01*
X118224585Y-70562093D01*
X118244825Y-70606216D01*
X118281375Y-70684985D01*
X118315685Y-70757423D01*
X118346448Y-70820880D01*
X118372352Y-70872708D01*
X118392090Y-70910259D01*
X118404350Y-70930884D01*
X118406776Y-70933733D01*
X118437817Y-70946302D01*
X118472879Y-70944619D01*
X118501000Y-70929332D01*
X118502146Y-70928089D01*
X118513332Y-70911154D01*
X118532096Y-70878170D01*
X118556125Y-70833380D01*
X118583103Y-70781032D01*
X118592799Y-70761742D01*
X118665986Y-70615150D01*
X118745760Y-70774393D01*
X118774233Y-70829415D01*
X118800650Y-70877132D01*
X118822852Y-70913893D01*
X118838681Y-70936044D01*
X118844046Y-70940741D01*
X118885743Y-70947102D01*
X118920151Y-70933733D01*
X118930272Y-70919446D01*
X118947786Y-70887692D01*
X118971265Y-70841597D01*
X118999280Y-70784285D01*
X119030401Y-70718880D01*
X119063201Y-70648507D01*
X119096250Y-70576291D01*
X119128119Y-70505355D01*
X119157381Y-70438825D01*
X119182605Y-70379826D01*
X119202364Y-70331481D01*
X119215228Y-70296915D01*
X119219769Y-70279253D01*
X119219723Y-70278613D01*
X119208674Y-70256388D01*
X119186590Y-70233753D01*
X119185290Y-70232768D01*
X119158147Y-70217425D01*
X119133042Y-70217574D01*
X119123632Y-70220466D01*
X119112166Y-70226718D01*
X119099990Y-70239014D01*
X119085643Y-70259908D01*
X119067664Y-70291949D01*
X119044593Y-70337688D01*
X119014970Y-70399677D01*
X118988255Y-70456898D01*
X118957520Y-70523226D01*
X118929979Y-70582874D01*
X118907062Y-70632725D01*
X118890202Y-70669664D01*
X118880827Y-70690573D01*
X118879460Y-70693845D01*
X118873311Y-70688497D01*
X118859178Y-70666109D01*
X118838943Y-70629946D01*
X118814485Y-70583277D01*
X118804752Y-70564022D01*
X118771783Y-70499004D01*
X118746357Y-70451654D01*
X118726388Y-70419219D01*
X118709790Y-70398946D01*
X118694476Y-70388082D01*
X118678360Y-70383875D01*
X118667857Y-70383400D01*
X118649330Y-70385042D01*
X118633096Y-70391831D01*
X118616965Y-70406566D01*
X118598749Y-70432044D01*
X118576261Y-70471061D01*
X118547311Y-70526414D01*
X118531338Y-70557903D01*
X118505430Y-70608087D01*
X118482833Y-70649704D01*
X118465542Y-70679242D01*
X118455550Y-70693189D01*
X118454191Y-70693770D01*
X118447739Y-70682793D01*
X118433292Y-70654290D01*
X118412297Y-70611244D01*
X118386203Y-70556638D01*
X118356454Y-70493454D01*
X118341820Y-70462071D01*
X118303750Y-70381078D01*
X118273095Y-70318756D01*
X118248263Y-70273071D01*
X118227663Y-70241989D01*
X118209702Y-70223478D01*
X118192790Y-70215504D01*
X118175335Y-70216034D01*
X118175335Y-70216034D01*
G37*
X118175335Y-70216034D02*
X118155745Y-70223035D01*
X118154990Y-70223377D01*
X118128387Y-70243678D01*
X118113730Y-70264561D01*
X118110862Y-70274352D01*
X118111004Y-70287361D01*
X118115039Y-70305895D01*
X118123854Y-70332257D01*
X118138331Y-70368752D01*
X118159355Y-70417687D01*
X118187812Y-70481365D01*
X118224585Y-70562093D01*
X118244825Y-70606216D01*
X118281375Y-70684985D01*
X118315685Y-70757423D01*
X118346448Y-70820880D01*
X118372352Y-70872708D01*
X118392090Y-70910259D01*
X118404350Y-70930884D01*
X118406776Y-70933733D01*
X118437817Y-70946302D01*
X118472879Y-70944619D01*
X118501000Y-70929332D01*
X118502146Y-70928089D01*
X118513332Y-70911154D01*
X118532096Y-70878170D01*
X118556125Y-70833380D01*
X118583103Y-70781032D01*
X118592799Y-70761742D01*
X118665986Y-70615150D01*
X118745760Y-70774393D01*
X118774233Y-70829415D01*
X118800650Y-70877132D01*
X118822852Y-70913893D01*
X118838681Y-70936044D01*
X118844046Y-70940741D01*
X118885743Y-70947102D01*
X118920151Y-70933733D01*
X118930272Y-70919446D01*
X118947786Y-70887692D01*
X118971265Y-70841597D01*
X118999280Y-70784285D01*
X119030401Y-70718880D01*
X119063201Y-70648507D01*
X119096250Y-70576291D01*
X119128119Y-70505355D01*
X119157381Y-70438825D01*
X119182605Y-70379826D01*
X119202364Y-70331481D01*
X119215228Y-70296915D01*
X119219769Y-70279253D01*
X119219723Y-70278613D01*
X119208674Y-70256388D01*
X119186590Y-70233753D01*
X119185290Y-70232768D01*
X119158147Y-70217425D01*
X119133042Y-70217574D01*
X119123632Y-70220466D01*
X119112166Y-70226718D01*
X119099990Y-70239014D01*
X119085643Y-70259908D01*
X119067664Y-70291949D01*
X119044593Y-70337688D01*
X119014970Y-70399677D01*
X118988255Y-70456898D01*
X118957520Y-70523226D01*
X118929979Y-70582874D01*
X118907062Y-70632725D01*
X118890202Y-70669664D01*
X118880827Y-70690573D01*
X118879460Y-70693845D01*
X118873311Y-70688497D01*
X118859178Y-70666109D01*
X118838943Y-70629946D01*
X118814485Y-70583277D01*
X118804752Y-70564022D01*
X118771783Y-70499004D01*
X118746357Y-70451654D01*
X118726388Y-70419219D01*
X118709790Y-70398946D01*
X118694476Y-70388082D01*
X118678360Y-70383875D01*
X118667857Y-70383400D01*
X118649330Y-70385042D01*
X118633096Y-70391831D01*
X118616965Y-70406566D01*
X118598749Y-70432044D01*
X118576261Y-70471061D01*
X118547311Y-70526414D01*
X118531338Y-70557903D01*
X118505430Y-70608087D01*
X118482833Y-70649704D01*
X118465542Y-70679242D01*
X118455550Y-70693189D01*
X118454191Y-70693770D01*
X118447739Y-70682793D01*
X118433292Y-70654290D01*
X118412297Y-70611244D01*
X118386203Y-70556638D01*
X118356454Y-70493454D01*
X118341820Y-70462071D01*
X118303750Y-70381078D01*
X118273095Y-70318756D01*
X118248263Y-70273071D01*
X118227663Y-70241989D01*
X118209702Y-70223478D01*
X118192790Y-70215504D01*
X118175335Y-70216034D01*
G36*
X117731386Y-70220877D02*
X117707673Y-70235647D01*
X117681022Y-70257227D01*
X117681022Y-70578773D01*
X117681107Y-70672830D01*
X117681471Y-70746932D01*
X117682276Y-70803704D01*
X117683687Y-70845768D01*
X117685867Y-70875748D01*
X117688979Y-70896267D01*
X117693186Y-70909949D01*
X117698652Y-70919416D01*
X117702528Y-70924082D01*
X117733966Y-70944575D01*
X117769767Y-70943739D01*
X117801127Y-70926264D01*
X117827778Y-70904684D01*
X117827778Y-70257227D01*
X117801127Y-70235647D01*
X117775406Y-70219949D01*
X117754400Y-70214067D01*
X117731386Y-70220877D01*
X117731386Y-70220877D01*
G37*
X117731386Y-70220877D02*
X117707673Y-70235647D01*
X117681022Y-70257227D01*
X117681022Y-70578773D01*
X117681107Y-70672830D01*
X117681471Y-70746932D01*
X117682276Y-70803704D01*
X117683687Y-70845768D01*
X117685867Y-70875748D01*
X117688979Y-70896267D01*
X117693186Y-70909949D01*
X117698652Y-70919416D01*
X117702528Y-70924082D01*
X117733966Y-70944575D01*
X117769767Y-70943739D01*
X117801127Y-70926264D01*
X117827778Y-70904684D01*
X117827778Y-70257227D01*
X117801127Y-70235647D01*
X117775406Y-70219949D01*
X117754400Y-70214067D01*
X117731386Y-70220877D01*
G36*
X116956935Y-70214163D02*
X116878228Y-70214542D01*
X116817137Y-70215333D01*
X116771183Y-70216670D01*
X116737886Y-70218683D01*
X116714764Y-70221506D01*
X116699338Y-70225269D01*
X116689129Y-70230105D01*
X116684187Y-70233822D01*
X116658543Y-70266358D01*
X116655441Y-70300138D01*
X116671289Y-70330826D01*
X116681652Y-70343089D01*
X116692804Y-70351450D01*
X116708965Y-70356657D01*
X116734358Y-70359457D01*
X116773202Y-70360596D01*
X116829720Y-70360821D01*
X116840820Y-70360822D01*
X116986756Y-70360822D01*
X116986756Y-70631756D01*
X116986852Y-70717154D01*
X116987289Y-70782864D01*
X116988288Y-70831774D01*
X116990072Y-70866773D01*
X116992863Y-70890749D01*
X116996883Y-70906593D01*
X117002355Y-70917191D01*
X117009334Y-70925267D01*
X117042266Y-70945112D01*
X117076646Y-70943548D01*
X117107824Y-70920906D01*
X117110114Y-70918100D01*
X117117571Y-70907492D01*
X117123253Y-70895081D01*
X117127399Y-70877850D01*
X117130250Y-70852784D01*
X117132046Y-70816867D01*
X117133028Y-70767083D01*
X117133436Y-70700417D01*
X117133511Y-70624589D01*
X117133511Y-70360822D01*
X117272873Y-70360822D01*
X117332678Y-70360418D01*
X117374082Y-70358840D01*
X117401252Y-70355547D01*
X117418354Y-70349992D01*
X117429557Y-70341631D01*
X117430917Y-70340178D01*
X117447275Y-70306939D01*
X117445828Y-70269362D01*
X117427022Y-70236645D01*
X117419750Y-70230298D01*
X117410373Y-70225266D01*
X117396391Y-70221396D01*
X117375304Y-70218537D01*
X117344611Y-70216535D01*
X117301811Y-70215239D01*
X117244405Y-70214498D01*
X117169890Y-70214158D01*
X117075767Y-70214068D01*
X117055740Y-70214067D01*
X116956935Y-70214163D01*
X116956935Y-70214163D01*
G37*
X116956935Y-70214163D02*
X116878228Y-70214542D01*
X116817137Y-70215333D01*
X116771183Y-70216670D01*
X116737886Y-70218683D01*
X116714764Y-70221506D01*
X116699338Y-70225269D01*
X116689129Y-70230105D01*
X116684187Y-70233822D01*
X116658543Y-70266358D01*
X116655441Y-70300138D01*
X116671289Y-70330826D01*
X116681652Y-70343089D01*
X116692804Y-70351450D01*
X116708965Y-70356657D01*
X116734358Y-70359457D01*
X116773202Y-70360596D01*
X116829720Y-70360821D01*
X116840820Y-70360822D01*
X116986756Y-70360822D01*
X116986756Y-70631756D01*
X116986852Y-70717154D01*
X116987289Y-70782864D01*
X116988288Y-70831774D01*
X116990072Y-70866773D01*
X116992863Y-70890749D01*
X116996883Y-70906593D01*
X117002355Y-70917191D01*
X117009334Y-70925267D01*
X117042266Y-70945112D01*
X117076646Y-70943548D01*
X117107824Y-70920906D01*
X117110114Y-70918100D01*
X117117571Y-70907492D01*
X117123253Y-70895081D01*
X117127399Y-70877850D01*
X117130250Y-70852784D01*
X117132046Y-70816867D01*
X117133028Y-70767083D01*
X117133436Y-70700417D01*
X117133511Y-70624589D01*
X117133511Y-70360822D01*
X117272873Y-70360822D01*
X117332678Y-70360418D01*
X117374082Y-70358840D01*
X117401252Y-70355547D01*
X117418354Y-70349992D01*
X117429557Y-70341631D01*
X117430917Y-70340178D01*
X117447275Y-70306939D01*
X117445828Y-70269362D01*
X117427022Y-70236645D01*
X117419750Y-70230298D01*
X117410373Y-70225266D01*
X117396391Y-70221396D01*
X117375304Y-70218537D01*
X117344611Y-70216535D01*
X117301811Y-70215239D01*
X117244405Y-70214498D01*
X117169890Y-70214158D01*
X117075767Y-70214068D01*
X117055740Y-70214067D01*
X116956935Y-70214163D01*
G36*
X115691177Y-70219533D02*
X115659798Y-70241776D01*
X115632089Y-70269485D01*
X115632089Y-70578920D01*
X115632162Y-70670799D01*
X115632505Y-70742840D01*
X115633308Y-70797780D01*
X115634759Y-70838360D01*
X115637048Y-70867317D01*
X115640364Y-70887391D01*
X115644895Y-70901321D01*
X115650831Y-70911845D01*
X115655486Y-70918100D01*
X115686217Y-70942673D01*
X115721504Y-70945341D01*
X115753755Y-70930271D01*
X115764412Y-70921374D01*
X115771536Y-70909557D01*
X115775833Y-70890526D01*
X115778009Y-70859992D01*
X115778772Y-70813662D01*
X115778845Y-70777871D01*
X115778845Y-70643045D01*
X116275556Y-70643045D01*
X116275556Y-70765700D01*
X116276069Y-70821787D01*
X116278124Y-70860333D01*
X116282492Y-70886361D01*
X116289944Y-70904897D01*
X116298953Y-70918100D01*
X116329856Y-70942604D01*
X116364804Y-70945506D01*
X116398262Y-70928089D01*
X116407396Y-70918959D01*
X116413848Y-70906855D01*
X116418103Y-70888001D01*
X116420648Y-70858620D01*
X116421971Y-70814937D01*
X116422557Y-70753175D01*
X116422625Y-70739000D01*
X116423109Y-70622631D01*
X116423359Y-70526727D01*
X116423277Y-70449177D01*
X116422769Y-70387869D01*
X116421738Y-70340690D01*
X116420087Y-70305530D01*
X116417721Y-70280276D01*
X116414543Y-70262817D01*
X116410456Y-70251041D01*
X116405366Y-70242835D01*
X116399734Y-70236645D01*
X116367872Y-70216844D01*
X116334643Y-70219533D01*
X116303265Y-70241776D01*
X116290567Y-70256126D01*
X116282474Y-70271978D01*
X116277958Y-70294554D01*
X116275994Y-70329078D01*
X116275556Y-70380776D01*
X116275556Y-70496289D01*
X115778845Y-70496289D01*
X115778845Y-70377756D01*
X115778338Y-70323148D01*
X115776302Y-70286275D01*
X115771965Y-70262307D01*
X115764553Y-70246415D01*
X115756267Y-70236645D01*
X115724406Y-70216844D01*
X115691177Y-70219533D01*
X115691177Y-70219533D01*
G37*
X115691177Y-70219533D02*
X115659798Y-70241776D01*
X115632089Y-70269485D01*
X115632089Y-70578920D01*
X115632162Y-70670799D01*
X115632505Y-70742840D01*
X115633308Y-70797780D01*
X115634759Y-70838360D01*
X115637048Y-70867317D01*
X115640364Y-70887391D01*
X115644895Y-70901321D01*
X115650831Y-70911845D01*
X115655486Y-70918100D01*
X115686217Y-70942673D01*
X115721504Y-70945341D01*
X115753755Y-70930271D01*
X115764412Y-70921374D01*
X115771536Y-70909557D01*
X115775833Y-70890526D01*
X115778009Y-70859992D01*
X115778772Y-70813662D01*
X115778845Y-70777871D01*
X115778845Y-70643045D01*
X116275556Y-70643045D01*
X116275556Y-70765700D01*
X116276069Y-70821787D01*
X116278124Y-70860333D01*
X116282492Y-70886361D01*
X116289944Y-70904897D01*
X116298953Y-70918100D01*
X116329856Y-70942604D01*
X116364804Y-70945506D01*
X116398262Y-70928089D01*
X116407396Y-70918959D01*
X116413848Y-70906855D01*
X116418103Y-70888001D01*
X116420648Y-70858620D01*
X116421971Y-70814937D01*
X116422557Y-70753175D01*
X116422625Y-70739000D01*
X116423109Y-70622631D01*
X116423359Y-70526727D01*
X116423277Y-70449177D01*
X116422769Y-70387869D01*
X116421738Y-70340690D01*
X116420087Y-70305530D01*
X116417721Y-70280276D01*
X116414543Y-70262817D01*
X116410456Y-70251041D01*
X116405366Y-70242835D01*
X116399734Y-70236645D01*
X116367872Y-70216844D01*
X116334643Y-70219533D01*
X116303265Y-70241776D01*
X116290567Y-70256126D01*
X116282474Y-70271978D01*
X116277958Y-70294554D01*
X116275994Y-70329078D01*
X116275556Y-70380776D01*
X116275556Y-70496289D01*
X115778845Y-70496289D01*
X115778845Y-70377756D01*
X115778338Y-70323148D01*
X115776302Y-70286275D01*
X115771965Y-70262307D01*
X115764553Y-70246415D01*
X115756267Y-70236645D01*
X115724406Y-70216844D01*
X115691177Y-70219533D01*
G36*
X124866400Y-65434054D02*
X124855535Y-65547993D01*
X124823918Y-65655616D01*
X124773015Y-65754615D01*
X124704293Y-65842684D01*
X124619219Y-65917516D01*
X124522232Y-65975384D01*
X124415964Y-66015005D01*
X124308950Y-66033573D01*
X124203300Y-66032434D01*
X124101125Y-66012930D01*
X124004534Y-65976406D01*
X123915638Y-65924205D01*
X123836546Y-65857673D01*
X123769369Y-65778152D01*
X123716217Y-65686987D01*
X123679199Y-65585523D01*
X123660427Y-65475102D01*
X123658489Y-65425206D01*
X123658489Y-65337267D01*
X123606560Y-65337267D01*
X123570253Y-65340111D01*
X123543355Y-65351911D01*
X123516249Y-65375649D01*
X123477867Y-65414031D01*
X123477867Y-67605602D01*
X123477876Y-67867739D01*
X123477908Y-68108241D01*
X123477972Y-68328048D01*
X123478076Y-68528101D01*
X123478227Y-68709344D01*
X123478434Y-68872716D01*
X123478706Y-69019160D01*
X123479050Y-69149617D01*
X123479474Y-69265029D01*
X123479987Y-69366338D01*
X123480597Y-69454484D01*
X123481312Y-69530410D01*
X123482140Y-69595057D01*
X123483089Y-69649367D01*
X123484167Y-69694280D01*
X123485383Y-69730740D01*
X123486745Y-69759687D01*
X123488261Y-69782063D01*
X123489938Y-69798809D01*
X123491786Y-69810868D01*
X123493813Y-69819180D01*
X123496025Y-69824687D01*
X123497108Y-69826537D01*
X123501271Y-69833549D01*
X123504805Y-69839996D01*
X123508635Y-69845900D01*
X123513682Y-69851286D01*
X123520871Y-69856178D01*
X123531123Y-69860598D01*
X123545364Y-69864572D01*
X123564514Y-69868121D01*
X123589499Y-69871270D01*
X123621240Y-69874042D01*
X123660662Y-69876461D01*
X123708686Y-69878551D01*
X123766237Y-69880335D01*
X123834237Y-69881837D01*
X123913610Y-69883080D01*
X124005279Y-69884089D01*
X124110166Y-69884885D01*
X124229196Y-69885494D01*
X124363290Y-69885939D01*
X124513373Y-69886243D01*
X124680367Y-69886430D01*
X124865196Y-69886524D01*
X125068783Y-69886548D01*
X125292050Y-69886525D01*
X125535922Y-69886480D01*
X125801321Y-69886437D01*
X125839704Y-69886432D01*
X126106682Y-69886389D01*
X126352002Y-69886318D01*
X126576583Y-69886213D01*
X126781345Y-69886066D01*
X126967206Y-69885869D01*
X127135088Y-69885616D01*
X127285908Y-69885300D01*
X127420587Y-69884913D01*
X127540044Y-69884447D01*
X127645199Y-69883897D01*
X127736971Y-69883253D01*
X127816279Y-69882511D01*
X127884043Y-69881661D01*
X127941182Y-69880697D01*
X127988617Y-69879611D01*
X128027266Y-69878397D01*
X128058049Y-69877047D01*
X128081885Y-69875555D01*
X128099694Y-69873911D01*
X128112395Y-69872111D01*
X128120908Y-69870145D01*
X128125266Y-69868477D01*
X128133728Y-69864906D01*
X128141497Y-69862270D01*
X128148602Y-69859634D01*
X128155073Y-69856062D01*
X128160939Y-69850621D01*
X128166229Y-69842375D01*
X128170974Y-69830390D01*
X128175202Y-69813731D01*
X128178943Y-69791463D01*
X128182227Y-69762652D01*
X128185083Y-69726363D01*
X128187540Y-69681661D01*
X128189629Y-69627611D01*
X128191378Y-69563279D01*
X128192817Y-69487730D01*
X128193976Y-69400030D01*
X128194883Y-69299243D01*
X128195569Y-69184434D01*
X128196063Y-69054670D01*
X128196395Y-68909015D01*
X128196593Y-68746535D01*
X128196687Y-68566295D01*
X128196708Y-68367360D01*
X128196685Y-68148796D01*
X128196646Y-67909668D01*
X128196622Y-67649040D01*
X128196622Y-67606889D01*
X128196636Y-67343992D01*
X128196661Y-67102732D01*
X128196671Y-66882165D01*
X128196642Y-66681352D01*
X128196548Y-66499349D01*
X128196362Y-66335216D01*
X128196059Y-66188011D01*
X128195614Y-66056792D01*
X128195034Y-65946867D01*
X127892197Y-65946867D01*
X127852407Y-66004711D01*
X127841236Y-66020479D01*
X127831166Y-66034441D01*
X127822138Y-66047784D01*
X127814097Y-66061693D01*
X127806986Y-66077356D01*
X127800747Y-66095958D01*
X127795325Y-66118686D01*
X127790662Y-66146727D01*
X127786701Y-66181267D01*
X127783385Y-66223492D01*
X127780659Y-66274589D01*
X127778464Y-66335744D01*
X127776745Y-66408144D01*
X127775444Y-66492975D01*
X127774505Y-66591422D01*
X127773870Y-66704674D01*
X127773484Y-66833916D01*
X127773288Y-66980334D01*
X127773227Y-67145116D01*
X127773243Y-67329447D01*
X127773280Y-67534513D01*
X127773289Y-67657133D01*
X127773265Y-67874082D01*
X127773231Y-68069642D01*
X127773243Y-68244999D01*
X127773358Y-68401341D01*
X127773630Y-68539857D01*
X127774118Y-68661734D01*
X127774876Y-68768160D01*
X127775962Y-68860322D01*
X127777431Y-68939409D01*
X127779340Y-69006608D01*
X127781744Y-69063107D01*
X127784701Y-69110093D01*
X127788266Y-69148755D01*
X127792495Y-69180280D01*
X127797446Y-69205855D01*
X127803173Y-69226670D01*
X127809733Y-69243911D01*
X127817183Y-69258765D01*
X127825579Y-69272422D01*
X127834976Y-69286069D01*
X127845432Y-69300893D01*
X127851523Y-69309783D01*
X127890296Y-69367400D01*
X127358732Y-69367400D01*
X127235483Y-69367365D01*
X127132987Y-69367215D01*
X127049420Y-69366878D01*
X126982956Y-69366286D01*
X126931771Y-69365367D01*
X126894041Y-69364051D01*
X126867940Y-69362269D01*
X126851644Y-69359951D01*
X126843328Y-69357026D01*
X126841168Y-69353424D01*
X126843339Y-69349075D01*
X126844535Y-69347645D01*
X126869685Y-69310573D01*
X126895583Y-69257772D01*
X126919192Y-69195770D01*
X126927461Y-69169357D01*
X126932078Y-69151416D01*
X126935979Y-69130355D01*
X126939248Y-69104089D01*
X126941966Y-69070532D01*
X126944215Y-69027599D01*
X126946077Y-68973204D01*
X126947636Y-68905262D01*
X126948972Y-68821688D01*
X126950169Y-68720395D01*
X126951308Y-68599300D01*
X126951685Y-68554600D01*
X126952702Y-68429449D01*
X126953460Y-68325082D01*
X126953903Y-68239707D01*
X126953970Y-68171533D01*
X126953605Y-68118765D01*
X126952748Y-68079614D01*
X126951341Y-68052285D01*
X126949325Y-68034986D01*
X126946643Y-68025926D01*
X126943236Y-68023312D01*
X126939044Y-68025351D01*
X126934571Y-68029667D01*
X126924216Y-68042602D01*
X126902158Y-68071676D01*
X126869957Y-68114759D01*
X126829174Y-68169718D01*
X126781370Y-68234423D01*
X126728105Y-68306742D01*
X126670940Y-68384544D01*
X126611437Y-68465698D01*
X126551155Y-68548072D01*
X126491655Y-68629536D01*
X126434498Y-68707957D01*
X126381245Y-68781204D01*
X126333457Y-68847147D01*
X126292693Y-68903654D01*
X126260516Y-68948593D01*
X126238485Y-68979834D01*
X126233917Y-68986466D01*
X126210996Y-69023369D01*
X126184188Y-69071359D01*
X126158789Y-69120897D01*
X126155568Y-69127577D01*
X126133890Y-69175772D01*
X126121304Y-69213334D01*
X126115574Y-69249160D01*
X126114456Y-69291200D01*
X126115090Y-69367400D01*
X124960651Y-69367400D01*
X125051815Y-69273669D01*
X125098612Y-69223775D01*
X125148899Y-69167295D01*
X125194944Y-69113026D01*
X125215369Y-69087673D01*
X125245807Y-69048128D01*
X125285862Y-68994916D01*
X125334361Y-68929667D01*
X125390135Y-68854011D01*
X125452011Y-68769577D01*
X125518819Y-68677994D01*
X125589387Y-68580892D01*
X125662545Y-68479901D01*
X125737121Y-68376650D01*
X125811944Y-68272768D01*
X125885843Y-68169885D01*
X125957646Y-68069631D01*
X126026184Y-67973636D01*
X126090284Y-67883527D01*
X126148775Y-67800936D01*
X126200486Y-67727492D01*
X126244247Y-67664824D01*
X126278885Y-67614561D01*
X126303230Y-67578334D01*
X126316111Y-67557771D01*
X126317869Y-67553668D01*
X126309910Y-67542342D01*
X126289115Y-67515162D01*
X126256847Y-67473829D01*
X126214470Y-67420044D01*
X126163347Y-67355506D01*
X126104841Y-67281918D01*
X126040314Y-67200978D01*
X125971131Y-67114388D01*
X125898653Y-67023848D01*
X125824246Y-66931060D01*
X125764517Y-66856702D01*
X124753511Y-66856702D01*
X124747602Y-66869659D01*
X124733272Y-66891908D01*
X124732225Y-66893391D01*
X124713438Y-66923544D01*
X124693791Y-66960375D01*
X124689892Y-66968511D01*
X124686356Y-66976940D01*
X124683230Y-66987059D01*
X124680486Y-67000260D01*
X124678092Y-67017938D01*
X124676019Y-67041484D01*
X124674235Y-67072293D01*
X124672712Y-67111757D01*
X124671419Y-67161269D01*
X124670326Y-67222223D01*
X124669403Y-67296011D01*
X124668619Y-67384028D01*
X124667945Y-67487665D01*
X124667350Y-67608316D01*
X124666805Y-67747374D01*
X124666279Y-67906232D01*
X124665745Y-68085089D01*
X124665206Y-68270207D01*
X124664772Y-68434145D01*
X124664509Y-68578303D01*
X124664484Y-68704079D01*
X124664765Y-68812871D01*
X124665419Y-68906077D01*
X124666514Y-68985097D01*
X124668118Y-69051328D01*
X124670297Y-69106170D01*
X124673119Y-69151021D01*
X124676651Y-69187278D01*
X124680961Y-69216341D01*
X124686117Y-69239609D01*
X124692185Y-69258479D01*
X124699233Y-69274351D01*
X124707329Y-69288622D01*
X124716540Y-69302691D01*
X124725040Y-69315158D01*
X124742176Y-69341452D01*
X124752322Y-69359037D01*
X124753511Y-69362257D01*
X124742604Y-69363334D01*
X124711411Y-69364335D01*
X124662223Y-69365235D01*
X124597333Y-69366010D01*
X124519030Y-69366637D01*
X124429607Y-69367091D01*
X124331356Y-69367349D01*
X124262445Y-69367400D01*
X124157452Y-69367180D01*
X124060610Y-69366548D01*
X123974107Y-69365549D01*
X123900132Y-69364227D01*
X123840874Y-69362626D01*
X123798520Y-69360791D01*
X123775260Y-69358765D01*
X123771378Y-69357493D01*
X123779076Y-69342591D01*
X123787074Y-69334560D01*
X123800246Y-69317434D01*
X123817485Y-69287183D01*
X123829407Y-69262622D01*
X123856045Y-69203711D01*
X123859120Y-68026845D01*
X123862195Y-66849978D01*
X124307853Y-66849978D01*
X124405670Y-66850142D01*
X124496064Y-66850611D01*
X124576630Y-66851347D01*
X124644962Y-66852316D01*
X124698656Y-66853480D01*
X124735305Y-66854803D01*
X124752504Y-66856249D01*
X124753511Y-66856702D01*
X125764517Y-66856702D01*
X125749270Y-66837722D01*
X125675090Y-66745537D01*
X125603069Y-66656204D01*
X125534569Y-66571424D01*
X125470955Y-66492898D01*
X125413588Y-66422326D01*
X125363833Y-66361409D01*
X125323052Y-66311847D01*
X125305888Y-66291178D01*
X125219596Y-66190516D01*
X125142997Y-66107259D01*
X125074183Y-66039438D01*
X125011248Y-65985089D01*
X125001867Y-65977722D01*
X124962356Y-65947117D01*
X126094116Y-65946867D01*
X126088827Y-65994844D01*
X126092130Y-66052188D01*
X126113661Y-66120463D01*
X126153635Y-66200212D01*
X126198943Y-66272495D01*
X126215161Y-66295140D01*
X126243214Y-66332696D01*
X126281430Y-66383021D01*
X126328137Y-66443973D01*
X126381661Y-66513411D01*
X126440331Y-66589194D01*
X126502475Y-66669180D01*
X126566421Y-66751228D01*
X126630495Y-66833196D01*
X126693027Y-66912943D01*
X126752343Y-66988327D01*
X126806771Y-67057207D01*
X126854639Y-67117442D01*
X126894275Y-67166889D01*
X126924006Y-67203408D01*
X126942161Y-67224858D01*
X126945220Y-67228156D01*
X126948079Y-67220149D01*
X126950293Y-67189855D01*
X126951857Y-67137556D01*
X126952767Y-67063531D01*
X126953020Y-66968063D01*
X126952613Y-66851434D01*
X126951704Y-66731445D01*
X126950382Y-66599333D01*
X126948857Y-66487594D01*
X126946881Y-66394025D01*
X126944206Y-66316419D01*
X126940582Y-66252574D01*
X126935761Y-66200283D01*
X126929494Y-66157344D01*
X126921532Y-66121551D01*
X126911627Y-66090700D01*
X126899531Y-66062586D01*
X126884993Y-66035005D01*
X126870311Y-66009966D01*
X126832314Y-65946867D01*
X127892197Y-65946867D01*
X128195034Y-65946867D01*
X128195001Y-65940617D01*
X128194195Y-65838544D01*
X128193170Y-65749633D01*
X128191900Y-65672941D01*
X128190360Y-65607527D01*
X128188524Y-65552449D01*
X128186367Y-65506765D01*
X128183863Y-65469534D01*
X128180987Y-65439813D01*
X128177713Y-65416662D01*
X128174015Y-65399139D01*
X128169869Y-65386301D01*
X128165247Y-65377208D01*
X128160126Y-65370918D01*
X128154478Y-65366488D01*
X128148279Y-65362978D01*
X128141504Y-65359445D01*
X128135508Y-65355876D01*
X128130275Y-65353300D01*
X128122099Y-65350972D01*
X128109886Y-65348878D01*
X128092541Y-65347007D01*
X128068969Y-65345347D01*
X128038077Y-65343884D01*
X127998768Y-65342608D01*
X127949950Y-65341504D01*
X127890527Y-65340561D01*
X127819404Y-65339767D01*
X127735488Y-65339109D01*
X127637683Y-65338575D01*
X127524894Y-65338153D01*
X127396029Y-65337829D01*
X127249991Y-65337592D01*
X127085686Y-65337430D01*
X126902020Y-65337330D01*
X126697897Y-65337280D01*
X126486753Y-65337267D01*
X124866400Y-65337267D01*
X124866400Y-65434054D01*
X124866400Y-65434054D01*
G37*
X124866400Y-65434054D02*
X124855535Y-65547993D01*
X124823918Y-65655616D01*
X124773015Y-65754615D01*
X124704293Y-65842684D01*
X124619219Y-65917516D01*
X124522232Y-65975384D01*
X124415964Y-66015005D01*
X124308950Y-66033573D01*
X124203300Y-66032434D01*
X124101125Y-66012930D01*
X124004534Y-65976406D01*
X123915638Y-65924205D01*
X123836546Y-65857673D01*
X123769369Y-65778152D01*
X123716217Y-65686987D01*
X123679199Y-65585523D01*
X123660427Y-65475102D01*
X123658489Y-65425206D01*
X123658489Y-65337267D01*
X123606560Y-65337267D01*
X123570253Y-65340111D01*
X123543355Y-65351911D01*
X123516249Y-65375649D01*
X123477867Y-65414031D01*
X123477867Y-67605602D01*
X123477876Y-67867739D01*
X123477908Y-68108241D01*
X123477972Y-68328048D01*
X123478076Y-68528101D01*
X123478227Y-68709344D01*
X123478434Y-68872716D01*
X123478706Y-69019160D01*
X123479050Y-69149617D01*
X123479474Y-69265029D01*
X123479987Y-69366338D01*
X123480597Y-69454484D01*
X123481312Y-69530410D01*
X123482140Y-69595057D01*
X123483089Y-69649367D01*
X123484167Y-69694280D01*
X123485383Y-69730740D01*
X123486745Y-69759687D01*
X123488261Y-69782063D01*
X123489938Y-69798809D01*
X123491786Y-69810868D01*
X123493813Y-69819180D01*
X123496025Y-69824687D01*
X123497108Y-69826537D01*
X123501271Y-69833549D01*
X123504805Y-69839996D01*
X123508635Y-69845900D01*
X123513682Y-69851286D01*
X123520871Y-69856178D01*
X123531123Y-69860598D01*
X123545364Y-69864572D01*
X123564514Y-69868121D01*
X123589499Y-69871270D01*
X123621240Y-69874042D01*
X123660662Y-69876461D01*
X123708686Y-69878551D01*
X123766237Y-69880335D01*
X123834237Y-69881837D01*
X123913610Y-69883080D01*
X124005279Y-69884089D01*
X124110166Y-69884885D01*
X124229196Y-69885494D01*
X124363290Y-69885939D01*
X124513373Y-69886243D01*
X124680367Y-69886430D01*
X124865196Y-69886524D01*
X125068783Y-69886548D01*
X125292050Y-69886525D01*
X125535922Y-69886480D01*
X125801321Y-69886437D01*
X125839704Y-69886432D01*
X126106682Y-69886389D01*
X126352002Y-69886318D01*
X126576583Y-69886213D01*
X126781345Y-69886066D01*
X126967206Y-69885869D01*
X127135088Y-69885616D01*
X127285908Y-69885300D01*
X127420587Y-69884913D01*
X127540044Y-69884447D01*
X127645199Y-69883897D01*
X127736971Y-69883253D01*
X127816279Y-69882511D01*
X127884043Y-69881661D01*
X127941182Y-69880697D01*
X127988617Y-69879611D01*
X128027266Y-69878397D01*
X128058049Y-69877047D01*
X128081885Y-69875555D01*
X128099694Y-69873911D01*
X128112395Y-69872111D01*
X128120908Y-69870145D01*
X128125266Y-69868477D01*
X128133728Y-69864906D01*
X128141497Y-69862270D01*
X128148602Y-69859634D01*
X128155073Y-69856062D01*
X128160939Y-69850621D01*
X128166229Y-69842375D01*
X128170974Y-69830390D01*
X128175202Y-69813731D01*
X128178943Y-69791463D01*
X128182227Y-69762652D01*
X128185083Y-69726363D01*
X128187540Y-69681661D01*
X128189629Y-69627611D01*
X128191378Y-69563279D01*
X128192817Y-69487730D01*
X128193976Y-69400030D01*
X128194883Y-69299243D01*
X128195569Y-69184434D01*
X128196063Y-69054670D01*
X128196395Y-68909015D01*
X128196593Y-68746535D01*
X128196687Y-68566295D01*
X128196708Y-68367360D01*
X128196685Y-68148796D01*
X128196646Y-67909668D01*
X128196622Y-67649040D01*
X128196622Y-67606889D01*
X128196636Y-67343992D01*
X128196661Y-67102732D01*
X128196671Y-66882165D01*
X128196642Y-66681352D01*
X128196548Y-66499349D01*
X128196362Y-66335216D01*
X128196059Y-66188011D01*
X128195614Y-66056792D01*
X128195034Y-65946867D01*
X127892197Y-65946867D01*
X127852407Y-66004711D01*
X127841236Y-66020479D01*
X127831166Y-66034441D01*
X127822138Y-66047784D01*
X127814097Y-66061693D01*
X127806986Y-66077356D01*
X127800747Y-66095958D01*
X127795325Y-66118686D01*
X127790662Y-66146727D01*
X127786701Y-66181267D01*
X127783385Y-66223492D01*
X127780659Y-66274589D01*
X127778464Y-66335744D01*
X127776745Y-66408144D01*
X127775444Y-66492975D01*
X127774505Y-66591422D01*
X127773870Y-66704674D01*
X127773484Y-66833916D01*
X127773288Y-66980334D01*
X127773227Y-67145116D01*
X127773243Y-67329447D01*
X127773280Y-67534513D01*
X127773289Y-67657133D01*
X127773265Y-67874082D01*
X127773231Y-68069642D01*
X127773243Y-68244999D01*
X127773358Y-68401341D01*
X127773630Y-68539857D01*
X127774118Y-68661734D01*
X127774876Y-68768160D01*
X127775962Y-68860322D01*
X127777431Y-68939409D01*
X127779340Y-69006608D01*
X127781744Y-69063107D01*
X127784701Y-69110093D01*
X127788266Y-69148755D01*
X127792495Y-69180280D01*
X127797446Y-69205855D01*
X127803173Y-69226670D01*
X127809733Y-69243911D01*
X127817183Y-69258765D01*
X127825579Y-69272422D01*
X127834976Y-69286069D01*
X127845432Y-69300893D01*
X127851523Y-69309783D01*
X127890296Y-69367400D01*
X127358732Y-69367400D01*
X127235483Y-69367365D01*
X127132987Y-69367215D01*
X127049420Y-69366878D01*
X126982956Y-69366286D01*
X126931771Y-69365367D01*
X126894041Y-69364051D01*
X126867940Y-69362269D01*
X126851644Y-69359951D01*
X126843328Y-69357026D01*
X126841168Y-69353424D01*
X126843339Y-69349075D01*
X126844535Y-69347645D01*
X126869685Y-69310573D01*
X126895583Y-69257772D01*
X126919192Y-69195770D01*
X126927461Y-69169357D01*
X126932078Y-69151416D01*
X126935979Y-69130355D01*
X126939248Y-69104089D01*
X126941966Y-69070532D01*
X126944215Y-69027599D01*
X126946077Y-68973204D01*
X126947636Y-68905262D01*
X126948972Y-68821688D01*
X126950169Y-68720395D01*
X126951308Y-68599300D01*
X126951685Y-68554600D01*
X126952702Y-68429449D01*
X126953460Y-68325082D01*
X126953903Y-68239707D01*
X126953970Y-68171533D01*
X126953605Y-68118765D01*
X126952748Y-68079614D01*
X126951341Y-68052285D01*
X126949325Y-68034986D01*
X126946643Y-68025926D01*
X126943236Y-68023312D01*
X126939044Y-68025351D01*
X126934571Y-68029667D01*
X126924216Y-68042602D01*
X126902158Y-68071676D01*
X126869957Y-68114759D01*
X126829174Y-68169718D01*
X126781370Y-68234423D01*
X126728105Y-68306742D01*
X126670940Y-68384544D01*
X126611437Y-68465698D01*
X126551155Y-68548072D01*
X126491655Y-68629536D01*
X126434498Y-68707957D01*
X126381245Y-68781204D01*
X126333457Y-68847147D01*
X126292693Y-68903654D01*
X126260516Y-68948593D01*
X126238485Y-68979834D01*
X126233917Y-68986466D01*
X126210996Y-69023369D01*
X126184188Y-69071359D01*
X126158789Y-69120897D01*
X126155568Y-69127577D01*
X126133890Y-69175772D01*
X126121304Y-69213334D01*
X126115574Y-69249160D01*
X126114456Y-69291200D01*
X126115090Y-69367400D01*
X124960651Y-69367400D01*
X125051815Y-69273669D01*
X125098612Y-69223775D01*
X125148899Y-69167295D01*
X125194944Y-69113026D01*
X125215369Y-69087673D01*
X125245807Y-69048128D01*
X125285862Y-68994916D01*
X125334361Y-68929667D01*
X125390135Y-68854011D01*
X125452011Y-68769577D01*
X125518819Y-68677994D01*
X125589387Y-68580892D01*
X125662545Y-68479901D01*
X125737121Y-68376650D01*
X125811944Y-68272768D01*
X125885843Y-68169885D01*
X125957646Y-68069631D01*
X126026184Y-67973636D01*
X126090284Y-67883527D01*
X126148775Y-67800936D01*
X126200486Y-67727492D01*
X126244247Y-67664824D01*
X126278885Y-67614561D01*
X126303230Y-67578334D01*
X126316111Y-67557771D01*
X126317869Y-67553668D01*
X126309910Y-67542342D01*
X126289115Y-67515162D01*
X126256847Y-67473829D01*
X126214470Y-67420044D01*
X126163347Y-67355506D01*
X126104841Y-67281918D01*
X126040314Y-67200978D01*
X125971131Y-67114388D01*
X125898653Y-67023848D01*
X125824246Y-66931060D01*
X125764517Y-66856702D01*
X124753511Y-66856702D01*
X124747602Y-66869659D01*
X124733272Y-66891908D01*
X124732225Y-66893391D01*
X124713438Y-66923544D01*
X124693791Y-66960375D01*
X124689892Y-66968511D01*
X124686356Y-66976940D01*
X124683230Y-66987059D01*
X124680486Y-67000260D01*
X124678092Y-67017938D01*
X124676019Y-67041484D01*
X124674235Y-67072293D01*
X124672712Y-67111757D01*
X124671419Y-67161269D01*
X124670326Y-67222223D01*
X124669403Y-67296011D01*
X124668619Y-67384028D01*
X124667945Y-67487665D01*
X124667350Y-67608316D01*
X124666805Y-67747374D01*
X124666279Y-67906232D01*
X124665745Y-68085089D01*
X124665206Y-68270207D01*
X124664772Y-68434145D01*
X124664509Y-68578303D01*
X124664484Y-68704079D01*
X124664765Y-68812871D01*
X124665419Y-68906077D01*
X124666514Y-68985097D01*
X124668118Y-69051328D01*
X124670297Y-69106170D01*
X124673119Y-69151021D01*
X124676651Y-69187278D01*
X124680961Y-69216341D01*
X124686117Y-69239609D01*
X124692185Y-69258479D01*
X124699233Y-69274351D01*
X124707329Y-69288622D01*
X124716540Y-69302691D01*
X124725040Y-69315158D01*
X124742176Y-69341452D01*
X124752322Y-69359037D01*
X124753511Y-69362257D01*
X124742604Y-69363334D01*
X124711411Y-69364335D01*
X124662223Y-69365235D01*
X124597333Y-69366010D01*
X124519030Y-69366637D01*
X124429607Y-69367091D01*
X124331356Y-69367349D01*
X124262445Y-69367400D01*
X124157452Y-69367180D01*
X124060610Y-69366548D01*
X123974107Y-69365549D01*
X123900132Y-69364227D01*
X123840874Y-69362626D01*
X123798520Y-69360791D01*
X123775260Y-69358765D01*
X123771378Y-69357493D01*
X123779076Y-69342591D01*
X123787074Y-69334560D01*
X123800246Y-69317434D01*
X123817485Y-69287183D01*
X123829407Y-69262622D01*
X123856045Y-69203711D01*
X123859120Y-68026845D01*
X123862195Y-66849978D01*
X124307853Y-66849978D01*
X124405670Y-66850142D01*
X124496064Y-66850611D01*
X124576630Y-66851347D01*
X124644962Y-66852316D01*
X124698656Y-66853480D01*
X124735305Y-66854803D01*
X124752504Y-66856249D01*
X124753511Y-66856702D01*
X125764517Y-66856702D01*
X125749270Y-66837722D01*
X125675090Y-66745537D01*
X125603069Y-66656204D01*
X125534569Y-66571424D01*
X125470955Y-66492898D01*
X125413588Y-66422326D01*
X125363833Y-66361409D01*
X125323052Y-66311847D01*
X125305888Y-66291178D01*
X125219596Y-66190516D01*
X125142997Y-66107259D01*
X125074183Y-66039438D01*
X125011248Y-65985089D01*
X125001867Y-65977722D01*
X124962356Y-65947117D01*
X126094116Y-65946867D01*
X126088827Y-65994844D01*
X126092130Y-66052188D01*
X126113661Y-66120463D01*
X126153635Y-66200212D01*
X126198943Y-66272495D01*
X126215161Y-66295140D01*
X126243214Y-66332696D01*
X126281430Y-66383021D01*
X126328137Y-66443973D01*
X126381661Y-66513411D01*
X126440331Y-66589194D01*
X126502475Y-66669180D01*
X126566421Y-66751228D01*
X126630495Y-66833196D01*
X126693027Y-66912943D01*
X126752343Y-66988327D01*
X126806771Y-67057207D01*
X126854639Y-67117442D01*
X126894275Y-67166889D01*
X126924006Y-67203408D01*
X126942161Y-67224858D01*
X126945220Y-67228156D01*
X126948079Y-67220149D01*
X126950293Y-67189855D01*
X126951857Y-67137556D01*
X126952767Y-67063531D01*
X126953020Y-66968063D01*
X126952613Y-66851434D01*
X126951704Y-66731445D01*
X126950382Y-66599333D01*
X126948857Y-66487594D01*
X126946881Y-66394025D01*
X126944206Y-66316419D01*
X126940582Y-66252574D01*
X126935761Y-66200283D01*
X126929494Y-66157344D01*
X126921532Y-66121551D01*
X126911627Y-66090700D01*
X126899531Y-66062586D01*
X126884993Y-66035005D01*
X126870311Y-66009966D01*
X126832314Y-65946867D01*
X127892197Y-65946867D01*
X128195034Y-65946867D01*
X128195001Y-65940617D01*
X128194195Y-65838544D01*
X128193170Y-65749633D01*
X128191900Y-65672941D01*
X128190360Y-65607527D01*
X128188524Y-65552449D01*
X128186367Y-65506765D01*
X128183863Y-65469534D01*
X128180987Y-65439813D01*
X128177713Y-65416662D01*
X128174015Y-65399139D01*
X128169869Y-65386301D01*
X128165247Y-65377208D01*
X128160126Y-65370918D01*
X128154478Y-65366488D01*
X128148279Y-65362978D01*
X128141504Y-65359445D01*
X128135508Y-65355876D01*
X128130275Y-65353300D01*
X128122099Y-65350972D01*
X128109886Y-65348878D01*
X128092541Y-65347007D01*
X128068969Y-65345347D01*
X128038077Y-65343884D01*
X127998768Y-65342608D01*
X127949950Y-65341504D01*
X127890527Y-65340561D01*
X127819404Y-65339767D01*
X127735488Y-65339109D01*
X127637683Y-65338575D01*
X127524894Y-65338153D01*
X127396029Y-65337829D01*
X127249991Y-65337592D01*
X127085686Y-65337430D01*
X126902020Y-65337330D01*
X126697897Y-65337280D01*
X126486753Y-65337267D01*
X124866400Y-65337267D01*
X124866400Y-65434054D01*
G36*
X121591571Y-65894071D02*
X121431430Y-65915245D01*
X121267490Y-65955385D01*
X121097687Y-66014889D01*
X120919957Y-66094154D01*
X120908690Y-66099699D01*
X120850995Y-66127725D01*
X120799448Y-66151802D01*
X120757809Y-66170249D01*
X120729838Y-66181386D01*
X120720267Y-66183933D01*
X120701050Y-66188941D01*
X120696439Y-66193147D01*
X120701542Y-66203580D01*
X120717582Y-66229868D01*
X120742712Y-66269257D01*
X120775086Y-66318991D01*
X120812857Y-66376315D01*
X120854178Y-66438476D01*
X120897202Y-66502718D01*
X120940083Y-66566285D01*
X120980974Y-66626425D01*
X121018029Y-66680380D01*
X121049400Y-66725397D01*
X121073241Y-66758721D01*
X121087706Y-66777597D01*
X121089691Y-66779787D01*
X121099809Y-66775138D01*
X121122150Y-66757962D01*
X121152720Y-66731440D01*
X121168464Y-66716964D01*
X121264953Y-66641682D01*
X121371664Y-66586241D01*
X121487168Y-66551141D01*
X121610038Y-66536880D01*
X121679439Y-66538051D01*
X121800577Y-66555212D01*
X121909795Y-66591094D01*
X122007418Y-66645959D01*
X122093772Y-66720070D01*
X122169185Y-66813688D01*
X122233982Y-66927076D01*
X122271399Y-67013667D01*
X122315252Y-67149366D01*
X122347572Y-67296850D01*
X122368443Y-67452314D01*
X122377949Y-67611956D01*
X122376173Y-67771973D01*
X122363197Y-67928561D01*
X122339106Y-68077918D01*
X122303982Y-68216240D01*
X122257908Y-68339724D01*
X122241627Y-68373978D01*
X122173380Y-68488064D01*
X122092921Y-68584557D01*
X122001430Y-68662670D01*
X121900089Y-68721617D01*
X121790080Y-68760612D01*
X121672585Y-68778868D01*
X121631117Y-68780211D01*
X121509559Y-68769290D01*
X121389122Y-68736474D01*
X121271334Y-68682439D01*
X121157723Y-68607865D01*
X121066315Y-68529539D01*
X121019785Y-68485008D01*
X120838517Y-68782271D01*
X120793420Y-68856433D01*
X120752181Y-68924646D01*
X120716265Y-68984459D01*
X120687134Y-69033420D01*
X120666250Y-69069079D01*
X120655076Y-69088984D01*
X120653625Y-69092079D01*
X120661854Y-69101718D01*
X120687433Y-69118999D01*
X120727127Y-69142283D01*
X120777703Y-69169934D01*
X120835926Y-69200315D01*
X120898563Y-69231790D01*
X120962379Y-69262722D01*
X121024140Y-69291473D01*
X121080612Y-69316408D01*
X121128562Y-69335889D01*
X121152014Y-69344318D01*
X121285779Y-69382133D01*
X121423673Y-69407136D01*
X121571378Y-69420140D01*
X121698167Y-69422468D01*
X121766122Y-69421373D01*
X121831723Y-69419275D01*
X121889153Y-69416434D01*
X121932597Y-69413106D01*
X121946702Y-69411422D01*
X122085716Y-69382587D01*
X122227243Y-69337468D01*
X122364725Y-69278750D01*
X122491606Y-69209120D01*
X122569111Y-69156441D01*
X122696519Y-69048239D01*
X122814822Y-68921671D01*
X122921828Y-68779866D01*
X123015348Y-68625951D01*
X123093190Y-68463053D01*
X123137044Y-68345756D01*
X123187292Y-68162128D01*
X123220791Y-67967581D01*
X123237551Y-67766325D01*
X123237584Y-67562568D01*
X123220899Y-67360521D01*
X123187507Y-67164392D01*
X123137420Y-66978391D01*
X123133603Y-66966803D01*
X123070719Y-66804750D01*
X122993972Y-66656832D01*
X122900758Y-66518865D01*
X122788473Y-66386661D01*
X122744608Y-66341399D01*
X122608466Y-66217457D01*
X122468509Y-66114915D01*
X122322589Y-66032656D01*
X122168558Y-65969564D01*
X122004268Y-65924523D01*
X121908711Y-65907033D01*
X121749977Y-65891466D01*
X121591571Y-65894071D01*
X121591571Y-65894071D01*
G37*
X121591571Y-65894071D02*
X121431430Y-65915245D01*
X121267490Y-65955385D01*
X121097687Y-66014889D01*
X120919957Y-66094154D01*
X120908690Y-66099699D01*
X120850995Y-66127725D01*
X120799448Y-66151802D01*
X120757809Y-66170249D01*
X120729838Y-66181386D01*
X120720267Y-66183933D01*
X120701050Y-66188941D01*
X120696439Y-66193147D01*
X120701542Y-66203580D01*
X120717582Y-66229868D01*
X120742712Y-66269257D01*
X120775086Y-66318991D01*
X120812857Y-66376315D01*
X120854178Y-66438476D01*
X120897202Y-66502718D01*
X120940083Y-66566285D01*
X120980974Y-66626425D01*
X121018029Y-66680380D01*
X121049400Y-66725397D01*
X121073241Y-66758721D01*
X121087706Y-66777597D01*
X121089691Y-66779787D01*
X121099809Y-66775138D01*
X121122150Y-66757962D01*
X121152720Y-66731440D01*
X121168464Y-66716964D01*
X121264953Y-66641682D01*
X121371664Y-66586241D01*
X121487168Y-66551141D01*
X121610038Y-66536880D01*
X121679439Y-66538051D01*
X121800577Y-66555212D01*
X121909795Y-66591094D01*
X122007418Y-66645959D01*
X122093772Y-66720070D01*
X122169185Y-66813688D01*
X122233982Y-66927076D01*
X122271399Y-67013667D01*
X122315252Y-67149366D01*
X122347572Y-67296850D01*
X122368443Y-67452314D01*
X122377949Y-67611956D01*
X122376173Y-67771973D01*
X122363197Y-67928561D01*
X122339106Y-68077918D01*
X122303982Y-68216240D01*
X122257908Y-68339724D01*
X122241627Y-68373978D01*
X122173380Y-68488064D01*
X122092921Y-68584557D01*
X122001430Y-68662670D01*
X121900089Y-68721617D01*
X121790080Y-68760612D01*
X121672585Y-68778868D01*
X121631117Y-68780211D01*
X121509559Y-68769290D01*
X121389122Y-68736474D01*
X121271334Y-68682439D01*
X121157723Y-68607865D01*
X121066315Y-68529539D01*
X121019785Y-68485008D01*
X120838517Y-68782271D01*
X120793420Y-68856433D01*
X120752181Y-68924646D01*
X120716265Y-68984459D01*
X120687134Y-69033420D01*
X120666250Y-69069079D01*
X120655076Y-69088984D01*
X120653625Y-69092079D01*
X120661854Y-69101718D01*
X120687433Y-69118999D01*
X120727127Y-69142283D01*
X120777703Y-69169934D01*
X120835926Y-69200315D01*
X120898563Y-69231790D01*
X120962379Y-69262722D01*
X121024140Y-69291473D01*
X121080612Y-69316408D01*
X121128562Y-69335889D01*
X121152014Y-69344318D01*
X121285779Y-69382133D01*
X121423673Y-69407136D01*
X121571378Y-69420140D01*
X121698167Y-69422468D01*
X121766122Y-69421373D01*
X121831723Y-69419275D01*
X121889153Y-69416434D01*
X121932597Y-69413106D01*
X121946702Y-69411422D01*
X122085716Y-69382587D01*
X122227243Y-69337468D01*
X122364725Y-69278750D01*
X122491606Y-69209120D01*
X122569111Y-69156441D01*
X122696519Y-69048239D01*
X122814822Y-68921671D01*
X122921828Y-68779866D01*
X123015348Y-68625951D01*
X123093190Y-68463053D01*
X123137044Y-68345756D01*
X123187292Y-68162128D01*
X123220791Y-67967581D01*
X123237551Y-67766325D01*
X123237584Y-67562568D01*
X123220899Y-67360521D01*
X123187507Y-67164392D01*
X123137420Y-66978391D01*
X123133603Y-66966803D01*
X123070719Y-66804750D01*
X122993972Y-66656832D01*
X122900758Y-66518865D01*
X122788473Y-66386661D01*
X122744608Y-66341399D01*
X122608466Y-66217457D01*
X122468509Y-66114915D01*
X122322589Y-66032656D01*
X122168558Y-65969564D01*
X122004268Y-65924523D01*
X121908711Y-65907033D01*
X121749977Y-65891466D01*
X121591571Y-65894071D01*
G36*
X119246426Y-66811552D02*
X119094508Y-66831567D01*
X118959244Y-66865202D01*
X118839761Y-66912725D01*
X118735185Y-66974405D01*
X118657576Y-67037965D01*
X118588735Y-67112099D01*
X118534994Y-67191871D01*
X118492090Y-67284091D01*
X118476616Y-67327161D01*
X118463756Y-67366142D01*
X118452554Y-67402289D01*
X118442880Y-67437434D01*
X118434604Y-67473410D01*
X118427597Y-67512050D01*
X118421728Y-67555185D01*
X118416869Y-67604649D01*
X118412890Y-67662273D01*
X118409660Y-67729891D01*
X118407051Y-67809334D01*
X118404933Y-67902436D01*
X118403176Y-68011027D01*
X118401651Y-68136942D01*
X118400228Y-68282012D01*
X118398975Y-68424778D01*
X118397649Y-68580968D01*
X118396444Y-68716239D01*
X118395234Y-68832246D01*
X118393894Y-68930645D01*
X118392300Y-69013093D01*
X118390325Y-69081246D01*
X118387844Y-69136760D01*
X118384731Y-69181292D01*
X118380862Y-69216498D01*
X118376111Y-69244034D01*
X118370352Y-69265556D01*
X118363461Y-69282722D01*
X118355311Y-69297186D01*
X118345777Y-69310606D01*
X118334734Y-69324638D01*
X118330434Y-69330071D01*
X118314614Y-69352910D01*
X118307578Y-69368463D01*
X118307556Y-69368922D01*
X118318433Y-69371121D01*
X118349418Y-69373147D01*
X118398043Y-69374942D01*
X118461837Y-69376451D01*
X118538331Y-69377616D01*
X118625056Y-69378380D01*
X118719543Y-69378686D01*
X118730450Y-69378689D01*
X119153343Y-69378689D01*
X119156605Y-69282622D01*
X119159867Y-69186556D01*
X119221956Y-69237543D01*
X119319286Y-69305057D01*
X119429187Y-69359749D01*
X119515651Y-69389978D01*
X119584722Y-69404666D01*
X119668075Y-69414659D01*
X119757841Y-69419646D01*
X119846155Y-69419313D01*
X119925149Y-69413351D01*
X119961378Y-69407638D01*
X120101397Y-69369776D01*
X120227822Y-69314932D01*
X120339740Y-69243924D01*
X120436238Y-69157568D01*
X120516400Y-69056679D01*
X120579313Y-68942076D01*
X120623688Y-68815984D01*
X120636022Y-68759401D01*
X120643632Y-68697202D01*
X120647261Y-68622363D01*
X120647755Y-68588467D01*
X120647690Y-68585282D01*
X119887752Y-68585282D01*
X119878459Y-68660333D01*
X119850272Y-68724160D01*
X119801803Y-68779798D01*
X119796746Y-68784211D01*
X119748452Y-68819037D01*
X119696743Y-68841620D01*
X119636011Y-68853540D01*
X119560648Y-68856383D01*
X119542541Y-68855978D01*
X119488722Y-68853325D01*
X119448692Y-68847909D01*
X119413676Y-68837745D01*
X119374897Y-68820850D01*
X119364255Y-68815672D01*
X119303604Y-68779844D01*
X119256785Y-68737212D01*
X119244048Y-68721973D01*
X119199378Y-68665462D01*
X119199378Y-68469586D01*
X119199914Y-68390939D01*
X119201604Y-68332988D01*
X119204572Y-68293875D01*
X119208943Y-68271741D01*
X119213028Y-68265274D01*
X119228953Y-68262111D01*
X119262736Y-68259488D01*
X119309660Y-68257655D01*
X119365007Y-68256857D01*
X119373894Y-68256842D01*
X119494670Y-68262096D01*
X119597340Y-68278263D01*
X119683894Y-68305961D01*
X119756319Y-68345808D01*
X119811249Y-68392758D01*
X119855796Y-68450645D01*
X119880520Y-68513693D01*
X119887752Y-68585282D01*
X120647690Y-68585282D01*
X120645822Y-68494712D01*
X120637478Y-68415812D01*
X120621232Y-68344590D01*
X120595595Y-68273864D01*
X120571599Y-68221493D01*
X120512980Y-68126196D01*
X120434883Y-68038170D01*
X120339685Y-67959017D01*
X120229762Y-67890340D01*
X120107490Y-67833741D01*
X119975245Y-67790821D01*
X119910578Y-67775882D01*
X119774396Y-67753777D01*
X119625951Y-67739194D01*
X119474495Y-67732813D01*
X119347936Y-67734445D01*
X119186050Y-67741224D01*
X119193470Y-67682245D01*
X119212762Y-67583092D01*
X119243896Y-67502372D01*
X119287731Y-67439466D01*
X119345129Y-67393756D01*
X119416952Y-67364622D01*
X119504059Y-67351447D01*
X119607314Y-67353611D01*
X119645289Y-67357612D01*
X119786480Y-67382780D01*
X119923293Y-67423814D01*
X120017822Y-67461815D01*
X120062982Y-67481190D01*
X120101415Y-67496760D01*
X120127766Y-67506405D01*
X120135454Y-67508452D01*
X120145198Y-67499374D01*
X120161917Y-67470405D01*
X120185768Y-67421217D01*
X120216907Y-67351484D01*
X120255493Y-67260879D01*
X120262090Y-67245089D01*
X120292147Y-67172772D01*
X120319126Y-67107425D01*
X120341864Y-67051906D01*
X120359194Y-67009072D01*
X120369952Y-66981781D01*
X120373059Y-66972942D01*
X120363060Y-66968187D01*
X120336783Y-66962910D01*
X120308511Y-66959231D01*
X120278354Y-66954474D01*
X120230567Y-66945028D01*
X120169388Y-66931820D01*
X120099054Y-66915776D01*
X120023806Y-66897820D01*
X119995245Y-66890797D01*
X119890184Y-66865209D01*
X119802520Y-66845147D01*
X119727932Y-66829969D01*
X119662097Y-66819035D01*
X119600693Y-66811704D01*
X119539398Y-66807335D01*
X119473890Y-66805287D01*
X119415872Y-66804889D01*
X119246426Y-66811552D01*
X119246426Y-66811552D01*
G37*
X119246426Y-66811552D02*
X119094508Y-66831567D01*
X118959244Y-66865202D01*
X118839761Y-66912725D01*
X118735185Y-66974405D01*
X118657576Y-67037965D01*
X118588735Y-67112099D01*
X118534994Y-67191871D01*
X118492090Y-67284091D01*
X118476616Y-67327161D01*
X118463756Y-67366142D01*
X118452554Y-67402289D01*
X118442880Y-67437434D01*
X118434604Y-67473410D01*
X118427597Y-67512050D01*
X118421728Y-67555185D01*
X118416869Y-67604649D01*
X118412890Y-67662273D01*
X118409660Y-67729891D01*
X118407051Y-67809334D01*
X118404933Y-67902436D01*
X118403176Y-68011027D01*
X118401651Y-68136942D01*
X118400228Y-68282012D01*
X118398975Y-68424778D01*
X118397649Y-68580968D01*
X118396444Y-68716239D01*
X118395234Y-68832246D01*
X118393894Y-68930645D01*
X118392300Y-69013093D01*
X118390325Y-69081246D01*
X118387844Y-69136760D01*
X118384731Y-69181292D01*
X118380862Y-69216498D01*
X118376111Y-69244034D01*
X118370352Y-69265556D01*
X118363461Y-69282722D01*
X118355311Y-69297186D01*
X118345777Y-69310606D01*
X118334734Y-69324638D01*
X118330434Y-69330071D01*
X118314614Y-69352910D01*
X118307578Y-69368463D01*
X118307556Y-69368922D01*
X118318433Y-69371121D01*
X118349418Y-69373147D01*
X118398043Y-69374942D01*
X118461837Y-69376451D01*
X118538331Y-69377616D01*
X118625056Y-69378380D01*
X118719543Y-69378686D01*
X118730450Y-69378689D01*
X119153343Y-69378689D01*
X119156605Y-69282622D01*
X119159867Y-69186556D01*
X119221956Y-69237543D01*
X119319286Y-69305057D01*
X119429187Y-69359749D01*
X119515651Y-69389978D01*
X119584722Y-69404666D01*
X119668075Y-69414659D01*
X119757841Y-69419646D01*
X119846155Y-69419313D01*
X119925149Y-69413351D01*
X119961378Y-69407638D01*
X120101397Y-69369776D01*
X120227822Y-69314932D01*
X120339740Y-69243924D01*
X120436238Y-69157568D01*
X120516400Y-69056679D01*
X120579313Y-68942076D01*
X120623688Y-68815984D01*
X120636022Y-68759401D01*
X120643632Y-68697202D01*
X120647261Y-68622363D01*
X120647755Y-68588467D01*
X120647690Y-68585282D01*
X119887752Y-68585282D01*
X119878459Y-68660333D01*
X119850272Y-68724160D01*
X119801803Y-68779798D01*
X119796746Y-68784211D01*
X119748452Y-68819037D01*
X119696743Y-68841620D01*
X119636011Y-68853540D01*
X119560648Y-68856383D01*
X119542541Y-68855978D01*
X119488722Y-68853325D01*
X119448692Y-68847909D01*
X119413676Y-68837745D01*
X119374897Y-68820850D01*
X119364255Y-68815672D01*
X119303604Y-68779844D01*
X119256785Y-68737212D01*
X119244048Y-68721973D01*
X119199378Y-68665462D01*
X119199378Y-68469586D01*
X119199914Y-68390939D01*
X119201604Y-68332988D01*
X119204572Y-68293875D01*
X119208943Y-68271741D01*
X119213028Y-68265274D01*
X119228953Y-68262111D01*
X119262736Y-68259488D01*
X119309660Y-68257655D01*
X119365007Y-68256857D01*
X119373894Y-68256842D01*
X119494670Y-68262096D01*
X119597340Y-68278263D01*
X119683894Y-68305961D01*
X119756319Y-68345808D01*
X119811249Y-68392758D01*
X119855796Y-68450645D01*
X119880520Y-68513693D01*
X119887752Y-68585282D01*
X120647690Y-68585282D01*
X120645822Y-68494712D01*
X120637478Y-68415812D01*
X120621232Y-68344590D01*
X120595595Y-68273864D01*
X120571599Y-68221493D01*
X120512980Y-68126196D01*
X120434883Y-68038170D01*
X120339685Y-67959017D01*
X120229762Y-67890340D01*
X120107490Y-67833741D01*
X119975245Y-67790821D01*
X119910578Y-67775882D01*
X119774396Y-67753777D01*
X119625951Y-67739194D01*
X119474495Y-67732813D01*
X119347936Y-67734445D01*
X119186050Y-67741224D01*
X119193470Y-67682245D01*
X119212762Y-67583092D01*
X119243896Y-67502372D01*
X119287731Y-67439466D01*
X119345129Y-67393756D01*
X119416952Y-67364622D01*
X119504059Y-67351447D01*
X119607314Y-67353611D01*
X119645289Y-67357612D01*
X119786480Y-67382780D01*
X119923293Y-67423814D01*
X120017822Y-67461815D01*
X120062982Y-67481190D01*
X120101415Y-67496760D01*
X120127766Y-67506405D01*
X120135454Y-67508452D01*
X120145198Y-67499374D01*
X120161917Y-67470405D01*
X120185768Y-67421217D01*
X120216907Y-67351484D01*
X120255493Y-67260879D01*
X120262090Y-67245089D01*
X120292147Y-67172772D01*
X120319126Y-67107425D01*
X120341864Y-67051906D01*
X120359194Y-67009072D01*
X120369952Y-66981781D01*
X120373059Y-66972942D01*
X120363060Y-66968187D01*
X120336783Y-66962910D01*
X120308511Y-66959231D01*
X120278354Y-66954474D01*
X120230567Y-66945028D01*
X120169388Y-66931820D01*
X120099054Y-66915776D01*
X120023806Y-66897820D01*
X119995245Y-66890797D01*
X119890184Y-66865209D01*
X119802520Y-66845147D01*
X119727932Y-66829969D01*
X119662097Y-66819035D01*
X119600693Y-66811704D01*
X119539398Y-66807335D01*
X119473890Y-66805287D01*
X119415872Y-66804889D01*
X119246426Y-66811552D01*
G36*
X115733493Y-67417245D02*
X115733474Y-67651662D01*
X115733448Y-67864603D01*
X115733375Y-68057168D01*
X115733218Y-68230459D01*
X115732936Y-68385576D01*
X115732491Y-68523620D01*
X115731844Y-68645692D01*
X115730955Y-68752894D01*
X115729787Y-68846326D01*
X115728299Y-68927090D01*
X115726454Y-68996286D01*
X115724211Y-69055015D01*
X115721531Y-69104379D01*
X115718377Y-69145478D01*
X115714708Y-69179413D01*
X115710487Y-69207286D01*
X115705673Y-69230198D01*
X115700227Y-69249249D01*
X115694112Y-69265540D01*
X115687288Y-69280173D01*
X115679715Y-69294249D01*
X115671355Y-69308868D01*
X115666161Y-69317974D01*
X115631896Y-69378689D01*
X116490045Y-69378689D01*
X116490045Y-69282733D01*
X116490776Y-69239370D01*
X116492728Y-69206205D01*
X116495537Y-69188424D01*
X116496779Y-69186778D01*
X116508201Y-69193662D01*
X116530916Y-69211505D01*
X116553615Y-69230879D01*
X116608200Y-69271614D01*
X116677679Y-69312617D01*
X116754730Y-69350123D01*
X116832035Y-69380364D01*
X116862887Y-69390012D01*
X116931384Y-69404578D01*
X117014236Y-69414539D01*
X117103629Y-69419583D01*
X117191752Y-69419396D01*
X117270793Y-69413666D01*
X117308489Y-69407858D01*
X117446586Y-69369797D01*
X117573887Y-69312073D01*
X117689708Y-69235211D01*
X117793363Y-69139739D01*
X117884167Y-69026179D01*
X117950969Y-68915381D01*
X118005836Y-68798625D01*
X118047837Y-68679276D01*
X118077833Y-68553283D01*
X118096689Y-68416594D01*
X118105268Y-68265158D01*
X118105994Y-68187711D01*
X118103900Y-68130934D01*
X117274783Y-68130934D01*
X117274576Y-68224002D01*
X117271663Y-68311692D01*
X117266000Y-68388772D01*
X117257545Y-68450009D01*
X117254962Y-68462350D01*
X117223160Y-68569633D01*
X117181502Y-68656658D01*
X117129637Y-68723642D01*
X117067219Y-68770805D01*
X116993900Y-68798365D01*
X116909331Y-68806541D01*
X116813165Y-68795551D01*
X116749689Y-68779829D01*
X116700546Y-68761639D01*
X116646417Y-68735791D01*
X116605756Y-68712089D01*
X116535200Y-68665721D01*
X116535200Y-67515530D01*
X116602608Y-67471962D01*
X116681133Y-67431040D01*
X116765319Y-67404389D01*
X116850443Y-67392465D01*
X116931784Y-67395722D01*
X117004620Y-67414615D01*
X117036574Y-67430184D01*
X117094499Y-67473181D01*
X117143456Y-67529953D01*
X117184610Y-67602575D01*
X117219126Y-67693121D01*
X117248167Y-67803666D01*
X117249448Y-67809533D01*
X117259619Y-67871788D01*
X117267261Y-67949594D01*
X117272330Y-68037720D01*
X117274783Y-68130934D01*
X118103900Y-68130934D01*
X118098143Y-67974895D01*
X118076198Y-67779059D01*
X118040214Y-67600332D01*
X117990241Y-67438845D01*
X117926332Y-67294726D01*
X117848538Y-67168106D01*
X117756911Y-67059115D01*
X117651503Y-66967883D01*
X117606338Y-66936932D01*
X117505389Y-66880785D01*
X117402099Y-66841174D01*
X117292011Y-66817014D01*
X117170670Y-66807219D01*
X117078164Y-66808265D01*
X116948510Y-66819231D01*
X116835916Y-66841046D01*
X116737125Y-66874714D01*
X116648879Y-66921236D01*
X116600014Y-66955448D01*
X116570647Y-66977362D01*
X116548957Y-66992333D01*
X116540747Y-66996733D01*
X116539132Y-66985904D01*
X116537841Y-66955251D01*
X116536862Y-66907526D01*
X116536183Y-66845479D01*
X116535790Y-66771862D01*
X116535670Y-66689427D01*
X116535812Y-66600925D01*
X116536203Y-66509107D01*
X116536829Y-66416724D01*
X116537680Y-66326528D01*
X116538740Y-66241271D01*
X116539999Y-66163703D01*
X116541444Y-66096576D01*
X116543062Y-66042641D01*
X116544839Y-66004650D01*
X116545331Y-65997667D01*
X116552908Y-65927251D01*
X116564469Y-65872102D01*
X116582208Y-65824981D01*
X116608318Y-65778647D01*
X116614585Y-65769067D01*
X116639017Y-65732378D01*
X115733689Y-65732378D01*
X115733493Y-67417245D01*
X115733493Y-67417245D01*
G37*
X115733493Y-67417245D02*
X115733474Y-67651662D01*
X115733448Y-67864603D01*
X115733375Y-68057168D01*
X115733218Y-68230459D01*
X115732936Y-68385576D01*
X115732491Y-68523620D01*
X115731844Y-68645692D01*
X115730955Y-68752894D01*
X115729787Y-68846326D01*
X115728299Y-68927090D01*
X115726454Y-68996286D01*
X115724211Y-69055015D01*
X115721531Y-69104379D01*
X115718377Y-69145478D01*
X115714708Y-69179413D01*
X115710487Y-69207286D01*
X115705673Y-69230198D01*
X115700227Y-69249249D01*
X115694112Y-69265540D01*
X115687288Y-69280173D01*
X115679715Y-69294249D01*
X115671355Y-69308868D01*
X115666161Y-69317974D01*
X115631896Y-69378689D01*
X116490045Y-69378689D01*
X116490045Y-69282733D01*
X116490776Y-69239370D01*
X116492728Y-69206205D01*
X116495537Y-69188424D01*
X116496779Y-69186778D01*
X116508201Y-69193662D01*
X116530916Y-69211505D01*
X116553615Y-69230879D01*
X116608200Y-69271614D01*
X116677679Y-69312617D01*
X116754730Y-69350123D01*
X116832035Y-69380364D01*
X116862887Y-69390012D01*
X116931384Y-69404578D01*
X117014236Y-69414539D01*
X117103629Y-69419583D01*
X117191752Y-69419396D01*
X117270793Y-69413666D01*
X117308489Y-69407858D01*
X117446586Y-69369797D01*
X117573887Y-69312073D01*
X117689708Y-69235211D01*
X117793363Y-69139739D01*
X117884167Y-69026179D01*
X117950969Y-68915381D01*
X118005836Y-68798625D01*
X118047837Y-68679276D01*
X118077833Y-68553283D01*
X118096689Y-68416594D01*
X118105268Y-68265158D01*
X118105994Y-68187711D01*
X118103900Y-68130934D01*
X117274783Y-68130934D01*
X117274576Y-68224002D01*
X117271663Y-68311692D01*
X117266000Y-68388772D01*
X117257545Y-68450009D01*
X117254962Y-68462350D01*
X117223160Y-68569633D01*
X117181502Y-68656658D01*
X117129637Y-68723642D01*
X117067219Y-68770805D01*
X116993900Y-68798365D01*
X116909331Y-68806541D01*
X116813165Y-68795551D01*
X116749689Y-68779829D01*
X116700546Y-68761639D01*
X116646417Y-68735791D01*
X116605756Y-68712089D01*
X116535200Y-68665721D01*
X116535200Y-67515530D01*
X116602608Y-67471962D01*
X116681133Y-67431040D01*
X116765319Y-67404389D01*
X116850443Y-67392465D01*
X116931784Y-67395722D01*
X117004620Y-67414615D01*
X117036574Y-67430184D01*
X117094499Y-67473181D01*
X117143456Y-67529953D01*
X117184610Y-67602575D01*
X117219126Y-67693121D01*
X117248167Y-67803666D01*
X117249448Y-67809533D01*
X117259619Y-67871788D01*
X117267261Y-67949594D01*
X117272330Y-68037720D01*
X117274783Y-68130934D01*
X118103900Y-68130934D01*
X118098143Y-67974895D01*
X118076198Y-67779059D01*
X118040214Y-67600332D01*
X117990241Y-67438845D01*
X117926332Y-67294726D01*
X117848538Y-67168106D01*
X117756911Y-67059115D01*
X117651503Y-66967883D01*
X117606338Y-66936932D01*
X117505389Y-66880785D01*
X117402099Y-66841174D01*
X117292011Y-66817014D01*
X117170670Y-66807219D01*
X117078164Y-66808265D01*
X116948510Y-66819231D01*
X116835916Y-66841046D01*
X116737125Y-66874714D01*
X116648879Y-66921236D01*
X116600014Y-66955448D01*
X116570647Y-66977362D01*
X116548957Y-66992333D01*
X116540747Y-66996733D01*
X116539132Y-66985904D01*
X116537841Y-66955251D01*
X116536862Y-66907526D01*
X116536183Y-66845479D01*
X116535790Y-66771862D01*
X116535670Y-66689427D01*
X116535812Y-66600925D01*
X116536203Y-66509107D01*
X116536829Y-66416724D01*
X116537680Y-66326528D01*
X116538740Y-66241271D01*
X116539999Y-66163703D01*
X116541444Y-66096576D01*
X116543062Y-66042641D01*
X116544839Y-66004650D01*
X116545331Y-65997667D01*
X116552908Y-65927251D01*
X116564469Y-65872102D01*
X116582208Y-65824981D01*
X116608318Y-65778647D01*
X116614585Y-65769067D01*
X116639017Y-65732378D01*
X115733689Y-65732378D01*
X115733493Y-67417245D01*
G36*
X124193043Y-64971571D02*
X124096768Y-64995809D01*
X124010184Y-65038641D01*
X123935373Y-65098419D01*
X123874418Y-65173494D01*
X123829399Y-65262220D01*
X123803136Y-65358530D01*
X123797286Y-65455795D01*
X123812140Y-65549654D01*
X123845840Y-65637511D01*
X123896528Y-65716770D01*
X123962345Y-65784836D01*
X124041434Y-65839112D01*
X124131934Y-65877002D01*
X124183200Y-65889426D01*
X124227698Y-65896947D01*
X124261999Y-65899919D01*
X124294960Y-65898094D01*
X124335434Y-65891225D01*
X124368531Y-65884250D01*
X124461947Y-65852741D01*
X124545619Y-65801617D01*
X124617665Y-65732429D01*
X124676200Y-65646728D01*
X124690148Y-65619489D01*
X124706586Y-65583122D01*
X124716894Y-65552582D01*
X124722460Y-65520450D01*
X124724669Y-65479307D01*
X124724948Y-65433222D01*
X124720861Y-65348865D01*
X124707446Y-65279586D01*
X124682256Y-65218961D01*
X124642846Y-65160567D01*
X124604298Y-65116302D01*
X124532406Y-65050484D01*
X124457313Y-65005053D01*
X124374562Y-64977850D01*
X124296928Y-64967576D01*
X124193043Y-64971571D01*
X124193043Y-64971571D01*
G37*
X124193043Y-64971571D02*
X124096768Y-64995809D01*
X124010184Y-65038641D01*
X123935373Y-65098419D01*
X123874418Y-65173494D01*
X123829399Y-65262220D01*
X123803136Y-65358530D01*
X123797286Y-65455795D01*
X123812140Y-65549654D01*
X123845840Y-65637511D01*
X123896528Y-65716770D01*
X123962345Y-65784836D01*
X124041434Y-65839112D01*
X124131934Y-65877002D01*
X124183200Y-65889426D01*
X124227698Y-65896947D01*
X124261999Y-65899919D01*
X124294960Y-65898094D01*
X124335434Y-65891225D01*
X124368531Y-65884250D01*
X124461947Y-65852741D01*
X124545619Y-65801617D01*
X124617665Y-65732429D01*
X124676200Y-65646728D01*
X124690148Y-65619489D01*
X124706586Y-65583122D01*
X124716894Y-65552582D01*
X124722460Y-65520450D01*
X124724669Y-65479307D01*
X124724948Y-65433222D01*
X124720861Y-65348865D01*
X124707446Y-65279586D01*
X124682256Y-65218961D01*
X124642846Y-65160567D01*
X124604298Y-65116302D01*
X124532406Y-65050484D01*
X124457313Y-65005053D01*
X124374562Y-64977850D01*
X124296928Y-64967576D01*
X124193043Y-64971571D01*
M02*
