G04 #@! TF.FileFunction,Copper,L1,Top,Signal*
%FSLAX46Y46*%
G04 Gerber Fmt 4.6, Leading zero omitted, Abs format (unit mm)*
G04 Created by KiCad (PCBNEW 4.0.6) date 04/11/17 13:58:44*
%MOMM*%
%LPD*%
G01*
G04 APERTURE LIST*
%ADD10C,0.100000*%
%ADD11C,0.150000*%
%ADD12C,1.600000*%
%ADD13O,1.600000X1.600000*%
%ADD14R,1.600000X1.600000*%
%ADD15C,1.699260*%
%ADD16R,1.699260X1.699260*%
%ADD17O,1.400000X2.000000*%
%ADD18R,1.400000X2.000000*%
%ADD19C,2.000000*%
%ADD20R,1.200000X1.200000*%
%ADD21C,1.200000*%
%ADD22O,2.000000X1.500000*%
%ADD23R,1.500000X2.000000*%
%ADD24O,1.500000X2.000000*%
%ADD25R,2.000000X1.500000*%
%ADD26O,2.000000X3.500000*%
%ADD27O,4.000000X2.000000*%
%ADD28C,1.620000*%
%ADD29C,0.500000*%
%ADD30C,0.254000*%
G04 APERTURE END LIST*
D10*
D11*
X100747619Y-56452379D02*
X101747619Y-56452379D01*
X100747619Y-56880951D02*
X101271429Y-56880951D01*
X101366667Y-56833332D01*
X101414286Y-56738094D01*
X101414286Y-56595236D01*
X101366667Y-56499998D01*
X101319048Y-56452379D01*
X101414286Y-57214284D02*
X101414286Y-57595236D01*
X101747619Y-57357141D02*
X100890476Y-57357141D01*
X100795238Y-57404760D01*
X100747619Y-57499998D01*
X100747619Y-57595236D01*
X101414286Y-57785713D02*
X101414286Y-58166665D01*
X101747619Y-57928570D02*
X100890476Y-57928570D01*
X100795238Y-57976189D01*
X100747619Y-58071427D01*
X100747619Y-58166665D01*
X101414286Y-58499999D02*
X100414286Y-58499999D01*
X101366667Y-58499999D02*
X101414286Y-58595237D01*
X101414286Y-58785714D01*
X101366667Y-58880952D01*
X101319048Y-58928571D01*
X101223810Y-58976190D01*
X100938095Y-58976190D01*
X100842857Y-58928571D01*
X100795238Y-58880952D01*
X100747619Y-58785714D01*
X100747619Y-58595237D01*
X100795238Y-58499999D01*
X100842857Y-59404761D02*
X100795238Y-59452380D01*
X100747619Y-59404761D01*
X100795238Y-59357142D01*
X100842857Y-59404761D01*
X100747619Y-59404761D01*
X101366667Y-59404761D02*
X101319048Y-59452380D01*
X101271429Y-59404761D01*
X101319048Y-59357142D01*
X101366667Y-59404761D01*
X101271429Y-59404761D01*
X101795238Y-60595237D02*
X100509524Y-59738094D01*
X101795238Y-61642856D02*
X100509524Y-60785713D01*
X101414286Y-61880951D02*
X100747619Y-62071427D01*
X101223810Y-62261904D01*
X100747619Y-62452380D01*
X101414286Y-62642856D01*
X101414286Y-62928570D02*
X100747619Y-63119046D01*
X101223810Y-63309523D01*
X100747619Y-63499999D01*
X101414286Y-63690475D01*
X101414286Y-63976189D02*
X100747619Y-64166665D01*
X101223810Y-64357142D01*
X100747619Y-64547618D01*
X101414286Y-64738094D01*
X100842857Y-65119046D02*
X100795238Y-65166665D01*
X100747619Y-65119046D01*
X100795238Y-65071427D01*
X100842857Y-65119046D01*
X100747619Y-65119046D01*
X101414286Y-66023808D02*
X100604762Y-66023808D01*
X100509524Y-65976189D01*
X100461905Y-65928570D01*
X100414286Y-65833331D01*
X100414286Y-65690474D01*
X100461905Y-65595236D01*
X100795238Y-66023808D02*
X100747619Y-65928570D01*
X100747619Y-65738093D01*
X100795238Y-65642855D01*
X100842857Y-65595236D01*
X100938095Y-65547617D01*
X101223810Y-65547617D01*
X101319048Y-65595236D01*
X101366667Y-65642855D01*
X101414286Y-65738093D01*
X101414286Y-65928570D01*
X101366667Y-66023808D01*
X100747619Y-66499998D02*
X101414286Y-66499998D01*
X101747619Y-66499998D02*
X101700000Y-66452379D01*
X101652381Y-66499998D01*
X101700000Y-66547617D01*
X101747619Y-66499998D01*
X101652381Y-66499998D01*
X101414286Y-66833331D02*
X101414286Y-67214283D01*
X101747619Y-66976188D02*
X100890476Y-66976188D01*
X100795238Y-67023807D01*
X100747619Y-67119045D01*
X100747619Y-67214283D01*
X100747619Y-67547617D02*
X101747619Y-67547617D01*
X100747619Y-67976189D02*
X101271429Y-67976189D01*
X101366667Y-67928570D01*
X101414286Y-67833332D01*
X101414286Y-67690474D01*
X101366667Y-67595236D01*
X101319048Y-67547617D01*
X101414286Y-68880951D02*
X100747619Y-68880951D01*
X101414286Y-68452379D02*
X100890476Y-68452379D01*
X100795238Y-68499998D01*
X100747619Y-68595236D01*
X100747619Y-68738094D01*
X100795238Y-68833332D01*
X100842857Y-68880951D01*
X100747619Y-69357141D02*
X101747619Y-69357141D01*
X101366667Y-69357141D02*
X101414286Y-69452379D01*
X101414286Y-69642856D01*
X101366667Y-69738094D01*
X101319048Y-69785713D01*
X101223810Y-69833332D01*
X100938095Y-69833332D01*
X100842857Y-69785713D01*
X100795238Y-69738094D01*
X100747619Y-69642856D01*
X100747619Y-69452379D01*
X100795238Y-69357141D01*
X100842857Y-70261903D02*
X100795238Y-70309522D01*
X100747619Y-70261903D01*
X100795238Y-70214284D01*
X100842857Y-70261903D01*
X100747619Y-70261903D01*
X100795238Y-71166665D02*
X100747619Y-71071427D01*
X100747619Y-70880950D01*
X100795238Y-70785712D01*
X100842857Y-70738093D01*
X100938095Y-70690474D01*
X101223810Y-70690474D01*
X101319048Y-70738093D01*
X101366667Y-70785712D01*
X101414286Y-70880950D01*
X101414286Y-71071427D01*
X101366667Y-71166665D01*
X100747619Y-71738093D02*
X100795238Y-71642855D01*
X100842857Y-71595236D01*
X100938095Y-71547617D01*
X101223810Y-71547617D01*
X101319048Y-71595236D01*
X101366667Y-71642855D01*
X101414286Y-71738093D01*
X101414286Y-71880951D01*
X101366667Y-71976189D01*
X101319048Y-72023808D01*
X101223810Y-72071427D01*
X100938095Y-72071427D01*
X100842857Y-72023808D01*
X100795238Y-71976189D01*
X100747619Y-71880951D01*
X100747619Y-71738093D01*
X100747619Y-72499998D02*
X101414286Y-72499998D01*
X101319048Y-72499998D02*
X101366667Y-72547617D01*
X101414286Y-72642855D01*
X101414286Y-72785713D01*
X101366667Y-72880951D01*
X101271429Y-72928570D01*
X100747619Y-72928570D01*
X101271429Y-72928570D02*
X101366667Y-72976189D01*
X101414286Y-73071427D01*
X101414286Y-73214284D01*
X101366667Y-73309522D01*
X101271429Y-73357141D01*
X100747619Y-73357141D01*
X101795238Y-74547617D02*
X100509524Y-73690474D01*
X101414286Y-74880950D02*
X100414286Y-74880950D01*
X101366667Y-74880950D02*
X101414286Y-74976188D01*
X101414286Y-75166665D01*
X101366667Y-75261903D01*
X101319048Y-75309522D01*
X101223810Y-75357141D01*
X100938095Y-75357141D01*
X100842857Y-75309522D01*
X100795238Y-75261903D01*
X100747619Y-75166665D01*
X100747619Y-74976188D01*
X100795238Y-74880950D01*
X100747619Y-75785712D02*
X101747619Y-75785712D01*
X100747619Y-76214284D02*
X101271429Y-76214284D01*
X101366667Y-76166665D01*
X101414286Y-76071427D01*
X101414286Y-75928569D01*
X101366667Y-75833331D01*
X101319048Y-75785712D01*
X100747619Y-76833331D02*
X100795238Y-76738093D01*
X100842857Y-76690474D01*
X100938095Y-76642855D01*
X101223810Y-76642855D01*
X101319048Y-76690474D01*
X101366667Y-76738093D01*
X101414286Y-76833331D01*
X101414286Y-76976189D01*
X101366667Y-77071427D01*
X101319048Y-77119046D01*
X101223810Y-77166665D01*
X100938095Y-77166665D01*
X100842857Y-77119046D01*
X100795238Y-77071427D01*
X100747619Y-76976189D01*
X100747619Y-76833331D01*
X101414286Y-77595236D02*
X100747619Y-77595236D01*
X101319048Y-77595236D02*
X101366667Y-77642855D01*
X101414286Y-77738093D01*
X101414286Y-77880951D01*
X101366667Y-77976189D01*
X101271429Y-78023808D01*
X100747619Y-78023808D01*
X100795238Y-78880951D02*
X100747619Y-78785713D01*
X100747619Y-78595236D01*
X100795238Y-78499998D01*
X100890476Y-78452379D01*
X101271429Y-78452379D01*
X101366667Y-78499998D01*
X101414286Y-78595236D01*
X101414286Y-78785713D01*
X101366667Y-78880951D01*
X101271429Y-78928570D01*
X101176190Y-78928570D01*
X101080952Y-78452379D01*
X100652381Y-79119046D02*
X100652381Y-79880951D01*
X100747619Y-80119046D02*
X101414286Y-80119046D01*
X101223810Y-80119046D02*
X101319048Y-80166665D01*
X101366667Y-80214284D01*
X101414286Y-80309522D01*
X101414286Y-80404761D01*
X101414286Y-80595237D02*
X101414286Y-80976189D01*
X101747619Y-80738094D02*
X100890476Y-80738094D01*
X100795238Y-80785713D01*
X100747619Y-80880951D01*
X100747619Y-80976189D01*
X101414286Y-81166666D02*
X101414286Y-81547618D01*
X101747619Y-81309523D02*
X100890476Y-81309523D01*
X100795238Y-81357142D01*
X100747619Y-81452380D01*
X100747619Y-81547618D01*
X101414286Y-81785714D02*
X100747619Y-82023809D01*
X101414286Y-82261905D02*
X100747619Y-82023809D01*
X100509524Y-81928571D01*
X100461905Y-81880952D01*
X100414286Y-81785714D01*
X100652381Y-82404762D02*
X100652381Y-83166667D01*
X100747619Y-83404762D02*
X101414286Y-83404762D01*
X101747619Y-83404762D02*
X101700000Y-83357143D01*
X101652381Y-83404762D01*
X101700000Y-83452381D01*
X101747619Y-83404762D01*
X101652381Y-83404762D01*
X101414286Y-83880952D02*
X100747619Y-83880952D01*
X101319048Y-83880952D02*
X101366667Y-83928571D01*
X101414286Y-84023809D01*
X101414286Y-84166667D01*
X101366667Y-84261905D01*
X101271429Y-84309524D01*
X100747619Y-84309524D01*
X101414286Y-84642857D02*
X101414286Y-85023809D01*
X101747619Y-84785714D02*
X100890476Y-84785714D01*
X100795238Y-84833333D01*
X100747619Y-84928571D01*
X100747619Y-85023809D01*
X100795238Y-85738096D02*
X100747619Y-85642858D01*
X100747619Y-85452381D01*
X100795238Y-85357143D01*
X100890476Y-85309524D01*
X101271429Y-85309524D01*
X101366667Y-85357143D01*
X101414286Y-85452381D01*
X101414286Y-85642858D01*
X101366667Y-85738096D01*
X101271429Y-85785715D01*
X101176190Y-85785715D01*
X101080952Y-85309524D01*
X100747619Y-86214286D02*
X101414286Y-86214286D01*
X101223810Y-86214286D02*
X101319048Y-86261905D01*
X101366667Y-86309524D01*
X101414286Y-86404762D01*
X101414286Y-86500001D01*
X101414286Y-86690477D02*
X101414286Y-87071429D01*
X100747619Y-86833334D02*
X101604762Y-86833334D01*
X101700000Y-86880953D01*
X101747619Y-86976191D01*
X101747619Y-87071429D01*
X100747619Y-87833335D02*
X101271429Y-87833335D01*
X101366667Y-87785716D01*
X101414286Y-87690478D01*
X101414286Y-87500001D01*
X101366667Y-87404763D01*
X100795238Y-87833335D02*
X100747619Y-87738097D01*
X100747619Y-87500001D01*
X100795238Y-87404763D01*
X100890476Y-87357144D01*
X100985714Y-87357144D01*
X101080952Y-87404763D01*
X101128571Y-87500001D01*
X101128571Y-87738097D01*
X101176190Y-87833335D01*
X100795238Y-88738097D02*
X100747619Y-88642859D01*
X100747619Y-88452382D01*
X100795238Y-88357144D01*
X100842857Y-88309525D01*
X100938095Y-88261906D01*
X101223810Y-88261906D01*
X101319048Y-88309525D01*
X101366667Y-88357144D01*
X101414286Y-88452382D01*
X101414286Y-88642859D01*
X101366667Y-88738097D01*
X100795238Y-89547621D02*
X100747619Y-89452383D01*
X100747619Y-89261906D01*
X100795238Y-89166668D01*
X100890476Y-89119049D01*
X101271429Y-89119049D01*
X101366667Y-89166668D01*
X101414286Y-89261906D01*
X101414286Y-89452383D01*
X101366667Y-89547621D01*
X101271429Y-89595240D01*
X101176190Y-89595240D01*
X101080952Y-89119049D01*
X149042381Y-91469716D02*
X148042381Y-91469716D01*
X148042381Y-91088763D01*
X148090000Y-90993525D01*
X148137619Y-90945906D01*
X148232857Y-90898287D01*
X148375714Y-90898287D01*
X148470952Y-90945906D01*
X148518571Y-90993525D01*
X148566190Y-91088763D01*
X148566190Y-91469716D01*
X148947143Y-89898287D02*
X148994762Y-89945906D01*
X149042381Y-90088763D01*
X149042381Y-90184001D01*
X148994762Y-90326859D01*
X148899524Y-90422097D01*
X148804286Y-90469716D01*
X148613810Y-90517335D01*
X148470952Y-90517335D01*
X148280476Y-90469716D01*
X148185238Y-90422097D01*
X148090000Y-90326859D01*
X148042381Y-90184001D01*
X148042381Y-90088763D01*
X148090000Y-89945906D01*
X148137619Y-89898287D01*
X148518571Y-89136382D02*
X148566190Y-88993525D01*
X148613810Y-88945906D01*
X148709048Y-88898287D01*
X148851905Y-88898287D01*
X148947143Y-88945906D01*
X148994762Y-88993525D01*
X149042381Y-89088763D01*
X149042381Y-89469716D01*
X148042381Y-89469716D01*
X148042381Y-89136382D01*
X148090000Y-89041144D01*
X148137619Y-88993525D01*
X148232857Y-88945906D01*
X148328095Y-88945906D01*
X148423333Y-88993525D01*
X148470952Y-89041144D01*
X148518571Y-89136382D01*
X148518571Y-89469716D01*
X149042381Y-87707811D02*
X148042381Y-87707811D01*
X148042381Y-87469716D01*
X148090000Y-87326858D01*
X148185238Y-87231620D01*
X148280476Y-87184001D01*
X148470952Y-87136382D01*
X148613810Y-87136382D01*
X148804286Y-87184001D01*
X148899524Y-87231620D01*
X148994762Y-87326858D01*
X149042381Y-87469716D01*
X149042381Y-87707811D01*
X148994762Y-86326858D02*
X149042381Y-86422096D01*
X149042381Y-86612573D01*
X148994762Y-86707811D01*
X148899524Y-86755430D01*
X148518571Y-86755430D01*
X148423333Y-86707811D01*
X148375714Y-86612573D01*
X148375714Y-86422096D01*
X148423333Y-86326858D01*
X148518571Y-86279239D01*
X148613810Y-86279239D01*
X148709048Y-86755430D01*
X148994762Y-85898287D02*
X149042381Y-85803049D01*
X149042381Y-85612573D01*
X148994762Y-85517334D01*
X148899524Y-85469715D01*
X148851905Y-85469715D01*
X148756667Y-85517334D01*
X148709048Y-85612573D01*
X148709048Y-85755430D01*
X148661429Y-85850668D01*
X148566190Y-85898287D01*
X148518571Y-85898287D01*
X148423333Y-85850668D01*
X148375714Y-85755430D01*
X148375714Y-85612573D01*
X148423333Y-85517334D01*
X149042381Y-85041144D02*
X148375714Y-85041144D01*
X148042381Y-85041144D02*
X148090000Y-85088763D01*
X148137619Y-85041144D01*
X148090000Y-84993525D01*
X148042381Y-85041144D01*
X148137619Y-85041144D01*
X148375714Y-84136382D02*
X149185238Y-84136382D01*
X149280476Y-84184001D01*
X149328095Y-84231620D01*
X149375714Y-84326859D01*
X149375714Y-84469716D01*
X149328095Y-84564954D01*
X148994762Y-84136382D02*
X149042381Y-84231620D01*
X149042381Y-84422097D01*
X148994762Y-84517335D01*
X148947143Y-84564954D01*
X148851905Y-84612573D01*
X148566190Y-84612573D01*
X148470952Y-84564954D01*
X148423333Y-84517335D01*
X148375714Y-84422097D01*
X148375714Y-84231620D01*
X148423333Y-84136382D01*
X148375714Y-83660192D02*
X149042381Y-83660192D01*
X148470952Y-83660192D02*
X148423333Y-83612573D01*
X148375714Y-83517335D01*
X148375714Y-83374477D01*
X148423333Y-83279239D01*
X148518571Y-83231620D01*
X149042381Y-83231620D01*
X149042381Y-81993525D02*
X148042381Y-81993525D01*
X148423333Y-81993525D02*
X148375714Y-81898287D01*
X148375714Y-81707810D01*
X148423333Y-81612572D01*
X148470952Y-81564953D01*
X148566190Y-81517334D01*
X148851905Y-81517334D01*
X148947143Y-81564953D01*
X148994762Y-81612572D01*
X149042381Y-81707810D01*
X149042381Y-81898287D01*
X148994762Y-81993525D01*
X148375714Y-81184001D02*
X149042381Y-80945906D01*
X148375714Y-80707810D02*
X149042381Y-80945906D01*
X149280476Y-81041144D01*
X149328095Y-81088763D01*
X149375714Y-81184001D01*
X149042381Y-79564953D02*
X148042381Y-79564953D01*
X148042381Y-79326858D01*
X148090000Y-79184000D01*
X148185238Y-79088762D01*
X148280476Y-79041143D01*
X148470952Y-78993524D01*
X148613810Y-78993524D01*
X148804286Y-79041143D01*
X148899524Y-79088762D01*
X148994762Y-79184000D01*
X149042381Y-79326858D01*
X149042381Y-79564953D01*
X149042381Y-78564953D02*
X148375714Y-78564953D01*
X148470952Y-78564953D02*
X148423333Y-78517334D01*
X148375714Y-78422096D01*
X148375714Y-78279238D01*
X148423333Y-78184000D01*
X148518571Y-78136381D01*
X149042381Y-78136381D01*
X148518571Y-78136381D02*
X148423333Y-78088762D01*
X148375714Y-77993524D01*
X148375714Y-77850667D01*
X148423333Y-77755429D01*
X148518571Y-77707810D01*
X149042381Y-77707810D01*
X149042381Y-77231620D02*
X148375714Y-77231620D01*
X148042381Y-77231620D02*
X148090000Y-77279239D01*
X148137619Y-77231620D01*
X148090000Y-77184001D01*
X148042381Y-77231620D01*
X148137619Y-77231620D01*
X148375714Y-76898287D02*
X148375714Y-76517335D01*
X148042381Y-76755430D02*
X148899524Y-76755430D01*
X148994762Y-76707811D01*
X149042381Y-76612573D01*
X149042381Y-76517335D01*
X149042381Y-76184001D02*
X148375714Y-76184001D01*
X148566190Y-76184001D02*
X148470952Y-76136382D01*
X148423333Y-76088763D01*
X148375714Y-75993525D01*
X148375714Y-75898286D01*
X148375714Y-75660191D02*
X149042381Y-75422096D01*
X148375714Y-75184000D02*
X149042381Y-75422096D01*
X149280476Y-75517334D01*
X149328095Y-75564953D01*
X149375714Y-75660191D01*
X149042381Y-74041143D02*
X148042381Y-74041143D01*
X148756667Y-73707809D01*
X148042381Y-73374476D01*
X149042381Y-73374476D01*
X148994762Y-72517333D02*
X149042381Y-72612571D01*
X149042381Y-72803048D01*
X148994762Y-72898286D01*
X148899524Y-72945905D01*
X148518571Y-72945905D01*
X148423333Y-72898286D01*
X148375714Y-72803048D01*
X148375714Y-72612571D01*
X148423333Y-72517333D01*
X148518571Y-72469714D01*
X148613810Y-72469714D01*
X148709048Y-72945905D01*
X149042381Y-71898286D02*
X148994762Y-71993524D01*
X148899524Y-72041143D01*
X148042381Y-72041143D01*
X148375714Y-71517333D02*
X149042381Y-71517333D01*
X148470952Y-71517333D02*
X148423333Y-71469714D01*
X148375714Y-71374476D01*
X148375714Y-71231618D01*
X148423333Y-71136380D01*
X148518571Y-71088761D01*
X149042381Y-71088761D01*
X149042381Y-70612571D02*
X148375714Y-70612571D01*
X148042381Y-70612571D02*
X148090000Y-70660190D01*
X148137619Y-70612571D01*
X148090000Y-70564952D01*
X148042381Y-70612571D01*
X148137619Y-70612571D01*
X148994762Y-69707809D02*
X149042381Y-69803047D01*
X149042381Y-69993524D01*
X148994762Y-70088762D01*
X148947143Y-70136381D01*
X148851905Y-70184000D01*
X148566190Y-70184000D01*
X148470952Y-70136381D01*
X148423333Y-70088762D01*
X148375714Y-69993524D01*
X148375714Y-69803047D01*
X148423333Y-69707809D01*
X149042381Y-69279238D02*
X148042381Y-69279238D01*
X149042381Y-68850666D02*
X148518571Y-68850666D01*
X148423333Y-68898285D01*
X148375714Y-68993523D01*
X148375714Y-69136381D01*
X148423333Y-69231619D01*
X148470952Y-69279238D01*
X149042381Y-67945904D02*
X148518571Y-67945904D01*
X148423333Y-67993523D01*
X148375714Y-68088761D01*
X148375714Y-68279238D01*
X148423333Y-68374476D01*
X148994762Y-67945904D02*
X149042381Y-68041142D01*
X149042381Y-68279238D01*
X148994762Y-68374476D01*
X148899524Y-68422095D01*
X148804286Y-68422095D01*
X148709048Y-68374476D01*
X148661429Y-68279238D01*
X148661429Y-68041142D01*
X148613810Y-67945904D01*
X148375714Y-67469714D02*
X149042381Y-67469714D01*
X148470952Y-67469714D02*
X148423333Y-67422095D01*
X148375714Y-67326857D01*
X148375714Y-67183999D01*
X148423333Y-67088761D01*
X148518571Y-67041142D01*
X149042381Y-67041142D01*
X148994762Y-66612571D02*
X149042381Y-66517333D01*
X149042381Y-66326857D01*
X148994762Y-66231618D01*
X148899524Y-66183999D01*
X148851905Y-66183999D01*
X148756667Y-66231618D01*
X148709048Y-66326857D01*
X148709048Y-66469714D01*
X148661429Y-66564952D01*
X148566190Y-66612571D01*
X148518571Y-66612571D01*
X148423333Y-66564952D01*
X148375714Y-66469714D01*
X148375714Y-66326857D01*
X148423333Y-66231618D01*
X149042381Y-65755428D02*
X148042381Y-65755428D01*
X148661429Y-65660190D02*
X149042381Y-65374475D01*
X148375714Y-65374475D02*
X148756667Y-65755428D01*
X148375714Y-65041142D02*
X149042381Y-64803047D01*
X148375714Y-64564951D02*
X149042381Y-64803047D01*
X149280476Y-64898285D01*
X149328095Y-64945904D01*
X149375714Y-65041142D01*
X148375714Y-62993522D02*
X149042381Y-62993522D01*
X147994762Y-63231618D02*
X148709048Y-63469713D01*
X148709048Y-62850665D01*
X148042381Y-62564951D02*
X149042381Y-61898284D01*
X148042381Y-61898284D02*
X149042381Y-62564951D01*
X148042381Y-61041141D02*
X148042381Y-61517332D01*
X148518571Y-61564951D01*
X148470952Y-61517332D01*
X148423333Y-61422094D01*
X148423333Y-61183998D01*
X148470952Y-61088760D01*
X148518571Y-61041141D01*
X148613810Y-60993522D01*
X148851905Y-60993522D01*
X148947143Y-61041141D01*
X148994762Y-61088760D01*
X149042381Y-61183998D01*
X149042381Y-61422094D01*
X148994762Y-61517332D01*
X148947143Y-61564951D01*
X149042381Y-60564951D02*
X148042381Y-60564951D01*
X148042381Y-60326856D01*
X148090000Y-60183998D01*
X148185238Y-60088760D01*
X148280476Y-60041141D01*
X148470952Y-59993522D01*
X148613810Y-59993522D01*
X148804286Y-60041141D01*
X148899524Y-60088760D01*
X148994762Y-60183998D01*
X149042381Y-60326856D01*
X149042381Y-60564951D01*
X149042381Y-59564951D02*
X148042381Y-59564951D01*
X148756667Y-59231617D01*
X148042381Y-58898284D01*
X149042381Y-58898284D01*
D12*
X144780000Y-72390000D03*
D13*
X144780000Y-82550000D03*
D12*
X138430000Y-82550000D03*
D13*
X138430000Y-72390000D03*
D14*
X105410000Y-78740000D03*
D12*
X105410000Y-76240000D03*
D14*
X124460000Y-96520000D03*
D12*
X126960000Y-96520000D03*
X114300000Y-71120000D03*
X114300000Y-66120000D03*
X143510000Y-66040000D03*
X138510000Y-66040000D03*
X134620000Y-66040000D03*
X129620000Y-66040000D03*
D15*
X119380520Y-76197460D03*
D16*
X109220520Y-76197460D03*
D15*
X105409480Y-73662540D03*
D16*
X115569480Y-73662540D03*
D17*
X115500000Y-96900000D03*
X116500000Y-88400000D03*
D18*
X121000000Y-89900000D03*
D17*
X121000000Y-93900000D03*
X121000000Y-96900000D03*
X131500000Y-53100000D03*
X130500000Y-61600000D03*
D18*
X126000000Y-60100000D03*
D17*
X126000000Y-56100000D03*
X126000000Y-53100000D03*
D12*
X123190000Y-85090000D03*
D13*
X115570000Y-85090000D03*
D12*
X111760000Y-90170000D03*
D13*
X111760000Y-97790000D03*
D12*
X111760000Y-87630000D03*
D13*
X111760000Y-80010000D03*
D12*
X123190000Y-80010000D03*
D13*
X115570000Y-80010000D03*
D19*
X143000000Y-58200000D03*
X140500000Y-63200000D03*
X143000000Y-63200000D03*
X138000000Y-58200000D03*
X138000000Y-63200000D03*
D20*
X104140000Y-91440000D03*
D21*
X104140000Y-93440000D03*
D12*
X107950000Y-97790000D03*
D13*
X107950000Y-90170000D03*
D14*
X125730000Y-82550000D03*
D12*
X128230000Y-82550000D03*
D14*
X132080000Y-81280000D03*
D12*
X132080000Y-83780000D03*
X124460000Y-91440000D03*
D13*
X127000000Y-91440000D03*
D12*
X124460000Y-88900000D03*
D13*
X127000000Y-88900000D03*
D12*
X142240000Y-87630000D03*
D13*
X132080000Y-87630000D03*
D12*
X140970000Y-91440000D03*
D13*
X130810000Y-91440000D03*
D12*
X104140000Y-71120000D03*
D13*
X111760000Y-71120000D03*
D22*
X104140000Y-85090000D03*
D23*
X106680000Y-87630000D03*
D24*
X106680000Y-82550000D03*
X107950000Y-68580000D03*
D25*
X110490000Y-66040000D03*
D22*
X105410000Y-66040000D03*
D26*
X120350000Y-55950000D03*
X106650000Y-55950000D03*
D14*
X112200000Y-58800000D03*
D12*
X114800000Y-58800000D03*
X110100000Y-58800000D03*
X116900000Y-58800000D03*
X110100000Y-61600000D03*
D27*
X113500000Y-55150000D03*
D28*
X138510000Y-97750000D03*
X141010000Y-95250000D03*
X143510000Y-97750000D03*
X138510000Y-95250000D03*
X141010000Y-97750000D03*
X143510000Y-95250000D03*
X130890000Y-97750000D03*
X133390000Y-95250000D03*
X135890000Y-97750000D03*
X130890000Y-95250000D03*
X133390000Y-97750000D03*
X135890000Y-95250000D03*
D29*
X104140000Y-85090000D02*
X115570000Y-85090000D01*
X111760000Y-90170000D02*
X111760000Y-87630000D01*
X111760000Y-87630000D02*
X111760000Y-85090000D01*
X111760000Y-85090000D02*
X115570000Y-85090000D01*
X125730000Y-82550000D02*
X118110000Y-82550000D01*
X118110000Y-82550000D02*
X115570000Y-85090000D01*
X141010000Y-97750000D02*
X141010000Y-95250000D01*
X141010000Y-95250000D02*
X144780000Y-91480000D01*
X144780000Y-91520000D02*
X144780000Y-91480000D01*
X144780000Y-91480000D02*
X144780000Y-91440000D01*
X144780000Y-91440000D02*
X144780000Y-82550000D01*
X129620000Y-66040000D02*
X132080000Y-66040000D01*
X132080000Y-68580000D02*
X132080000Y-66040000D01*
X132080000Y-66040000D02*
X132080000Y-63180000D01*
X132080000Y-63180000D02*
X130500000Y-61600000D01*
X137160000Y-69850000D02*
X133350000Y-69850000D01*
X138430000Y-72390000D02*
X138430000Y-71120000D01*
X138430000Y-71120000D02*
X137160000Y-69850000D01*
X133350000Y-69850000D02*
X132080000Y-68580000D01*
X126000000Y-60100000D02*
X124685000Y-60100000D01*
X124685000Y-60100000D02*
X124460000Y-60325000D01*
X127860000Y-60100000D02*
X126000000Y-60100000D01*
X124460000Y-60325000D02*
X116205000Y-60325000D01*
X116205000Y-60325000D02*
X114930000Y-61600000D01*
X114930000Y-61600000D02*
X110100000Y-61600000D01*
X134620000Y-59690000D02*
X128270000Y-59690000D01*
X138000000Y-63070000D02*
X134620000Y-59690000D01*
X128270000Y-59690000D02*
X127860000Y-60100000D01*
X138000000Y-63200000D02*
X138000000Y-63070000D01*
X144780000Y-71120000D02*
X144780000Y-72390000D01*
X138510000Y-66040000D02*
X140500000Y-66040000D01*
X140500000Y-63200000D02*
X140500000Y-66040000D01*
X140500000Y-66040000D02*
X140500000Y-66840000D01*
X140500000Y-66840000D02*
X144780000Y-71120000D01*
X133390000Y-97750000D02*
X133390000Y-95250000D01*
X133390000Y-95250000D02*
X133350000Y-95210000D01*
X133350000Y-95210000D02*
X133350000Y-91440000D01*
X138430000Y-82550000D02*
X138430000Y-86360000D01*
X138430000Y-86360000D02*
X133350000Y-91440000D01*
X133350000Y-97710000D02*
X133390000Y-97750000D01*
D30*
G36*
X149448000Y-58183189D02*
X147338000Y-58183189D01*
X147338000Y-92184811D01*
X149448000Y-92184811D01*
X149448000Y-99448000D01*
X100552000Y-99448000D01*
X100552000Y-97861818D01*
X100672684Y-97861818D01*
X100950242Y-98533560D01*
X101463736Y-99047952D01*
X102134993Y-99326682D01*
X102861818Y-99327316D01*
X103533560Y-99049758D01*
X104047952Y-98536264D01*
X104252815Y-98042897D01*
X106672779Y-98042897D01*
X106866781Y-98512417D01*
X107225693Y-98871957D01*
X107694875Y-99066778D01*
X108202897Y-99067221D01*
X108672417Y-98873219D01*
X109031957Y-98514307D01*
X109226778Y-98045125D01*
X109227022Y-97764982D01*
X110483000Y-97764982D01*
X110483000Y-97815018D01*
X110580206Y-98303705D01*
X110857025Y-98717993D01*
X111271313Y-98994812D01*
X111760000Y-99092018D01*
X112248687Y-98994812D01*
X112477951Y-98841622D01*
X130157588Y-98841622D01*
X130242468Y-99073382D01*
X130798195Y-99220446D01*
X131367898Y-99143647D01*
X131537532Y-99073382D01*
X131622412Y-98841622D01*
X130890000Y-98109210D01*
X130157588Y-98841622D01*
X112477951Y-98841622D01*
X112662975Y-98717993D01*
X112939794Y-98303705D01*
X113037000Y-97815018D01*
X113037000Y-97764982D01*
X112939794Y-97276295D01*
X112662975Y-96862007D01*
X112248687Y-96585188D01*
X112177681Y-96571064D01*
X114323000Y-96571064D01*
X114323000Y-97228936D01*
X114412594Y-97679354D01*
X114667735Y-98061201D01*
X115049582Y-98316342D01*
X115500000Y-98405936D01*
X115950418Y-98316342D01*
X116332265Y-98061201D01*
X116587406Y-97679354D01*
X116677000Y-97228936D01*
X116677000Y-96571064D01*
X116587406Y-96120646D01*
X116382038Y-95813289D01*
X117622813Y-95813289D01*
X117786431Y-96209275D01*
X118089132Y-96512504D01*
X118484832Y-96676813D01*
X118913289Y-96677187D01*
X119309275Y-96513569D01*
X119612504Y-96210868D01*
X119776813Y-95815168D01*
X119777187Y-95386711D01*
X119613569Y-94990725D01*
X119310868Y-94687496D01*
X118915168Y-94523187D01*
X118486711Y-94522813D01*
X118090725Y-94686431D01*
X117787496Y-94989132D01*
X117623187Y-95384832D01*
X117622813Y-95813289D01*
X116382038Y-95813289D01*
X116332265Y-95738799D01*
X115950418Y-95483658D01*
X115500000Y-95394064D01*
X115049582Y-95483658D01*
X114667735Y-95738799D01*
X114412594Y-96120646D01*
X114323000Y-96571064D01*
X112177681Y-96571064D01*
X111760000Y-96487982D01*
X111271313Y-96585188D01*
X110857025Y-96862007D01*
X110580206Y-97276295D01*
X110483000Y-97764982D01*
X109227022Y-97764982D01*
X109227221Y-97537103D01*
X109033219Y-97067583D01*
X108674307Y-96708043D01*
X108205125Y-96513222D01*
X107697103Y-96512779D01*
X107227583Y-96706781D01*
X106868043Y-97065693D01*
X106673222Y-97534875D01*
X106672779Y-98042897D01*
X104252815Y-98042897D01*
X104326682Y-97865007D01*
X104327316Y-97138182D01*
X104049758Y-96466440D01*
X103536264Y-95952048D01*
X102865007Y-95673318D01*
X102138182Y-95672684D01*
X101466440Y-95950242D01*
X100952048Y-96463736D01*
X100673318Y-97134993D01*
X100672684Y-97861818D01*
X100552000Y-97861818D01*
X100552000Y-90840000D01*
X103053656Y-90840000D01*
X103053656Y-92040000D01*
X103086917Y-92216765D01*
X103191385Y-92379113D01*
X103350785Y-92488027D01*
X103533917Y-92525112D01*
X103530725Y-92526431D01*
X103227496Y-92829132D01*
X103063187Y-93224832D01*
X103062813Y-93653289D01*
X103226431Y-94049275D01*
X103529132Y-94352504D01*
X103924832Y-94516813D01*
X104353289Y-94517187D01*
X104749275Y-94353569D01*
X105052504Y-94050868D01*
X105216813Y-93655168D01*
X105216886Y-93571064D01*
X119823000Y-93571064D01*
X119823000Y-94228936D01*
X119912594Y-94679354D01*
X120167735Y-95061201D01*
X120549582Y-95316342D01*
X120970158Y-95400000D01*
X120549582Y-95483658D01*
X120167735Y-95738799D01*
X119912594Y-96120646D01*
X119823000Y-96571064D01*
X119823000Y-97228936D01*
X119912594Y-97679354D01*
X120167735Y-98061201D01*
X120549582Y-98316342D01*
X121000000Y-98405936D01*
X121450418Y-98316342D01*
X121832265Y-98061201D01*
X122087406Y-97679354D01*
X122177000Y-97228936D01*
X122177000Y-96571064D01*
X122087406Y-96120646D01*
X121832265Y-95738799D01*
X121804131Y-95720000D01*
X123173656Y-95720000D01*
X123173656Y-97320000D01*
X123206917Y-97496765D01*
X123311385Y-97659113D01*
X123470785Y-97768027D01*
X123660000Y-97806344D01*
X125260000Y-97806344D01*
X125436765Y-97773083D01*
X125599113Y-97668615D01*
X125643076Y-97604273D01*
X126234938Y-97604273D01*
X126318552Y-97835008D01*
X126870611Y-97980380D01*
X127436278Y-97903423D01*
X127601448Y-97835008D01*
X127665521Y-97658195D01*
X129419554Y-97658195D01*
X129496353Y-98227898D01*
X129566618Y-98397532D01*
X129798378Y-98482412D01*
X130530790Y-97750000D01*
X129798378Y-97017588D01*
X129566618Y-97102468D01*
X129419554Y-97658195D01*
X127665521Y-97658195D01*
X127685062Y-97604273D01*
X126960000Y-96879210D01*
X126234938Y-97604273D01*
X125643076Y-97604273D01*
X125708027Y-97509215D01*
X125746344Y-97320000D01*
X125746344Y-97198176D01*
X125875727Y-97245062D01*
X126600790Y-96520000D01*
X127319210Y-96520000D01*
X128044273Y-97245062D01*
X128275008Y-97161448D01*
X128420380Y-96609389D01*
X128383952Y-96341622D01*
X130157588Y-96341622D01*
X130215593Y-96500000D01*
X130157588Y-96658378D01*
X130890000Y-97390790D01*
X131622412Y-96658378D01*
X131564407Y-96500000D01*
X131622412Y-96341622D01*
X130890000Y-95609210D01*
X130157588Y-96341622D01*
X128383952Y-96341622D01*
X128343423Y-96043722D01*
X128275008Y-95878552D01*
X128044273Y-95794938D01*
X127319210Y-96520000D01*
X126600790Y-96520000D01*
X125875727Y-95794938D01*
X125746344Y-95841824D01*
X125746344Y-95720000D01*
X125713083Y-95543235D01*
X125643904Y-95435727D01*
X126234938Y-95435727D01*
X126960000Y-96160790D01*
X127685062Y-95435727D01*
X127601448Y-95204992D01*
X127423734Y-95158195D01*
X129419554Y-95158195D01*
X129496353Y-95727898D01*
X129566618Y-95897532D01*
X129798378Y-95982412D01*
X130530790Y-95250000D01*
X131249210Y-95250000D01*
X131981622Y-95982412D01*
X132213382Y-95897532D01*
X132233542Y-95821352D01*
X132298298Y-95978075D01*
X132660021Y-96340429D01*
X132663000Y-96341666D01*
X132663000Y-96657854D01*
X132661925Y-96658298D01*
X132299571Y-97020021D01*
X132239327Y-97165105D01*
X132213382Y-97102468D01*
X131981622Y-97017588D01*
X131249210Y-97750000D01*
X131981622Y-98482412D01*
X132213382Y-98397532D01*
X132233542Y-98321352D01*
X132298298Y-98478075D01*
X132660021Y-98840429D01*
X133132877Y-99036776D01*
X133644877Y-99037223D01*
X134118075Y-98841702D01*
X134480429Y-98479979D01*
X134640150Y-98095327D01*
X134798298Y-98478075D01*
X135160021Y-98840429D01*
X135632877Y-99036776D01*
X136144877Y-99037223D01*
X136618075Y-98841702D01*
X136618155Y-98841622D01*
X137777588Y-98841622D01*
X137862468Y-99073382D01*
X138418195Y-99220446D01*
X138987898Y-99143647D01*
X139157532Y-99073382D01*
X139242412Y-98841622D01*
X138510000Y-98109210D01*
X137777588Y-98841622D01*
X136618155Y-98841622D01*
X136980429Y-98479979D01*
X137108694Y-98171083D01*
X137116353Y-98227898D01*
X137186618Y-98397532D01*
X137418378Y-98482412D01*
X138150790Y-97750000D01*
X137418378Y-97017588D01*
X137186618Y-97102468D01*
X137119608Y-97355685D01*
X136981702Y-97021925D01*
X136619979Y-96659571D01*
X136235327Y-96499850D01*
X136618075Y-96341702D01*
X136618155Y-96341622D01*
X137777588Y-96341622D01*
X137835593Y-96500000D01*
X137777588Y-96658378D01*
X138510000Y-97390790D01*
X139242412Y-96658378D01*
X139184407Y-96500000D01*
X139242412Y-96341622D01*
X138510000Y-95609210D01*
X137777588Y-96341622D01*
X136618155Y-96341622D01*
X136980429Y-95979979D01*
X137108694Y-95671083D01*
X137116353Y-95727898D01*
X137186618Y-95897532D01*
X137418378Y-95982412D01*
X138150790Y-95250000D01*
X138869210Y-95250000D01*
X139601622Y-95982412D01*
X139833382Y-95897532D01*
X139853542Y-95821352D01*
X139918298Y-95978075D01*
X140280021Y-96340429D01*
X140283000Y-96341666D01*
X140283000Y-96657854D01*
X140281925Y-96658298D01*
X139919571Y-97020021D01*
X139859327Y-97165105D01*
X139833382Y-97102468D01*
X139601622Y-97017588D01*
X138869210Y-97750000D01*
X139601622Y-98482412D01*
X139833382Y-98397532D01*
X139853542Y-98321352D01*
X139918298Y-98478075D01*
X140280021Y-98840429D01*
X140752877Y-99036776D01*
X141264877Y-99037223D01*
X141738075Y-98841702D01*
X142100429Y-98479979D01*
X142260150Y-98095327D01*
X142418298Y-98478075D01*
X142780021Y-98840429D01*
X143252877Y-99036776D01*
X143764877Y-99037223D01*
X144238075Y-98841702D01*
X144600429Y-98479979D01*
X144796776Y-98007123D01*
X144796902Y-97861818D01*
X145672684Y-97861818D01*
X145950242Y-98533560D01*
X146463736Y-99047952D01*
X147134993Y-99326682D01*
X147861818Y-99327316D01*
X148533560Y-99049758D01*
X149047952Y-98536264D01*
X149326682Y-97865007D01*
X149327316Y-97138182D01*
X149049758Y-96466440D01*
X148536264Y-95952048D01*
X147865007Y-95673318D01*
X147138182Y-95672684D01*
X146466440Y-95950242D01*
X145952048Y-96463736D01*
X145673318Y-97134993D01*
X145672684Y-97861818D01*
X144796902Y-97861818D01*
X144797223Y-97495123D01*
X144601702Y-97021925D01*
X144239979Y-96659571D01*
X143855327Y-96499850D01*
X144238075Y-96341702D01*
X144600429Y-95979979D01*
X144796776Y-95507123D01*
X144797223Y-94995123D01*
X144601702Y-94521925D01*
X144239979Y-94159571D01*
X143767123Y-93963224D01*
X143325296Y-93962838D01*
X145173522Y-92114612D01*
X145294067Y-92034067D01*
X145451660Y-91798211D01*
X145507000Y-91520000D01*
X145507000Y-83595576D01*
X145682975Y-83477993D01*
X145959794Y-83063705D01*
X146057000Y-82575018D01*
X146057000Y-82524982D01*
X145959794Y-82036295D01*
X145682975Y-81622007D01*
X145268687Y-81345188D01*
X144780000Y-81247982D01*
X144291313Y-81345188D01*
X143877025Y-81622007D01*
X143600206Y-82036295D01*
X143503000Y-82524982D01*
X143503000Y-82575018D01*
X143600206Y-83063705D01*
X143877025Y-83477993D01*
X144053000Y-83595576D01*
X144053000Y-91178866D01*
X141268196Y-93963670D01*
X141267123Y-93963224D01*
X140755123Y-93962777D01*
X140281925Y-94158298D01*
X139919571Y-94520021D01*
X139859327Y-94665105D01*
X139833382Y-94602468D01*
X139601622Y-94517588D01*
X138869210Y-95250000D01*
X138150790Y-95250000D01*
X137418378Y-94517588D01*
X137186618Y-94602468D01*
X137119608Y-94855685D01*
X136981702Y-94521925D01*
X136619979Y-94159571D01*
X136617106Y-94158378D01*
X137777588Y-94158378D01*
X138510000Y-94890790D01*
X139242412Y-94158378D01*
X139157532Y-93926618D01*
X138601805Y-93779554D01*
X138032102Y-93856353D01*
X137862468Y-93926618D01*
X137777588Y-94158378D01*
X136617106Y-94158378D01*
X136147123Y-93963224D01*
X135635123Y-93962777D01*
X135161925Y-94158298D01*
X134799571Y-94520021D01*
X134639850Y-94904673D01*
X134481702Y-94521925D01*
X134119979Y-94159571D01*
X134077000Y-94141725D01*
X134077000Y-91741134D01*
X134125237Y-91692897D01*
X139692779Y-91692897D01*
X139886781Y-92162417D01*
X140245693Y-92521957D01*
X140714875Y-92716778D01*
X141222897Y-92717221D01*
X141692417Y-92523219D01*
X142051957Y-92164307D01*
X142246778Y-91695125D01*
X142247221Y-91187103D01*
X142053219Y-90717583D01*
X141694307Y-90358043D01*
X141225125Y-90163222D01*
X140717103Y-90162779D01*
X140247583Y-90356781D01*
X139888043Y-90715693D01*
X139693222Y-91184875D01*
X139692779Y-91692897D01*
X134125237Y-91692897D01*
X137935237Y-87882897D01*
X140962779Y-87882897D01*
X141156781Y-88352417D01*
X141515693Y-88711957D01*
X141984875Y-88906778D01*
X142492897Y-88907221D01*
X142962417Y-88713219D01*
X143321957Y-88354307D01*
X143516778Y-87885125D01*
X143517221Y-87377103D01*
X143323219Y-86907583D01*
X142964307Y-86548043D01*
X142495125Y-86353222D01*
X141987103Y-86352779D01*
X141517583Y-86546781D01*
X141158043Y-86905693D01*
X140963222Y-87374875D01*
X140962779Y-87882897D01*
X137935237Y-87882897D01*
X138944067Y-86874067D01*
X139101660Y-86638211D01*
X139119847Y-86546781D01*
X139157001Y-86360000D01*
X139157000Y-86359995D01*
X139157000Y-83628644D01*
X139511957Y-83274307D01*
X139706778Y-82805125D01*
X139707221Y-82297103D01*
X139513219Y-81827583D01*
X139154307Y-81468043D01*
X138685125Y-81273222D01*
X138177103Y-81272779D01*
X137707583Y-81466781D01*
X137348043Y-81825693D01*
X137153222Y-82294875D01*
X137152779Y-82802897D01*
X137346781Y-83272417D01*
X137703000Y-83629259D01*
X137703000Y-86058866D01*
X132835933Y-90925933D01*
X132678340Y-91161789D01*
X132678340Y-91161790D01*
X132622999Y-91440000D01*
X132623000Y-91440005D01*
X132623000Y-94197155D01*
X132299571Y-94520021D01*
X132239327Y-94665105D01*
X132213382Y-94602468D01*
X131981622Y-94517588D01*
X131249210Y-95250000D01*
X130530790Y-95250000D01*
X129798378Y-94517588D01*
X129566618Y-94602468D01*
X129419554Y-95158195D01*
X127423734Y-95158195D01*
X127049389Y-95059620D01*
X126483722Y-95136577D01*
X126318552Y-95204992D01*
X126234938Y-95435727D01*
X125643904Y-95435727D01*
X125608615Y-95380887D01*
X125449215Y-95271973D01*
X125260000Y-95233656D01*
X123660000Y-95233656D01*
X123483235Y-95266917D01*
X123320887Y-95371385D01*
X123211973Y-95530785D01*
X123173656Y-95720000D01*
X121804131Y-95720000D01*
X121450418Y-95483658D01*
X121029842Y-95400000D01*
X121450418Y-95316342D01*
X121832265Y-95061201D01*
X122087406Y-94679354D01*
X122177000Y-94228936D01*
X122177000Y-94158378D01*
X130157588Y-94158378D01*
X130890000Y-94890790D01*
X131622412Y-94158378D01*
X131537532Y-93926618D01*
X130981805Y-93779554D01*
X130412102Y-93856353D01*
X130242468Y-93926618D01*
X130157588Y-94158378D01*
X122177000Y-94158378D01*
X122177000Y-93571064D01*
X122087406Y-93120646D01*
X121832265Y-92738799D01*
X121450418Y-92483658D01*
X121000000Y-92394064D01*
X120549582Y-92483658D01*
X120167735Y-92738799D01*
X119912594Y-93120646D01*
X119823000Y-93571064D01*
X105216886Y-93571064D01*
X105217187Y-93226711D01*
X105053569Y-92830725D01*
X104750868Y-92527496D01*
X104745570Y-92525296D01*
X104916765Y-92493083D01*
X105079113Y-92388615D01*
X105188027Y-92229215D01*
X105226344Y-92040000D01*
X105226344Y-90840000D01*
X105193083Y-90663235D01*
X105088615Y-90500887D01*
X104929215Y-90391973D01*
X104740000Y-90353656D01*
X103540000Y-90353656D01*
X103363235Y-90386917D01*
X103200887Y-90491385D01*
X103091973Y-90650785D01*
X103053656Y-90840000D01*
X100552000Y-90840000D01*
X100552000Y-90262716D01*
X102452000Y-90262716D01*
X102452000Y-86630000D01*
X105443656Y-86630000D01*
X105443656Y-88630000D01*
X105476917Y-88806765D01*
X105581385Y-88969113D01*
X105740785Y-89078027D01*
X105930000Y-89116344D01*
X107235093Y-89116344D01*
X107047025Y-89242007D01*
X106770206Y-89656295D01*
X106673000Y-90144982D01*
X106673000Y-90195018D01*
X106770206Y-90683705D01*
X107047025Y-91097993D01*
X107461313Y-91374812D01*
X107950000Y-91472018D01*
X108438687Y-91374812D01*
X108852975Y-91097993D01*
X109129794Y-90683705D01*
X109227000Y-90195018D01*
X109227000Y-90144982D01*
X109129794Y-89656295D01*
X108852975Y-89242007D01*
X108438687Y-88965188D01*
X107950000Y-88867982D01*
X107828144Y-88892221D01*
X107878027Y-88819215D01*
X107916344Y-88630000D01*
X107916344Y-86630000D01*
X107883083Y-86453235D01*
X107778615Y-86290887D01*
X107619215Y-86181973D01*
X107430000Y-86143656D01*
X105930000Y-86143656D01*
X105753235Y-86176917D01*
X105590887Y-86281385D01*
X105481973Y-86440785D01*
X105443656Y-86630000D01*
X102452000Y-86630000D01*
X102452000Y-85090000D01*
X102634064Y-85090000D01*
X102727464Y-85559553D01*
X102993444Y-85957620D01*
X103391511Y-86223600D01*
X103861064Y-86317000D01*
X104418936Y-86317000D01*
X104888489Y-86223600D01*
X105286556Y-85957620D01*
X105380515Y-85817000D01*
X111033000Y-85817000D01*
X111033000Y-86551356D01*
X110678043Y-86905693D01*
X110483222Y-87374875D01*
X110482779Y-87882897D01*
X110676781Y-88352417D01*
X111033000Y-88709259D01*
X111033000Y-89091356D01*
X110678043Y-89445693D01*
X110483222Y-89914875D01*
X110482779Y-90422897D01*
X110676781Y-90892417D01*
X111035693Y-91251957D01*
X111504875Y-91446778D01*
X112012897Y-91447221D01*
X112482417Y-91253219D01*
X112841957Y-90894307D01*
X113036778Y-90425125D01*
X113037221Y-89917103D01*
X112843219Y-89447583D01*
X112487000Y-89090741D01*
X112487000Y-88708644D01*
X112841957Y-88354307D01*
X112959569Y-88071064D01*
X115323000Y-88071064D01*
X115323000Y-88728936D01*
X115412594Y-89179354D01*
X115667735Y-89561201D01*
X116049582Y-89816342D01*
X116500000Y-89905936D01*
X116950418Y-89816342D01*
X117332265Y-89561201D01*
X117587406Y-89179354D01*
X117648065Y-88874403D01*
X117786431Y-89209275D01*
X118089132Y-89512504D01*
X118484832Y-89676813D01*
X118913289Y-89677187D01*
X119309275Y-89513569D01*
X119612504Y-89210868D01*
X119741587Y-88900000D01*
X119813656Y-88900000D01*
X119813656Y-90900000D01*
X119846917Y-91076765D01*
X119951385Y-91239113D01*
X120110785Y-91348027D01*
X120300000Y-91386344D01*
X121700000Y-91386344D01*
X121876765Y-91353083D01*
X122039113Y-91248615D01*
X122148027Y-91089215D01*
X122186344Y-90900000D01*
X122186344Y-89152897D01*
X123182779Y-89152897D01*
X123376781Y-89622417D01*
X123735693Y-89981957D01*
X124189088Y-90170223D01*
X123737583Y-90356781D01*
X123378043Y-90715693D01*
X123183222Y-91184875D01*
X123182779Y-91692897D01*
X123376781Y-92162417D01*
X123735693Y-92521957D01*
X124204875Y-92716778D01*
X124712897Y-92717221D01*
X125182417Y-92523219D01*
X125541957Y-92164307D01*
X125736778Y-91695125D01*
X125736830Y-91635303D01*
X125795188Y-91928687D01*
X126072007Y-92342975D01*
X126486295Y-92619794D01*
X126974982Y-92717000D01*
X127025018Y-92717000D01*
X127513705Y-92619794D01*
X127927993Y-92342975D01*
X128204812Y-91928687D01*
X128302018Y-91440000D01*
X129507982Y-91440000D01*
X129605188Y-91928687D01*
X129882007Y-92342975D01*
X130296295Y-92619794D01*
X130784982Y-92717000D01*
X130835018Y-92717000D01*
X131323705Y-92619794D01*
X131737993Y-92342975D01*
X132014812Y-91928687D01*
X132112018Y-91440000D01*
X132014812Y-90951313D01*
X131737993Y-90537025D01*
X131323705Y-90260206D01*
X130835018Y-90163000D01*
X130784982Y-90163000D01*
X130296295Y-90260206D01*
X129882007Y-90537025D01*
X129605188Y-90951313D01*
X129507982Y-91440000D01*
X128302018Y-91440000D01*
X128204812Y-90951313D01*
X127927993Y-90537025D01*
X127513705Y-90260206D01*
X127060209Y-90170000D01*
X127513705Y-90079794D01*
X127927993Y-89802975D01*
X128204812Y-89388687D01*
X128302018Y-88900000D01*
X128204812Y-88411313D01*
X127927993Y-87997025D01*
X127513705Y-87720206D01*
X127060210Y-87630000D01*
X130777982Y-87630000D01*
X130875188Y-88118687D01*
X131152007Y-88532975D01*
X131566295Y-88809794D01*
X132054982Y-88907000D01*
X132105018Y-88907000D01*
X132593705Y-88809794D01*
X133007993Y-88532975D01*
X133284812Y-88118687D01*
X133382018Y-87630000D01*
X133284812Y-87141313D01*
X133007993Y-86727025D01*
X132593705Y-86450206D01*
X132105018Y-86353000D01*
X132054982Y-86353000D01*
X131566295Y-86450206D01*
X131152007Y-86727025D01*
X130875188Y-87141313D01*
X130777982Y-87630000D01*
X127060210Y-87630000D01*
X127025018Y-87623000D01*
X126974982Y-87623000D01*
X126486295Y-87720206D01*
X126072007Y-87997025D01*
X125795188Y-88411313D01*
X125737172Y-88702977D01*
X125737221Y-88647103D01*
X125543219Y-88177583D01*
X125184307Y-87818043D01*
X124715125Y-87623222D01*
X124207103Y-87622779D01*
X123737583Y-87816781D01*
X123378043Y-88175693D01*
X123183222Y-88644875D01*
X123182779Y-89152897D01*
X122186344Y-89152897D01*
X122186344Y-88900000D01*
X122153083Y-88723235D01*
X122048615Y-88560887D01*
X121889215Y-88451973D01*
X121700000Y-88413656D01*
X120300000Y-88413656D01*
X120123235Y-88446917D01*
X119960887Y-88551385D01*
X119851973Y-88710785D01*
X119813656Y-88900000D01*
X119741587Y-88900000D01*
X119776813Y-88815168D01*
X119777187Y-88386711D01*
X119613569Y-87990725D01*
X119310868Y-87687496D01*
X118915168Y-87523187D01*
X118486711Y-87522813D01*
X118090725Y-87686431D01*
X117787496Y-87989132D01*
X117677000Y-88255236D01*
X117677000Y-88071064D01*
X117587406Y-87620646D01*
X117332265Y-87238799D01*
X116950418Y-86983658D01*
X116500000Y-86894064D01*
X116049582Y-86983658D01*
X115667735Y-87238799D01*
X115412594Y-87620646D01*
X115323000Y-88071064D01*
X112959569Y-88071064D01*
X113036778Y-87885125D01*
X113037221Y-87377103D01*
X112843219Y-86907583D01*
X112487000Y-86550741D01*
X112487000Y-85817000D01*
X114524424Y-85817000D01*
X114642007Y-85992975D01*
X115056295Y-86269794D01*
X115544982Y-86367000D01*
X115595018Y-86367000D01*
X116083705Y-86269794D01*
X116497993Y-85992975D01*
X116774812Y-85578687D01*
X116821713Y-85342897D01*
X121912779Y-85342897D01*
X122106781Y-85812417D01*
X122465693Y-86171957D01*
X122934875Y-86366778D01*
X123442897Y-86367221D01*
X123912417Y-86173219D01*
X124271957Y-85814307D01*
X124466778Y-85345125D01*
X124467221Y-84837103D01*
X124273219Y-84367583D01*
X123914307Y-84008043D01*
X123445125Y-83813222D01*
X122937103Y-83812779D01*
X122467583Y-84006781D01*
X122108043Y-84365693D01*
X121913222Y-84834875D01*
X121912779Y-85342897D01*
X116821713Y-85342897D01*
X116872018Y-85090000D01*
X116826578Y-84861556D01*
X118411133Y-83277000D01*
X124443656Y-83277000D01*
X124443656Y-83350000D01*
X124476917Y-83526765D01*
X124581385Y-83689113D01*
X124740785Y-83798027D01*
X124930000Y-83836344D01*
X126530000Y-83836344D01*
X126706765Y-83803083D01*
X126869113Y-83698615D01*
X126978027Y-83539215D01*
X127016344Y-83350000D01*
X127016344Y-82956736D01*
X127146781Y-83272417D01*
X127505693Y-83631957D01*
X127974875Y-83826778D01*
X128482897Y-83827221D01*
X128952417Y-83633219D01*
X129311957Y-83274307D01*
X129506778Y-82805125D01*
X129507221Y-82297103D01*
X129313219Y-81827583D01*
X128954307Y-81468043D01*
X128485125Y-81273222D01*
X127977103Y-81272779D01*
X127507583Y-81466781D01*
X127148043Y-81825693D01*
X127016344Y-82142860D01*
X127016344Y-81750000D01*
X126983083Y-81573235D01*
X126878615Y-81410887D01*
X126719215Y-81301973D01*
X126530000Y-81263656D01*
X124930000Y-81263656D01*
X124753235Y-81296917D01*
X124590887Y-81401385D01*
X124481973Y-81560785D01*
X124443656Y-81750000D01*
X124443656Y-81823000D01*
X118110000Y-81823000D01*
X117831789Y-81878340D01*
X117595933Y-82035933D01*
X117595931Y-82035936D01*
X115781727Y-83850139D01*
X115595018Y-83813000D01*
X115544982Y-83813000D01*
X115056295Y-83910206D01*
X114642007Y-84187025D01*
X114524424Y-84363000D01*
X105380515Y-84363000D01*
X105286556Y-84222380D01*
X104888489Y-83956400D01*
X104418936Y-83863000D01*
X103861064Y-83863000D01*
X103391511Y-83956400D01*
X102993444Y-84222380D01*
X102727464Y-84620447D01*
X102634064Y-85090000D01*
X102452000Y-85090000D01*
X102452000Y-82271064D01*
X105453000Y-82271064D01*
X105453000Y-82828936D01*
X105546400Y-83298489D01*
X105812380Y-83696556D01*
X106210447Y-83962536D01*
X106680000Y-84055936D01*
X107149553Y-83962536D01*
X107547620Y-83696556D01*
X107813600Y-83298489D01*
X107907000Y-82828936D01*
X107907000Y-82271064D01*
X107813600Y-81801511D01*
X107547620Y-81403444D01*
X107149553Y-81137464D01*
X106680000Y-81044064D01*
X106210447Y-81137464D01*
X105812380Y-81403444D01*
X105546400Y-81801511D01*
X105453000Y-82271064D01*
X102452000Y-82271064D01*
X102452000Y-73925265D01*
X104082620Y-73925265D01*
X104284162Y-74413034D01*
X104657023Y-74786546D01*
X105119178Y-74978450D01*
X104687583Y-75156781D01*
X104328043Y-75515693D01*
X104133222Y-75984875D01*
X104132779Y-76492897D01*
X104326781Y-76962417D01*
X104685693Y-77321957D01*
X105002860Y-77453656D01*
X104610000Y-77453656D01*
X104433235Y-77486917D01*
X104270887Y-77591385D01*
X104161973Y-77750785D01*
X104123656Y-77940000D01*
X104123656Y-79540000D01*
X104156917Y-79716765D01*
X104261385Y-79879113D01*
X104420785Y-79988027D01*
X104610000Y-80026344D01*
X106210000Y-80026344D01*
X106386765Y-79993083D01*
X106399354Y-79984982D01*
X110483000Y-79984982D01*
X110483000Y-80035018D01*
X110580206Y-80523705D01*
X110857025Y-80937993D01*
X111271313Y-81214812D01*
X111760000Y-81312018D01*
X112248687Y-81214812D01*
X112662975Y-80937993D01*
X112939794Y-80523705D01*
X113037000Y-80035018D01*
X113037000Y-80010000D01*
X114267982Y-80010000D01*
X114365188Y-80498687D01*
X114642007Y-80912975D01*
X115056295Y-81189794D01*
X115544982Y-81287000D01*
X115595018Y-81287000D01*
X116083705Y-81189794D01*
X116497993Y-80912975D01*
X116774812Y-80498687D01*
X116821713Y-80262897D01*
X121912779Y-80262897D01*
X122106781Y-80732417D01*
X122465693Y-81091957D01*
X122934875Y-81286778D01*
X123442897Y-81287221D01*
X123912417Y-81093219D01*
X124271957Y-80734307D01*
X124377554Y-80480000D01*
X130793656Y-80480000D01*
X130793656Y-82080000D01*
X130826917Y-82256765D01*
X130931385Y-82419113D01*
X131090785Y-82528027D01*
X131280000Y-82566344D01*
X131673264Y-82566344D01*
X131357583Y-82696781D01*
X130998043Y-83055693D01*
X130803222Y-83524875D01*
X130802779Y-84032897D01*
X130996781Y-84502417D01*
X131355693Y-84861957D01*
X131824875Y-85056778D01*
X132332897Y-85057221D01*
X132802417Y-84863219D01*
X133161957Y-84504307D01*
X133356778Y-84035125D01*
X133357221Y-83527103D01*
X133163219Y-83057583D01*
X132804307Y-82698043D01*
X132487140Y-82566344D01*
X132880000Y-82566344D01*
X133056765Y-82533083D01*
X133219113Y-82428615D01*
X133328027Y-82269215D01*
X133366344Y-82080000D01*
X133366344Y-80480000D01*
X133333083Y-80303235D01*
X133228615Y-80140887D01*
X133069215Y-80031973D01*
X132880000Y-79993656D01*
X131280000Y-79993656D01*
X131103235Y-80026917D01*
X130940887Y-80131385D01*
X130831973Y-80290785D01*
X130793656Y-80480000D01*
X124377554Y-80480000D01*
X124466778Y-80265125D01*
X124467221Y-79757103D01*
X124273219Y-79287583D01*
X123914307Y-78928043D01*
X123445125Y-78733222D01*
X122937103Y-78732779D01*
X122467583Y-78926781D01*
X122108043Y-79285693D01*
X121913222Y-79754875D01*
X121912779Y-80262897D01*
X116821713Y-80262897D01*
X116872018Y-80010000D01*
X116774812Y-79521313D01*
X116497993Y-79107025D01*
X116083705Y-78830206D01*
X115595018Y-78733000D01*
X115544982Y-78733000D01*
X115056295Y-78830206D01*
X114642007Y-79107025D01*
X114365188Y-79521313D01*
X114267982Y-80010000D01*
X113037000Y-80010000D01*
X113037000Y-79984982D01*
X112939794Y-79496295D01*
X112662975Y-79082007D01*
X112248687Y-78805188D01*
X111760000Y-78707982D01*
X111271313Y-78805188D01*
X110857025Y-79082007D01*
X110580206Y-79496295D01*
X110483000Y-79984982D01*
X106399354Y-79984982D01*
X106549113Y-79888615D01*
X106658027Y-79729215D01*
X106696344Y-79540000D01*
X106696344Y-77940000D01*
X106663083Y-77763235D01*
X106558615Y-77600887D01*
X106399215Y-77491973D01*
X106210000Y-77453656D01*
X105816736Y-77453656D01*
X106132417Y-77323219D01*
X106491957Y-76964307D01*
X106686778Y-76495125D01*
X106687221Y-75987103D01*
X106493219Y-75517583D01*
X106323763Y-75347830D01*
X107884546Y-75347830D01*
X107884546Y-77047090D01*
X107917807Y-77223855D01*
X108022275Y-77386203D01*
X108181675Y-77495117D01*
X108370890Y-77533434D01*
X110070150Y-77533434D01*
X110246915Y-77500173D01*
X110409263Y-77395705D01*
X110462229Y-77318186D01*
X118619004Y-77318186D01*
X118708886Y-77554016D01*
X119279143Y-77707777D01*
X119864833Y-77631607D01*
X120052154Y-77554016D01*
X120142036Y-77318186D01*
X119380520Y-76556670D01*
X118619004Y-77318186D01*
X110462229Y-77318186D01*
X110518177Y-77236305D01*
X110556494Y-77047090D01*
X110556494Y-76096083D01*
X117870203Y-76096083D01*
X117946373Y-76681773D01*
X118023964Y-76869094D01*
X118259794Y-76958976D01*
X119021310Y-76197460D01*
X119739730Y-76197460D01*
X120501246Y-76958976D01*
X120737076Y-76869094D01*
X120890837Y-76298837D01*
X120814667Y-75713147D01*
X120737076Y-75525826D01*
X120501246Y-75435944D01*
X119739730Y-76197460D01*
X119021310Y-76197460D01*
X118259794Y-75435944D01*
X118023964Y-75525826D01*
X117870203Y-76096083D01*
X110556494Y-76096083D01*
X110556494Y-75347830D01*
X110523233Y-75171065D01*
X110462533Y-75076734D01*
X118619004Y-75076734D01*
X119380520Y-75838250D01*
X120142036Y-75076734D01*
X120052154Y-74840904D01*
X119481897Y-74687143D01*
X118896207Y-74763313D01*
X118708886Y-74840904D01*
X118619004Y-75076734D01*
X110462533Y-75076734D01*
X110418765Y-75008717D01*
X110259365Y-74899803D01*
X110070150Y-74861486D01*
X108370890Y-74861486D01*
X108194125Y-74894747D01*
X108031777Y-74999215D01*
X107922863Y-75158615D01*
X107884546Y-75347830D01*
X106323763Y-75347830D01*
X106134307Y-75158043D01*
X105700256Y-74977810D01*
X106159974Y-74787858D01*
X106533486Y-74414997D01*
X106735879Y-73927581D01*
X106736340Y-73399815D01*
X106534798Y-72912046D01*
X106161937Y-72538534D01*
X105674521Y-72336141D01*
X105146755Y-72335680D01*
X104658986Y-72537222D01*
X104285474Y-72910083D01*
X104083081Y-73397499D01*
X104082620Y-73925265D01*
X102452000Y-73925265D01*
X102452000Y-71372897D01*
X102862779Y-71372897D01*
X103056781Y-71842417D01*
X103415693Y-72201957D01*
X103884875Y-72396778D01*
X104392897Y-72397221D01*
X104862417Y-72203219D01*
X105221957Y-71844307D01*
X105416778Y-71375125D01*
X105417000Y-71120000D01*
X110457982Y-71120000D01*
X110555188Y-71608687D01*
X110832007Y-72022975D01*
X111246295Y-72299794D01*
X111734982Y-72397000D01*
X111785018Y-72397000D01*
X112273705Y-72299794D01*
X112687993Y-72022975D01*
X112964812Y-71608687D01*
X113022828Y-71317023D01*
X113022779Y-71372897D01*
X113216781Y-71842417D01*
X113575693Y-72201957D01*
X114044875Y-72396778D01*
X114485065Y-72397162D01*
X114380737Y-72464295D01*
X114271823Y-72623695D01*
X114233506Y-72812910D01*
X114233506Y-74512170D01*
X114266767Y-74688935D01*
X114371235Y-74851283D01*
X114530635Y-74960197D01*
X114719850Y-74998514D01*
X116419110Y-74998514D01*
X116595875Y-74965253D01*
X116758223Y-74860785D01*
X116867137Y-74701385D01*
X116905454Y-74512170D01*
X116905454Y-72812910D01*
X116872193Y-72636145D01*
X116767725Y-72473797D01*
X116608325Y-72364883D01*
X116419110Y-72326566D01*
X114723895Y-72326566D01*
X115022417Y-72203219D01*
X115381957Y-71844307D01*
X115576778Y-71375125D01*
X115577221Y-70867103D01*
X115383219Y-70397583D01*
X115024307Y-70038043D01*
X114555125Y-69843222D01*
X114047103Y-69842779D01*
X113577583Y-70036781D01*
X113218043Y-70395693D01*
X113023222Y-70864875D01*
X113023170Y-70924697D01*
X112964812Y-70631313D01*
X112687993Y-70217025D01*
X112273705Y-69940206D01*
X111785018Y-69843000D01*
X111734982Y-69843000D01*
X111246295Y-69940206D01*
X110832007Y-70217025D01*
X110555188Y-70631313D01*
X110457982Y-71120000D01*
X105417000Y-71120000D01*
X105417221Y-70867103D01*
X105223219Y-70397583D01*
X104864307Y-70038043D01*
X104395125Y-69843222D01*
X103887103Y-69842779D01*
X103417583Y-70036781D01*
X103058043Y-70395693D01*
X102863222Y-70864875D01*
X102862779Y-71372897D01*
X102452000Y-71372897D01*
X102452000Y-68301064D01*
X106723000Y-68301064D01*
X106723000Y-68858936D01*
X106816400Y-69328489D01*
X107082380Y-69726556D01*
X107480447Y-69992536D01*
X107950000Y-70085936D01*
X108419553Y-69992536D01*
X108817620Y-69726556D01*
X109083600Y-69328489D01*
X109177000Y-68858936D01*
X109177000Y-68301064D01*
X109083600Y-67831511D01*
X108817620Y-67433444D01*
X108419553Y-67167464D01*
X107950000Y-67074064D01*
X107480447Y-67167464D01*
X107082380Y-67433444D01*
X106816400Y-67831511D01*
X106723000Y-68301064D01*
X102452000Y-68301064D01*
X102452000Y-66040000D01*
X103904064Y-66040000D01*
X103997464Y-66509553D01*
X104263444Y-66907620D01*
X104661511Y-67173600D01*
X105131064Y-67267000D01*
X105688936Y-67267000D01*
X106158489Y-67173600D01*
X106556556Y-66907620D01*
X106822536Y-66509553D01*
X106833834Y-66452750D01*
X108855000Y-66452750D01*
X108855000Y-66916309D01*
X108951673Y-67149698D01*
X109130301Y-67328327D01*
X109363690Y-67425000D01*
X110077250Y-67425000D01*
X110236000Y-67266250D01*
X110236000Y-66294000D01*
X110744000Y-66294000D01*
X110744000Y-67266250D01*
X110902750Y-67425000D01*
X111616310Y-67425000D01*
X111849699Y-67328327D01*
X111973752Y-67204273D01*
X113574938Y-67204273D01*
X113658552Y-67435008D01*
X114210611Y-67580380D01*
X114776278Y-67503423D01*
X114941448Y-67435008D01*
X115025062Y-67204273D01*
X114300000Y-66479210D01*
X113574938Y-67204273D01*
X111973752Y-67204273D01*
X112028327Y-67149698D01*
X112125000Y-66916309D01*
X112125000Y-66452750D01*
X111966250Y-66294000D01*
X110744000Y-66294000D01*
X110236000Y-66294000D01*
X109013750Y-66294000D01*
X108855000Y-66452750D01*
X106833834Y-66452750D01*
X106915936Y-66040000D01*
X106914069Y-66030611D01*
X112839620Y-66030611D01*
X112916577Y-66596278D01*
X112984992Y-66761448D01*
X113215727Y-66845062D01*
X113940790Y-66120000D01*
X114659210Y-66120000D01*
X115384273Y-66845062D01*
X115615008Y-66761448D01*
X115760380Y-66209389D01*
X115683423Y-65643722D01*
X115615008Y-65478552D01*
X115384273Y-65394938D01*
X114659210Y-66120000D01*
X113940790Y-66120000D01*
X113215727Y-65394938D01*
X112984992Y-65478552D01*
X112839620Y-66030611D01*
X106914069Y-66030611D01*
X106822536Y-65570447D01*
X106556556Y-65172380D01*
X106543552Y-65163691D01*
X108855000Y-65163691D01*
X108855000Y-65627250D01*
X109013750Y-65786000D01*
X110236000Y-65786000D01*
X110236000Y-64813750D01*
X110744000Y-64813750D01*
X110744000Y-65786000D01*
X111966250Y-65786000D01*
X112125000Y-65627250D01*
X112125000Y-65163691D01*
X112071996Y-65035727D01*
X113574938Y-65035727D01*
X114300000Y-65760790D01*
X115025062Y-65035727D01*
X114941448Y-64804992D01*
X114389389Y-64659620D01*
X113823722Y-64736577D01*
X113658552Y-64804992D01*
X113574938Y-65035727D01*
X112071996Y-65035727D01*
X112028327Y-64930302D01*
X111849699Y-64751673D01*
X111616310Y-64655000D01*
X110902750Y-64655000D01*
X110744000Y-64813750D01*
X110236000Y-64813750D01*
X110077250Y-64655000D01*
X109363690Y-64655000D01*
X109130301Y-64751673D01*
X108951673Y-64930302D01*
X108855000Y-65163691D01*
X106543552Y-65163691D01*
X106158489Y-64906400D01*
X105688936Y-64813000D01*
X105131064Y-64813000D01*
X104661511Y-64906400D01*
X104263444Y-65172380D01*
X103997464Y-65570447D01*
X103904064Y-66040000D01*
X102452000Y-66040000D01*
X102452000Y-61852897D01*
X108822779Y-61852897D01*
X109016781Y-62322417D01*
X109375693Y-62681957D01*
X109844875Y-62876778D01*
X110352897Y-62877221D01*
X110822417Y-62683219D01*
X111179259Y-62327000D01*
X114929995Y-62327000D01*
X114930000Y-62327001D01*
X115162052Y-62280842D01*
X115208211Y-62271660D01*
X115444067Y-62114067D01*
X116023057Y-61535077D01*
X116022849Y-61773681D01*
X116156082Y-62096131D01*
X116402571Y-62343051D01*
X116724789Y-62476847D01*
X117073681Y-62477151D01*
X117396131Y-62343918D01*
X117643051Y-62097429D01*
X117776847Y-61775211D01*
X117777151Y-61426319D01*
X117643918Y-61103869D01*
X117592140Y-61052000D01*
X124459995Y-61052000D01*
X124460000Y-61052001D01*
X124692052Y-61005842D01*
X124738211Y-60996660D01*
X124813656Y-60946250D01*
X124813656Y-61100000D01*
X124846917Y-61276765D01*
X124951385Y-61439113D01*
X125110785Y-61548027D01*
X125300000Y-61586344D01*
X126700000Y-61586344D01*
X126876765Y-61553083D01*
X127039113Y-61448615D01*
X127148027Y-61289215D01*
X127186344Y-61100000D01*
X127186344Y-60827000D01*
X127371772Y-60827000D01*
X127223187Y-61184832D01*
X127222813Y-61613289D01*
X127386431Y-62009275D01*
X127689132Y-62312504D01*
X128084832Y-62476813D01*
X128513289Y-62477187D01*
X128909275Y-62313569D01*
X129212504Y-62010868D01*
X129323000Y-61744764D01*
X129323000Y-61928936D01*
X129412594Y-62379354D01*
X129667735Y-62761201D01*
X130049582Y-63016342D01*
X130500000Y-63105936D01*
X130898530Y-63026663D01*
X131353000Y-63481133D01*
X131353000Y-65313000D01*
X130698644Y-65313000D01*
X130344307Y-64958043D01*
X129875125Y-64763222D01*
X129367103Y-64762779D01*
X128897583Y-64956781D01*
X128538043Y-65315693D01*
X128343222Y-65784875D01*
X128342779Y-66292897D01*
X128536781Y-66762417D01*
X128895693Y-67121957D01*
X129364875Y-67316778D01*
X129872897Y-67317221D01*
X130342417Y-67123219D01*
X130699259Y-66767000D01*
X131353000Y-66767000D01*
X131353000Y-68579995D01*
X131352999Y-68580000D01*
X131399158Y-68812052D01*
X131408340Y-68858211D01*
X131565933Y-69094067D01*
X132835931Y-70364064D01*
X132835933Y-70364067D01*
X133071789Y-70521660D01*
X133350000Y-70577000D01*
X136858866Y-70577000D01*
X137657016Y-71375149D01*
X137527025Y-71462007D01*
X137250206Y-71876295D01*
X137153000Y-72364982D01*
X137153000Y-72415018D01*
X137250206Y-72903705D01*
X137527025Y-73317993D01*
X137941313Y-73594812D01*
X138430000Y-73692018D01*
X138918687Y-73594812D01*
X139332975Y-73317993D01*
X139609794Y-72903705D01*
X139707000Y-72415018D01*
X139707000Y-72364982D01*
X139609794Y-71876295D01*
X139332975Y-71462007D01*
X139157000Y-71344424D01*
X139157000Y-71120000D01*
X139101660Y-70841789D01*
X138944067Y-70605933D01*
X138944064Y-70605931D01*
X137674067Y-69335933D01*
X137630765Y-69307000D01*
X137438211Y-69178340D01*
X137392052Y-69169158D01*
X137160000Y-69122999D01*
X137159995Y-69123000D01*
X133651133Y-69123000D01*
X132807000Y-68278866D01*
X132807000Y-67124273D01*
X133894938Y-67124273D01*
X133978552Y-67355008D01*
X134530611Y-67500380D01*
X135096278Y-67423423D01*
X135261448Y-67355008D01*
X135345062Y-67124273D01*
X134620000Y-66399210D01*
X133894938Y-67124273D01*
X132807000Y-67124273D01*
X132807000Y-65950611D01*
X133159620Y-65950611D01*
X133236577Y-66516278D01*
X133304992Y-66681448D01*
X133535727Y-66765062D01*
X134260790Y-66040000D01*
X134979210Y-66040000D01*
X135704273Y-66765062D01*
X135935008Y-66681448D01*
X136080380Y-66129389D01*
X136003423Y-65563722D01*
X135935008Y-65398552D01*
X135704273Y-65314938D01*
X134979210Y-66040000D01*
X134260790Y-66040000D01*
X133535727Y-65314938D01*
X133304992Y-65398552D01*
X133159620Y-65950611D01*
X132807000Y-65950611D01*
X132807000Y-64955727D01*
X133894938Y-64955727D01*
X134620000Y-65680790D01*
X135345062Y-64955727D01*
X135261448Y-64724992D01*
X134709389Y-64579620D01*
X134143722Y-64656577D01*
X133978552Y-64724992D01*
X133894938Y-64955727D01*
X132807000Y-64955727D01*
X132807000Y-63180000D01*
X132751660Y-62901789D01*
X132594067Y-62665933D01*
X132594064Y-62665931D01*
X131677000Y-61748866D01*
X131677000Y-61271064D01*
X131587406Y-60820646D01*
X131332265Y-60438799D01*
X131299640Y-60417000D01*
X134318866Y-60417000D01*
X136606445Y-62704579D01*
X136523257Y-62904918D01*
X136522744Y-63492505D01*
X136747130Y-64035560D01*
X137162254Y-64451409D01*
X137704918Y-64676743D01*
X138292505Y-64677256D01*
X138835560Y-64452870D01*
X139250359Y-64038794D01*
X139662254Y-64451409D01*
X139773000Y-64497395D01*
X139773000Y-65313000D01*
X139588644Y-65313000D01*
X139234307Y-64958043D01*
X138765125Y-64763222D01*
X138257103Y-64762779D01*
X137787583Y-64956781D01*
X137428043Y-65315693D01*
X137233222Y-65784875D01*
X137232779Y-66292897D01*
X137426781Y-66762417D01*
X137785693Y-67121957D01*
X138254875Y-67316778D01*
X138762897Y-67317221D01*
X139232417Y-67123219D01*
X139589259Y-66767000D01*
X139773000Y-66767000D01*
X139773000Y-66839995D01*
X139772999Y-66840000D01*
X139819158Y-67072052D01*
X139828340Y-67118211D01*
X139968734Y-67328327D01*
X139985933Y-67354067D01*
X143998063Y-71366197D01*
X143698043Y-71665693D01*
X143503222Y-72134875D01*
X143502779Y-72642897D01*
X143696781Y-73112417D01*
X144055693Y-73471957D01*
X144524875Y-73666778D01*
X145032897Y-73667221D01*
X145502417Y-73473219D01*
X145861957Y-73114307D01*
X146056778Y-72645125D01*
X146057221Y-72137103D01*
X145863219Y-71667583D01*
X145507000Y-71310741D01*
X145507000Y-71120000D01*
X145451660Y-70841789D01*
X145294067Y-70605933D01*
X141812407Y-67124273D01*
X142784938Y-67124273D01*
X142868552Y-67355008D01*
X143420611Y-67500380D01*
X143986278Y-67423423D01*
X144151448Y-67355008D01*
X144235062Y-67124273D01*
X143510000Y-66399210D01*
X142784938Y-67124273D01*
X141812407Y-67124273D01*
X141227000Y-66538866D01*
X141227000Y-65950611D01*
X142049620Y-65950611D01*
X142126577Y-66516278D01*
X142194992Y-66681448D01*
X142425727Y-66765062D01*
X143150790Y-66040000D01*
X143869210Y-66040000D01*
X144594273Y-66765062D01*
X144825008Y-66681448D01*
X144970380Y-66129389D01*
X144893423Y-65563722D01*
X144825008Y-65398552D01*
X144594273Y-65314938D01*
X143869210Y-66040000D01*
X143150790Y-66040000D01*
X142425727Y-65314938D01*
X142194992Y-65398552D01*
X142049620Y-65950611D01*
X141227000Y-65950611D01*
X141227000Y-64497726D01*
X141335560Y-64452870D01*
X141750359Y-64038794D01*
X142162254Y-64451409D01*
X142704918Y-64676743D01*
X142984447Y-64676987D01*
X142868552Y-64724992D01*
X142784938Y-64955727D01*
X143510000Y-65680790D01*
X144235062Y-64955727D01*
X144151448Y-64724992D01*
X143599389Y-64579620D01*
X143494152Y-64593937D01*
X143835560Y-64452870D01*
X144251409Y-64037746D01*
X144476743Y-63495082D01*
X144477256Y-62907495D01*
X144252870Y-62364440D01*
X143837746Y-61948591D01*
X143295082Y-61723257D01*
X142707495Y-61722744D01*
X142164440Y-61947130D01*
X141749641Y-62361206D01*
X141337746Y-61948591D01*
X140795082Y-61723257D01*
X140207495Y-61722744D01*
X139664440Y-61947130D01*
X139249641Y-62361206D01*
X138837746Y-61948591D01*
X138295082Y-61723257D01*
X137707495Y-61722744D01*
X137688660Y-61730526D01*
X135389024Y-59430890D01*
X137128320Y-59430890D01*
X137237074Y-59682208D01*
X137862364Y-59861340D01*
X138508608Y-59787549D01*
X138762926Y-59682208D01*
X138871680Y-59430890D01*
X142128320Y-59430890D01*
X142237074Y-59682208D01*
X142862364Y-59861340D01*
X143508608Y-59787549D01*
X143762926Y-59682208D01*
X143871680Y-59430890D01*
X143000000Y-58559210D01*
X142128320Y-59430890D01*
X138871680Y-59430890D01*
X138000000Y-58559210D01*
X137128320Y-59430890D01*
X135389024Y-59430890D01*
X135134067Y-59175933D01*
X135109039Y-59159210D01*
X134898211Y-59018340D01*
X134852052Y-59009158D01*
X134620000Y-58962999D01*
X134619995Y-58963000D01*
X128270005Y-58963000D01*
X128270000Y-58962999D01*
X127991790Y-59018339D01*
X127991788Y-59018340D01*
X127991789Y-59018340D01*
X127755933Y-59175933D01*
X127755931Y-59175936D01*
X127558867Y-59373000D01*
X127186344Y-59373000D01*
X127186344Y-59100000D01*
X127153083Y-58923235D01*
X127048615Y-58760887D01*
X126889215Y-58651973D01*
X126700000Y-58613656D01*
X125300000Y-58613656D01*
X125123235Y-58646917D01*
X124960887Y-58751385D01*
X124851973Y-58910785D01*
X124813656Y-59100000D01*
X124813656Y-59373000D01*
X124685000Y-59373000D01*
X124406789Y-59428340D01*
X124170933Y-59585933D01*
X124158866Y-59598000D01*
X117908135Y-59598000D01*
X117981957Y-59524307D01*
X118176778Y-59055125D01*
X118177221Y-58547103D01*
X117983219Y-58077583D01*
X117624307Y-57718043D01*
X117155125Y-57523222D01*
X116647103Y-57522779D01*
X116177583Y-57716781D01*
X115818043Y-58075693D01*
X115771550Y-58187661D01*
X115159210Y-58800000D01*
X115173353Y-58814142D01*
X114814142Y-59173353D01*
X114800000Y-59159210D01*
X114074938Y-59884273D01*
X114158552Y-60115008D01*
X114710611Y-60260380D01*
X115276278Y-60183423D01*
X115348259Y-60153608D01*
X114628866Y-60873000D01*
X111178644Y-60873000D01*
X110824307Y-60518043D01*
X110355125Y-60323222D01*
X109847103Y-60322779D01*
X109377583Y-60516781D01*
X109018043Y-60875693D01*
X108823222Y-61344875D01*
X108822779Y-61852897D01*
X102452000Y-61852897D01*
X102452000Y-59052897D01*
X108822779Y-59052897D01*
X109016781Y-59522417D01*
X109375693Y-59881957D01*
X109844875Y-60076778D01*
X110352897Y-60077221D01*
X110822417Y-59883219D01*
X110944093Y-59761756D01*
X110946917Y-59776765D01*
X111051385Y-59939113D01*
X111210785Y-60048027D01*
X111400000Y-60086344D01*
X113000000Y-60086344D01*
X113176765Y-60053083D01*
X113339113Y-59948615D01*
X113448027Y-59789215D01*
X113486344Y-59600000D01*
X113486344Y-59441938D01*
X113715727Y-59525062D01*
X114440790Y-58800000D01*
X113715727Y-58074938D01*
X113486344Y-58158062D01*
X113486344Y-58000000D01*
X113453083Y-57823235D01*
X113383904Y-57715727D01*
X114074938Y-57715727D01*
X114800000Y-58440790D01*
X115525062Y-57715727D01*
X115441448Y-57484992D01*
X114889389Y-57339620D01*
X114323722Y-57416577D01*
X114158552Y-57484992D01*
X114074938Y-57715727D01*
X113383904Y-57715727D01*
X113348615Y-57660887D01*
X113189215Y-57551973D01*
X113000000Y-57513656D01*
X111400000Y-57513656D01*
X111223235Y-57546917D01*
X111060887Y-57651385D01*
X110951973Y-57810785D01*
X110946056Y-57840005D01*
X110824307Y-57718043D01*
X110355125Y-57523222D01*
X109847103Y-57522779D01*
X109377583Y-57716781D01*
X109018043Y-58075693D01*
X108823222Y-58544875D01*
X108822779Y-59052897D01*
X102452000Y-59052897D01*
X102452000Y-56204000D01*
X105015000Y-56204000D01*
X105015000Y-56954000D01*
X105236659Y-57560353D01*
X105673486Y-58035725D01*
X106146462Y-58255530D01*
X106396000Y-58154235D01*
X106396000Y-56204000D01*
X106904000Y-56204000D01*
X106904000Y-58154235D01*
X107153538Y-58255530D01*
X107626514Y-58035725D01*
X108063341Y-57560353D01*
X108285000Y-56954000D01*
X108285000Y-56204000D01*
X106904000Y-56204000D01*
X106396000Y-56204000D01*
X105015000Y-56204000D01*
X102452000Y-56204000D01*
X102452000Y-55737284D01*
X100552000Y-55737284D01*
X100552000Y-54946000D01*
X105015000Y-54946000D01*
X105015000Y-55696000D01*
X106396000Y-55696000D01*
X106396000Y-53745765D01*
X106904000Y-53745765D01*
X106904000Y-55696000D01*
X108285000Y-55696000D01*
X108285000Y-55653538D01*
X110944470Y-55653538D01*
X111164275Y-56126514D01*
X111639647Y-56563341D01*
X112246000Y-56785000D01*
X113246000Y-56785000D01*
X113246000Y-55404000D01*
X113754000Y-55404000D01*
X113754000Y-56785000D01*
X114754000Y-56785000D01*
X115360353Y-56563341D01*
X115751401Y-56204000D01*
X118715000Y-56204000D01*
X118715000Y-56954000D01*
X118936659Y-57560353D01*
X119373486Y-58035725D01*
X119846462Y-58255530D01*
X120096000Y-58154235D01*
X120096000Y-56204000D01*
X120604000Y-56204000D01*
X120604000Y-58154235D01*
X120853538Y-58255530D01*
X121269192Y-58062364D01*
X136338660Y-58062364D01*
X136412451Y-58708608D01*
X136517792Y-58962926D01*
X136769110Y-59071680D01*
X137640790Y-58200000D01*
X138359210Y-58200000D01*
X139230890Y-59071680D01*
X139482208Y-58962926D01*
X139661340Y-58337636D01*
X139629909Y-58062364D01*
X141338660Y-58062364D01*
X141412451Y-58708608D01*
X141517792Y-58962926D01*
X141769110Y-59071680D01*
X142640790Y-58200000D01*
X143359210Y-58200000D01*
X144230890Y-59071680D01*
X144482208Y-58962926D01*
X144661340Y-58337636D01*
X144587549Y-57691392D01*
X144482208Y-57437074D01*
X144230890Y-57328320D01*
X143359210Y-58200000D01*
X142640790Y-58200000D01*
X141769110Y-57328320D01*
X141517792Y-57437074D01*
X141338660Y-58062364D01*
X139629909Y-58062364D01*
X139587549Y-57691392D01*
X139482208Y-57437074D01*
X139230890Y-57328320D01*
X138359210Y-58200000D01*
X137640790Y-58200000D01*
X136769110Y-57328320D01*
X136517792Y-57437074D01*
X136338660Y-58062364D01*
X121269192Y-58062364D01*
X121326514Y-58035725D01*
X121763341Y-57560353D01*
X121985000Y-56954000D01*
X121985000Y-56204000D01*
X120604000Y-56204000D01*
X120096000Y-56204000D01*
X118715000Y-56204000D01*
X115751401Y-56204000D01*
X115835725Y-56126514D01*
X116055530Y-55653538D01*
X115954235Y-55404000D01*
X113754000Y-55404000D01*
X113246000Y-55404000D01*
X111045765Y-55404000D01*
X110944470Y-55653538D01*
X108285000Y-55653538D01*
X108285000Y-54946000D01*
X118715000Y-54946000D01*
X118715000Y-55696000D01*
X120096000Y-55696000D01*
X120096000Y-53745765D01*
X120604000Y-53745765D01*
X120604000Y-55696000D01*
X121985000Y-55696000D01*
X121985000Y-54946000D01*
X121763341Y-54339647D01*
X121326514Y-53864275D01*
X120853538Y-53644470D01*
X120604000Y-53745765D01*
X120096000Y-53745765D01*
X119846462Y-53644470D01*
X119373486Y-53864275D01*
X118936659Y-54339647D01*
X118715000Y-54946000D01*
X108285000Y-54946000D01*
X108175501Y-54646462D01*
X110944470Y-54646462D01*
X111045765Y-54896000D01*
X113246000Y-54896000D01*
X113246000Y-53515000D01*
X113754000Y-53515000D01*
X113754000Y-54896000D01*
X115954235Y-54896000D01*
X116055530Y-54646462D01*
X115835725Y-54173486D01*
X115360353Y-53736659D01*
X114888285Y-53564089D01*
X124669929Y-53564089D01*
X124833969Y-54060595D01*
X125175527Y-54456531D01*
X125544102Y-54654744D01*
X125745998Y-54548499D01*
X125745998Y-54644588D01*
X125549582Y-54683658D01*
X125167735Y-54938799D01*
X124912594Y-55320646D01*
X124823000Y-55771064D01*
X124823000Y-56428936D01*
X124912594Y-56879354D01*
X125167735Y-57261201D01*
X125549582Y-57516342D01*
X126000000Y-57605936D01*
X126450418Y-57516342D01*
X126832265Y-57261201D01*
X127027433Y-56969110D01*
X137128320Y-56969110D01*
X138000000Y-57840790D01*
X138871680Y-56969110D01*
X142128320Y-56969110D01*
X143000000Y-57840790D01*
X143871680Y-56969110D01*
X143762926Y-56717792D01*
X143137636Y-56538660D01*
X142491392Y-56612451D01*
X142237074Y-56717792D01*
X142128320Y-56969110D01*
X138871680Y-56969110D01*
X138762926Y-56717792D01*
X138137636Y-56538660D01*
X137491392Y-56612451D01*
X137237074Y-56717792D01*
X137128320Y-56969110D01*
X127027433Y-56969110D01*
X127087406Y-56879354D01*
X127177000Y-56428936D01*
X127177000Y-55771064D01*
X127087406Y-55320646D01*
X126832265Y-54938799D01*
X126450418Y-54683658D01*
X126254002Y-54644588D01*
X126254002Y-54548499D01*
X126455898Y-54654744D01*
X126532983Y-54613289D01*
X127222813Y-54613289D01*
X127386431Y-55009275D01*
X127689132Y-55312504D01*
X128084832Y-55476813D01*
X128513289Y-55477187D01*
X128909275Y-55313569D01*
X129212504Y-55010868D01*
X129376813Y-54615168D01*
X129377187Y-54186711D01*
X129213569Y-53790725D01*
X128910868Y-53487496D01*
X128515168Y-53323187D01*
X128086711Y-53322813D01*
X127690725Y-53486431D01*
X127387496Y-53789132D01*
X127223187Y-54184832D01*
X127222813Y-54613289D01*
X126532983Y-54613289D01*
X126824473Y-54456531D01*
X127166031Y-54060595D01*
X127330071Y-53564089D01*
X127180615Y-53354000D01*
X126254000Y-53354000D01*
X126254000Y-53374000D01*
X125746000Y-53374000D01*
X125746000Y-53354000D01*
X124819385Y-53354000D01*
X124669929Y-53564089D01*
X114888285Y-53564089D01*
X114754000Y-53515000D01*
X113754000Y-53515000D01*
X113246000Y-53515000D01*
X112246000Y-53515000D01*
X111639647Y-53736659D01*
X111164275Y-54173486D01*
X110944470Y-54646462D01*
X108175501Y-54646462D01*
X108063341Y-54339647D01*
X107626514Y-53864275D01*
X107153538Y-53644470D01*
X106904000Y-53745765D01*
X106396000Y-53745765D01*
X106146462Y-53644470D01*
X105673486Y-53864275D01*
X105236659Y-54339647D01*
X105015000Y-54946000D01*
X100552000Y-54946000D01*
X100552000Y-52861818D01*
X100672684Y-52861818D01*
X100950242Y-53533560D01*
X101463736Y-54047952D01*
X102134993Y-54326682D01*
X102861818Y-54327316D01*
X103533560Y-54049758D01*
X104047952Y-53536264D01*
X104326682Y-52865007D01*
X104326881Y-52635911D01*
X124669929Y-52635911D01*
X124819385Y-52846000D01*
X125746000Y-52846000D01*
X125746000Y-51651502D01*
X126254000Y-51651502D01*
X126254000Y-52846000D01*
X127180615Y-52846000D01*
X127233924Y-52771064D01*
X130323000Y-52771064D01*
X130323000Y-53428936D01*
X130412594Y-53879354D01*
X130667735Y-54261201D01*
X131049582Y-54516342D01*
X131500000Y-54605936D01*
X131950418Y-54516342D01*
X132332265Y-54261201D01*
X132587406Y-53879354D01*
X132677000Y-53428936D01*
X132677000Y-52861818D01*
X145672684Y-52861818D01*
X145950242Y-53533560D01*
X146463736Y-54047952D01*
X147134993Y-54326682D01*
X147861818Y-54327316D01*
X148533560Y-54049758D01*
X149047952Y-53536264D01*
X149326682Y-52865007D01*
X149327316Y-52138182D01*
X149049758Y-51466440D01*
X148536264Y-50952048D01*
X147865007Y-50673318D01*
X147138182Y-50672684D01*
X146466440Y-50950242D01*
X145952048Y-51463736D01*
X145673318Y-52134993D01*
X145672684Y-52861818D01*
X132677000Y-52861818D01*
X132677000Y-52771064D01*
X132587406Y-52320646D01*
X132332265Y-51938799D01*
X131950418Y-51683658D01*
X131500000Y-51594064D01*
X131049582Y-51683658D01*
X130667735Y-51938799D01*
X130412594Y-52320646D01*
X130323000Y-52771064D01*
X127233924Y-52771064D01*
X127330071Y-52635911D01*
X127166031Y-52139405D01*
X126824473Y-51743469D01*
X126455898Y-51545256D01*
X126254000Y-51651502D01*
X125746000Y-51651502D01*
X125544102Y-51545256D01*
X125175527Y-51743469D01*
X124833969Y-52139405D01*
X124669929Y-52635911D01*
X104326881Y-52635911D01*
X104327316Y-52138182D01*
X104049758Y-51466440D01*
X103536264Y-50952048D01*
X102865007Y-50673318D01*
X102138182Y-50672684D01*
X101466440Y-50950242D01*
X100952048Y-51463736D01*
X100673318Y-52134993D01*
X100672684Y-52861818D01*
X100552000Y-52861818D01*
X100552000Y-50552000D01*
X149448000Y-50552000D01*
X149448000Y-58183189D01*
X149448000Y-58183189D01*
G37*
X149448000Y-58183189D02*
X147338000Y-58183189D01*
X147338000Y-92184811D01*
X149448000Y-92184811D01*
X149448000Y-99448000D01*
X100552000Y-99448000D01*
X100552000Y-97861818D01*
X100672684Y-97861818D01*
X100950242Y-98533560D01*
X101463736Y-99047952D01*
X102134993Y-99326682D01*
X102861818Y-99327316D01*
X103533560Y-99049758D01*
X104047952Y-98536264D01*
X104252815Y-98042897D01*
X106672779Y-98042897D01*
X106866781Y-98512417D01*
X107225693Y-98871957D01*
X107694875Y-99066778D01*
X108202897Y-99067221D01*
X108672417Y-98873219D01*
X109031957Y-98514307D01*
X109226778Y-98045125D01*
X109227022Y-97764982D01*
X110483000Y-97764982D01*
X110483000Y-97815018D01*
X110580206Y-98303705D01*
X110857025Y-98717993D01*
X111271313Y-98994812D01*
X111760000Y-99092018D01*
X112248687Y-98994812D01*
X112477951Y-98841622D01*
X130157588Y-98841622D01*
X130242468Y-99073382D01*
X130798195Y-99220446D01*
X131367898Y-99143647D01*
X131537532Y-99073382D01*
X131622412Y-98841622D01*
X130890000Y-98109210D01*
X130157588Y-98841622D01*
X112477951Y-98841622D01*
X112662975Y-98717993D01*
X112939794Y-98303705D01*
X113037000Y-97815018D01*
X113037000Y-97764982D01*
X112939794Y-97276295D01*
X112662975Y-96862007D01*
X112248687Y-96585188D01*
X112177681Y-96571064D01*
X114323000Y-96571064D01*
X114323000Y-97228936D01*
X114412594Y-97679354D01*
X114667735Y-98061201D01*
X115049582Y-98316342D01*
X115500000Y-98405936D01*
X115950418Y-98316342D01*
X116332265Y-98061201D01*
X116587406Y-97679354D01*
X116677000Y-97228936D01*
X116677000Y-96571064D01*
X116587406Y-96120646D01*
X116382038Y-95813289D01*
X117622813Y-95813289D01*
X117786431Y-96209275D01*
X118089132Y-96512504D01*
X118484832Y-96676813D01*
X118913289Y-96677187D01*
X119309275Y-96513569D01*
X119612504Y-96210868D01*
X119776813Y-95815168D01*
X119777187Y-95386711D01*
X119613569Y-94990725D01*
X119310868Y-94687496D01*
X118915168Y-94523187D01*
X118486711Y-94522813D01*
X118090725Y-94686431D01*
X117787496Y-94989132D01*
X117623187Y-95384832D01*
X117622813Y-95813289D01*
X116382038Y-95813289D01*
X116332265Y-95738799D01*
X115950418Y-95483658D01*
X115500000Y-95394064D01*
X115049582Y-95483658D01*
X114667735Y-95738799D01*
X114412594Y-96120646D01*
X114323000Y-96571064D01*
X112177681Y-96571064D01*
X111760000Y-96487982D01*
X111271313Y-96585188D01*
X110857025Y-96862007D01*
X110580206Y-97276295D01*
X110483000Y-97764982D01*
X109227022Y-97764982D01*
X109227221Y-97537103D01*
X109033219Y-97067583D01*
X108674307Y-96708043D01*
X108205125Y-96513222D01*
X107697103Y-96512779D01*
X107227583Y-96706781D01*
X106868043Y-97065693D01*
X106673222Y-97534875D01*
X106672779Y-98042897D01*
X104252815Y-98042897D01*
X104326682Y-97865007D01*
X104327316Y-97138182D01*
X104049758Y-96466440D01*
X103536264Y-95952048D01*
X102865007Y-95673318D01*
X102138182Y-95672684D01*
X101466440Y-95950242D01*
X100952048Y-96463736D01*
X100673318Y-97134993D01*
X100672684Y-97861818D01*
X100552000Y-97861818D01*
X100552000Y-90840000D01*
X103053656Y-90840000D01*
X103053656Y-92040000D01*
X103086917Y-92216765D01*
X103191385Y-92379113D01*
X103350785Y-92488027D01*
X103533917Y-92525112D01*
X103530725Y-92526431D01*
X103227496Y-92829132D01*
X103063187Y-93224832D01*
X103062813Y-93653289D01*
X103226431Y-94049275D01*
X103529132Y-94352504D01*
X103924832Y-94516813D01*
X104353289Y-94517187D01*
X104749275Y-94353569D01*
X105052504Y-94050868D01*
X105216813Y-93655168D01*
X105216886Y-93571064D01*
X119823000Y-93571064D01*
X119823000Y-94228936D01*
X119912594Y-94679354D01*
X120167735Y-95061201D01*
X120549582Y-95316342D01*
X120970158Y-95400000D01*
X120549582Y-95483658D01*
X120167735Y-95738799D01*
X119912594Y-96120646D01*
X119823000Y-96571064D01*
X119823000Y-97228936D01*
X119912594Y-97679354D01*
X120167735Y-98061201D01*
X120549582Y-98316342D01*
X121000000Y-98405936D01*
X121450418Y-98316342D01*
X121832265Y-98061201D01*
X122087406Y-97679354D01*
X122177000Y-97228936D01*
X122177000Y-96571064D01*
X122087406Y-96120646D01*
X121832265Y-95738799D01*
X121804131Y-95720000D01*
X123173656Y-95720000D01*
X123173656Y-97320000D01*
X123206917Y-97496765D01*
X123311385Y-97659113D01*
X123470785Y-97768027D01*
X123660000Y-97806344D01*
X125260000Y-97806344D01*
X125436765Y-97773083D01*
X125599113Y-97668615D01*
X125643076Y-97604273D01*
X126234938Y-97604273D01*
X126318552Y-97835008D01*
X126870611Y-97980380D01*
X127436278Y-97903423D01*
X127601448Y-97835008D01*
X127665521Y-97658195D01*
X129419554Y-97658195D01*
X129496353Y-98227898D01*
X129566618Y-98397532D01*
X129798378Y-98482412D01*
X130530790Y-97750000D01*
X129798378Y-97017588D01*
X129566618Y-97102468D01*
X129419554Y-97658195D01*
X127665521Y-97658195D01*
X127685062Y-97604273D01*
X126960000Y-96879210D01*
X126234938Y-97604273D01*
X125643076Y-97604273D01*
X125708027Y-97509215D01*
X125746344Y-97320000D01*
X125746344Y-97198176D01*
X125875727Y-97245062D01*
X126600790Y-96520000D01*
X127319210Y-96520000D01*
X128044273Y-97245062D01*
X128275008Y-97161448D01*
X128420380Y-96609389D01*
X128383952Y-96341622D01*
X130157588Y-96341622D01*
X130215593Y-96500000D01*
X130157588Y-96658378D01*
X130890000Y-97390790D01*
X131622412Y-96658378D01*
X131564407Y-96500000D01*
X131622412Y-96341622D01*
X130890000Y-95609210D01*
X130157588Y-96341622D01*
X128383952Y-96341622D01*
X128343423Y-96043722D01*
X128275008Y-95878552D01*
X128044273Y-95794938D01*
X127319210Y-96520000D01*
X126600790Y-96520000D01*
X125875727Y-95794938D01*
X125746344Y-95841824D01*
X125746344Y-95720000D01*
X125713083Y-95543235D01*
X125643904Y-95435727D01*
X126234938Y-95435727D01*
X126960000Y-96160790D01*
X127685062Y-95435727D01*
X127601448Y-95204992D01*
X127423734Y-95158195D01*
X129419554Y-95158195D01*
X129496353Y-95727898D01*
X129566618Y-95897532D01*
X129798378Y-95982412D01*
X130530790Y-95250000D01*
X131249210Y-95250000D01*
X131981622Y-95982412D01*
X132213382Y-95897532D01*
X132233542Y-95821352D01*
X132298298Y-95978075D01*
X132660021Y-96340429D01*
X132663000Y-96341666D01*
X132663000Y-96657854D01*
X132661925Y-96658298D01*
X132299571Y-97020021D01*
X132239327Y-97165105D01*
X132213382Y-97102468D01*
X131981622Y-97017588D01*
X131249210Y-97750000D01*
X131981622Y-98482412D01*
X132213382Y-98397532D01*
X132233542Y-98321352D01*
X132298298Y-98478075D01*
X132660021Y-98840429D01*
X133132877Y-99036776D01*
X133644877Y-99037223D01*
X134118075Y-98841702D01*
X134480429Y-98479979D01*
X134640150Y-98095327D01*
X134798298Y-98478075D01*
X135160021Y-98840429D01*
X135632877Y-99036776D01*
X136144877Y-99037223D01*
X136618075Y-98841702D01*
X136618155Y-98841622D01*
X137777588Y-98841622D01*
X137862468Y-99073382D01*
X138418195Y-99220446D01*
X138987898Y-99143647D01*
X139157532Y-99073382D01*
X139242412Y-98841622D01*
X138510000Y-98109210D01*
X137777588Y-98841622D01*
X136618155Y-98841622D01*
X136980429Y-98479979D01*
X137108694Y-98171083D01*
X137116353Y-98227898D01*
X137186618Y-98397532D01*
X137418378Y-98482412D01*
X138150790Y-97750000D01*
X137418378Y-97017588D01*
X137186618Y-97102468D01*
X137119608Y-97355685D01*
X136981702Y-97021925D01*
X136619979Y-96659571D01*
X136235327Y-96499850D01*
X136618075Y-96341702D01*
X136618155Y-96341622D01*
X137777588Y-96341622D01*
X137835593Y-96500000D01*
X137777588Y-96658378D01*
X138510000Y-97390790D01*
X139242412Y-96658378D01*
X139184407Y-96500000D01*
X139242412Y-96341622D01*
X138510000Y-95609210D01*
X137777588Y-96341622D01*
X136618155Y-96341622D01*
X136980429Y-95979979D01*
X137108694Y-95671083D01*
X137116353Y-95727898D01*
X137186618Y-95897532D01*
X137418378Y-95982412D01*
X138150790Y-95250000D01*
X138869210Y-95250000D01*
X139601622Y-95982412D01*
X139833382Y-95897532D01*
X139853542Y-95821352D01*
X139918298Y-95978075D01*
X140280021Y-96340429D01*
X140283000Y-96341666D01*
X140283000Y-96657854D01*
X140281925Y-96658298D01*
X139919571Y-97020021D01*
X139859327Y-97165105D01*
X139833382Y-97102468D01*
X139601622Y-97017588D01*
X138869210Y-97750000D01*
X139601622Y-98482412D01*
X139833382Y-98397532D01*
X139853542Y-98321352D01*
X139918298Y-98478075D01*
X140280021Y-98840429D01*
X140752877Y-99036776D01*
X141264877Y-99037223D01*
X141738075Y-98841702D01*
X142100429Y-98479979D01*
X142260150Y-98095327D01*
X142418298Y-98478075D01*
X142780021Y-98840429D01*
X143252877Y-99036776D01*
X143764877Y-99037223D01*
X144238075Y-98841702D01*
X144600429Y-98479979D01*
X144796776Y-98007123D01*
X144796902Y-97861818D01*
X145672684Y-97861818D01*
X145950242Y-98533560D01*
X146463736Y-99047952D01*
X147134993Y-99326682D01*
X147861818Y-99327316D01*
X148533560Y-99049758D01*
X149047952Y-98536264D01*
X149326682Y-97865007D01*
X149327316Y-97138182D01*
X149049758Y-96466440D01*
X148536264Y-95952048D01*
X147865007Y-95673318D01*
X147138182Y-95672684D01*
X146466440Y-95950242D01*
X145952048Y-96463736D01*
X145673318Y-97134993D01*
X145672684Y-97861818D01*
X144796902Y-97861818D01*
X144797223Y-97495123D01*
X144601702Y-97021925D01*
X144239979Y-96659571D01*
X143855327Y-96499850D01*
X144238075Y-96341702D01*
X144600429Y-95979979D01*
X144796776Y-95507123D01*
X144797223Y-94995123D01*
X144601702Y-94521925D01*
X144239979Y-94159571D01*
X143767123Y-93963224D01*
X143325296Y-93962838D01*
X145173522Y-92114612D01*
X145294067Y-92034067D01*
X145451660Y-91798211D01*
X145507000Y-91520000D01*
X145507000Y-83595576D01*
X145682975Y-83477993D01*
X145959794Y-83063705D01*
X146057000Y-82575018D01*
X146057000Y-82524982D01*
X145959794Y-82036295D01*
X145682975Y-81622007D01*
X145268687Y-81345188D01*
X144780000Y-81247982D01*
X144291313Y-81345188D01*
X143877025Y-81622007D01*
X143600206Y-82036295D01*
X143503000Y-82524982D01*
X143503000Y-82575018D01*
X143600206Y-83063705D01*
X143877025Y-83477993D01*
X144053000Y-83595576D01*
X144053000Y-91178866D01*
X141268196Y-93963670D01*
X141267123Y-93963224D01*
X140755123Y-93962777D01*
X140281925Y-94158298D01*
X139919571Y-94520021D01*
X139859327Y-94665105D01*
X139833382Y-94602468D01*
X139601622Y-94517588D01*
X138869210Y-95250000D01*
X138150790Y-95250000D01*
X137418378Y-94517588D01*
X137186618Y-94602468D01*
X137119608Y-94855685D01*
X136981702Y-94521925D01*
X136619979Y-94159571D01*
X136617106Y-94158378D01*
X137777588Y-94158378D01*
X138510000Y-94890790D01*
X139242412Y-94158378D01*
X139157532Y-93926618D01*
X138601805Y-93779554D01*
X138032102Y-93856353D01*
X137862468Y-93926618D01*
X137777588Y-94158378D01*
X136617106Y-94158378D01*
X136147123Y-93963224D01*
X135635123Y-93962777D01*
X135161925Y-94158298D01*
X134799571Y-94520021D01*
X134639850Y-94904673D01*
X134481702Y-94521925D01*
X134119979Y-94159571D01*
X134077000Y-94141725D01*
X134077000Y-91741134D01*
X134125237Y-91692897D01*
X139692779Y-91692897D01*
X139886781Y-92162417D01*
X140245693Y-92521957D01*
X140714875Y-92716778D01*
X141222897Y-92717221D01*
X141692417Y-92523219D01*
X142051957Y-92164307D01*
X142246778Y-91695125D01*
X142247221Y-91187103D01*
X142053219Y-90717583D01*
X141694307Y-90358043D01*
X141225125Y-90163222D01*
X140717103Y-90162779D01*
X140247583Y-90356781D01*
X139888043Y-90715693D01*
X139693222Y-91184875D01*
X139692779Y-91692897D01*
X134125237Y-91692897D01*
X137935237Y-87882897D01*
X140962779Y-87882897D01*
X141156781Y-88352417D01*
X141515693Y-88711957D01*
X141984875Y-88906778D01*
X142492897Y-88907221D01*
X142962417Y-88713219D01*
X143321957Y-88354307D01*
X143516778Y-87885125D01*
X143517221Y-87377103D01*
X143323219Y-86907583D01*
X142964307Y-86548043D01*
X142495125Y-86353222D01*
X141987103Y-86352779D01*
X141517583Y-86546781D01*
X141158043Y-86905693D01*
X140963222Y-87374875D01*
X140962779Y-87882897D01*
X137935237Y-87882897D01*
X138944067Y-86874067D01*
X139101660Y-86638211D01*
X139119847Y-86546781D01*
X139157001Y-86360000D01*
X139157000Y-86359995D01*
X139157000Y-83628644D01*
X139511957Y-83274307D01*
X139706778Y-82805125D01*
X139707221Y-82297103D01*
X139513219Y-81827583D01*
X139154307Y-81468043D01*
X138685125Y-81273222D01*
X138177103Y-81272779D01*
X137707583Y-81466781D01*
X137348043Y-81825693D01*
X137153222Y-82294875D01*
X137152779Y-82802897D01*
X137346781Y-83272417D01*
X137703000Y-83629259D01*
X137703000Y-86058866D01*
X132835933Y-90925933D01*
X132678340Y-91161789D01*
X132678340Y-91161790D01*
X132622999Y-91440000D01*
X132623000Y-91440005D01*
X132623000Y-94197155D01*
X132299571Y-94520021D01*
X132239327Y-94665105D01*
X132213382Y-94602468D01*
X131981622Y-94517588D01*
X131249210Y-95250000D01*
X130530790Y-95250000D01*
X129798378Y-94517588D01*
X129566618Y-94602468D01*
X129419554Y-95158195D01*
X127423734Y-95158195D01*
X127049389Y-95059620D01*
X126483722Y-95136577D01*
X126318552Y-95204992D01*
X126234938Y-95435727D01*
X125643904Y-95435727D01*
X125608615Y-95380887D01*
X125449215Y-95271973D01*
X125260000Y-95233656D01*
X123660000Y-95233656D01*
X123483235Y-95266917D01*
X123320887Y-95371385D01*
X123211973Y-95530785D01*
X123173656Y-95720000D01*
X121804131Y-95720000D01*
X121450418Y-95483658D01*
X121029842Y-95400000D01*
X121450418Y-95316342D01*
X121832265Y-95061201D01*
X122087406Y-94679354D01*
X122177000Y-94228936D01*
X122177000Y-94158378D01*
X130157588Y-94158378D01*
X130890000Y-94890790D01*
X131622412Y-94158378D01*
X131537532Y-93926618D01*
X130981805Y-93779554D01*
X130412102Y-93856353D01*
X130242468Y-93926618D01*
X130157588Y-94158378D01*
X122177000Y-94158378D01*
X122177000Y-93571064D01*
X122087406Y-93120646D01*
X121832265Y-92738799D01*
X121450418Y-92483658D01*
X121000000Y-92394064D01*
X120549582Y-92483658D01*
X120167735Y-92738799D01*
X119912594Y-93120646D01*
X119823000Y-93571064D01*
X105216886Y-93571064D01*
X105217187Y-93226711D01*
X105053569Y-92830725D01*
X104750868Y-92527496D01*
X104745570Y-92525296D01*
X104916765Y-92493083D01*
X105079113Y-92388615D01*
X105188027Y-92229215D01*
X105226344Y-92040000D01*
X105226344Y-90840000D01*
X105193083Y-90663235D01*
X105088615Y-90500887D01*
X104929215Y-90391973D01*
X104740000Y-90353656D01*
X103540000Y-90353656D01*
X103363235Y-90386917D01*
X103200887Y-90491385D01*
X103091973Y-90650785D01*
X103053656Y-90840000D01*
X100552000Y-90840000D01*
X100552000Y-90262716D01*
X102452000Y-90262716D01*
X102452000Y-86630000D01*
X105443656Y-86630000D01*
X105443656Y-88630000D01*
X105476917Y-88806765D01*
X105581385Y-88969113D01*
X105740785Y-89078027D01*
X105930000Y-89116344D01*
X107235093Y-89116344D01*
X107047025Y-89242007D01*
X106770206Y-89656295D01*
X106673000Y-90144982D01*
X106673000Y-90195018D01*
X106770206Y-90683705D01*
X107047025Y-91097993D01*
X107461313Y-91374812D01*
X107950000Y-91472018D01*
X108438687Y-91374812D01*
X108852975Y-91097993D01*
X109129794Y-90683705D01*
X109227000Y-90195018D01*
X109227000Y-90144982D01*
X109129794Y-89656295D01*
X108852975Y-89242007D01*
X108438687Y-88965188D01*
X107950000Y-88867982D01*
X107828144Y-88892221D01*
X107878027Y-88819215D01*
X107916344Y-88630000D01*
X107916344Y-86630000D01*
X107883083Y-86453235D01*
X107778615Y-86290887D01*
X107619215Y-86181973D01*
X107430000Y-86143656D01*
X105930000Y-86143656D01*
X105753235Y-86176917D01*
X105590887Y-86281385D01*
X105481973Y-86440785D01*
X105443656Y-86630000D01*
X102452000Y-86630000D01*
X102452000Y-85090000D01*
X102634064Y-85090000D01*
X102727464Y-85559553D01*
X102993444Y-85957620D01*
X103391511Y-86223600D01*
X103861064Y-86317000D01*
X104418936Y-86317000D01*
X104888489Y-86223600D01*
X105286556Y-85957620D01*
X105380515Y-85817000D01*
X111033000Y-85817000D01*
X111033000Y-86551356D01*
X110678043Y-86905693D01*
X110483222Y-87374875D01*
X110482779Y-87882897D01*
X110676781Y-88352417D01*
X111033000Y-88709259D01*
X111033000Y-89091356D01*
X110678043Y-89445693D01*
X110483222Y-89914875D01*
X110482779Y-90422897D01*
X110676781Y-90892417D01*
X111035693Y-91251957D01*
X111504875Y-91446778D01*
X112012897Y-91447221D01*
X112482417Y-91253219D01*
X112841957Y-90894307D01*
X113036778Y-90425125D01*
X113037221Y-89917103D01*
X112843219Y-89447583D01*
X112487000Y-89090741D01*
X112487000Y-88708644D01*
X112841957Y-88354307D01*
X112959569Y-88071064D01*
X115323000Y-88071064D01*
X115323000Y-88728936D01*
X115412594Y-89179354D01*
X115667735Y-89561201D01*
X116049582Y-89816342D01*
X116500000Y-89905936D01*
X116950418Y-89816342D01*
X117332265Y-89561201D01*
X117587406Y-89179354D01*
X117648065Y-88874403D01*
X117786431Y-89209275D01*
X118089132Y-89512504D01*
X118484832Y-89676813D01*
X118913289Y-89677187D01*
X119309275Y-89513569D01*
X119612504Y-89210868D01*
X119741587Y-88900000D01*
X119813656Y-88900000D01*
X119813656Y-90900000D01*
X119846917Y-91076765D01*
X119951385Y-91239113D01*
X120110785Y-91348027D01*
X120300000Y-91386344D01*
X121700000Y-91386344D01*
X121876765Y-91353083D01*
X122039113Y-91248615D01*
X122148027Y-91089215D01*
X122186344Y-90900000D01*
X122186344Y-89152897D01*
X123182779Y-89152897D01*
X123376781Y-89622417D01*
X123735693Y-89981957D01*
X124189088Y-90170223D01*
X123737583Y-90356781D01*
X123378043Y-90715693D01*
X123183222Y-91184875D01*
X123182779Y-91692897D01*
X123376781Y-92162417D01*
X123735693Y-92521957D01*
X124204875Y-92716778D01*
X124712897Y-92717221D01*
X125182417Y-92523219D01*
X125541957Y-92164307D01*
X125736778Y-91695125D01*
X125736830Y-91635303D01*
X125795188Y-91928687D01*
X126072007Y-92342975D01*
X126486295Y-92619794D01*
X126974982Y-92717000D01*
X127025018Y-92717000D01*
X127513705Y-92619794D01*
X127927993Y-92342975D01*
X128204812Y-91928687D01*
X128302018Y-91440000D01*
X129507982Y-91440000D01*
X129605188Y-91928687D01*
X129882007Y-92342975D01*
X130296295Y-92619794D01*
X130784982Y-92717000D01*
X130835018Y-92717000D01*
X131323705Y-92619794D01*
X131737993Y-92342975D01*
X132014812Y-91928687D01*
X132112018Y-91440000D01*
X132014812Y-90951313D01*
X131737993Y-90537025D01*
X131323705Y-90260206D01*
X130835018Y-90163000D01*
X130784982Y-90163000D01*
X130296295Y-90260206D01*
X129882007Y-90537025D01*
X129605188Y-90951313D01*
X129507982Y-91440000D01*
X128302018Y-91440000D01*
X128204812Y-90951313D01*
X127927993Y-90537025D01*
X127513705Y-90260206D01*
X127060209Y-90170000D01*
X127513705Y-90079794D01*
X127927993Y-89802975D01*
X128204812Y-89388687D01*
X128302018Y-88900000D01*
X128204812Y-88411313D01*
X127927993Y-87997025D01*
X127513705Y-87720206D01*
X127060210Y-87630000D01*
X130777982Y-87630000D01*
X130875188Y-88118687D01*
X131152007Y-88532975D01*
X131566295Y-88809794D01*
X132054982Y-88907000D01*
X132105018Y-88907000D01*
X132593705Y-88809794D01*
X133007993Y-88532975D01*
X133284812Y-88118687D01*
X133382018Y-87630000D01*
X133284812Y-87141313D01*
X133007993Y-86727025D01*
X132593705Y-86450206D01*
X132105018Y-86353000D01*
X132054982Y-86353000D01*
X131566295Y-86450206D01*
X131152007Y-86727025D01*
X130875188Y-87141313D01*
X130777982Y-87630000D01*
X127060210Y-87630000D01*
X127025018Y-87623000D01*
X126974982Y-87623000D01*
X126486295Y-87720206D01*
X126072007Y-87997025D01*
X125795188Y-88411313D01*
X125737172Y-88702977D01*
X125737221Y-88647103D01*
X125543219Y-88177583D01*
X125184307Y-87818043D01*
X124715125Y-87623222D01*
X124207103Y-87622779D01*
X123737583Y-87816781D01*
X123378043Y-88175693D01*
X123183222Y-88644875D01*
X123182779Y-89152897D01*
X122186344Y-89152897D01*
X122186344Y-88900000D01*
X122153083Y-88723235D01*
X122048615Y-88560887D01*
X121889215Y-88451973D01*
X121700000Y-88413656D01*
X120300000Y-88413656D01*
X120123235Y-88446917D01*
X119960887Y-88551385D01*
X119851973Y-88710785D01*
X119813656Y-88900000D01*
X119741587Y-88900000D01*
X119776813Y-88815168D01*
X119777187Y-88386711D01*
X119613569Y-87990725D01*
X119310868Y-87687496D01*
X118915168Y-87523187D01*
X118486711Y-87522813D01*
X118090725Y-87686431D01*
X117787496Y-87989132D01*
X117677000Y-88255236D01*
X117677000Y-88071064D01*
X117587406Y-87620646D01*
X117332265Y-87238799D01*
X116950418Y-86983658D01*
X116500000Y-86894064D01*
X116049582Y-86983658D01*
X115667735Y-87238799D01*
X115412594Y-87620646D01*
X115323000Y-88071064D01*
X112959569Y-88071064D01*
X113036778Y-87885125D01*
X113037221Y-87377103D01*
X112843219Y-86907583D01*
X112487000Y-86550741D01*
X112487000Y-85817000D01*
X114524424Y-85817000D01*
X114642007Y-85992975D01*
X115056295Y-86269794D01*
X115544982Y-86367000D01*
X115595018Y-86367000D01*
X116083705Y-86269794D01*
X116497993Y-85992975D01*
X116774812Y-85578687D01*
X116821713Y-85342897D01*
X121912779Y-85342897D01*
X122106781Y-85812417D01*
X122465693Y-86171957D01*
X122934875Y-86366778D01*
X123442897Y-86367221D01*
X123912417Y-86173219D01*
X124271957Y-85814307D01*
X124466778Y-85345125D01*
X124467221Y-84837103D01*
X124273219Y-84367583D01*
X123914307Y-84008043D01*
X123445125Y-83813222D01*
X122937103Y-83812779D01*
X122467583Y-84006781D01*
X122108043Y-84365693D01*
X121913222Y-84834875D01*
X121912779Y-85342897D01*
X116821713Y-85342897D01*
X116872018Y-85090000D01*
X116826578Y-84861556D01*
X118411133Y-83277000D01*
X124443656Y-83277000D01*
X124443656Y-83350000D01*
X124476917Y-83526765D01*
X124581385Y-83689113D01*
X124740785Y-83798027D01*
X124930000Y-83836344D01*
X126530000Y-83836344D01*
X126706765Y-83803083D01*
X126869113Y-83698615D01*
X126978027Y-83539215D01*
X127016344Y-83350000D01*
X127016344Y-82956736D01*
X127146781Y-83272417D01*
X127505693Y-83631957D01*
X127974875Y-83826778D01*
X128482897Y-83827221D01*
X128952417Y-83633219D01*
X129311957Y-83274307D01*
X129506778Y-82805125D01*
X129507221Y-82297103D01*
X129313219Y-81827583D01*
X128954307Y-81468043D01*
X128485125Y-81273222D01*
X127977103Y-81272779D01*
X127507583Y-81466781D01*
X127148043Y-81825693D01*
X127016344Y-82142860D01*
X127016344Y-81750000D01*
X126983083Y-81573235D01*
X126878615Y-81410887D01*
X126719215Y-81301973D01*
X126530000Y-81263656D01*
X124930000Y-81263656D01*
X124753235Y-81296917D01*
X124590887Y-81401385D01*
X124481973Y-81560785D01*
X124443656Y-81750000D01*
X124443656Y-81823000D01*
X118110000Y-81823000D01*
X117831789Y-81878340D01*
X117595933Y-82035933D01*
X117595931Y-82035936D01*
X115781727Y-83850139D01*
X115595018Y-83813000D01*
X115544982Y-83813000D01*
X115056295Y-83910206D01*
X114642007Y-84187025D01*
X114524424Y-84363000D01*
X105380515Y-84363000D01*
X105286556Y-84222380D01*
X104888489Y-83956400D01*
X104418936Y-83863000D01*
X103861064Y-83863000D01*
X103391511Y-83956400D01*
X102993444Y-84222380D01*
X102727464Y-84620447D01*
X102634064Y-85090000D01*
X102452000Y-85090000D01*
X102452000Y-82271064D01*
X105453000Y-82271064D01*
X105453000Y-82828936D01*
X105546400Y-83298489D01*
X105812380Y-83696556D01*
X106210447Y-83962536D01*
X106680000Y-84055936D01*
X107149553Y-83962536D01*
X107547620Y-83696556D01*
X107813600Y-83298489D01*
X107907000Y-82828936D01*
X107907000Y-82271064D01*
X107813600Y-81801511D01*
X107547620Y-81403444D01*
X107149553Y-81137464D01*
X106680000Y-81044064D01*
X106210447Y-81137464D01*
X105812380Y-81403444D01*
X105546400Y-81801511D01*
X105453000Y-82271064D01*
X102452000Y-82271064D01*
X102452000Y-73925265D01*
X104082620Y-73925265D01*
X104284162Y-74413034D01*
X104657023Y-74786546D01*
X105119178Y-74978450D01*
X104687583Y-75156781D01*
X104328043Y-75515693D01*
X104133222Y-75984875D01*
X104132779Y-76492897D01*
X104326781Y-76962417D01*
X104685693Y-77321957D01*
X105002860Y-77453656D01*
X104610000Y-77453656D01*
X104433235Y-77486917D01*
X104270887Y-77591385D01*
X104161973Y-77750785D01*
X104123656Y-77940000D01*
X104123656Y-79540000D01*
X104156917Y-79716765D01*
X104261385Y-79879113D01*
X104420785Y-79988027D01*
X104610000Y-80026344D01*
X106210000Y-80026344D01*
X106386765Y-79993083D01*
X106399354Y-79984982D01*
X110483000Y-79984982D01*
X110483000Y-80035018D01*
X110580206Y-80523705D01*
X110857025Y-80937993D01*
X111271313Y-81214812D01*
X111760000Y-81312018D01*
X112248687Y-81214812D01*
X112662975Y-80937993D01*
X112939794Y-80523705D01*
X113037000Y-80035018D01*
X113037000Y-80010000D01*
X114267982Y-80010000D01*
X114365188Y-80498687D01*
X114642007Y-80912975D01*
X115056295Y-81189794D01*
X115544982Y-81287000D01*
X115595018Y-81287000D01*
X116083705Y-81189794D01*
X116497993Y-80912975D01*
X116774812Y-80498687D01*
X116821713Y-80262897D01*
X121912779Y-80262897D01*
X122106781Y-80732417D01*
X122465693Y-81091957D01*
X122934875Y-81286778D01*
X123442897Y-81287221D01*
X123912417Y-81093219D01*
X124271957Y-80734307D01*
X124377554Y-80480000D01*
X130793656Y-80480000D01*
X130793656Y-82080000D01*
X130826917Y-82256765D01*
X130931385Y-82419113D01*
X131090785Y-82528027D01*
X131280000Y-82566344D01*
X131673264Y-82566344D01*
X131357583Y-82696781D01*
X130998043Y-83055693D01*
X130803222Y-83524875D01*
X130802779Y-84032897D01*
X130996781Y-84502417D01*
X131355693Y-84861957D01*
X131824875Y-85056778D01*
X132332897Y-85057221D01*
X132802417Y-84863219D01*
X133161957Y-84504307D01*
X133356778Y-84035125D01*
X133357221Y-83527103D01*
X133163219Y-83057583D01*
X132804307Y-82698043D01*
X132487140Y-82566344D01*
X132880000Y-82566344D01*
X133056765Y-82533083D01*
X133219113Y-82428615D01*
X133328027Y-82269215D01*
X133366344Y-82080000D01*
X133366344Y-80480000D01*
X133333083Y-80303235D01*
X133228615Y-80140887D01*
X133069215Y-80031973D01*
X132880000Y-79993656D01*
X131280000Y-79993656D01*
X131103235Y-80026917D01*
X130940887Y-80131385D01*
X130831973Y-80290785D01*
X130793656Y-80480000D01*
X124377554Y-80480000D01*
X124466778Y-80265125D01*
X124467221Y-79757103D01*
X124273219Y-79287583D01*
X123914307Y-78928043D01*
X123445125Y-78733222D01*
X122937103Y-78732779D01*
X122467583Y-78926781D01*
X122108043Y-79285693D01*
X121913222Y-79754875D01*
X121912779Y-80262897D01*
X116821713Y-80262897D01*
X116872018Y-80010000D01*
X116774812Y-79521313D01*
X116497993Y-79107025D01*
X116083705Y-78830206D01*
X115595018Y-78733000D01*
X115544982Y-78733000D01*
X115056295Y-78830206D01*
X114642007Y-79107025D01*
X114365188Y-79521313D01*
X114267982Y-80010000D01*
X113037000Y-80010000D01*
X113037000Y-79984982D01*
X112939794Y-79496295D01*
X112662975Y-79082007D01*
X112248687Y-78805188D01*
X111760000Y-78707982D01*
X111271313Y-78805188D01*
X110857025Y-79082007D01*
X110580206Y-79496295D01*
X110483000Y-79984982D01*
X106399354Y-79984982D01*
X106549113Y-79888615D01*
X106658027Y-79729215D01*
X106696344Y-79540000D01*
X106696344Y-77940000D01*
X106663083Y-77763235D01*
X106558615Y-77600887D01*
X106399215Y-77491973D01*
X106210000Y-77453656D01*
X105816736Y-77453656D01*
X106132417Y-77323219D01*
X106491957Y-76964307D01*
X106686778Y-76495125D01*
X106687221Y-75987103D01*
X106493219Y-75517583D01*
X106323763Y-75347830D01*
X107884546Y-75347830D01*
X107884546Y-77047090D01*
X107917807Y-77223855D01*
X108022275Y-77386203D01*
X108181675Y-77495117D01*
X108370890Y-77533434D01*
X110070150Y-77533434D01*
X110246915Y-77500173D01*
X110409263Y-77395705D01*
X110462229Y-77318186D01*
X118619004Y-77318186D01*
X118708886Y-77554016D01*
X119279143Y-77707777D01*
X119864833Y-77631607D01*
X120052154Y-77554016D01*
X120142036Y-77318186D01*
X119380520Y-76556670D01*
X118619004Y-77318186D01*
X110462229Y-77318186D01*
X110518177Y-77236305D01*
X110556494Y-77047090D01*
X110556494Y-76096083D01*
X117870203Y-76096083D01*
X117946373Y-76681773D01*
X118023964Y-76869094D01*
X118259794Y-76958976D01*
X119021310Y-76197460D01*
X119739730Y-76197460D01*
X120501246Y-76958976D01*
X120737076Y-76869094D01*
X120890837Y-76298837D01*
X120814667Y-75713147D01*
X120737076Y-75525826D01*
X120501246Y-75435944D01*
X119739730Y-76197460D01*
X119021310Y-76197460D01*
X118259794Y-75435944D01*
X118023964Y-75525826D01*
X117870203Y-76096083D01*
X110556494Y-76096083D01*
X110556494Y-75347830D01*
X110523233Y-75171065D01*
X110462533Y-75076734D01*
X118619004Y-75076734D01*
X119380520Y-75838250D01*
X120142036Y-75076734D01*
X120052154Y-74840904D01*
X119481897Y-74687143D01*
X118896207Y-74763313D01*
X118708886Y-74840904D01*
X118619004Y-75076734D01*
X110462533Y-75076734D01*
X110418765Y-75008717D01*
X110259365Y-74899803D01*
X110070150Y-74861486D01*
X108370890Y-74861486D01*
X108194125Y-74894747D01*
X108031777Y-74999215D01*
X107922863Y-75158615D01*
X107884546Y-75347830D01*
X106323763Y-75347830D01*
X106134307Y-75158043D01*
X105700256Y-74977810D01*
X106159974Y-74787858D01*
X106533486Y-74414997D01*
X106735879Y-73927581D01*
X106736340Y-73399815D01*
X106534798Y-72912046D01*
X106161937Y-72538534D01*
X105674521Y-72336141D01*
X105146755Y-72335680D01*
X104658986Y-72537222D01*
X104285474Y-72910083D01*
X104083081Y-73397499D01*
X104082620Y-73925265D01*
X102452000Y-73925265D01*
X102452000Y-71372897D01*
X102862779Y-71372897D01*
X103056781Y-71842417D01*
X103415693Y-72201957D01*
X103884875Y-72396778D01*
X104392897Y-72397221D01*
X104862417Y-72203219D01*
X105221957Y-71844307D01*
X105416778Y-71375125D01*
X105417000Y-71120000D01*
X110457982Y-71120000D01*
X110555188Y-71608687D01*
X110832007Y-72022975D01*
X111246295Y-72299794D01*
X111734982Y-72397000D01*
X111785018Y-72397000D01*
X112273705Y-72299794D01*
X112687993Y-72022975D01*
X112964812Y-71608687D01*
X113022828Y-71317023D01*
X113022779Y-71372897D01*
X113216781Y-71842417D01*
X113575693Y-72201957D01*
X114044875Y-72396778D01*
X114485065Y-72397162D01*
X114380737Y-72464295D01*
X114271823Y-72623695D01*
X114233506Y-72812910D01*
X114233506Y-74512170D01*
X114266767Y-74688935D01*
X114371235Y-74851283D01*
X114530635Y-74960197D01*
X114719850Y-74998514D01*
X116419110Y-74998514D01*
X116595875Y-74965253D01*
X116758223Y-74860785D01*
X116867137Y-74701385D01*
X116905454Y-74512170D01*
X116905454Y-72812910D01*
X116872193Y-72636145D01*
X116767725Y-72473797D01*
X116608325Y-72364883D01*
X116419110Y-72326566D01*
X114723895Y-72326566D01*
X115022417Y-72203219D01*
X115381957Y-71844307D01*
X115576778Y-71375125D01*
X115577221Y-70867103D01*
X115383219Y-70397583D01*
X115024307Y-70038043D01*
X114555125Y-69843222D01*
X114047103Y-69842779D01*
X113577583Y-70036781D01*
X113218043Y-70395693D01*
X113023222Y-70864875D01*
X113023170Y-70924697D01*
X112964812Y-70631313D01*
X112687993Y-70217025D01*
X112273705Y-69940206D01*
X111785018Y-69843000D01*
X111734982Y-69843000D01*
X111246295Y-69940206D01*
X110832007Y-70217025D01*
X110555188Y-70631313D01*
X110457982Y-71120000D01*
X105417000Y-71120000D01*
X105417221Y-70867103D01*
X105223219Y-70397583D01*
X104864307Y-70038043D01*
X104395125Y-69843222D01*
X103887103Y-69842779D01*
X103417583Y-70036781D01*
X103058043Y-70395693D01*
X102863222Y-70864875D01*
X102862779Y-71372897D01*
X102452000Y-71372897D01*
X102452000Y-68301064D01*
X106723000Y-68301064D01*
X106723000Y-68858936D01*
X106816400Y-69328489D01*
X107082380Y-69726556D01*
X107480447Y-69992536D01*
X107950000Y-70085936D01*
X108419553Y-69992536D01*
X108817620Y-69726556D01*
X109083600Y-69328489D01*
X109177000Y-68858936D01*
X109177000Y-68301064D01*
X109083600Y-67831511D01*
X108817620Y-67433444D01*
X108419553Y-67167464D01*
X107950000Y-67074064D01*
X107480447Y-67167464D01*
X107082380Y-67433444D01*
X106816400Y-67831511D01*
X106723000Y-68301064D01*
X102452000Y-68301064D01*
X102452000Y-66040000D01*
X103904064Y-66040000D01*
X103997464Y-66509553D01*
X104263444Y-66907620D01*
X104661511Y-67173600D01*
X105131064Y-67267000D01*
X105688936Y-67267000D01*
X106158489Y-67173600D01*
X106556556Y-66907620D01*
X106822536Y-66509553D01*
X106833834Y-66452750D01*
X108855000Y-66452750D01*
X108855000Y-66916309D01*
X108951673Y-67149698D01*
X109130301Y-67328327D01*
X109363690Y-67425000D01*
X110077250Y-67425000D01*
X110236000Y-67266250D01*
X110236000Y-66294000D01*
X110744000Y-66294000D01*
X110744000Y-67266250D01*
X110902750Y-67425000D01*
X111616310Y-67425000D01*
X111849699Y-67328327D01*
X111973752Y-67204273D01*
X113574938Y-67204273D01*
X113658552Y-67435008D01*
X114210611Y-67580380D01*
X114776278Y-67503423D01*
X114941448Y-67435008D01*
X115025062Y-67204273D01*
X114300000Y-66479210D01*
X113574938Y-67204273D01*
X111973752Y-67204273D01*
X112028327Y-67149698D01*
X112125000Y-66916309D01*
X112125000Y-66452750D01*
X111966250Y-66294000D01*
X110744000Y-66294000D01*
X110236000Y-66294000D01*
X109013750Y-66294000D01*
X108855000Y-66452750D01*
X106833834Y-66452750D01*
X106915936Y-66040000D01*
X106914069Y-66030611D01*
X112839620Y-66030611D01*
X112916577Y-66596278D01*
X112984992Y-66761448D01*
X113215727Y-66845062D01*
X113940790Y-66120000D01*
X114659210Y-66120000D01*
X115384273Y-66845062D01*
X115615008Y-66761448D01*
X115760380Y-66209389D01*
X115683423Y-65643722D01*
X115615008Y-65478552D01*
X115384273Y-65394938D01*
X114659210Y-66120000D01*
X113940790Y-66120000D01*
X113215727Y-65394938D01*
X112984992Y-65478552D01*
X112839620Y-66030611D01*
X106914069Y-66030611D01*
X106822536Y-65570447D01*
X106556556Y-65172380D01*
X106543552Y-65163691D01*
X108855000Y-65163691D01*
X108855000Y-65627250D01*
X109013750Y-65786000D01*
X110236000Y-65786000D01*
X110236000Y-64813750D01*
X110744000Y-64813750D01*
X110744000Y-65786000D01*
X111966250Y-65786000D01*
X112125000Y-65627250D01*
X112125000Y-65163691D01*
X112071996Y-65035727D01*
X113574938Y-65035727D01*
X114300000Y-65760790D01*
X115025062Y-65035727D01*
X114941448Y-64804992D01*
X114389389Y-64659620D01*
X113823722Y-64736577D01*
X113658552Y-64804992D01*
X113574938Y-65035727D01*
X112071996Y-65035727D01*
X112028327Y-64930302D01*
X111849699Y-64751673D01*
X111616310Y-64655000D01*
X110902750Y-64655000D01*
X110744000Y-64813750D01*
X110236000Y-64813750D01*
X110077250Y-64655000D01*
X109363690Y-64655000D01*
X109130301Y-64751673D01*
X108951673Y-64930302D01*
X108855000Y-65163691D01*
X106543552Y-65163691D01*
X106158489Y-64906400D01*
X105688936Y-64813000D01*
X105131064Y-64813000D01*
X104661511Y-64906400D01*
X104263444Y-65172380D01*
X103997464Y-65570447D01*
X103904064Y-66040000D01*
X102452000Y-66040000D01*
X102452000Y-61852897D01*
X108822779Y-61852897D01*
X109016781Y-62322417D01*
X109375693Y-62681957D01*
X109844875Y-62876778D01*
X110352897Y-62877221D01*
X110822417Y-62683219D01*
X111179259Y-62327000D01*
X114929995Y-62327000D01*
X114930000Y-62327001D01*
X115162052Y-62280842D01*
X115208211Y-62271660D01*
X115444067Y-62114067D01*
X116023057Y-61535077D01*
X116022849Y-61773681D01*
X116156082Y-62096131D01*
X116402571Y-62343051D01*
X116724789Y-62476847D01*
X117073681Y-62477151D01*
X117396131Y-62343918D01*
X117643051Y-62097429D01*
X117776847Y-61775211D01*
X117777151Y-61426319D01*
X117643918Y-61103869D01*
X117592140Y-61052000D01*
X124459995Y-61052000D01*
X124460000Y-61052001D01*
X124692052Y-61005842D01*
X124738211Y-60996660D01*
X124813656Y-60946250D01*
X124813656Y-61100000D01*
X124846917Y-61276765D01*
X124951385Y-61439113D01*
X125110785Y-61548027D01*
X125300000Y-61586344D01*
X126700000Y-61586344D01*
X126876765Y-61553083D01*
X127039113Y-61448615D01*
X127148027Y-61289215D01*
X127186344Y-61100000D01*
X127186344Y-60827000D01*
X127371772Y-60827000D01*
X127223187Y-61184832D01*
X127222813Y-61613289D01*
X127386431Y-62009275D01*
X127689132Y-62312504D01*
X128084832Y-62476813D01*
X128513289Y-62477187D01*
X128909275Y-62313569D01*
X129212504Y-62010868D01*
X129323000Y-61744764D01*
X129323000Y-61928936D01*
X129412594Y-62379354D01*
X129667735Y-62761201D01*
X130049582Y-63016342D01*
X130500000Y-63105936D01*
X130898530Y-63026663D01*
X131353000Y-63481133D01*
X131353000Y-65313000D01*
X130698644Y-65313000D01*
X130344307Y-64958043D01*
X129875125Y-64763222D01*
X129367103Y-64762779D01*
X128897583Y-64956781D01*
X128538043Y-65315693D01*
X128343222Y-65784875D01*
X128342779Y-66292897D01*
X128536781Y-66762417D01*
X128895693Y-67121957D01*
X129364875Y-67316778D01*
X129872897Y-67317221D01*
X130342417Y-67123219D01*
X130699259Y-66767000D01*
X131353000Y-66767000D01*
X131353000Y-68579995D01*
X131352999Y-68580000D01*
X131399158Y-68812052D01*
X131408340Y-68858211D01*
X131565933Y-69094067D01*
X132835931Y-70364064D01*
X132835933Y-70364067D01*
X133071789Y-70521660D01*
X133350000Y-70577000D01*
X136858866Y-70577000D01*
X137657016Y-71375149D01*
X137527025Y-71462007D01*
X137250206Y-71876295D01*
X137153000Y-72364982D01*
X137153000Y-72415018D01*
X137250206Y-72903705D01*
X137527025Y-73317993D01*
X137941313Y-73594812D01*
X138430000Y-73692018D01*
X138918687Y-73594812D01*
X139332975Y-73317993D01*
X139609794Y-72903705D01*
X139707000Y-72415018D01*
X139707000Y-72364982D01*
X139609794Y-71876295D01*
X139332975Y-71462007D01*
X139157000Y-71344424D01*
X139157000Y-71120000D01*
X139101660Y-70841789D01*
X138944067Y-70605933D01*
X138944064Y-70605931D01*
X137674067Y-69335933D01*
X137630765Y-69307000D01*
X137438211Y-69178340D01*
X137392052Y-69169158D01*
X137160000Y-69122999D01*
X137159995Y-69123000D01*
X133651133Y-69123000D01*
X132807000Y-68278866D01*
X132807000Y-67124273D01*
X133894938Y-67124273D01*
X133978552Y-67355008D01*
X134530611Y-67500380D01*
X135096278Y-67423423D01*
X135261448Y-67355008D01*
X135345062Y-67124273D01*
X134620000Y-66399210D01*
X133894938Y-67124273D01*
X132807000Y-67124273D01*
X132807000Y-65950611D01*
X133159620Y-65950611D01*
X133236577Y-66516278D01*
X133304992Y-66681448D01*
X133535727Y-66765062D01*
X134260790Y-66040000D01*
X134979210Y-66040000D01*
X135704273Y-66765062D01*
X135935008Y-66681448D01*
X136080380Y-66129389D01*
X136003423Y-65563722D01*
X135935008Y-65398552D01*
X135704273Y-65314938D01*
X134979210Y-66040000D01*
X134260790Y-66040000D01*
X133535727Y-65314938D01*
X133304992Y-65398552D01*
X133159620Y-65950611D01*
X132807000Y-65950611D01*
X132807000Y-64955727D01*
X133894938Y-64955727D01*
X134620000Y-65680790D01*
X135345062Y-64955727D01*
X135261448Y-64724992D01*
X134709389Y-64579620D01*
X134143722Y-64656577D01*
X133978552Y-64724992D01*
X133894938Y-64955727D01*
X132807000Y-64955727D01*
X132807000Y-63180000D01*
X132751660Y-62901789D01*
X132594067Y-62665933D01*
X132594064Y-62665931D01*
X131677000Y-61748866D01*
X131677000Y-61271064D01*
X131587406Y-60820646D01*
X131332265Y-60438799D01*
X131299640Y-60417000D01*
X134318866Y-60417000D01*
X136606445Y-62704579D01*
X136523257Y-62904918D01*
X136522744Y-63492505D01*
X136747130Y-64035560D01*
X137162254Y-64451409D01*
X137704918Y-64676743D01*
X138292505Y-64677256D01*
X138835560Y-64452870D01*
X139250359Y-64038794D01*
X139662254Y-64451409D01*
X139773000Y-64497395D01*
X139773000Y-65313000D01*
X139588644Y-65313000D01*
X139234307Y-64958043D01*
X138765125Y-64763222D01*
X138257103Y-64762779D01*
X137787583Y-64956781D01*
X137428043Y-65315693D01*
X137233222Y-65784875D01*
X137232779Y-66292897D01*
X137426781Y-66762417D01*
X137785693Y-67121957D01*
X138254875Y-67316778D01*
X138762897Y-67317221D01*
X139232417Y-67123219D01*
X139589259Y-66767000D01*
X139773000Y-66767000D01*
X139773000Y-66839995D01*
X139772999Y-66840000D01*
X139819158Y-67072052D01*
X139828340Y-67118211D01*
X139968734Y-67328327D01*
X139985933Y-67354067D01*
X143998063Y-71366197D01*
X143698043Y-71665693D01*
X143503222Y-72134875D01*
X143502779Y-72642897D01*
X143696781Y-73112417D01*
X144055693Y-73471957D01*
X144524875Y-73666778D01*
X145032897Y-73667221D01*
X145502417Y-73473219D01*
X145861957Y-73114307D01*
X146056778Y-72645125D01*
X146057221Y-72137103D01*
X145863219Y-71667583D01*
X145507000Y-71310741D01*
X145507000Y-71120000D01*
X145451660Y-70841789D01*
X145294067Y-70605933D01*
X141812407Y-67124273D01*
X142784938Y-67124273D01*
X142868552Y-67355008D01*
X143420611Y-67500380D01*
X143986278Y-67423423D01*
X144151448Y-67355008D01*
X144235062Y-67124273D01*
X143510000Y-66399210D01*
X142784938Y-67124273D01*
X141812407Y-67124273D01*
X141227000Y-66538866D01*
X141227000Y-65950611D01*
X142049620Y-65950611D01*
X142126577Y-66516278D01*
X142194992Y-66681448D01*
X142425727Y-66765062D01*
X143150790Y-66040000D01*
X143869210Y-66040000D01*
X144594273Y-66765062D01*
X144825008Y-66681448D01*
X144970380Y-66129389D01*
X144893423Y-65563722D01*
X144825008Y-65398552D01*
X144594273Y-65314938D01*
X143869210Y-66040000D01*
X143150790Y-66040000D01*
X142425727Y-65314938D01*
X142194992Y-65398552D01*
X142049620Y-65950611D01*
X141227000Y-65950611D01*
X141227000Y-64497726D01*
X141335560Y-64452870D01*
X141750359Y-64038794D01*
X142162254Y-64451409D01*
X142704918Y-64676743D01*
X142984447Y-64676987D01*
X142868552Y-64724992D01*
X142784938Y-64955727D01*
X143510000Y-65680790D01*
X144235062Y-64955727D01*
X144151448Y-64724992D01*
X143599389Y-64579620D01*
X143494152Y-64593937D01*
X143835560Y-64452870D01*
X144251409Y-64037746D01*
X144476743Y-63495082D01*
X144477256Y-62907495D01*
X144252870Y-62364440D01*
X143837746Y-61948591D01*
X143295082Y-61723257D01*
X142707495Y-61722744D01*
X142164440Y-61947130D01*
X141749641Y-62361206D01*
X141337746Y-61948591D01*
X140795082Y-61723257D01*
X140207495Y-61722744D01*
X139664440Y-61947130D01*
X139249641Y-62361206D01*
X138837746Y-61948591D01*
X138295082Y-61723257D01*
X137707495Y-61722744D01*
X137688660Y-61730526D01*
X135389024Y-59430890D01*
X137128320Y-59430890D01*
X137237074Y-59682208D01*
X137862364Y-59861340D01*
X138508608Y-59787549D01*
X138762926Y-59682208D01*
X138871680Y-59430890D01*
X142128320Y-59430890D01*
X142237074Y-59682208D01*
X142862364Y-59861340D01*
X143508608Y-59787549D01*
X143762926Y-59682208D01*
X143871680Y-59430890D01*
X143000000Y-58559210D01*
X142128320Y-59430890D01*
X138871680Y-59430890D01*
X138000000Y-58559210D01*
X137128320Y-59430890D01*
X135389024Y-59430890D01*
X135134067Y-59175933D01*
X135109039Y-59159210D01*
X134898211Y-59018340D01*
X134852052Y-59009158D01*
X134620000Y-58962999D01*
X134619995Y-58963000D01*
X128270005Y-58963000D01*
X128270000Y-58962999D01*
X127991790Y-59018339D01*
X127991788Y-59018340D01*
X127991789Y-59018340D01*
X127755933Y-59175933D01*
X127755931Y-59175936D01*
X127558867Y-59373000D01*
X127186344Y-59373000D01*
X127186344Y-59100000D01*
X127153083Y-58923235D01*
X127048615Y-58760887D01*
X126889215Y-58651973D01*
X126700000Y-58613656D01*
X125300000Y-58613656D01*
X125123235Y-58646917D01*
X124960887Y-58751385D01*
X124851973Y-58910785D01*
X124813656Y-59100000D01*
X124813656Y-59373000D01*
X124685000Y-59373000D01*
X124406789Y-59428340D01*
X124170933Y-59585933D01*
X124158866Y-59598000D01*
X117908135Y-59598000D01*
X117981957Y-59524307D01*
X118176778Y-59055125D01*
X118177221Y-58547103D01*
X117983219Y-58077583D01*
X117624307Y-57718043D01*
X117155125Y-57523222D01*
X116647103Y-57522779D01*
X116177583Y-57716781D01*
X115818043Y-58075693D01*
X115771550Y-58187661D01*
X115159210Y-58800000D01*
X115173353Y-58814142D01*
X114814142Y-59173353D01*
X114800000Y-59159210D01*
X114074938Y-59884273D01*
X114158552Y-60115008D01*
X114710611Y-60260380D01*
X115276278Y-60183423D01*
X115348259Y-60153608D01*
X114628866Y-60873000D01*
X111178644Y-60873000D01*
X110824307Y-60518043D01*
X110355125Y-60323222D01*
X109847103Y-60322779D01*
X109377583Y-60516781D01*
X109018043Y-60875693D01*
X108823222Y-61344875D01*
X108822779Y-61852897D01*
X102452000Y-61852897D01*
X102452000Y-59052897D01*
X108822779Y-59052897D01*
X109016781Y-59522417D01*
X109375693Y-59881957D01*
X109844875Y-60076778D01*
X110352897Y-60077221D01*
X110822417Y-59883219D01*
X110944093Y-59761756D01*
X110946917Y-59776765D01*
X111051385Y-59939113D01*
X111210785Y-60048027D01*
X111400000Y-60086344D01*
X113000000Y-60086344D01*
X113176765Y-60053083D01*
X113339113Y-59948615D01*
X113448027Y-59789215D01*
X113486344Y-59600000D01*
X113486344Y-59441938D01*
X113715727Y-59525062D01*
X114440790Y-58800000D01*
X113715727Y-58074938D01*
X113486344Y-58158062D01*
X113486344Y-58000000D01*
X113453083Y-57823235D01*
X113383904Y-57715727D01*
X114074938Y-57715727D01*
X114800000Y-58440790D01*
X115525062Y-57715727D01*
X115441448Y-57484992D01*
X114889389Y-57339620D01*
X114323722Y-57416577D01*
X114158552Y-57484992D01*
X114074938Y-57715727D01*
X113383904Y-57715727D01*
X113348615Y-57660887D01*
X113189215Y-57551973D01*
X113000000Y-57513656D01*
X111400000Y-57513656D01*
X111223235Y-57546917D01*
X111060887Y-57651385D01*
X110951973Y-57810785D01*
X110946056Y-57840005D01*
X110824307Y-57718043D01*
X110355125Y-57523222D01*
X109847103Y-57522779D01*
X109377583Y-57716781D01*
X109018043Y-58075693D01*
X108823222Y-58544875D01*
X108822779Y-59052897D01*
X102452000Y-59052897D01*
X102452000Y-56204000D01*
X105015000Y-56204000D01*
X105015000Y-56954000D01*
X105236659Y-57560353D01*
X105673486Y-58035725D01*
X106146462Y-58255530D01*
X106396000Y-58154235D01*
X106396000Y-56204000D01*
X106904000Y-56204000D01*
X106904000Y-58154235D01*
X107153538Y-58255530D01*
X107626514Y-58035725D01*
X108063341Y-57560353D01*
X108285000Y-56954000D01*
X108285000Y-56204000D01*
X106904000Y-56204000D01*
X106396000Y-56204000D01*
X105015000Y-56204000D01*
X102452000Y-56204000D01*
X102452000Y-55737284D01*
X100552000Y-55737284D01*
X100552000Y-54946000D01*
X105015000Y-54946000D01*
X105015000Y-55696000D01*
X106396000Y-55696000D01*
X106396000Y-53745765D01*
X106904000Y-53745765D01*
X106904000Y-55696000D01*
X108285000Y-55696000D01*
X108285000Y-55653538D01*
X110944470Y-55653538D01*
X111164275Y-56126514D01*
X111639647Y-56563341D01*
X112246000Y-56785000D01*
X113246000Y-56785000D01*
X113246000Y-55404000D01*
X113754000Y-55404000D01*
X113754000Y-56785000D01*
X114754000Y-56785000D01*
X115360353Y-56563341D01*
X115751401Y-56204000D01*
X118715000Y-56204000D01*
X118715000Y-56954000D01*
X118936659Y-57560353D01*
X119373486Y-58035725D01*
X119846462Y-58255530D01*
X120096000Y-58154235D01*
X120096000Y-56204000D01*
X120604000Y-56204000D01*
X120604000Y-58154235D01*
X120853538Y-58255530D01*
X121269192Y-58062364D01*
X136338660Y-58062364D01*
X136412451Y-58708608D01*
X136517792Y-58962926D01*
X136769110Y-59071680D01*
X137640790Y-58200000D01*
X138359210Y-58200000D01*
X139230890Y-59071680D01*
X139482208Y-58962926D01*
X139661340Y-58337636D01*
X139629909Y-58062364D01*
X141338660Y-58062364D01*
X141412451Y-58708608D01*
X141517792Y-58962926D01*
X141769110Y-59071680D01*
X142640790Y-58200000D01*
X143359210Y-58200000D01*
X144230890Y-59071680D01*
X144482208Y-58962926D01*
X144661340Y-58337636D01*
X144587549Y-57691392D01*
X144482208Y-57437074D01*
X144230890Y-57328320D01*
X143359210Y-58200000D01*
X142640790Y-58200000D01*
X141769110Y-57328320D01*
X141517792Y-57437074D01*
X141338660Y-58062364D01*
X139629909Y-58062364D01*
X139587549Y-57691392D01*
X139482208Y-57437074D01*
X139230890Y-57328320D01*
X138359210Y-58200000D01*
X137640790Y-58200000D01*
X136769110Y-57328320D01*
X136517792Y-57437074D01*
X136338660Y-58062364D01*
X121269192Y-58062364D01*
X121326514Y-58035725D01*
X121763341Y-57560353D01*
X121985000Y-56954000D01*
X121985000Y-56204000D01*
X120604000Y-56204000D01*
X120096000Y-56204000D01*
X118715000Y-56204000D01*
X115751401Y-56204000D01*
X115835725Y-56126514D01*
X116055530Y-55653538D01*
X115954235Y-55404000D01*
X113754000Y-55404000D01*
X113246000Y-55404000D01*
X111045765Y-55404000D01*
X110944470Y-55653538D01*
X108285000Y-55653538D01*
X108285000Y-54946000D01*
X118715000Y-54946000D01*
X118715000Y-55696000D01*
X120096000Y-55696000D01*
X120096000Y-53745765D01*
X120604000Y-53745765D01*
X120604000Y-55696000D01*
X121985000Y-55696000D01*
X121985000Y-54946000D01*
X121763341Y-54339647D01*
X121326514Y-53864275D01*
X120853538Y-53644470D01*
X120604000Y-53745765D01*
X120096000Y-53745765D01*
X119846462Y-53644470D01*
X119373486Y-53864275D01*
X118936659Y-54339647D01*
X118715000Y-54946000D01*
X108285000Y-54946000D01*
X108175501Y-54646462D01*
X110944470Y-54646462D01*
X111045765Y-54896000D01*
X113246000Y-54896000D01*
X113246000Y-53515000D01*
X113754000Y-53515000D01*
X113754000Y-54896000D01*
X115954235Y-54896000D01*
X116055530Y-54646462D01*
X115835725Y-54173486D01*
X115360353Y-53736659D01*
X114888285Y-53564089D01*
X124669929Y-53564089D01*
X124833969Y-54060595D01*
X125175527Y-54456531D01*
X125544102Y-54654744D01*
X125745998Y-54548499D01*
X125745998Y-54644588D01*
X125549582Y-54683658D01*
X125167735Y-54938799D01*
X124912594Y-55320646D01*
X124823000Y-55771064D01*
X124823000Y-56428936D01*
X124912594Y-56879354D01*
X125167735Y-57261201D01*
X125549582Y-57516342D01*
X126000000Y-57605936D01*
X126450418Y-57516342D01*
X126832265Y-57261201D01*
X127027433Y-56969110D01*
X137128320Y-56969110D01*
X138000000Y-57840790D01*
X138871680Y-56969110D01*
X142128320Y-56969110D01*
X143000000Y-57840790D01*
X143871680Y-56969110D01*
X143762926Y-56717792D01*
X143137636Y-56538660D01*
X142491392Y-56612451D01*
X142237074Y-56717792D01*
X142128320Y-56969110D01*
X138871680Y-56969110D01*
X138762926Y-56717792D01*
X138137636Y-56538660D01*
X137491392Y-56612451D01*
X137237074Y-56717792D01*
X137128320Y-56969110D01*
X127027433Y-56969110D01*
X127087406Y-56879354D01*
X127177000Y-56428936D01*
X127177000Y-55771064D01*
X127087406Y-55320646D01*
X126832265Y-54938799D01*
X126450418Y-54683658D01*
X126254002Y-54644588D01*
X126254002Y-54548499D01*
X126455898Y-54654744D01*
X126532983Y-54613289D01*
X127222813Y-54613289D01*
X127386431Y-55009275D01*
X127689132Y-55312504D01*
X128084832Y-55476813D01*
X128513289Y-55477187D01*
X128909275Y-55313569D01*
X129212504Y-55010868D01*
X129376813Y-54615168D01*
X129377187Y-54186711D01*
X129213569Y-53790725D01*
X128910868Y-53487496D01*
X128515168Y-53323187D01*
X128086711Y-53322813D01*
X127690725Y-53486431D01*
X127387496Y-53789132D01*
X127223187Y-54184832D01*
X127222813Y-54613289D01*
X126532983Y-54613289D01*
X126824473Y-54456531D01*
X127166031Y-54060595D01*
X127330071Y-53564089D01*
X127180615Y-53354000D01*
X126254000Y-53354000D01*
X126254000Y-53374000D01*
X125746000Y-53374000D01*
X125746000Y-53354000D01*
X124819385Y-53354000D01*
X124669929Y-53564089D01*
X114888285Y-53564089D01*
X114754000Y-53515000D01*
X113754000Y-53515000D01*
X113246000Y-53515000D01*
X112246000Y-53515000D01*
X111639647Y-53736659D01*
X111164275Y-54173486D01*
X110944470Y-54646462D01*
X108175501Y-54646462D01*
X108063341Y-54339647D01*
X107626514Y-53864275D01*
X107153538Y-53644470D01*
X106904000Y-53745765D01*
X106396000Y-53745765D01*
X106146462Y-53644470D01*
X105673486Y-53864275D01*
X105236659Y-54339647D01*
X105015000Y-54946000D01*
X100552000Y-54946000D01*
X100552000Y-52861818D01*
X100672684Y-52861818D01*
X100950242Y-53533560D01*
X101463736Y-54047952D01*
X102134993Y-54326682D01*
X102861818Y-54327316D01*
X103533560Y-54049758D01*
X104047952Y-53536264D01*
X104326682Y-52865007D01*
X104326881Y-52635911D01*
X124669929Y-52635911D01*
X124819385Y-52846000D01*
X125746000Y-52846000D01*
X125746000Y-51651502D01*
X126254000Y-51651502D01*
X126254000Y-52846000D01*
X127180615Y-52846000D01*
X127233924Y-52771064D01*
X130323000Y-52771064D01*
X130323000Y-53428936D01*
X130412594Y-53879354D01*
X130667735Y-54261201D01*
X131049582Y-54516342D01*
X131500000Y-54605936D01*
X131950418Y-54516342D01*
X132332265Y-54261201D01*
X132587406Y-53879354D01*
X132677000Y-53428936D01*
X132677000Y-52861818D01*
X145672684Y-52861818D01*
X145950242Y-53533560D01*
X146463736Y-54047952D01*
X147134993Y-54326682D01*
X147861818Y-54327316D01*
X148533560Y-54049758D01*
X149047952Y-53536264D01*
X149326682Y-52865007D01*
X149327316Y-52138182D01*
X149049758Y-51466440D01*
X148536264Y-50952048D01*
X147865007Y-50673318D01*
X147138182Y-50672684D01*
X146466440Y-50950242D01*
X145952048Y-51463736D01*
X145673318Y-52134993D01*
X145672684Y-52861818D01*
X132677000Y-52861818D01*
X132677000Y-52771064D01*
X132587406Y-52320646D01*
X132332265Y-51938799D01*
X131950418Y-51683658D01*
X131500000Y-51594064D01*
X131049582Y-51683658D01*
X130667735Y-51938799D01*
X130412594Y-52320646D01*
X130323000Y-52771064D01*
X127233924Y-52771064D01*
X127330071Y-52635911D01*
X127166031Y-52139405D01*
X126824473Y-51743469D01*
X126455898Y-51545256D01*
X126254000Y-51651502D01*
X125746000Y-51651502D01*
X125544102Y-51545256D01*
X125175527Y-51743469D01*
X124833969Y-52139405D01*
X124669929Y-52635911D01*
X104326881Y-52635911D01*
X104327316Y-52138182D01*
X104049758Y-51466440D01*
X103536264Y-50952048D01*
X102865007Y-50673318D01*
X102138182Y-50672684D01*
X101466440Y-50950242D01*
X100952048Y-51463736D01*
X100673318Y-52134993D01*
X100672684Y-52861818D01*
X100552000Y-52861818D01*
X100552000Y-50552000D01*
X149448000Y-50552000D01*
X149448000Y-58183189D01*
M02*
